<svg width="63" height="62" viewBox="0 0 63 62" fill="none" xmlns="http://www.w3.org/2000/svg">
<g filter="url(#filter0_d)">
<path d="M42.1675 39.4076L40.7953 25.9307H22.4125L21.0403 39.4076H20V41.1881H20.8592H25.511H27.7235H39.3342H40.263H42.3486H42.9833V39.4076H42.1675ZM37.2043 27.4576C37.638 27.4576 37.9894 27.756 37.9894 28.1244C37.9894 28.4924 37.638 28.7911 37.2043 28.7911C36.7706 28.7911 36.4192 28.4927 36.4192 28.1244C36.4192 27.756 36.7709 27.4576 37.2043 27.4576ZM24.9941 28.1241C24.9941 27.7558 25.3455 27.4574 25.7792 27.4574C26.2129 27.4574 26.5643 27.7558 26.5643 28.1241C26.5643 28.4922 26.2129 28.7909 25.7792 28.7909C25.3455 28.7909 24.9941 28.4924 24.9941 28.1241Z" fill="#FBAB9A"/>
<path d="M27.8904 24.5831C28.854 22.6615 30.1672 21.5595 31.4934 21.5595C32.8194 21.5595 34.1326 22.6615 35.0959 24.5831L35.1623 24.7149H37.117L36.9836 24.4202C35.7131 21.6111 33.7119 20 31.4937 20C29.275 20 27.274 21.6111 26.003 24.4202L25.8696 24.7149H27.8243L27.8904 24.5831Z" fill="#FBAB9A"/>
</g>
<defs>
<filter id="filter0_d" x="0" y="0" width="62.9833" height="61.1881" filterUnits="userSpaceOnUse" color-interpolation-filters="sRGB">
<feFlood flood-opacity="0" result="BackgroundImageFix"/>
<feColorMatrix in="SourceAlpha" type="matrix" values="0 0 0 0 0 0 0 0 0 0 0 0 0 0 0 0 0 0 127 0"/>
<feOffset/>
<feGaussianBlur stdDeviation="10"/>
<feColorMatrix type="matrix" values="0 0 0 0 0.975 0 0 0 0 0.581912 0 0 0 0 0.495625 0 0 0 0.4 0"/>
<feBlend mode="normal" in2="BackgroundImageFix" result="effect1_dropShadow"/>
<feBlend mode="normal" in="SourceGraphic" in2="effect1_dropShadow" result="shape"/>
</filter>
</defs>
</svg>
