<svg width="292" height="329" viewBox="0 0 292 329" fill="none" xmlns="http://www.w3.org/2000/svg">
<g filter="url(#filter0_d)">
<rect x="21" y="21" width="250" height="287" stroke="#FBAB9A" stroke-width="2"/>
</g>
<g filter="url(#filter1_d)">
<path d="M247.47 40.3596C250.524 40.3596 253 42.8359 253 45.8895C253 50.9367 243 57.6404 243 57.6404C243 57.6404 233 51.1784 233 45.8894C233 42.0876 235.476 40.3596 238.53 40.3596C240.369 40.3596 241.994 41.2617 243 42.6428C244.006 41.2617 245.631 40.3596 247.47 40.3596Z" fill="#FBAB9A"/>
</g>
<g clip-path="url(#clip0)">
<g filter="url(#filter2_d)">
<path d="M83.602 215.466V217.4L82.682 218.075V218.934V219.763C83.6001 223.656 86.5355 225.499 89.7971 229.064C93.6367 232.174 95.7969 233.879 99.9179 235.633C101.619 236.263 102.367 236.296 103.537 236.093C104.959 235.958 105.266 235.591 105.224 234.589M83.602 215.466L93.6614 224.429C95.3394 225.205 96.3161 225.434 98.1698 225.166L99.9179 221.912C101.32 221.344 103.745 221.569 107.892 221.912L112.983 221.39C113.866 221.85 114.168 222.369 114.639 223.385C115.741 224.756 116.444 224.762 117.736 224.429L121.754 221.39L127.735 217.001L129.728 215.466M83.602 215.466L82.5726 200.671M105.224 234.589L103.813 232.594M105.224 234.589L105.009 232.471L105.96 231.335L107.892 230.23L108.996 229.954M105.224 234.589L106.729 235.663M111.633 239.163L110.499 238.353M111.633 239.163V237.751L112.339 236.584L113.78 235.633L115.436 235.418H116.755M111.633 239.163C112.21 239.995 112.727 240.724 113.194 241.362M118.104 245.302L117.276 242.908L116.08 242.109V241.004L116.755 239.838L118.104 240.268L119.638 242.109L120.559 244.534M118.104 245.302C117.116 245.801 116.216 245.494 113.194 241.362M118.104 245.302C118.153 245.574 118.201 245.84 118.248 246.1M127.98 308.78H125.526L125.189 305.158C124.798 299.976 124.721 296.764 125.189 289.718C125.686 285.106 125.908 281.718 125.741 277.44M127.98 308.78L127.428 301.137C127.216 294.784 127.464 291.834 128.133 286.956C128.84 283.446 128.967 280.595 129.05 276.182M127.98 308.78H176.191M119.975 239.47L120.926 241.588L120.466 244.289L120.559 244.534M119.975 239.47L124.177 238.395L123.41 235.663L119.975 236.584C119.777 236.397 119.594 236.235 119.423 236.093M119.975 239.47L119.423 236.093M119.975 239.47L116.755 235.418M116.755 235.418L115.13 234.589M116.755 235.418C117.639 235.164 118.209 235.086 119.423 236.093M115.13 234.589C120.859 230.792 123.888 228.37 128.409 222.649L130.771 218.228L129.728 215.466M115.13 234.589L114.118 234.067M129.728 215.466V207.178L130.188 195.514L130.602 190.756M98.5378 175.347L98.4465 173.198M98.5378 175.347V177.802M98.5378 175.347L99.6418 178.969L102.341 181.087L107.646 181.547L111.357 180.227L113.136 178.386L113.872 175.347L114.394 173.198M98.5378 188.454L97.9894 196.496M98.5378 188.454C96.7548 186.886 95.9211 185.73 95.0722 182.591C94.5413 180.426 94.1803 179.231 95.8389 176.452C96.3478 174.785 96.9868 174.127 98.4465 173.198M98.5378 188.454V185.814M91.0546 153.154L90.1652 154.197L87.3743 162.148L86.2396 168.931L85.1355 179.583L85.6568 198.921L87.6503 207.178L89.7971 211.752C91.7821 213.611 92.8812 214.153 94.7655 212.703L97.127 209.142C98.5957 203.607 98.0656 201.217 97.9894 196.496M91.0546 153.154L92.0973 154.197L92.772 156.561L93.9681 159.907C95.323 162.02 96.1858 162.884 98.0333 163.468M91.0546 153.154L94.8575 135.289L99.9485 120.524C100.859 118.043 101.515 116.992 102.985 115.705C104.85 114.317 105.932 114.508 107.892 115.705C111.056 119.925 111.932 121.677 113.658 124.914L120.405 139.218L125.22 155.824L127.367 170.221V174.364V181.547L126.937 183.941M98.0333 163.468L97.9551 161.626L98.2773 153.461M98.0333 163.468L98.4465 173.198M114.394 163.468C116.701 162.263 117.153 161.25 118.043 159.477L119.577 154.873L120.405 152.724L122.03 155.548C123.738 159.416 124.619 161.554 124.913 164.879L126.937 177.127V183.941M114.394 163.468L113.934 157.543L113.289 151.067M114.394 163.468V173.198M124.33 209.142L126.937 200.64V190.756V183.941M124.33 209.142L122.337 210.186L120.343 209.142L117.062 207.669L115.958 207.178M124.33 209.142L123.441 211.291L121.754 212.703L119.086 213.072C117.927 212.411 117.373 211.724 116.479 210.186L115.958 207.178M115.958 207.178C115.255 205.823 115.276 204.365 115.16 202.021L114.681 196.035M113.289 151.067L112.001 149.777L110.897 149.286H109.885L109.425 141.827L105.592 140.077L102.249 141.827L102.433 149.286C101.267 149.286 100.163 149.777 99.4272 150.299C98.5349 152.108 98.5106 152.218 98.2773 153.461M113.289 151.067L112.768 144.713L111.296 130.101C110.031 123.395 108.65 121.407 105.377 120.003C101.671 121.883 100.949 124.894 99.9485 130.685L98.5378 146.861L98.2773 153.461M97.9551 167.427C95.8731 168.083 94.9204 168.776 93.9681 171.141V179.89L94.4281 191.124L95.0722 193.979L97.127 196.035L97.9894 196.496M114.681 196.035L114.639 195.514L114.516 187.548M114.681 196.035L117.062 194.439L117.951 190.019L118.381 179.306L117.951 173.198L117.062 168.931L114.302 167.212M114.394 173.198C116.444 175.449 117.621 176.688 117.583 180.78C117.173 185.313 116.294 186.298 114.516 187.548M114.394 173.198V178.386M114.516 187.548L114.475 184.893M98.5378 177.802L96.9736 180.227V182.591L98.5378 185.814M98.5378 177.802V185.814M114.475 184.893L114.394 179.583V178.386M114.475 184.893L114.946 180.227L114.394 178.386M103.813 232.594L103.537 230.599L103.813 229.064L106.266 228.757H108.382H109.763L110.253 229.954V230.967L108.996 229.954M103.813 232.594L104.273 230.599L105.224 229.616L107.892 229.064L108.996 229.954M106.729 235.663V234.067L107.462 232.164L108.996 231.612H110.499L111.971 232.594M106.729 235.663L108.658 237.04M111.971 232.594H110.253L108.996 233.76L108.658 234.957V237.04M111.971 232.594L114.118 234.067M108.658 237.04L110.499 238.353M110.499 238.353L110.253 236.093L111.051 234.957L112.983 234.067H114.118M120.559 244.534L121.478 246.959L124.698 255.309L127.704 263.228L128.777 268.446L129.084 274.186C129.072 274.888 129.061 275.551 129.05 276.182M113.194 241.362L113.412 239.009L114.639 237.751L116.08 237.505L117.736 237.751L118.565 238.119M118.248 246.1C119.074 250.692 119.591 253.461 120.926 256.659C123.12 261.658 124.353 264.459 125.189 270.135C125.479 272.963 125.658 275.312 125.741 277.44M118.248 246.1L114.639 246.959L111.633 248.617L104.273 252.086L98.6298 255.309L94.7655 256.659L92.4653 257.15L89.0611 256.659L75.8121 254.388L69.433 252.822L62.6245 250.029L47.1061 242.109L35.7893 229.616L22.6017 218.075L19.6837 212.703M82.5726 200.671L82.0686 193.426L81.2405 168.931C82.0697 146.557 86.7609 136.179 97.311 116.841C101.535 109.329 103.405 106.825 105.377 107.018C107.652 106.64 111.086 112.102 117.644 122.98C122.785 133.144 125.22 138.85 126.906 145.664C129.649 156.745 129.797 158.466 130.188 164.879L131.016 179.583V185.998L130.602 190.756M82.5726 200.671L70.6291 203.31L19.1668 211.752L19.6837 212.703M130.602 190.756L178.461 181.547L193.09 179.306H201.83L211.798 175.439L226.366 173.536M226.366 173.536L233.358 174.272H239.032L240.412 176.544M226.366 173.536V180.688L244.982 182.591L245.326 183.573M240.412 176.544L250.502 178.631L254.581 185.998V190.019L253.6 194.439L249.521 200.64L240.412 209.142L236.134 213.685M240.412 176.544L245.326 183.573M129.05 276.182L193.09 245.302L218.896 232.471M125.741 277.44L89.7971 291.317M19.6837 212.703L1.80818 218.075L-16.6545 225.166L-38 236.584V254.388L9.75142 308.78L66.8262 300.185L75.8121 296.716M89.7971 291.317L60.6004 350.956H51.7984L75.8121 296.716M89.7971 291.317L75.8121 296.716M236.134 213.685L231.855 218.228L226.366 228.757L218.896 232.471M236.134 213.685L237.1 221.052V230.967L236.134 241.362V252.086L237.1 261.632V268.446L236.134 274.186C235.28 275.445 233.229 278.152 231.855 278.913C230.481 279.675 225.987 282.587 223.912 283.948L221.213 286.956L226.366 256.659V248.617L223.912 236.093L219.066 252.086L211.798 276.182L203.947 301.137L200.45 308.78M200.45 308.78H195.605H176.191M200.45 308.78H215.57L221.213 288.214M218.896 232.471L210.54 260.281L203.947 277.44L195.605 291.317L187.263 301.137L183.583 305.158L176.191 308.78M120.773 244.534L125.496 241.588L128.348 239.47H129.299L133.439 237.505L134.236 236.247L136.598 235.418L144.664 232.594L149.571 229.739M149.571 229.739L164.016 223.232C178 215.763 186.892 212.919 199.162 203.617M149.571 229.739L194.715 210.033L231.855 190.019M231.855 190.019L233.971 187.41L236.134 185.998H239.032L240.412 187.41L246.178 185.998L245.326 183.573M231.855 190.019L230.629 189.313L229.402 188.607L228.696 185.998L227.163 185.221M227.163 185.221L223.912 183.573L217.901 187.41L208.915 195.452C205.378 198.67 202.169 201.337 199.162 203.617M227.163 185.221L219.312 191.861L212.657 196.834L204.437 201.438L199.162 203.617M153.468 224.509V225.232L153.166 225.684L151.689 226.257H150.122L148.555 225.684V224.719L148.766 224.177L149.012 223.966M153.468 224.509L153.317 223.966L152.563 223.635L151.991 223.424L150.604 223.232L149.399 223.635L149.012 223.966M153.468 224.509L151.991 224.961H150.785L149.821 224.719L149.012 223.966M173.75 213.026L173.931 214.141L175.197 214.382L177.246 213.96L178.271 213.297L177.94 212.092M173.75 213.026C174.282 212.352 175.119 212.209 176.583 211.941L177.94 212.092M173.75 213.026L175.408 213.508L176.825 213.297L177.367 212.845L177.94 212.092M101.85 152.141L101.697 161.626L104.396 162.516L106.42 163.468L108.352 162.148H110.315V152.141C109.609 150.299 107.432 149.777 105.837 149.777C102.449 149.777 102.126 151.189 101.85 152.141ZM194.395 203.617L197.56 201.664L198.042 202.206L194.787 204.165L194.395 203.617ZM212.207 189.398L211.725 189.187L210.489 191.628L212.207 189.398Z" stroke="#FBAB9A" stroke-width="0.545418"/>
</g>
</g>
<defs>
<filter id="filter0_d" x="0" y="0" width="292" height="329" filterUnits="userSpaceOnUse" color-interpolation-filters="sRGB">
<feFlood flood-opacity="0" result="BackgroundImageFix"/>
<feColorMatrix in="SourceAlpha" type="matrix" values="0 0 0 0 0 0 0 0 0 0 0 0 0 0 0 0 0 0 127 0"/>
<feOffset/>
<feGaussianBlur stdDeviation="10"/>
<feColorMatrix type="matrix" values="0 0 0 0 1 0 0 0 0 0.566083 0 0 0 0 0.470833 0 0 0 1 0"/>
<feBlend mode="normal" in2="BackgroundImageFix" result="effect1_dropShadow"/>
<feBlend mode="normal" in="SourceGraphic" in2="effect1_dropShadow" result="shape"/>
</filter>
<filter id="filter1_d" x="213" y="19" width="60" height="60" filterUnits="userSpaceOnUse" color-interpolation-filters="sRGB">
<feFlood flood-opacity="0" result="BackgroundImageFix"/>
<feColorMatrix in="SourceAlpha" type="matrix" values="0 0 0 0 0 0 0 0 0 0 0 0 0 0 0 0 0 0 127 0"/>
<feOffset/>
<feGaussianBlur stdDeviation="10"/>
<feColorMatrix type="matrix" values="0 0 0 0 0.975 0 0 0 0 0.581912 0 0 0 0 0.495625 0 0 0 0.4 0"/>
<feBlend mode="normal" in2="BackgroundImageFix" result="effect1_dropShadow"/>
<feBlend mode="normal" in="SourceGraphic" in2="effect1_dropShadow" result="shape"/>
</filter>
<filter id="filter2_d" x="-48.2073" y="96.7922" width="312.996" height="264.371" filterUnits="userSpaceOnUse" color-interpolation-filters="sRGB">
<feFlood flood-opacity="0" result="BackgroundImageFix"/>
<feColorMatrix in="SourceAlpha" type="matrix" values="0 0 0 0 0 0 0 0 0 0 0 0 0 0 0 0 0 0 127 0"/>
<feOffset/>
<feGaussianBlur stdDeviation="4.96742"/>
<feColorMatrix type="matrix" values="0 0 0 0 1 0 0 0 0 0.566083 0 0 0 0 0.470833 0 0 0 0.6 0"/>
<feBlend mode="normal" in2="BackgroundImageFix" result="effect1_dropShadow"/>
<feBlend mode="normal" in="SourceGraphic" in2="effect1_dropShadow" result="shape"/>
</filter>
<clipPath id="clip0">
<rect width="249" height="263" fill="white" transform="translate(23 46)"/>
</clipPath>
</defs>
</svg>
