<svg width="292" height="329" viewBox="0 0 292 329" fill="none" xmlns="http://www.w3.org/2000/svg">
<g filter="url(#filter0_d)">
<rect x="21" y="21" width="250" height="287" stroke="#FBAB9A" stroke-width="2"/>
</g>
<g clip-path="url(#clip0)">
<g filter="url(#filter1_d)">
<path d="M155.816 44.2422C154.041 43.3589 153.12 42.7801 151.858 41.3222C151.715 41.083 151.611 40.8729 151.556 40.6733M155.816 44.2422C155.384 48.3083 155.704 49.4346 156.4 51.1853M155.816 44.2422L157.828 38.4093M156.4 51.1853H156.076L155.622 50.2119C155.536 49.8916 155.45 49.5892 155.361 49.3035M156.4 51.1853L157.828 50.4774M156.4 51.1853L158.282 51.3784M119.154 98.8135L126.616 94.0766C128.566 92.9926 130.162 91.9312 131.483 90.828M119.154 98.8135C114.298 97.8692 112.044 98.1784 108.577 99.7219L104.1 99.4624M119.154 98.8135L120.841 98.554M104.1 99.4624L110.654 102.317L118.505 104.589M104.1 99.4624H103.321M83.5953 108.287L90.2788 104.199L94.529 101.831M83.5953 108.287L80.286 108.806L50.8266 117.761M83.5953 108.287L99.6877 106.146M50.8266 117.761L61.2087 122.757L66.3349 128.273L70.0985 138.396L72.3696 143.522L73.862 145.988L76.5873 147.999L77.0416 149.231M50.8266 117.761L50.0479 118.095M45.8301 119.902L43.4293 120.876L35.6426 117.112L33.3715 115.685C29.3955 107.143 25.5706 103.318 19.2258 102.199M45.8301 119.902L53.8114 125.029L58.2239 134.113L61.2087 141.77M45.8301 119.902L50.0479 118.095M11.8285 148.713L8.19476 149.621L6.8321 148.259L6.57255 146.766H5.33966L3.84723 144.495L5.33966 142.873L4.88544 142.029L2.16012 142.873L1.05702 141.186L1.31657 139.953L0.0188007 139.174L-1.40875 138.752M11.8285 148.713C16.376 153.073 18.4967 155.589 20.3938 160.393M11.8285 148.713L17.9929 146.766L21.3023 144.236H27.272L33.5662 142.484M20.3938 160.393L19.68 161.274M20.3938 160.393L41.0933 154.284M17.3441 164.156L18.7716 166.882L19.68 166.557L20.1343 167.336L19.68 168.569L21.1076 170.515L23.5734 169.802M17.3441 164.156L41.6124 156.564M17.3441 164.156L19.68 161.274M23.5734 169.802L24.0276 170.515M23.5734 169.802L44.8568 163.035M24.0276 170.515L22.4703 172.397L24.1574 174.668L25.4551 175.122V176.031L27.5316 178.042L30.6462 177.134M24.0276 170.515L28.8942 169.218C29.5174 173.016 30.908 174.264 34.0853 175.901L30.6462 177.134M30.6462 177.134L31.2302 177.588M31.2302 177.588L29.7378 179.405M31.2302 177.588L47.6827 173.111M29.7378 179.405C36.2915 181.741 41.679 181.756 45.895 179.794C48.3277 178.353 49.025 177.124 49.8532 174.668M29.7378 179.405L49.6261 173.306M49.8532 174.668L51.9297 168.828V165.779L52.5272 163.767M49.8532 174.668L49.6261 173.306M61.2087 141.77C60.0145 144.526 59.177 145.922 56.9261 147.74L55.3039 150.27C55.4477 152.459 55.4483 154.047 55.2434 155.396M61.2087 141.77C63.1958 145.929 64.2206 148.611 66.5296 151.503L69.0603 153.515L69.1089 154.034M52.5272 163.767L53.8763 159.225M52.5272 163.767C55.5308 170.512 57.96 172.162 62.3767 174.863C66.135 175.887 67.9648 175.491 69.2448 173.63M52.5272 163.767C48.5832 161.395 46.7843 157.689 43.2995 152.671M53.8763 159.225C54.5985 157.935 55.0312 156.794 55.2434 155.396M53.8763 159.225C50.3347 158.692 48.3676 155.974 44.8568 151.503C41.3524 145.772 39.617 142.326 37.9786 134.697L32.2684 121.395L27.7911 111.142C25.3171 107.578 23.3513 105.627 19.2258 102.199M70.9409 168.179C70.8619 168.988 70.7353 169.867 70.5527 170.84C70.1458 171.987 69.7357 172.916 69.2448 173.63M70.9409 168.179C71.3565 163.926 70.4558 161.603 69.4496 157.667L69.1089 154.034M70.9409 168.179C67.7408 168.598 66.1723 167.868 63.7394 165.065L55.2434 155.396M41.6124 156.564L42.8215 153.774M41.6124 156.564L43.2995 158.576L42.7155 160.198H44.143L46.0248 162.664M43.2995 152.671C38.1333 146.32 35.8385 142.766 34.0853 136.449M43.2995 152.671L42.8215 153.774M34.0853 136.449V135.021L33.0471 135.67V134.113H33.6311V132.101L32.2684 131.582L33.3066 130.284L32.2684 128.403H30.7111L29.6729 126.067L31.2302 125.548L30.3218 123.212H29.2836L29.6729 122.173L28.7644 119.837H27.1422L25.9093 117.631L27.1422 117.047L26.2338 114.322L24.2222 114.646L25.0658 112.894L23.8978 111.013L22.2756 111.402L20.0694 108.936L22.1458 108.093L18.0578 104.069L16.3707 104.913L15.9814 102.966L11.7636 101.928L10.0765 103.485L8.06499 102.664M34.0853 136.449L34.28 138.396L33.3066 139.953L34.6693 140.472L34.9289 142.029L33.5662 142.484M69.2448 173.63L86.9695 158.441M143.098 119.383H127.265L121.49 127.3L113.314 135.865L86.9695 158.441M143.098 119.383L143.487 125.742L143.228 126.197L143.487 126.586M143.098 119.383L148.484 119.372M143.487 126.586L145.11 155.786L144.201 157.278M143.487 126.586L184.886 126.975M144.201 157.278L86.9695 158.441M144.201 157.278L268.852 154.812L268.463 151.373C267.548 153.225 266.793 154.009 264.634 154.553C264.197 154.366 263.836 154.188 263.531 154.008M144.201 157.278L152.572 312.946M262.298 139.369L261.65 120.941M262.298 139.369L252.565 137.876M262.298 139.369C262.217 140.613 261.228 142.273 261.161 143.327M261.65 120.941L261.13 110.234L264.375 101.928L266.192 100.955L268.593 102.837C268.902 101.864 268.337 101.539 268.737 100.76M261.65 120.941C263.397 124.517 264.388 125.827 266.192 126.456L267.723 130.544M303.373 115.749L306.423 115.165L307.266 113.608L306.682 112.829L307.915 112.051L308.24 109.974H306.228V108.482L309.278 107.963L309.472 106.405L308.694 105.432L309.797 104.134L309.472 102.447L307.266 102.123L307.007 101.214L309.667 100.63L309.472 98.9433L308.629 98.1646L309.083 97.0615L308.629 95.2446L307.591 94.7255L306.163 94.9202L305.579 93.6873L308.304 93.1033L307.461 91.2215L306.358 90.5726L307.007 89.5993L305.709 87.3931L303.568 87.5229L302.335 85.7709L304.541 85.3167L301.232 81.5531L299.545 80.5149L295.651 78.8977M303.373 115.749C301.411 119.996 300.504 122.478 300.258 127.624M303.373 115.749L298.831 116.528L290.785 118.021L286.113 119.133M300.258 127.624L304.152 129.441M300.258 127.624L283.971 130.739M304.152 129.441V131.972L303.178 132.815L303.827 133.724L303.633 135.8L301.167 136.254M304.152 129.441L284.101 133.334M301.167 136.254V137.098H302.529L303.633 138.46L303.827 139.304L301.751 141.056L302.075 141.835L301.167 144.106L297.793 144.949M301.167 136.254L282.933 139.564M297.793 144.949L299.934 146.182M297.793 144.949L297.144 144.43L298.701 138.331L304.087 137.617M299.934 146.182C295.895 150.249 293.713 152.661 287.345 152.995C285.505 152.735 284.049 151.71 282.414 150.081M299.934 146.182L281.83 149.483M299.934 146.182L282.414 150.081M268.737 100.76C269.786 98.7168 271.225 97.1169 273.459 94.7904C275.762 83.5952 278.267 79.5471 286.242 78.7629C287.79 78.6197 289.005 78.5312 290.006 78.4855M268.737 100.76L260.417 100.385M194.165 97.2561L196.891 96.0233C199.055 95.9521 200.242 96.0589 202.341 96.3477L205.197 96.737C205.723 96.8224 206.171 96.9238 206.559 97.0421M194.165 97.2561L188.261 96.9966M194.165 97.2561L192.413 99.2029L191.829 99.4364M188.261 96.9966C188.091 96.4517 188.164 96.0668 186.379 96.2828C183.643 96.3036 182.109 96.2828 179.371 96.0233C178.526 95.735 178.27 95.4086 177.999 94.7904M188.261 96.9966L187.028 97.3211L185.211 98.2944L181.642 98.4891L178.592 99.5273L175.218 101.344L173.012 101.928M155.361 49.3035C154.415 46.2688 153.213 45.1079 150.56 44.2422C146.321 43.7342 144.821 45.7423 142.384 49.9524L140.503 57.4794L140.057 61.3728M155.361 49.3035C154.766 52.3281 155.298 53.3712 154.389 55.403C154.385 60.1687 154.227 61.9096 153.959 64.871L153.935 65.1363C154.018 66.1022 154.139 66.9506 154.233 67.7967M173.661 91.9903L175.023 92.9735L176.516 93.8171L176.536 93.7996C177.046 93.3604 177.338 93.1088 177.943 94.0766V94.6606C177.962 94.7053 177.98 94.7485 177.999 94.7904M173.661 91.9903L174.569 92.714C173.535 93.1945 173.001 93.486 173.142 94.5309V95.5042C172.59 95.6726 172.291 95.8177 171.909 96.802V98.4891M173.661 91.9903L171.649 90.539M171.909 98.4891L171.195 100.501L171.909 101.928M171.909 98.4891L165.095 95.5042M171.909 101.928H173.012M171.909 101.928L170.546 101.474L165.42 101.085H159.126L157.114 101.217M173.012 101.928L173.855 101.085L173.985 98.4891C174.771 97.6715 175.092 97.1353 175.023 95.7637L176.062 93.882H177.035L177.619 94.5309L177.999 94.7904M165.095 95.5042L153.415 88.2199M165.095 95.5042L161.851 95.3095L158.801 93.7308M140.057 61.3728L141.281 67.4723M140.057 61.3728L139.166 69.1594M141.281 67.4723L141.649 69.0945M141.281 67.4723C140.849 67.7128 139.682 68.4496 139.166 69.1594M180.993 50.5364L183.264 50.2119C184.871 49.1715 185.71 48.3946 187.093 46.643C187.56 45.7464 187.629 45.2291 186.898 44.2422C184.921 42.8783 183.865 41.826 182.161 38.9862C182.679 35.3499 183.007 33.3095 184.238 29.6422C183.653 28.0044 182.51 26.9196 180.085 24.9054C177.831 23.5283 176.512 22.7765 172.493 22.0503L172.411 22.0472C169.63 21.9424 168.047 21.8827 165.679 23.348C163.405 24.2347 162.274 25.0767 160.943 28.2147L159.645 33.6653C158.473 36.1262 157.018 37.3562 152.118 39.116C151.569 39.7561 151.419 40.1831 151.556 40.6733M180.993 50.5364C181.86 47.9917 182.634 45.5095 181.902 41.5818L181.447 41.4335M180.993 50.5364L180.344 52.7426L180.539 59.6857C180.196 63.8456 179.579 65.469 178.527 68.4456L178.542 68.3421C179.055 64.7407 179.347 62.6896 179.111 59.0368L178.852 52.0076M151.556 40.6733L157.828 38.4093M164.771 35.9905L163.214 35.4822C162.384 36.9136 161.452 37.2866 159.645 37.8182L158.607 38.156M164.771 35.9905C164.319 39.2137 164.561 40.4765 166.393 41.1924C169.753 42.4105 171.39 40.3489 172.359 38.4671M164.771 35.9905L165.03 36.0752M172.359 38.4671L173.79 38.9344M172.359 38.4671L172.038 38.3626M174.31 39.1038C174.093 42.0382 174.206 43.4933 176.516 44.372C178.625 45.0467 179.833 44.4354 180.635 43.204M174.31 39.1038L173.79 38.9344M174.31 39.1038L174.699 39.2309M181.447 41.4335C181.337 41.7581 181.218 42.0689 181.088 42.3604M181.447 41.4335L181.253 41.37M181.088 42.3604C181.245 45.759 181.289 47.6618 180.279 50.9906L178.852 52.0076M181.088 42.3604C180.952 42.6645 180.802 42.9477 180.635 43.204M171.45 55.4679L176.191 54.5595C177.681 54.23 178.236 53.6293 178.852 52.0076M171.45 55.4679C171.56 55.1651 172.738 54.0993 172.882 54.0404M171.45 55.4679L170.092 58.907V60.9834C170.137 60.9841 170.18 60.9882 170.222 60.9962M171.45 55.4679C171.499 58.7498 172.044 61.0141 170.265 62.8003M172.882 54.0404C174.31 53.4564 177.111 51.1392 177.424 49.6928C178.463 47.6129 178.884 46.8812 179.436 46.124C180.014 45.0546 180.25 44.3981 180.635 43.204M172.882 54.0404C169.702 55.2084 166 58.4049 160.813 47.292M158.607 38.156L157.828 38.4093M158.607 38.156C158.602 38.9077 158.603 39.5749 158.636 40.1542M160.813 47.292C160.206 45.9929 160.306 44.9871 161.007 42.8795C160.393 42.9483 159.934 42.8809 159.591 42.6826M160.813 47.292C160.677 48.675 160.324 48.9278 159.969 49.4333M169.443 43.8529C168.922 42.9868 168.896 42.5257 170.351 41.8413M173.79 38.9344L173.92 42.8795C174.31 43.3986 174.651 44.5636 173.531 44.8911M167.431 47.292L169.962 47.1622C170.644 47.7528 171.147 47.8001 172.103 47.7462L173.466 48.9142M167.431 47.292C168.921 47.7318 169.972 47.8806 170.87 48.5897C171.707 48.4574 172.378 48.6782 173.466 48.9142M167.431 47.292C168.076 46.5927 168.967 46.4737 170.416 46.1888L171.26 46.8377L172.103 46.6431C173.204 47.6469 173.414 48.1262 173.466 48.9142M167.431 47.292C167.84 48.1465 168.192 48.6126 168.924 49.4333C170.034 49.9305 170.596 49.9596 171.584 49.9524C172.582 49.5278 172.91 49.3066 173.466 48.9142M175.672 72.5336L176.256 77.0758M175.672 72.5336C178.449 67.2694 175.045 66.1665 170.935 63.5327M175.672 72.5336C174.579 68.9934 174.436 66.6967 171.908 63.8385M176.256 77.0758L175.932 73.8963C171.574 70.6247 169.166 68.7123 165.095 64.8119C161.652 62.7857 159.785 62.1974 156.725 63.4492M176.256 77.0758C176.33 77.455 176.395 77.8221 176.451 78.1789M171.649 90.539L170.806 88.7558C169.069 87.5237 167.494 86.2616 165.95 84.9273M171.649 90.539C176.317 85.7647 177.186 82.8692 176.451 78.1789M170.265 62.8003L170.806 63.4492C170.849 63.4772 170.892 63.5051 170.935 63.5327M170.265 62.8003C169.889 61.923 170.569 61.0634 170.222 60.9962M158.636 40.1542C158.267 41.335 157.961 42.3606 157.739 43.3337M158.636 40.1542C158.709 41.4487 158.938 42.3041 159.591 42.6826M158.736 50.1471L157.828 50.4774M158.736 50.1471C157.459 48.8952 157.518 46.9207 157.739 43.3337M158.736 50.1471C161.429 53.4926 163.329 54.9703 166.588 57.739C163.454 54.1264 161.417 52.8797 159.969 49.4333M157.828 50.4774C157.165 47.5383 157.227 45.5753 157.739 43.3337M165.03 36.0752C164.619 39.4614 164.933 40.8654 167.821 41.2573C169.962 41.452 171.065 39.8298 172.038 38.3626M165.03 36.0752L172.038 38.3626M174.699 39.2309C174.413 42.1052 174.624 43.4064 176.775 44.2422C178.852 44.8911 180.487 43.6582 181.253 41.37M174.699 39.2309L181.253 41.37M170.222 60.9962L170.935 63.3843L159.969 52.6128L158.282 51.3784M170.935 63.5327C170.966 63.8454 171.898 63.6022 171.908 63.8385M158.282 51.3784L158.641 51.8342M158.641 51.8342L159.255 52.6128L162.11 55.7924L171.13 64.6821C171.8 65.0414 171.945 64.7096 171.908 63.8385M158.641 51.8342C162.63 58.5177 156.595 61.243 156.725 63.4492M156.725 63.4492L156.204 64.3576M154.233 67.7967C154.423 69.5027 154.502 71.1996 153.935 73.8314C156.203 75.8705 158.154 77.7134 159.951 79.4118M154.233 67.7967L156.204 64.3576M156.204 64.3576C159.372 62.7137 161.038 63.3304 163.992 64.6821C167.509 68.0196 169.471 69.6005 172.947 72.0145L175.802 74.4154L176.451 78.1789M263.531 154.008C262.601 153.46 262.185 152.897 261.65 152.022C260.864 149.806 260.92 147.142 261.161 143.327M263.531 154.008L251.916 148.154M250.943 147.74C247.167 148.164 245.095 147.437 241.404 146.052L227.064 140.861C216.47 140.297 210.358 137.503 199.486 132.945L184.886 126.975M250.943 147.74L251.657 143.781V140.212L251.267 137.228M250.943 147.74L251.916 148.154M184.886 126.975L173.726 119.318M173.726 119.318L155.038 119.358M173.726 119.318L175.607 118.799L179.176 119.318L181.382 120.811M146.667 82.8519L144.331 80.9691L141.649 69.0945M146.667 82.8519L151.599 86.8265M146.667 82.8519C146.858 85.0793 146.991 86.9706 147.073 88.7558M151.923 101.928L147.056 99.4624C147.168 96.2476 147.21 93.7326 147.157 91.2215M151.923 101.928L151.693 91.2215M151.923 101.928L154.064 92.2598M151.923 101.928L153.221 101.474M151.923 101.928C151.72 104.618 151.45 106.693 151.079 108.714M151.923 101.928L144.007 100.176L136.48 98.9433L130.38 98.4242L125.708 98.554M151.599 86.8265L153.026 87.9771L153.415 88.2199M151.599 86.8265L151.651 89.2749M133.137 89.2748C136.126 86.0909 137.297 82.3652 138.296 76.7514L138.913 71.3656M133.137 89.2748C138.325 88.6731 142.115 87.9782 147.073 88.7558M133.137 89.2748C132.638 89.8055 132.09 90.3212 131.483 90.828M147.073 88.7558C147.112 89.5931 147.139 90.4071 147.157 91.2215M131.483 90.828C138.629 90.2035 144.464 88.6798 147.157 91.2215M141.649 69.0945C140.874 69.2053 139.578 70.2188 138.913 71.3656M138.913 71.3656L139.166 69.1594M159.969 49.4333C159.441 48.1481 159.104 46.0051 159.591 42.6826M151.651 89.2749L153.026 89.7291M151.651 89.2749L151.693 91.2215M153.026 89.7291L153.415 88.2199M153.026 89.7291C152.841 91.2052 153.254 91.6059 154.064 92.2598M151.693 91.2215L154.064 92.2598M154.064 92.2598L155.2 92.3571M149.522 115.62C141.764 115.404 136.709 116.512 127.59 118.669C122.326 119.069 120.99 120.017 118.051 121.46L99.493 134.697L80.1562 146.961L77.0416 149.231M149.522 115.62C149.517 115.703 149.509 115.79 149.5 115.879M149.522 115.62C149.824 114.389 150.094 113.286 150.335 112.245M149.522 115.62L137.128 106.276L122.009 98.9433L120.841 98.554M69.1089 154.034L72.4994 152.541L76.198 149.846M148.484 119.372C148.501 119.39 148.522 119.389 148.546 119.372M148.484 119.372L148.546 119.372M155.2 92.3571L156.335 92.4544L158.801 93.7308M155.2 92.3571L153.221 101.474M153.221 101.474L153.74 101.44M149.5 115.879C149.357 117.258 148.791 119.194 148.546 119.372M149.5 115.879L150.625 116.018M148.546 119.372L149.782 119.369M164.576 104.783L161.462 107.573L156.595 111.532L151.079 116.074L150.625 116.018M151.339 116.074L154.583 115.879L158.217 116.528M158.217 116.528L155.038 119.358M158.217 116.528L159.126 114.841L160.683 115.36L170.546 115.62L176.646 116.333L184.043 118.215L193.452 121.525L205.586 125.158L215.319 127.884L227.648 131.582L236.148 133.204L241.404 134.762L249.321 136.384L251.267 137.228M155.038 119.358L149.782 119.369M150.625 116.018L149.782 119.369M150.625 116.018L151.514 111.856M153.74 101.44L151.514 111.856M153.74 101.44L157.114 101.217M151.514 111.856C156.249 109.849 158.338 108.567 162.046 106.276M151.079 108.714L141.022 103.485L133.884 100.695L126.941 98.9433L125.708 98.554M151.079 108.714C150.867 109.874 150.621 111.016 150.335 112.245M150.335 112.245L141.606 107.184M125.708 98.554H120.841M125.708 98.554L133.43 96.4126L141.346 94.7255L144.72 94.5958M77.0416 149.231L76.198 149.846M76.198 149.846L75.7438 148.583L72.9536 146.701L71.8505 144.3L68.4114 136.254L66.4647 130.998L65.4914 128.727L60.9492 123.601L50.0479 118.095M252.565 137.876L251.267 137.228M252.565 137.876C252.139 135.79 252.021 134.432 251.916 131.842V128.338L253.019 115.944L255.939 108.352V104.783L256.913 101.279L260.417 100.385M252.565 137.876L252.76 140.018L253.279 141.705L251.916 148.154M251.267 137.228L250.943 135.93L250.164 129.636L251.008 120.941L251.916 114.841L254.577 105.951L256.329 100.955C256.954 100.35 256.916 100.619 259.314 100.335M99.6877 106.146L94.6913 104.783L94.529 101.831M99.6877 106.146L103.257 108.287L105.463 110.364L104.23 112.7M94.529 101.831L98.7792 99.4624H103.321M103.321 99.4624L105.852 102.772L108.707 106.146L112.146 109.715L114.936 112.245M189.558 99.0082L188.65 99.9166L189.169 100.501L191.829 99.4364M191.829 99.4364L193.452 100.76L195.853 102.901L198.253 104.134L199.811 104.524M206.559 97.0421C208.24 97.5541 208.806 98.3821 209.804 99.5921L220.056 102.837H238.809L247.374 103.087M206.559 97.0421V101.344L212.01 107.444L217.46 110.104M247.374 103.087L247.699 103.096C249.311 100.939 250.971 100.103 257.237 100.241L259.314 100.335M247.374 103.087L244.065 108.547L240.496 112.31M259.314 100.335L260.417 100.385M261.161 143.327C262.462 142.093 263.07 140.687 264.115 137.941L267.723 130.544M267.723 130.544L268.787 132.101L272.628 137.487M290.006 78.4855C292.517 78.371 293.676 78.5263 295.327 78.7629L295.651 78.8977M290.006 78.4855C287.697 78.9388 286.949 78.7846 285.529 79.6742C285.517 79.6817 285.505 79.6892 285.493 79.6968M276.615 143.067L278.845 146.182C279.966 147.433 280.933 148.541 281.83 149.483M276.615 143.067L274.757 140.472L272.628 137.487M276.615 143.067L278.131 137.228L279.364 130.025L280.857 115.944L278.845 109.196L278.831 109.005C278.414 103.321 278.176 100.075 279.17 93.1682C279.339 88.9801 280.083 86.5623 283.063 82.0722C283.85 80.9904 284.628 80.245 285.493 79.6968M282.998 115.944L283.971 117.631L283.452 118.41L283.971 119.643L286.113 119.133M282.998 115.944L282.284 114.646L281.96 113.608L281.635 111.921L282.284 110.818L281.246 110.234L281.116 107.768L281.246 107.119H282.998L282.738 106.405H281.116L280.857 104.264L281.311 103.81L280.857 102.837L280.597 100.241L282.998 100.111L282.738 98.4242H281.246L281.311 96.0882L282.284 95.3744L281.635 94.2064L281.96 91.6758L283.452 91.1567V89.6642H282.284L283.906 83.954H285.529V82.0722L288.449 79.9958L290.265 80.5798V79.4118L294.548 78.7629L295.651 79.9958V78.8977M282.998 115.944C283.054 121.848 282.805 125.158 281.441 131.063M286.113 119.133C285.736 124.222 285.519 127.069 283.971 130.739M283.971 130.739L281.441 131.063M281.441 131.063L284.101 133.334M284.101 133.334L283.712 135.93L284.101 136.254L283.322 137.228L282.933 139.564M282.933 139.564L280.078 137.228L279.364 138.59L282.738 141.835M282.738 141.835L288.254 140.537L287.865 144.69L289.033 146.701L282.609 147.869L282.219 145.468L283.322 144.69L282.219 144.106L282.738 141.835ZM281.83 149.483C282.028 149.69 282.222 149.89 282.414 150.081M272.628 137.487L274.822 129.636H276.509C278.431 120.626 278.723 116.553 277.288 111.726L276.444 98.4242L277.742 89.6642L281.311 82.3318L285.493 79.6968M253.084 195.368C222.652 154.008 172.038 169.931 170.676 223.659C171.735 237.704 173.547 245.259 181.123 257.596C204.353 290.43 250.035 289.067 261.65 242.801M253.084 195.368C251.89 225.353 255.495 231.372 261.65 242.801M253.084 195.368C254.382 181.287 261.65 163.897 283.257 163.897M261.65 242.801C273.603 261.648 284.138 270.152 293.315 273.148M283.257 163.897C298.242 168.422 307.567 169.893 322.061 192.058L331.34 214.899C335.666 230.692 336.792 239.553 332.313 255.39C328.341 262.512 324.94 266.902 315.053 271.287M283.257 163.897C300.814 166.21 309.074 171.538 321.152 187.776L333.157 212.239C338.621 224.534 340.238 231.724 338.023 245.591C337.797 254.387 335.391 258.143 330.886 264.734C324.394 268.742 320.974 269.958 315.053 271.287M315.053 271.287C308.9 274.039 301.67 275.875 293.315 273.148M152.572 312.946L297.209 292.052L293.315 273.148M152.572 312.946L-24.574 328L-4.97762 163.053M-4.97762 163.053L19.68 161.274M-4.97762 163.053L-1.40875 138.752M-1.40875 138.752L-1.92786 137.812L-1.13066 137.239M-1.13066 134.956L-2.70652 135.605L-3.61496 133.853L-3.87452 131.842L-4.97762 129.506L-4.5234 129.116L-4.97762 126.975L-5.30206 124.509L-4.5234 123.147L-5.30206 122.044L-5.23717 119.772L-2.8363 118.54L-2.38208 115.879L-4.84784 116.593L-3.16074 111.142L-1.73319 110.234V108.482L1.90057 105.757H3.39301L3.97701 104.394L6.76721 103.096L8.06499 102.664M-1.13066 134.956L0.408133 134.178L1.05702 135.8L-1.13066 137.239M-1.13066 134.956V137.239M159.951 79.4118L170.676 79.0874M159.951 79.4118C160.395 79.8313 160.829 80.242 161.256 80.6447M161.256 80.6447L172.947 82.2669M161.256 80.6447C162.016 81.3607 162.753 82.0514 163.482 82.7211M163.482 82.7211L172.947 84.9273M163.482 82.7211C164.309 83.4814 165.125 84.2147 165.95 84.9273M165.95 84.9273L172.233 87.458M158.801 93.7308L157.114 101.217M41.7422 228.72V245.202L31.2302 246.366M41.7422 228.72L32.3658 229.402M41.7422 228.72C46.6892 210.431 56.7314 200.624 74.9651 200.624C95.2827 203.216 103.449 214.51 101.115 234.496C99.6228 247.279 98.404 261.296 69.5145 269.146C50.6424 266.526 44.57 260.84 38.368 246.366M32.3658 229.402L22.9894 230.083V247.279L31.2302 246.366M32.3658 229.402C46.4049 187.182 82.2326 186.543 97.5463 200.624C113.353 219.113 115.705 231.555 101.115 259.737C82.2326 283.227 57.1208 281.54 43.2346 269.146C35.4993 261.292 32.8193 256.322 31.2302 246.366M8.06499 102.664L9.88187 102.058C13.5524 101.737 16.6042 101.737 19.2258 102.199M42.8215 153.774L41.0933 154.284M41.0933 154.284L33.5662 142.484M46.0248 162.664L44.8568 163.035M46.0248 162.664L46.7386 160.393L48.2959 162.08L46.9981 164.833M44.8568 163.035L45.7653 164.351L46.7386 164.732M47.5173 172.008L49.8532 171.035L48.6852 168.439H47.5173L48.2959 167.336L47.2577 164.935L46.9981 164.833M47.5173 172.008L43.7537 173.306C43.7896 169.94 43.091 168.484 40.8337 166.492L46.7386 164.732M47.5173 172.008L47.6827 173.111M46.7386 164.732L46.9981 164.833M49.6261 173.306L49.5937 173.111L47.7119 173.306L47.6827 173.111M171.39 44.0475C171.294 43.5843 170.961 43.3994 170.351 43.0742C170.002 43.1419 169.925 42.9787 169.962 43.6582C170.32 44.0301 170.792 44.084 171.39 44.0475ZM172.428 44.1773C172.794 44.0224 173.097 44.003 173.661 43.9826C173.596 44.2997 173.488 44.4377 173.077 44.5666C172.703 44.4956 172.565 44.4065 172.428 44.1773ZM161.007 41.2573C160.211 41.252 159.819 41.0611 159.32 40.0244C159.749 39.1728 160.19 38.8717 161.007 38.3626L161.137 39.1038L161.078 39.1481C160.637 39.4785 160.373 39.6769 160.423 40.0244C160.884 40.4089 161.179 40.6093 161.007 41.2573ZM185.6 226.384C182.031 188.357 226.026 171.164 247.179 216.262C248.412 229.759 245.817 252.989 223.041 257.726C201.988 258.227 193.608 251.73 185.6 226.384ZM69.5145 177.264C28.5698 186.089 16.6391 207.304 12.8667 248.771C17.9281 282.773 44.727 299.189 68.3465 297.113C114.597 286.094 119.219 260.905 124.929 236.961C123.372 211.071 117.242 175.517 69.5145 177.264Z" stroke="#FBAB9A" stroke-width="0.6"/>
</g>
</g>
<defs>
<filter id="filter0_d" x="0" y="0" width="292" height="329" filterUnits="userSpaceOnUse" color-interpolation-filters="sRGB">
<feFlood flood-opacity="0" result="BackgroundImageFix"/>
<feColorMatrix in="SourceAlpha" type="matrix" values="0 0 0 0 0 0 0 0 0 0 0 0 0 0 0 0 0 0 127 0"/>
<feOffset/>
<feGaussianBlur stdDeviation="10"/>
<feColorMatrix type="matrix" values="0 0 0 0 1 0 0 0 0 0.566083 0 0 0 0 0.470833 0 0 0 1 0"/>
<feBlend mode="normal" in2="BackgroundImageFix" result="effect1_dropShadow"/>
<feBlend mode="normal" in="SourceGraphic" in2="effect1_dropShadow" result="shape"/>
</filter>
<filter id="filter1_d" x="-47.7511" y="-1.13587" width="409.87" height="352.302" filterUnits="userSpaceOnUse" color-interpolation-filters="sRGB">
<feFlood flood-opacity="0" result="BackgroundImageFix"/>
<feColorMatrix in="SourceAlpha" type="matrix" values="0 0 0 0 0 0 0 0 0 0 0 0 0 0 0 0 0 0 127 0"/>
<feOffset/>
<feGaussianBlur stdDeviation="11.4179"/>
<feColorMatrix type="matrix" values="0 0 0 0 0.975 0 0 0 0 0.581912 0 0 0 0 0.495625 0 0 0 0.4 0"/>
<feBlend mode="normal" in2="BackgroundImageFix" result="effect1_dropShadow"/>
<feBlend mode="normal" in="SourceGraphic" in2="effect1_dropShadow" result="shape"/>
</filter>
<clipPath id="clip0">
<rect width="249" height="287" fill="white" transform="translate(23 22)"/>
</clipPath>
</defs>
</svg>
