<svg width="151" height="88" viewBox="0 0 151 88" fill="none" xmlns="http://www.w3.org/2000/svg">
<path d="M125.733 54.6584C132.323 56.6754 135.716 64.7507 133.296 72.6599C130.875 80.5677 123.544 85.3623 116.953 83.3448C110.363 81.3278 106.97 73.2511 109.39 65.3433C111.811 57.4341 119.143 52.6413 125.733 54.6584ZM118.035 79.809C123 81.3284 128.523 77.7167 130.347 71.7588C132.17 65.8009 129.615 59.7167 124.65 58.197C119.684 56.6772 114.162 60.2892 112.338 66.2471C110.515 72.205 113.071 78.2895 118.035 79.809Z" fill="#FBAB9A"/>
<path d="M24.5674 54.4855C31.4731 56.4073 35.2868 64.453 33.0692 72.4215C30.852 80.3887 23.4299 85.309 16.5242 83.3872C9.61847 81.4654 5.8039 73.4179 8.02111 65.4508C10.2375 57.482 17.6605 52.5633 24.5674 54.4855ZM17.5156 79.8248C22.7176 81.2725 28.3099 77.566 29.9804 71.5634C31.6509 65.5608 28.7772 59.4983 23.5752 58.0506C18.372 56.6026 12.7809 60.3094 11.1104 66.312C9.4399 72.3146 12.3124 78.3768 17.5156 79.8248Z" fill="#FBAB9A"/>
<path d="M106.118 59.2805V70.9148H36.9195C37.0525 70.1005 37.1404 69.2716 37.1404 68.4219C37.1404 64.9951 36.0002 61.8381 34.0994 59.2805H106.118Z" fill="#FBAB9A"/>
<path d="M122.326 53.0474C119.086 53.0474 116.082 54.0607 113.6 55.7784L106.5 24.9312H134.175C150.998 46.0693 134.175 24.9312 150.998 46.0693V70.9163H137.48C137.613 70.102 137.701 69.2731 137.701 68.4234C137.701 59.9462 130.804 53.0474 122.326 53.0474ZM131.226 29.1783L124.764 29.5421V45.7055H144.379L131.226 29.1783Z" fill="#FBAB9A"/>
<path d="M121.355 75.7054C117.868 75.7054 115.041 72.8785 115.041 69.3914C115.041 65.9043 117.868 63.0774 121.355 63.0774C124.842 63.0774 127.669 65.9043 127.669 69.3914C127.669 72.8785 124.842 75.7054 121.355 75.7054Z" fill="#FBAB9A"/>
<path d="M20.7944 75.7054C17.3073 75.7054 14.4804 72.8785 14.4804 69.3914C14.4804 65.9043 17.3073 63.0774 20.7944 63.0774C24.2815 63.0774 27.1084 65.9043 27.1084 69.3914C27.1084 72.8785 24.2815 75.7054 20.7944 75.7054Z" fill="#FBAB9A"/>
<path d="M0 0H92L103.583 53.1879H8.8427L0 0ZM79.1645 38.3332H88.9309L82.5562 7.90713H72.7898L79.1645 38.3332ZM60.6071 38.3332H70.3748L64 7.90713H54.2324L60.6071 38.3332ZM42.0497 38.3332H51.8174L45.4426 7.90713H35.675L42.0497 38.3332ZM23.4923 38.3332H33.26L26.8852 7.90713H17.1176L23.4923 38.3332Z" fill="#FBAB9A"/>
</svg>
