<svg width="250" height="522" viewBox="0 0 250 522" fill="none" xmlns="http://www.w3.org/2000/svg">
<g filter="url(#filter0_d)">
<path d="M92.951 62.482L103.374 81.1455L113.517 57.5727M92.951 62.482L78.2358 71.3548L63.2141 96.4433L57.0828 112.047L58.6156 131.781M92.951 62.482V50.2437M113.517 57.5727C104.597 63.9434 99.6374 57.2988 92.951 50.2437M113.517 57.5727L128.513 120.249V188.231L117.783 218.826M34.0903 395.364L41.1413 410.662C43.9948 396.815 47.1833 385.668 51.2496 375.39M34.0903 395.364L27.3458 359.567L21.8276 302.659C19.6559 284.557 21.8484 276.526 27.3458 263.19L41.1413 241.161L60.1484 235.348L66.2797 218.826L63.2141 181.805L60.1484 151.516L58.6156 131.781M34.0903 395.364C36.5388 378.601 41.0153 365.15 49.8752 345.785M78.2358 327.441L112.265 274.205L114.576 243.303L117.783 218.826M78.2358 327.441C65.8428 345.815 57.5068 359.574 51.2496 375.39M78.2358 327.441L90.313 524M117.783 218.826L122.075 274.205C129.44 333.437 134.938 367.384 152.333 417.892M155.491 426.877L173.271 419.901M155.491 426.877C154.396 423.821 153.345 420.828 152.333 417.892M155.491 426.877L194.87 524M257.577 280.63L248.993 310.308L248.197 315.443M257.577 280.63L274.943 247.892M257.577 280.63L252.962 256.971M244.088 211.483L248.993 190.984M244.088 211.483C281.167 220.676 288.904 228.453 274.943 247.892M244.088 211.483L252.962 256.971M244.088 211.483L224.533 246.057M248.993 190.984L244.088 170.485L239.95 151.057M248.993 190.984V181.805V164.978L235.811 131.628L239.95 151.057M159.537 22.7011C140.096 20.9741 110.999 38.4039 92.951 50.2437M159.537 22.7011C156.492 29.5852 138.082 52.4048 130.965 52.0795M159.537 22.7011L167.207 29.5053M130.965 52.0795L153.572 69.48L167.207 29.5053M130.965 52.0795L133.625 104.398M173.271 419.901L170.206 410.662L148.133 324.382L136.703 211.483M173.271 419.901L194.87 411.427M58.6156 131.781L66.2797 138.665M66.2797 138.665C83.8438 121.06 91.1875 116.933 99.6955 120.249M66.2797 138.665V168.037M118.631 108.604L117.783 190.984C114.093 198.512 111.052 204.536 108.447 211.245M118.631 108.604L99.6955 120.249M118.631 108.604L109.126 67.779M133.625 104.398C130.62 125.805 131.701 150.5 136.177 206.282L136.703 211.483M133.625 104.398L144.454 102.048M207.262 21L244.088 33.4161L263.708 62.482L310 181.805L274.943 247.892M207.262 21L223.855 84.8169L211.899 87.4116M207.262 21L167.207 29.5053M144.454 102.048L141.082 128.263L144.454 127.535M144.454 102.048C169.635 86.9438 184.495 84.493 211.899 87.4116M211.899 87.4116L216.191 112.047L211.899 112.974M144.454 127.535L148.133 168.037L216.191 161M144.454 127.535L211.899 112.974M216.191 161L218.643 142.949L211.899 112.974M216.191 161L208.674 204.446M99.6955 120.249V142.949L96.6298 145.251M66.2797 168.037L74.2505 211.483L99.6955 186.089L96.6298 145.251M66.2797 168.037L96.6298 145.251M239.95 151.057L233.358 204.446L215.118 246.057M108.447 211.245C104.906 220.364 102.355 238.505 101.767 254.626L97.3618 264.006C85.903 267.248 77.2222 295.073 60.1484 324.382C56.1916 332.379 52.7954 339.403 49.8752 345.785M108.447 211.245C97.3516 212.63 91.1297 213.224 80.0335 211.245L74.2505 235.348L48.9014 256.971C44.2806 262.878 43.9097 272.068 45.9644 295.663L49.8752 345.785M136.703 211.483C167.95 210.406 191.985 213.269 208.674 204.446M208.674 204.446L196.877 287.667L215.118 246.057M51.2496 375.39C57.1953 436.225 61.8952 468.598 72.1036 524M159.039 524C154.842 480.064 152.335 455.188 152.333 417.892M306.769 524L247.402 320.578M247.402 320.578L235.811 395.364L194.87 411.427M247.402 320.578L248.197 315.443M248.197 315.443L235.811 285.404V277.489M235.811 277.489L252.962 256.971M235.811 277.489L224.533 246.057M215.118 246.057H224.533M194.87 411.427L230.995 524" stroke="#FBAB9A"/>
</g>
<defs>
<filter id="filter0_d" x="0.5" y="0.482422" width="330.049" height="543.705" filterUnits="userSpaceOnUse" color-interpolation-filters="sRGB">
<feFlood flood-opacity="0" result="BackgroundImageFix"/>
<feColorMatrix in="SourceAlpha" type="matrix" values="0 0 0 0 0 0 0 0 0 0 0 0 0 0 0 0 0 0 127 0"/>
<feOffset/>
<feGaussianBlur stdDeviation="10"/>
<feColorMatrix type="matrix" values="0 0 0 0 0.975 0 0 0 0 0.581912 0 0 0 0 0.495625 0 0 0 0.4 0"/>
<feBlend mode="normal" in2="BackgroundImageFix" result="effect1_dropShadow"/>
<feBlend mode="normal" in="SourceGraphic" in2="effect1_dropShadow" result="shape"/>
</filter>
</defs>
</svg>
