<svg width="433" height="101" viewBox="0 0 433 101" fill="none" xmlns="http://www.w3.org/2000/svg">
<g filter="url(#filter0_d)">
<path d="M14.2761 77.0724C16.1373 76.1418 14.974 73.5827 12.8802 73.5827C9.62427 75.2112 11.251 79.2854 12.8803 80.3295C13.8109 81.2601 18.0874 83.7197 21.2537 81.7254C24.4392 79.719 24.5108 72.6521 24.5108 72.6521L20.5558 15.653L21.719 11M14.7395 36.1261C14.0435 30.0773 18.7987 21.6519 27.3026 21.0039C38.2391 21.9345 41.4981 34.2649 39.635 43.1056C36.8451 51.2484 22.1863 58.4605 16.6007 42.6403M34.7474 54.9707C35.2624 73.2057 34.2821 79.1663 42.4248 77.7704C48.463 75.5849 46.6485 65.6137 47.3104 54.9707C48.4827 68.3522 47.65 76.2915 51.2655 77.0724C54.2899 78.4683 60.1062 73.1174 57.7797 70.093M62.8808 23.5631C62.1907 66.6288 62.497 88.3888 79.1663 71.7215M57.0646 62.1829L72.1868 60.787M128.721 56.3666L130.349 80.5622C128.972 58.1462 132.552 56.0887 141.051 57.5299C146.712 57.9663 145.239 80.3295 149.194 81.0275C153.149 81.7254 156.173 76.3745 156.173 76.3745M186.206 62.5959C183.327 55.2699 176.416 57.245 173.643 60.2694C170.367 64.4571 171.891 69.4759 175.737 74.4611C180.339 79.1768 183.67 78.9838 190.161 76.5549C199.257 70.1345 203.446 65.8534 209.936 57.4777C219.578 45.3158 221.802 28.6291 212.263 26.5353C206.684 27.8477 205.635 32.5199 204.818 42.8207V57.4777L205.981 72.1346C207 75.6765 207.85 76.77 209.936 76.5549C212.879 75.1887 214.355 74.2343 216.683 72.1346L222.965 66.551C222.965 66.551 232.736 67.0163 237.622 62.5959C242.507 58.1756 240.181 56.3144 240.181 56.3144C239.883 56.1597 239.535 55.9897 239.155 55.8154M239.155 55.8154C236.866 54.7668 234.365 54.4532 232.271 54.6859C229.897 54.9496 225.046 59.232 224.361 64.6898C224.251 69.1583 224.361 70.4822 225.989 72.8325C227.762 75.3917 231.573 77.0202 236.924 76.5549C242.251 74.7212 243.417 70.3407 244.834 66.551C244.925 61.0512 243.18 58.9817 239.155 55.8154ZM255.768 23.0455C252.255 57.9365 248.264 84.1492 260.764 78.6488C273.264 73.1483 281.764 29.6492 281.764 29.6492C285.264 22.1492 276.264 15.1492 274.148 23.0455L271.588 78.6488C272.446 54.4502 275.311 46.7758 288.339 51.8941C291.829 54.2206 291.261 64.9702 289.502 75.6243C292.922 81.002 323.469 67.2489 324.167 60.2694C318.584 47.939 304.159 51.6614 301.6 67.2489C301.6 67.2489 309.737 83.0238 324.167 72.8325M243.764 52.1492H263.501M345.571 60.9674C346.903 56.0225 346.152 54.1544 341.151 53.0573C341.151 53.0573 327.89 56.0818 333.241 64.9224C336.444 70.2153 348.397 66.8133 346.967 72.8325C346.209 76.0208 342.779 78.8814 341.151 78.8814C339.522 78.8814 333.227 79.4358 331.845 76.5549C331.059 74.9167 331.845 71.9019 331.845 71.9019M391.615 62.6482L369.28 72.6521L389.986 81.2601M403.5 56.5993C420.5 47.1912 427 68.6912 414 72.6521C430.528 72.6521 418 97.6912 403.5 87.1912M111.272 55.2034C101.501 55.6687 98.7088 61.7176 101.501 71.2562C103.475 78.003 115.46 79.1663 119.88 72.6521C122.199 62.0675 118.717 56.3666 111.272 55.2034Z" stroke="#FBAB9A" stroke-width="2.79179" stroke-linecap="round" stroke-linejoin="round"/>
</g>
<defs>
<filter id="filter0_d" x="0.29827" y="0.297782" width="432.252" height="100.168" filterUnits="userSpaceOnUse" color-interpolation-filters="sRGB">
<feFlood flood-opacity="0" result="BackgroundImageFix"/>
<feColorMatrix in="SourceAlpha" type="matrix" values="0 0 0 0 0 0 0 0 0 0 0 0 0 0 0 0 0 0 127 0"/>
<feOffset/>
<feGaussianBlur stdDeviation="4.65299"/>
<feColorMatrix type="matrix" values="0 0 0 0 0.975 0 0 0 0 0.581912 0 0 0 0 0.495625 0 0 0 0.4 0"/>
<feBlend mode="normal" in2="BackgroundImageFix" result="effect1_dropShadow"/>
<feBlend mode="normal" in="SourceGraphic" in2="effect1_dropShadow" result="shape"/>
</filter>
</defs>
</svg>
