<svg width="606" height="359" viewBox="0 0 606 359" fill="none" xmlns="http://www.w3.org/2000/svg">
<g filter="url(#filter0_d)">
<path d="M26 203.555L34.2313 192.646L48.1115 159.356L53.5991 144.407L61.0234 130.186L69.4161 105.299L85.8787 89.6233L109.201 72.0892L136.558 49.6261C142.661 45.7901 147.578 45.1189 157.701 45.2628C170.807 46.9323 178.156 47.7453 191.272 48.1717M191.272 48.1717C202.221 50.3652 207.483 53.312 216.772 58.7568L235.253 70.4731C235.761 76.0096 235.395 78.9399 229.765 82.8359C223.122 86.1024 215.319 83.7106 202.569 80.6542L193.854 78.7149L192.563 78.4582M191.272 48.1717C184.892 61.9521 185.763 68.4165 192.563 78.4582M162.785 78.7149L173.034 76.4525H182.475L192.563 78.4582M162.785 78.7149H153.343M162.785 78.7149L155.441 52.8582M153.343 78.7149C155.522 82.3511 140.915 89.4617 131.151 98.5115L131.353 98.9155M153.343 78.7149L144.628 54.555M133.088 102.39C145.726 96.3529 153.475 92.9775 173.034 87.0376L223.39 93.9866L239.61 96.7339L253.087 103.844M133.088 102.39C135.967 115.514 134.636 121.789 129.94 132.125M133.088 102.39L131.353 98.9155M253.087 103.844V106.43M253.087 103.844C254.953 89.421 257.071 82.4656 270.034 79.7654C279.178 78.9293 287.209 85.559 304.896 105.622C314.983 89.7849 326.862 72.8516 340.081 75.8061M253.087 106.43H239.61L216.772 109.016L215.723 109.277M253.087 106.43C253.189 106.454 253.291 106.479 253.392 106.505M178.521 122.51C164.441 128.302 158.259 131.921 132.2 135.115M178.521 122.51C177.313 122.785 176.131 123.068 174.97 123.358M178.521 122.51L182.475 120.647M132.2 135.115L129.94 132.125M132.2 135.115C149.679 131.54 160.771 126.91 174.97 123.358M129.94 132.125L110.573 105.299L99.6782 99.8852M340.081 75.8061C345.304 77.0661 348.171 78.02 352.105 84.5327C355.511 91.6719 356.952 96.7018 355.708 103.764M340.081 75.8061C352.638 62.9578 360.933 57.7522 376.153 49.1413L402.3 29.1023C408.754 24.603 411.44 26.2406 416.825 26.5166L439.421 35.8897C446.402 36.2183 448.796 37.8016 453.382 40.3338L499.38 57.5447C515.025 63.0976 523.931 66.1018 543.523 68.453C563.207 71.0531 572.618 70.4191 588.311 67.8874L651.417 59.7264M353.477 111.844C339.866 114.108 331.45 115.937 325.313 122.035M353.477 111.844C354.55 108.806 355.285 106.167 355.708 103.764M353.477 111.844C355.976 111.273 357.994 110.872 359.852 110.658M330.639 147.963L326.362 152.322M330.639 147.963C340.157 152.45 347.082 153.239 360.901 153.053M330.639 147.963C329.818 147.544 329.037 147.105 328.299 146.646M262.045 126.308C258.69 132.318 254.559 136.232 229.604 147.478L212.253 153.215C207.633 154.422 204.867 154.476 199.341 152.488C187.232 155.216 180.07 158.742 170.371 168.729M262.045 126.308C267.697 116.662 260.861 108.432 253.392 106.505M262.045 126.308C252.88 130.213 247.635 132.665 240.659 131.156C237.264 124.607 235.237 121.047 233.154 113.298C239.36 109.649 244.615 108.646 253.392 106.505M262.045 126.308C266.647 132.024 270.75 136.871 274.652 141.175M170.371 168.729L166.174 172.122C164.407 175.147 163.435 176.865 159.88 177.617C158.846 180.336 158.341 181.891 155.199 183.758C153.719 188.849 152.509 191.552 146.887 194.99C145.982 199.02 144.887 201.173 140.673 204.605C139.383 207.095 138.293 208.917 137.013 210.504M170.371 168.729L181.588 163.557L182.637 163.381M93.7065 260.439L103.229 251.632L106.712 245.329M274.652 141.175C285.285 152.905 294.425 160.607 308.124 170.91L326.362 152.322M274.652 141.175C273.889 145.357 273.022 147.54 269.065 150.548C265.893 153.471 262.485 153.668 256.315 153.942L242.273 155.639L232.105 156.285L222.179 155.477M222.179 155.477L225.488 158.79C229.023 158.807 230.916 159.592 233.961 163.8C234.488 167.138 234.117 168.711 232.105 170.91C230.791 174.769 230.474 177.096 224.358 179.072L216.208 180.445M222.179 155.477C218.589 154.764 215.825 154.666 211.931 155.362M216.208 180.445L201.601 184.324C199.52 185.542 197.974 186.082 196.254 186.263M216.208 180.445C204.294 173.034 201.601 158.79 211.931 155.362M160.848 202.747C165.919 201.589 169.632 199.059 175.939 195.232L192.24 186.522M160.848 202.747C158.365 209.016 156.114 211.643 150.599 214.867C148.926 219.87 147.149 222.173 142.852 225.614M160.848 202.747L157.701 183.758M142.852 225.614L129.94 246.218L112.751 271.833L101.857 286.296L86.0401 300.437L78.5351 305.042L69.8196 310.295L33.4243 328.637L26.5649 333M142.852 225.614C142.668 219.467 140.492 216.264 137.013 210.504M131.353 98.9155C131.293 94.7599 122.197 81.4599 117.593 78.7149M129.698 110.309C129.505 110.05 119.772 96.8955 109.201 88.492M174.97 123.358C170.118 117.99 168.584 114.282 168.918 105.865M182.475 120.647C181.982 114.107 179.975 110.26 176.019 103.36M182.475 120.647L191.836 116.236M191.836 116.236L196.356 114.106L215.723 109.277M191.836 116.236C188.282 111.316 188.23 107.623 189.012 100.612M215.723 109.277C215.191 104.597 216.649 101.823 220.888 96.7339M218.871 141.66C219.574 131.848 218.542 126.585 214.029 117.662M223.39 138.266C225.325 130.264 224.414 125.741 222.179 117.662M214.916 141.66C206.027 133.436 203.27 128.13 201.601 117.662M207.008 142.145C200.905 135.891 198.124 131.999 197.405 122.51M326.362 152.322C334.008 163.114 338.373 169.221 340.807 176.324C342.315 179.202 343.326 180.634 347.343 180.768C352.25 180.646 353.385 178.806 356.14 176.324C358.577 173.286 359.746 170.657 360.716 166.709M360.901 153.053L361.627 162.426C361.32 164.029 361.029 165.437 360.716 166.709M360.901 153.053H375.75M328.299 146.646C321.466 142.397 318.252 136.374 320.874 127.843C322.231 125.552 323.692 123.644 325.313 122.035M328.299 146.646L340.968 146.347C343.846 145.586 344.233 143.705 344.6 139.963L342.34 122.591C337.624 120.917 335.3 119.737 325.313 122.035M367.841 110.955C373.323 109.206 376.623 108.73 383.9 110.955L392.454 112.146M367.841 110.955C364.872 110.431 362.529 110.35 359.852 110.658M367.841 110.955C371.629 123.272 374.705 130.043 370.908 143.438M416.664 113.379L405.366 113.945L392.454 112.146M416.664 113.379L423.846 111.521C424.622 109.963 425.446 108.694 426.509 107.465M416.664 113.379C416.49 107.892 416.882 104.812 417.987 99.4754M432.642 102.067C429.839 104.203 427.954 105.796 426.509 107.465M409.401 62.6353L411.338 86.3104C413.318 93.6297 414.74 96.1594 417.701 98.5923M355.708 103.764L361.789 108.45M361.789 108.45C371.293 106.965 376.054 102.892 383.9 91.8857M361.789 108.45L359.852 110.658M383.9 91.8857C381.022 84.2878 380.304 79.4448 380.269 69.9883M383.9 91.8857C386.303 96.1564 389.168 99.163 392.454 100.868M417.701 98.5923L418.036 99.2388C418.019 99.3181 418.003 99.397 417.987 99.4754M417.701 98.5923H411.822C404.355 102.958 397.839 103.661 392.454 100.868M417.987 99.4754C420.604 94.4416 422.964 91.5547 428.446 86.3104M396.328 64.7361C396.362 72.363 396.659 76.7529 401.412 86.3104M392.454 100.868C393.107 106.284 393.404 109.213 392.454 112.146M211.931 155.362C210.356 155.644 208.597 156.055 206.524 156.608L197.405 160.891L186.672 162.7M192.24 186.522L192.724 186.263C194.076 186.349 195.198 186.374 196.254 186.263M192.24 186.522C184.599 182.794 181.173 179.534 182.637 163.381M182.637 163.381L186.672 162.7M196.254 186.263C189.942 178.658 186.405 174.392 186.672 162.7M137.013 210.504C135.765 212.05 134.336 213.371 132.361 214.867C131.568 216.934 130.713 218.476 129.54 219.996M129.54 219.996C128.502 221.34 127.216 222.666 125.502 224.321C125.073 225.123 124.719 225.844 124.352 226.502M129.54 219.996C132.276 225.225 133.461 228.284 133.733 234.421M124.352 226.502C123.349 228.304 122.252 229.632 119.288 230.866C116.897 234.711 115.006 237.232 112.136 239.835M124.352 226.502C126.764 231.251 127.753 234.031 128.165 239.431M112.136 239.835C110.916 240.942 109.518 242.064 107.829 243.309L106.712 245.329M112.136 239.835C112.59 248.348 112.683 253.117 110.25 261.571M106.712 245.329C107.338 255.012 107.136 260.409 105.731 269.974M375.75 153.053C384.773 150.944 390.308 150.175 406.577 154.346M375.75 153.053C371.307 154.991 369.372 156.661 366.631 160.406M406.577 154.346L417.955 157.901L430.463 161.799M406.577 154.346C415.346 160.043 418.644 164.033 418.278 174.223M619.38 146.508H590.812L563.859 148.124L521.653 159.598C505.4 167.803 495.95 170.815 478.076 171.314L471.539 172.042L463.55 170.91L455.642 168.973M450.477 167.641L452.333 168.163L455.642 168.973M450.477 167.641C449.44 168.68 448.758 169.178 446.442 169.133M450.477 167.641C445.905 167.056 443.202 166.387 440.067 165.12M446.442 169.133C443.983 170.053 439.762 170.063 434.176 170.426M446.442 169.133C444.118 169.518 442.719 168.571 440.067 165.12M434.176 170.426L425.622 172.85L420.941 174.547L418.278 174.223M434.176 170.426C429.529 170.598 426.896 170.713 424.734 169.133C424.336 163.839 425.833 162.456 430.463 161.799M418.278 174.223C417.021 177.762 416.771 180.169 412.871 181.253M412.871 181.253C411.069 182.026 409.748 182.011 407.061 181.496L392.535 178.991M412.871 181.253C409.096 182.421 404.236 172.446 399.475 174.547C396.539 174.866 395.236 174.773 390.033 176.89C388.956 178.32 389.658 178.735 392.535 178.991M392.535 178.991C388.334 179.285 385.989 178.877 381.802 178.344L372.925 177.213C368.362 176.903 367.981 175.679 366.631 173.819C364.486 172.445 363.159 170.609 360.716 166.709M440.067 165.12C439.225 164.78 438.352 164.397 437.404 163.961L430.463 161.799M440.067 165.12C454.76 165.744 460.628 162.317 469.925 154.346M374.62 111.844C380.656 122.058 383.242 128.072 378.332 142.226M363.241 115.803C357.273 125.405 357.222 130.679 360.901 139.963M426.509 107.465C427.462 102.078 429.902 98.4701 437.484 90.9969M455.642 168.973C465.804 166.398 469.449 163.165 474.122 155.8" stroke="#FBAB9A" stroke-width="1.01488"/>
</g>
<defs>
<filter id="filter0_d" x="0.22307" y="0.120775" width="676.631" height="358.679" filterUnits="userSpaceOnUse" color-interpolation-filters="sRGB">
<feFlood flood-opacity="0" result="BackgroundImageFix"/>
<feColorMatrix in="SourceAlpha" type="matrix" values="0 0 0 0 0 0 0 0 0 0 0 0 0 0 0 0 0 0 127 0"/>
<feOffset/>
<feGaussianBlur stdDeviation="12.686"/>
<feColorMatrix type="matrix" values="0 0 0 0 0.975 0 0 0 0 0.581912 0 0 0 0 0.495625 0 0 0 0.4 0"/>
<feBlend mode="normal" in2="BackgroundImageFix" result="effect1_dropShadow"/>
<feBlend mode="normal" in="SourceGraphic" in2="effect1_dropShadow" result="shape"/>
</filter>
</defs>
</svg>
