<svg width="229" height="47" viewBox="0 0 229 47" fill="none" xmlns="http://www.w3.org/2000/svg">
<path d="M1.76453 21.2484H2.50161V30.9645H13.9822V21.2484H14.7193V38.0002H13.9822V31.6122H2.50161V38.0002H1.76453V21.2484ZM36.168 38.0002H35.3862L32.2145 31.6122H23.3249L20.2202 38.0002H19.4384L27.792 20.8463L36.168 38.0002ZM31.9465 30.9645L27.7474 22.4545L23.6376 30.9645H31.9465ZM39.9087 37.3525H41.1372L49.2004 20.8687L57.2636 37.3525H58.3357V40.1668H57.6433V38.0002H40.5564V40.1668H39.9087V37.3525ZM56.5042 37.3525L49.1334 22.4098L41.8296 37.3525H56.5042ZM63.1051 21.2484H69.1135V21.8961H63.8422V31.0091H68.2424V31.6569H63.8422V37.3525H69.1135V38.0002H63.1051V21.2484ZM76.2614 21.8961H72.3973V21.2484H80.8179V21.8961H76.9985V38.0002H76.2614V21.8961ZM85.1945 21.2484H85.9316V27.7928C86.974 27.7928 87.8897 28.0161 88.6789 28.4629C89.483 28.8947 90.101 29.4977 90.5328 30.2721C90.9646 31.0315 91.1805 31.9026 91.1805 32.8853C91.1805 33.9277 90.9497 34.836 90.4881 35.6103C90.0414 36.3846 89.4235 36.9802 88.6343 37.3972C87.8451 37.7992 86.9442 38.0002 85.9316 38.0002H85.1945V21.2484ZM85.9316 37.3525C86.8102 37.3525 87.5919 37.1664 88.2769 36.7941C88.9618 36.4218 89.4905 35.9007 89.8627 35.2306C90.2499 34.5456 90.4435 33.7639 90.4435 32.8853C90.4435 32.0068 90.2573 31.2325 89.8851 30.5624C89.5128 29.8923 88.9842 29.3712 88.2992 28.9989C87.6143 28.6266 86.8251 28.4405 85.9316 28.4405V37.3525Z" fill="#FBAB9A"/>
<path d="M1.76453 21.2484V20.806H1.32212V21.2484H1.76453ZM2.50161 21.2484H2.94402V20.806H2.50161V21.2484ZM2.50161 30.9645H2.0592V31.4069H2.50161V30.9645ZM13.9822 30.9645V31.4069H14.4246V30.9645H13.9822ZM13.9822 21.2484V20.806H13.5398V21.2484H13.9822ZM14.7193 21.2484H15.1617V20.806H14.7193V21.2484ZM14.7193 38.0002V38.4427H15.1617V38.0002H14.7193ZM13.9822 38.0002H13.5398V38.4427H13.9822V38.0002ZM13.9822 31.6122H14.4246V31.1698H13.9822V31.6122ZM2.50161 31.6122V31.1698H2.0592V31.6122H2.50161ZM2.50161 38.0002V38.4427H2.94402V38.0002H2.50161ZM1.76453 38.0002H1.32212V38.4427H1.76453V38.0002ZM1.76453 21.6908H2.50161V20.806H1.76453V21.6908ZM2.0592 21.2484V30.9645H2.94402V21.2484H2.0592ZM2.50161 31.4069H13.9822V30.522H2.50161V31.4069ZM14.4246 30.9645V21.2484H13.5398V30.9645H14.4246ZM13.9822 21.6908H14.7193V20.806H13.9822V21.6908ZM14.2769 21.2484V38.0002H15.1617V21.2484H14.2769ZM14.7193 37.5578H13.9822V38.4427H14.7193V37.5578ZM14.4246 38.0002V31.6122H13.5398V38.0002H14.4246ZM13.9822 31.1698H2.50161V32.0546H13.9822V31.1698ZM2.0592 31.6122V38.0002H2.94402V31.6122H2.0592ZM2.50161 37.5578H1.76453V38.4427H2.50161V37.5578ZM2.20694 38.0002V21.2484H1.32212V38.0002H2.20694ZM36.168 38.0002V38.4427H36.8763L36.5655 37.8061L36.168 38.0002ZM35.3862 38.0002L34.9899 38.197L35.1119 38.4427H35.3862V38.0002ZM32.2145 31.6122L32.6108 31.4155L32.4888 31.1698H32.2145V31.6122ZM23.3249 31.6122V31.1698H23.048L22.927 31.4188L23.3249 31.6122ZM20.2202 38.0002V38.4427H20.4971L20.6181 38.1936L20.2202 38.0002ZM19.4384 38.0002L19.0407 37.8065L18.7309 38.4427H19.4384V38.0002ZM27.792 20.8463L28.1896 20.6522L27.7915 19.8369L27.3943 20.6526L27.792 20.8463ZM31.9465 30.9645V31.4069H32.6581L32.3432 30.7687L31.9465 30.9645ZM27.7474 22.4545L28.1441 22.2588L27.7431 21.446L27.349 22.2621L27.7474 22.4545ZM23.6376 30.9645L23.2392 30.7721L22.9326 31.4069H23.6376V30.9645ZM36.168 37.5578H35.3862V38.4427H36.168V37.5578ZM35.7825 37.8035L32.6108 31.4155L31.8183 31.8089L34.9899 38.197L35.7825 37.8035ZM32.2145 31.1698H23.3249V32.0546H32.2145V31.1698ZM22.927 31.4188L19.8223 37.8069L20.6181 38.1936L23.7228 31.8056L22.927 31.4188ZM20.2202 37.5578H19.4384V38.4427H20.2202V37.5578ZM19.8362 38.1939L28.1898 21.04L27.3943 20.6526L19.0407 37.8065L19.8362 38.1939ZM27.3945 21.0405L35.7704 38.1944L36.5655 37.8061L28.1896 20.6522L27.3945 21.0405ZM32.3432 30.7687L28.1441 22.2588L27.3506 22.6503L31.5497 31.1602L32.3432 30.7687ZM27.349 22.2621L23.2392 30.7721L24.036 31.1569L28.1457 22.6469L27.349 22.2621ZM23.6376 31.4069H31.9465V30.522H23.6376V31.4069ZM39.9087 37.3525V36.9101H39.4663V37.3525H39.9087ZM41.1372 37.3525V37.7949H41.4132L41.5346 37.5469L41.1372 37.3525ZM49.2004 20.8687L49.5978 20.6743L49.2004 19.8618L48.803 20.6743L49.2004 20.8687ZM57.2636 37.3525L56.8662 37.5469L56.9875 37.7949H57.2636V37.3525ZM58.3357 37.3525H58.7781V36.9101H58.3357V37.3525ZM58.3357 40.1668V40.6092H58.7781V40.1668H58.3357ZM57.6433 40.1668H57.2009V40.6092H57.6433V40.1668ZM57.6433 38.0002H58.0857V37.5578H57.6433V38.0002ZM40.5564 38.0002V37.5578H40.114V38.0002H40.5564ZM40.5564 40.1668V40.6092H40.9988V40.1668H40.5564ZM39.9087 40.1668H39.4663V40.6092H39.9087V40.1668ZM56.5042 37.3525V37.7949H57.2157L56.901 37.1568L56.5042 37.3525ZM49.1334 22.4098L49.5301 22.2141L49.1316 21.4061L48.7359 22.2156L49.1334 22.4098ZM41.8296 37.3525L41.4321 37.1582L41.1209 37.7949H41.8296V37.3525ZM39.9087 37.7949H41.1372V36.9101H39.9087V37.7949ZM41.5346 37.5469L49.5978 21.0631L48.803 20.6743L40.7397 37.1581L41.5346 37.5469ZM48.803 21.0631L56.8662 37.5469L57.661 37.1581L49.5978 20.6743L48.803 21.0631ZM57.2636 37.7949H58.3357V36.9101H57.2636V37.7949ZM57.8933 37.3525V40.1668H58.7781V37.3525H57.8933ZM58.3357 39.7244H57.6433V40.6092H58.3357V39.7244ZM58.0857 40.1668V38.0002H57.2009V40.1668H58.0857ZM57.6433 37.5578H40.5564V38.4427H57.6433V37.5578ZM40.114 38.0002V40.1668H40.9988V38.0002H40.114ZM40.5564 39.7244H39.9087V40.6092H40.5564V39.7244ZM40.3511 40.1668V37.3525H39.4663V40.1668H40.3511ZM56.901 37.1568L49.5301 22.2141L48.7366 22.6056L56.1074 37.5482L56.901 37.1568ZM48.7359 22.2156L41.4321 37.1582L42.227 37.5468L49.5308 22.6041L48.7359 22.2156ZM41.8296 37.7949H56.5042V36.9101H41.8296V37.7949ZM63.1051 21.2484V20.806H62.6627V21.2484H63.1051ZM69.1135 21.2484H69.5559V20.806H69.1135V21.2484ZM69.1135 21.8961V22.3385H69.5559V21.8961H69.1135ZM63.8422 21.8961V21.4537H63.3998V21.8961H63.8422ZM63.8422 31.0091H63.3998V31.4515H63.8422V31.0091ZM68.2424 31.0091H68.6848V30.5667H68.2424V31.0091ZM68.2424 31.6569V32.0993H68.6848V31.6569H68.2424ZM63.8422 31.6569V31.2145H63.3998V31.6569H63.8422ZM63.8422 37.3525H63.3998V37.7949H63.8422V37.3525ZM69.1135 37.3525H69.5559V36.9101H69.1135V37.3525ZM69.1135 38.0002V38.4427H69.5559V38.0002H69.1135ZM63.1051 38.0002H62.6627V38.4427H63.1051V38.0002ZM63.1051 21.6908H69.1135V20.806H63.1051V21.6908ZM68.671 21.2484V21.8961H69.5559V21.2484H68.671ZM69.1135 21.4537H63.8422V22.3385H69.1135V21.4537ZM63.3998 21.8961V31.0091H64.2846V21.8961H63.3998ZM63.8422 31.4515H68.2424V30.5667H63.8422V31.4515ZM67.7999 31.0091V31.6569H68.6848V31.0091H67.7999ZM68.2424 31.2145H63.8422V32.0993H68.2424V31.2145ZM63.3998 31.6569V37.3525H64.2846V31.6569H63.3998ZM63.8422 37.7949H69.1135V36.9101H63.8422V37.7949ZM68.671 37.3525V38.0002H69.5559V37.3525H68.671ZM69.1135 37.5578H63.1051V38.4427H69.1135V37.5578ZM63.5475 38.0002V21.2484H62.6627V38.0002H63.5475ZM76.2614 21.8961H76.7039V21.4537H76.2614V21.8961ZM72.3973 21.8961H71.9549V22.3385H72.3973V21.8961ZM72.3973 21.2484V20.806H71.9549V21.2484H72.3973ZM80.8179 21.2484H81.2604V20.806H80.8179V21.2484ZM80.8179 21.8961V22.3385H81.2604V21.8961H80.8179ZM76.9985 21.8961V21.4537H76.5561V21.8961H76.9985ZM76.9985 38.0002V38.4427H77.4409V38.0002H76.9985ZM76.2614 38.0002H75.819V38.4427H76.2614V38.0002ZM76.2614 21.4537H72.3973V22.3385H76.2614V21.4537ZM72.8398 21.8961V21.2484H71.9549V21.8961H72.8398ZM72.3973 21.6908H80.8179V20.806H72.3973V21.6908ZM80.3755 21.2484V21.8961H81.2604V21.2484H80.3755ZM80.8179 21.4537H76.9985V22.3385H80.8179V21.4537ZM76.5561 21.8961V38.0002H77.4409V21.8961H76.5561ZM76.9985 37.5578H76.2614V38.4427H76.9985V37.5578ZM76.7039 38.0002V21.8961H75.819V38.0002H76.7039ZM85.1945 21.2484V20.806H84.7521V21.2484H85.1945ZM85.9316 21.2484H86.374V20.806H85.9316V21.2484ZM85.9316 27.7928H85.4892V28.2352H85.9316V27.7928ZM88.6789 28.4629L88.4609 28.848L88.4696 28.8526L88.6789 28.4629ZM90.5328 30.2721L90.1464 30.4875L90.1482 30.4907L90.5328 30.2721ZM90.4881 35.6103L90.1081 35.3837L90.1049 35.3892L90.4881 35.6103ZM88.6343 37.3972L88.8351 37.7914L88.8409 37.7884L88.6343 37.3972ZM85.1945 38.0002H84.7521V38.4427H85.1945V38.0002ZM85.9316 37.3525H85.4892V37.7949H85.9316V37.3525ZM88.2769 36.7941L88.4881 37.1828L88.4881 37.1828L88.2769 36.7941ZM89.8627 35.2306L89.4776 35.0129L89.476 35.0157L89.8627 35.2306ZM89.8851 30.5624L90.2718 30.3476L90.2718 30.3476L89.8851 30.5624ZM85.9316 28.4405V27.9981H85.4892V28.4405H85.9316ZM85.1945 21.6908H85.9316V20.806H85.1945V21.6908ZM85.4892 21.2484V27.7928H86.374V21.2484H85.4892ZM85.9316 28.2352C86.9091 28.2352 87.7476 28.4441 88.461 28.8479L88.8969 28.0778C88.0318 27.5882 87.0388 27.3504 85.9316 27.3504V28.2352ZM88.4696 28.8526C89.2016 29.2457 89.757 29.7893 90.1464 30.4875L90.9192 30.0566C90.4449 29.2062 89.7645 28.5437 88.8882 28.0731L88.4696 28.8526ZM90.1482 30.4907C90.5376 31.1755 90.7381 31.9695 90.7381 32.8853H91.623C91.623 31.8357 91.3917 30.8874 90.9174 30.0534L90.1482 30.4907ZM90.7381 32.8853C90.7381 33.8606 90.5229 34.6881 90.1081 35.3838L90.8681 35.8369C91.3766 34.9839 91.623 33.9948 91.623 32.8853H90.7381ZM90.1049 35.3892C89.6998 36.0915 89.143 36.6281 88.4276 37.006L88.8409 37.7884C89.7039 37.3324 90.383 36.6778 90.8713 35.8314L90.1049 35.3892ZM88.4334 37.003C87.7148 37.3691 86.8844 37.5578 85.9316 37.5578V38.4427C87.0039 38.4427 87.9753 38.2294 88.8351 37.7914L88.4334 37.003ZM85.9316 37.5578H85.1945V38.4427H85.9316V37.5578ZM85.637 38.0002V21.2484H84.7521V38.0002H85.637ZM85.9316 37.7949C86.8745 37.7949 87.7305 37.5946 88.4881 37.1828L88.0656 36.4054C87.4534 36.7381 86.7459 36.9101 85.9316 36.9101V37.7949ZM88.4881 37.1828C89.2456 36.7712 89.8357 36.1903 90.2495 35.4455L89.476 35.0157C89.1453 35.6111 88.6781 36.0725 88.0656 36.4054L88.4881 37.1828ZM90.2479 35.4483C90.6768 34.6894 90.8859 33.8311 90.8859 32.8853H90.001C90.001 33.6967 89.823 34.4018 89.4776 35.0129L90.2479 35.4483ZM90.8859 32.8853C90.8859 31.9427 90.6856 31.0924 90.2718 30.3476L89.4983 30.7773C89.829 31.3725 90.001 32.0709 90.001 32.8853H90.8859ZM90.2718 30.3476C89.858 29.6027 89.2679 29.0219 88.5105 28.6102L88.088 29.3876C88.7004 29.7205 89.1676 30.182 89.4983 30.7773L90.2718 30.3476ZM88.5105 28.6102C87.7517 28.1978 86.888 27.9981 85.9316 27.9981V28.8829C86.7621 28.8829 87.4768 29.0555 88.088 29.3876L88.5105 28.6102ZM85.4892 28.4405V37.3525H86.374V28.4405H85.4892Z" fill="#FBAB9A"/>
<path d="M129.761 38.447C128.197 38.447 126.745 38.0375 125.405 37.2185C124.065 36.3995 123 35.3125 122.211 33.9575C121.437 32.5875 121.05 31.1208 121.05 29.5573C121.05 28.0087 121.444 26.5643 122.234 25.2242C123.023 23.8691 124.087 22.797 125.428 22.0078C126.768 21.2037 128.22 20.8017 129.783 20.8017C131.361 20.8017 132.813 21.1963 134.139 21.9855C135.464 22.7747 136.514 23.8468 137.288 25.2018C138.077 26.542 138.472 27.9938 138.472 29.5573C138.472 31.1655 138.077 32.6545 137.288 34.0245C136.514 35.3795 135.456 36.4591 134.116 37.2632C132.791 38.0524 131.339 38.447 129.761 38.447ZM129.761 37.7992C131.19 37.7992 132.516 37.4344 133.737 36.7048C134.958 35.9602 135.925 34.9626 136.64 33.7118C137.37 32.4461 137.735 31.0761 137.735 29.602C137.735 28.1427 137.377 26.7877 136.663 25.5369C135.948 24.2861 134.98 23.2958 133.759 22.5662C132.538 21.8217 131.213 21.4494 129.783 21.4494C128.339 21.4494 127.006 21.8217 125.785 22.5662C124.564 23.2958 123.589 24.2861 122.859 25.5369C122.144 26.7877 121.787 28.1427 121.787 29.602C121.787 31.0761 122.144 32.4461 122.859 33.7118C123.589 34.9626 124.564 35.9602 125.785 36.7048C127.006 37.4344 128.331 37.7992 129.761 37.7992ZM140.313 37.3525H141.541L149.604 20.8687L157.667 37.3525H158.74V40.1668H158.047V38.0002H140.96V40.1668H140.313V37.3525ZM156.908 37.3525L149.537 22.4098L142.233 37.3525H156.908ZM163.509 21.2484H169.517V21.8961H164.246V31.0091H168.646V31.6569H164.246V37.3525H169.517V38.0002H163.509V21.2484ZM192.189 38.0002H191.362L182.942 28.6862V38.0002H182.227V28.6862L173.829 38.0002H173.002L182.048 27.9715L175.861 21.2484H176.665L182.227 27.3014V21.2484H182.942V27.3014L188.503 21.2484H189.33L183.143 27.9715L192.189 38.0002ZM195.851 37.3525H197.079L205.143 20.8687L213.206 37.3525H214.278V40.1668H213.586V38.0002H196.499V40.1668H195.851V37.3525ZM212.447 37.3525L205.076 22.4098L197.772 37.3525H212.447ZM227.925 21.2484L219.527 38.0002H218.723L220.733 33.9575L214.055 21.2484H214.859L221.157 33.198L227.121 21.2484H227.925Z" fill="#FBAB9A"/>
<path d="M125.405 37.2185L125.175 37.596L125.405 37.2185ZM122.211 33.9575L121.826 34.1752L121.829 34.1801L122.211 33.9575ZM122.234 25.2242L122.615 25.4487L122.616 25.4468L122.234 25.2242ZM125.428 22.0078L125.652 22.389L125.655 22.3872L125.428 22.0078ZM134.139 21.9855L133.912 22.3656L133.912 22.3656L134.139 21.9855ZM137.288 25.2018L136.904 25.4213L136.907 25.4263L137.288 25.2018ZM137.288 34.0245L136.905 33.8036L136.904 33.805L137.288 34.0245ZM134.116 37.2632L134.343 37.6433L134.344 37.6425L134.116 37.2632ZM133.737 36.7048L133.963 37.0846L133.967 37.0825L133.737 36.7048ZM136.64 33.7118L136.257 33.4908L136.256 33.4923L136.64 33.7118ZM136.663 25.5369L137.047 25.3174L137.047 25.3174L136.663 25.5369ZM133.759 22.5662L133.529 22.9439L133.532 22.946L133.759 22.5662ZM125.785 22.5662L126.012 22.946L126.015 22.9439L125.785 22.5662ZM122.859 25.5369L122.477 25.3139L122.475 25.3174L122.859 25.5369ZM122.859 33.7118L122.474 33.9293L122.477 33.9347L122.859 33.7118ZM125.785 36.7048L125.555 37.0825L125.558 37.0845L125.785 36.7048ZM129.761 38.0045C128.279 38.0045 126.907 37.6177 125.636 36.841L125.175 37.596C126.584 38.4572 128.115 38.8894 129.761 38.8894V38.0045ZM125.636 36.841C124.358 36.0602 123.346 35.0264 122.594 33.7348L121.829 34.1801C122.655 35.5986 123.772 36.7388 125.175 37.596L125.636 36.841ZM122.596 33.7398C121.859 32.4358 121.492 31.044 121.492 29.5573H120.607C120.607 31.1976 121.015 32.7393 121.826 34.1752L122.596 33.7398ZM121.492 29.5573C121.492 28.088 121.865 26.7211 122.615 25.4487L121.852 24.9997C121.023 26.4075 120.607 27.9294 120.607 29.5573H121.492ZM122.616 25.4468C123.367 24.1567 124.378 23.1394 125.652 22.389L125.203 21.6266C123.797 22.4546 122.678 23.5815 121.851 25.0015L122.616 25.4468ZM125.655 22.3872C126.927 21.6244 128.3 21.2441 129.783 21.2441V20.3593C128.139 20.3593 126.609 20.7831 125.2 21.6284L125.655 22.3872ZM129.783 21.2441C131.284 21.2441 132.657 21.6181 133.912 22.3656L134.365 21.6053C132.97 20.7744 131.439 20.3593 129.783 20.3593V21.2441ZM133.912 22.3656C135.171 23.1153 136.167 24.1317 136.904 25.4213L137.672 24.9823C136.86 23.5619 135.757 22.4341 134.365 21.6053L133.912 22.3656ZM136.907 25.4263C137.656 26.6981 138.029 28.0723 138.029 29.5573H138.914C138.914 27.9153 138.499 26.3859 137.669 24.9773L136.907 25.4263ZM138.029 29.5573C138.029 31.0894 137.654 32.5021 136.905 33.8036L137.671 34.2453C138.5 32.807 138.914 31.2416 138.914 29.5573H138.029ZM136.904 33.805C136.167 35.0941 135.164 36.1186 133.889 36.8838L134.344 37.6425C135.749 36.7995 136.86 35.6649 137.672 34.244L136.904 33.805ZM133.89 36.883C132.635 37.6305 131.261 38.0045 129.761 38.0045V38.8894C131.417 38.8894 132.947 38.4742 134.343 37.6433L133.89 36.883ZM129.761 38.2416C131.27 38.2416 132.673 37.8554 133.963 37.0845L133.51 36.325C132.358 37.0134 131.111 37.3568 129.761 37.3568V38.2416ZM133.967 37.0825C135.252 36.2988 136.273 35.2465 137.024 33.9313L136.256 33.4923C135.578 34.6787 134.663 35.6217 133.506 36.327L133.967 37.0825ZM137.023 33.9327C137.792 32.5992 138.177 31.153 138.177 29.602H137.292C137.292 30.9993 136.947 32.2929 136.257 33.4908L137.023 33.9327ZM138.177 29.602C138.177 28.0668 137.8 26.6359 137.047 25.3174L136.278 25.7564C136.954 26.9394 137.292 28.2187 137.292 29.602H138.177ZM137.047 25.3174C136.295 24.0014 135.273 22.9556 133.986 22.1864L133.532 22.946C134.687 23.6361 135.601 24.5707 136.278 25.7564L137.047 25.3174ZM133.989 22.1885C132.699 21.4017 131.294 21.007 129.783 21.007V21.8918C131.131 21.8918 132.377 22.2417 133.529 22.9439L133.989 22.1885ZM129.783 21.007C128.258 21.007 126.846 21.4012 125.555 22.1885L126.015 22.9439C127.166 22.2421 128.419 21.8918 129.783 21.8918V21.007ZM125.558 22.1864C124.272 22.9551 123.243 23.9998 122.477 25.3139L123.241 25.7598C123.934 24.5723 124.856 23.6366 126.012 22.946L125.558 22.1864ZM122.475 25.3174C121.721 26.6359 121.344 28.0668 121.344 29.602H122.229C122.229 28.2187 122.567 26.9394 123.243 25.7564L122.475 25.3174ZM121.344 29.602C121.344 31.1512 121.721 32.5963 122.474 33.9293L123.244 33.4942C122.568 32.2959 122.229 31.001 122.229 29.602H121.344ZM122.477 33.9347C123.243 35.2481 124.27 36.2993 125.555 37.0825L126.015 36.327C124.858 35.6212 123.934 34.6771 123.241 33.4888L122.477 33.9347ZM125.558 37.0845C126.848 37.8554 128.252 38.2416 129.761 38.2416V37.3568C128.411 37.3568 127.164 37.0134 126.012 36.325L125.558 37.0845ZM140.313 37.3525V36.9101H139.87V37.3525H140.313ZM141.541 37.3525V37.7949H141.817L141.938 37.5469L141.541 37.3525ZM149.604 20.8687L150.002 20.6743L149.604 19.8618L149.207 20.6743L149.604 20.8687ZM157.667 37.3525L157.27 37.5469L157.391 37.7949H157.667V37.3525ZM158.74 37.3525H159.182V36.9101H158.74V37.3525ZM158.74 40.1668V40.6092H159.182V40.1668H158.74ZM158.047 40.1668H157.605V40.6092H158.047V40.1668ZM158.047 38.0002H158.49V37.5578H158.047V38.0002ZM140.96 38.0002V37.5578H140.518V38.0002H140.96ZM140.96 40.1668V40.6092H141.403V40.1668H140.96ZM140.313 40.1668H139.87V40.6092H140.313V40.1668ZM156.908 37.3525V37.7949H157.62L157.305 37.1568L156.908 37.3525ZM149.537 22.4098L149.934 22.2141L149.535 21.4061L149.14 22.2156L149.537 22.4098ZM142.233 37.3525L141.836 37.1582L141.525 37.7949H142.233V37.3525ZM140.313 37.7949H141.541V36.9101H140.313V37.7949ZM141.938 37.5469L150.002 21.0631L149.207 20.6743L141.144 37.1581L141.938 37.5469ZM149.207 21.0631L157.27 37.5469L158.065 37.1581L150.002 20.6743L149.207 21.0631ZM157.667 37.7949H158.74V36.9101H157.667V37.7949ZM158.297 37.3525V40.1668H159.182V37.3525H158.297ZM158.74 39.7244H158.047V40.6092H158.74V39.7244ZM158.49 40.1668V38.0002H157.605V40.1668H158.49ZM158.047 37.5578H140.96V38.4427H158.047V37.5578ZM140.518 38.0002V40.1668H141.403V38.0002H140.518ZM140.96 39.7244H140.313V40.6092H140.96V39.7244ZM140.755 40.1668V37.3525H139.87V40.1668H140.755ZM157.305 37.1568L149.934 22.2141L149.14 22.6056L156.511 37.5482L157.305 37.1568ZM149.14 22.2156L141.836 37.1582L142.631 37.5468L149.935 22.6041L149.14 22.2156ZM142.233 37.7949H156.908V36.9101H142.233V37.7949ZM163.509 21.2484V20.806H163.067V21.2484H163.509ZM169.517 21.2484H169.96V20.806H169.517V21.2484ZM169.517 21.8961V22.3385H169.96V21.8961H169.517ZM164.246 21.8961V21.4537H163.804V21.8961H164.246ZM164.246 31.0091H163.804V31.4515H164.246V31.0091ZM168.646 31.0091H169.089V30.5667H168.646V31.0091ZM168.646 31.6569V32.0993H169.089V31.6569H168.646ZM164.246 31.6569V31.2145H163.804V31.6569H164.246ZM164.246 37.3525H163.804V37.7949H164.246V37.3525ZM169.517 37.3525H169.96V36.9101H169.517V37.3525ZM169.517 38.0002V38.4427H169.96V38.0002H169.517ZM163.509 38.0002H163.067V38.4427H163.509V38.0002ZM163.509 21.6908H169.517V20.806H163.509V21.6908ZM169.075 21.2484V21.8961H169.96V21.2484H169.075ZM169.517 21.4537H164.246V22.3385H169.517V21.4537ZM163.804 21.8961V31.0091H164.688V21.8961H163.804ZM164.246 31.4515H168.646V30.5667H164.246V31.4515ZM168.204 31.0091V31.6569H169.089V31.0091H168.204ZM168.646 31.2145H164.246V32.0993H168.646V31.2145ZM163.804 31.6569V37.3525H164.688V31.6569H163.804ZM164.246 37.7949H169.517V36.9101H164.246V37.7949ZM169.075 37.3525V38.0002H169.96V37.3525H169.075ZM169.517 37.5578H163.509V38.4427H169.517V37.5578ZM163.951 38.0002V21.2484H163.067V38.0002H163.951ZM192.189 38.0002V38.4427H193.184L192.517 37.7039L192.189 38.0002ZM191.362 38.0002L191.034 38.2969L191.166 38.4427H191.362V38.0002ZM182.942 28.6862L183.27 28.3895L182.499 27.5372V28.6862H182.942ZM182.942 38.0002V38.4427H183.384V38.0002H182.942ZM182.227 38.0002H181.784V38.4427H182.227V38.0002ZM182.227 28.6862H182.669V27.5349L181.898 28.3899L182.227 28.6862ZM173.829 38.0002V38.4427H174.025L174.157 38.2965L173.829 38.0002ZM173.002 38.0002L172.674 37.7039L172.007 38.4427H173.002V38.0002ZM182.048 27.9715L182.377 28.2678L182.647 27.9685L182.374 27.6719L182.048 27.9715ZM175.861 21.2484V20.806H174.853L175.536 21.548L175.861 21.2484ZM176.665 21.2484L176.991 20.9491L176.86 20.806H176.665V21.2484ZM182.227 27.3014L181.901 27.6007L182.669 28.4368V27.3014H182.227ZM182.227 21.2484V20.806H181.784V21.2484H182.227ZM182.942 21.2484H183.384V20.806H182.942V21.2484ZM182.942 27.3014H182.499V28.4368L183.267 27.6007L182.942 27.3014ZM188.503 21.2484V20.806H188.309L188.177 20.9491L188.503 21.2484ZM189.33 21.2484L189.655 21.548L190.338 20.806H189.33V21.2484ZM183.143 27.9715L182.817 27.6719L182.544 27.9685L182.814 28.2678L183.143 27.9715ZM192.189 37.5578H191.362V38.4427H192.189V37.5578ZM191.69 37.7035L183.27 28.3895L182.613 28.9829L191.034 38.2969L191.69 37.7035ZM182.499 28.6862V38.0002H183.384V28.6862H182.499ZM182.942 37.5578H182.227V38.4427H182.942V37.5578ZM182.669 38.0002V28.6862H181.784V38.0002H182.669ZM181.898 28.3899L173.5 37.704L174.157 38.2965L182.555 28.9825L181.898 28.3899ZM173.829 37.5578H173.002V38.4427H173.829V37.5578ZM173.331 38.2966L182.377 28.2678L181.72 27.6751L172.674 37.7039L173.331 38.2966ZM182.374 27.6719L176.187 20.9488L175.536 21.548L181.723 28.2711L182.374 27.6719ZM175.861 21.6908H176.665V20.806H175.861V21.6908ZM176.339 21.5477L181.901 27.6007L182.553 27.0021L176.991 20.9491L176.339 21.5477ZM182.669 27.3014V21.2484H181.784V27.3014H182.669ZM182.227 21.6908H182.942V20.806H182.227V21.6908ZM182.499 21.2484V27.3014H183.384V21.2484H182.499ZM183.267 27.6007L188.829 21.5477L188.177 20.9491L182.616 27.0021L183.267 27.6007ZM188.503 21.6908H189.33V20.806H188.503V21.6908ZM189.004 20.9488L182.817 27.6719L183.468 28.2711L189.655 21.548L189.004 20.9488ZM182.814 28.2678L191.86 38.2966L192.517 37.7039L183.471 27.6751L182.814 28.2678ZM195.851 37.3525V36.9101H195.409V37.3525H195.851ZM197.079 37.3525V37.7949H197.356L197.477 37.5469L197.079 37.3525ZM205.143 20.8687L205.54 20.6743L205.143 19.8618L204.745 20.6743L205.143 20.8687ZM213.206 37.3525L212.809 37.5469L212.93 37.7949H213.206V37.3525ZM214.278 37.3525H214.72V36.9101H214.278V37.3525ZM214.278 40.1668V40.6092H214.72V40.1668H214.278ZM213.586 40.1668H213.143V40.6092H213.586V40.1668ZM213.586 38.0002H214.028V37.5578H213.586V38.0002ZM196.499 38.0002V37.5578H196.056V38.0002H196.499ZM196.499 40.1668V40.6092H196.941V40.1668H196.499ZM195.851 40.1668H195.409V40.6092H195.851V40.1668ZM212.447 37.3525V37.7949H213.158L212.843 37.1568L212.447 37.3525ZM205.076 22.4098L205.472 22.2141L205.074 21.4061L204.678 22.2156L205.076 22.4098ZM197.772 37.3525L197.374 37.1582L197.063 37.7949H197.772V37.3525ZM195.851 37.7949H197.079V36.9101H195.851V37.7949ZM197.477 37.5469L205.54 21.0631L204.745 20.6743L196.682 37.1581L197.477 37.5469ZM204.745 21.0631L212.809 37.5469L213.603 37.1581L205.54 20.6743L204.745 21.0631ZM213.206 37.7949H214.278V36.9101H213.206V37.7949ZM213.836 37.3525V40.1668H214.72V37.3525H213.836ZM214.278 39.7244H213.586V40.6092H214.278V39.7244ZM214.028 40.1668V38.0002H213.143V40.1668H214.028ZM213.586 37.5578H196.499V38.4427H213.586V37.5578ZM196.056 38.0002V40.1668H196.941V38.0002H196.056ZM196.499 39.7244H195.851V40.6092H196.499V39.7244ZM196.293 40.1668V37.3525H195.409V40.1668H196.293ZM212.843 37.1568L205.472 22.2141L204.679 22.6056L212.05 37.5482L212.843 37.1568ZM204.678 22.2156L197.374 37.1582L198.169 37.5468L205.473 22.6041L204.678 22.2156ZM197.772 37.7949H212.447V36.9101H197.772V37.7949ZM227.925 21.2484L228.321 21.4467L228.642 20.806H227.925V21.2484ZM219.527 38.0002V38.4427H219.8L219.922 38.1985L219.527 38.0002ZM218.723 38.0002L218.327 37.8033L218.009 38.4427H218.723V38.0002ZM220.733 33.9575L221.129 34.1544L221.23 33.9519L221.125 33.7517L220.733 33.9575ZM214.055 21.2484V20.806H213.322L213.663 21.4542L214.055 21.2484ZM214.859 21.2484L215.25 21.0421L215.126 20.806H214.859V21.2484ZM221.157 33.198L220.766 33.4043L221.168 34.1672L221.553 33.3956L221.157 33.198ZM227.121 21.2484V20.806H226.847L226.725 21.0508L227.121 21.2484ZM227.53 21.0501L219.131 37.802L219.922 38.1985L228.321 21.4467L227.53 21.0501ZM219.527 37.5578H218.723V38.4427H219.527V37.5578ZM219.119 38.1972L221.129 34.1544L220.337 33.7605L218.327 37.8033L219.119 38.1972ZM221.125 33.7517L214.446 21.0426L213.663 21.4542L220.341 34.1633L221.125 33.7517ZM214.055 21.6908H214.859V20.806H214.055V21.6908ZM214.467 21.4547L220.766 33.4043L221.549 32.9918L215.25 21.0421L214.467 21.4547ZM221.553 33.3956L227.517 21.4459L226.725 21.0508L220.762 33.0005L221.553 33.3956ZM227.121 21.6908H227.925V20.806H227.121V21.6908Z" fill="#FBAB9A"/>
<path d="M120.297 9.76803L118.409 5.54359C118.247 2.31433 112.95 0.861816 107.688 0.861816C102.427 0.861816 97.1299 2.31433 96.9688 5.54359L95.0901 9.74654C94.5619 10.8029 94.796 12.103 95.6698 12.9178L102.503 18.9769C102.601 19.065 102.728 19.1122 102.859 19.1122C102.894 19.1122 102.927 19.109 102.961 19.1025C103.126 19.0714 103.265 18.9651 103.34 18.8159L104.616 16.2548H110.765L112.043 18.8159C112.117 18.9651 112.257 19.0714 112.422 19.1025C112.455 19.109 112.489 19.1122 112.524 19.1122C112.654 19.1122 112.78 19.065 112.88 18.9769L119.724 12.9092C120.582 12.1041 120.817 10.804 120.297 9.76803ZM105.149 15.1812L106.41 12.6709H108.967L110.225 15.1812H105.149ZM109.12 11.5974H106.257L98.0563 5.44697C98.3623 3.42979 102.396 1.9354 107.688 1.9354C112.982 1.9354 117.014 3.42979 117.32 5.44697L109.12 11.5974Z" fill="#FBAB9A"/>
<circle cx="107.583" cy="22.8535" r="1.49315" fill="#FBAB9A"/>
<circle cx="107.583" cy="28.6052" r="1.49315" fill="#FBAB9A"/>
<circle cx="107.583" cy="34.3564" r="1.49315" fill="#FBAB9A"/>
</svg>
