<svg width="631" height="696" viewBox="0 0 631 696" fill="none" xmlns="http://www.w3.org/2000/svg">
<g filter="url(#filter0_d)">
<path d="M594.989 293.327H550.766M339.116 252.568L353.896 254.184L377.682 258.456L382.762 257.417L385.375 261.343M339.116 252.568C338.416 247.982 336.179 245.082 331.957 239.866L319.602 234.209M339.116 252.568L332.361 253.722M319.602 234.209L316.6 229.821L313.598 208.921V215.272M319.602 234.209L327.339 243.792L332.361 253.722M309.557 98.5357L307.94 98.9976C307.871 99.2077 307.888 99.4082 308 99.5813M309.557 98.5357L314.753 99.4595L318.332 98.5357L320.873 95.88L322.143 91.7232C323.103 90.348 324.06 89.975 326.069 89.6011M309.557 98.5357C299.958 94.0839 297.374 90.2204 292.121 83.6406C290.579 81.718 290.67 80.3712 291.198 77.8673M309.557 98.5357L295.008 101.422M326.415 86.4118C327.52 88.0272 327.478 88.6675 326.415 89.4139L326.069 89.6011M326.415 86.4118C328.152 84.947 329.202 84.4005 331.38 84.4488C335.435 82.8794 337.968 81.4361 339.809 79.8599M326.415 86.4118L325.491 85.3726L323.875 84.4488L322.489 83.6406L320.988 82.8323L320.064 82.255L318.679 81.1003M326.415 86.4118L326.992 85.8344L327.454 85.0262M260.022 77.4054L259.329 81.7931L256.789 86.4118C256.706 87.7077 255.942 88.6302 253.902 90.4531C249.638 90.911 248.278 91.4128 247.321 92.6469C245.322 92.1458 244.232 91.9106 243.048 92.6469C240.858 94.2123 240.382 95.0687 240.393 96.5728C240.387 97.9879 239.449 98.654 237.506 99.8059C236.712 100.711 236.47 101.265 236.929 102.462M260.022 77.4054L259.329 75.9505M260.022 77.4054L261.176 80.9849L268.566 84.4488M236.929 102.462L243.741 101.653M236.929 102.462L229.308 103.501C223.482 105.13 220.255 106.084 216.376 109.736C212.765 114.571 211.211 117.459 211.988 123.938L214.99 147.262L222.957 171.395L227.922 187.907L228.269 190.793L228.846 203.148L233.465 233.747M243.741 101.653C245.761 100.36 245.933 100.499 247.321 100.73M243.741 101.653L244.318 116.548L243.741 123.476M247.321 100.73L252.517 99.5749M247.321 100.73V107.888L245.935 117.241L243.741 123.476M252.517 99.5749C253.44 98.3048 255.448 97.9596 256.211 98.7667M252.517 99.5749L252.632 103.385V109.967L253.556 113.431C253.991 114.86 254.417 115.738 255.165 116.548M256.211 98.7667L264.179 93.3397L265.607 91.7232M256.211 98.7667V111.006C256.64 113.569 257.5 114.806 260.484 116.548H274.34H279.05M278.565 80.7539L273.416 84.4488L268.566 88.3747L265.607 91.7232M284.27 64.8196V74.4033L281.332 78.3291M284.27 64.8196L280.829 71.4012L281.332 78.3291M284.27 64.8196L284.755 64.0113M289.119 56.7369L273.416 64.0113L262.793 73.2486L259.329 75.9505M289.119 56.7369L284.755 64.0113M289.119 56.7369L296.278 54.774M259.329 75.9505C257.124 75.8042 257.016 74.8794 257.712 72.5558L265.102 64.8196L267.181 59.1617V54.774L271.684 43.5738C273.656 33.7729 275.254 30.3692 278.727 26.9467L286.464 24.1755L300.32 21.1733H306.208H314.753L321.334 23.4827L327.223 28.1013C332.508 36.3107 335.274 41.0862 335.999 53.3884L341.426 59.7391C345.82 64.2083 348.915 66.556 344.89 73.1331C343.237 75.8699 342.026 77.9613 339.809 79.8599M268.566 84.4488L273.416 79.9457L278.035 75.8081L279.42 88.7211L278.035 100.73L274.34 115.394L277.226 108.004L279.05 116.548M268.566 84.4488L265.607 91.7232M293.738 70.8238C293.205 72.2213 292.89 72.9712 291.198 71.9785M288.888 68.2836L289.697 69.7846L290.159 70.7084L289.235 71.6321L288.08 70.5929L288.888 68.2836ZM288.888 68.2836C289.337 67.2692 289 67.3538 288.427 67.4753M284.755 64.0113L285.655 64.8196L287.041 65.7433L287.734 66.4361L288.427 67.4753M291.198 68.2836L291.891 66.4361L292.121 64.0113L291.891 63.0876L291.198 61.2401L289.697 60.2009L288.427 62.2793L288.08 64.0113L288.888 65.7433L289.928 67.2444L291.198 68.2836ZM291.198 68.2836L291.429 69.4382M291.429 69.2073V69.4382M288.427 67.4753L287.272 68.9764L286.348 71.1702L287.503 73.1331L290.62 72.6713L291.429 71.4012V69.4382M318.679 81.1003C322.029 79.9817 323.914 79.3469 326.069 79.5993L326.992 80.4075H328.378M318.679 81.1003C318.833 81.1773 319.187 81.3774 319.371 81.5622C319.556 81.7469 319.91 81.7931 320.064 81.7931C320.411 81.9086 321.15 82.1395 321.334 82.1395C321.519 82.1395 321.95 82.1395 322.143 82.1395H323.875H325.029L326.069 82.4859L326.415 83.987L326.992 85.0262H328.147L328.84 83.987L329.186 81.7931L328.378 80.4075M318.679 81.1003L319.371 82.1395L320.064 83.1787L320.873 83.987L321.796 85.0262L322.605 86.1808L323.875 87.6819L324.683 88.8366L326.069 89.6011M328.378 80.4075L328.147 79.4838L328.724 77.8673L329.302 77.5786M320.18 55.5823V53.7348M320.18 55.5823L320.007 56.3905M320.18 55.5823L296.278 54.774M320.18 53.7348L320.526 52.8111M320.18 53.7348L299.511 54.2567M320.526 52.8111L328.378 56.6765M320.526 52.8111L313.829 52.0028L304.938 53.3884L299.511 54.2567M339.809 79.8599L340.964 77.2899L341.426 72.6713V65.9742L335.537 60.2009L333.227 59.064M330.803 67.1289L331.957 67.7062L332.535 68.63L332.419 69.4382L331.957 69.6692M331.957 69.6692L331.495 68.2836L329.533 70.7084L327.685 72.5558L325.838 73.4795H324.106L322.835 71.863L321.796 69.5537L321.334 67.3598L322.143 64.1268L324.452 59.97L324.106 58.9308H321.334H320.18L319.833 57.1988L320.007 56.3905M331.957 69.6692L332.535 71.4012L334.036 74.7497L333.805 76.1353L332.535 76.9435C332.304 77.059 331.773 77.2899 331.495 77.2899C331.218 77.2899 330.302 77.2899 329.879 77.2899L329.302 77.5786M330.918 66.3206L331.957 66.898M331.957 66.898L332.881 67.7062L333.227 68.63L334.036 67.3598L335.19 66.7825L335.537 70.7084V73.4795L334.382 78.0982L333.112 80.0611L331.957 81.3313L330.918 81.5622L329.879 80.8694L329.186 80.0611V79.0219L329.302 77.5786M331.957 66.898L332.881 64.935L333.227 59.064M320.007 56.3905L325.491 57.5452L328.378 56.6765M328.378 56.6765L333.227 59.064M296.278 54.774L299.511 54.2567M313.598 215.272V203.495C315.054 197.168 315.227 195.109 315.561 191.371L326.646 169.556L329.994 162.966C334.048 153.348 336.029 147.379 338.77 135.139C339.802 122.157 339.698 116.671 338.77 108.812C337.146 104.437 334.98 102.581 329.994 99.8059C327.365 99.0326 322.653 99.6579 314.06 100.152H311.404M313.598 215.272L310.134 236.633L307.478 258.687L307.15 261.343M306.093 282.243V269.888L307.15 261.343M306.093 282.243L308.518 285.476L309.21 287.785V288.478L309.557 290.556L308.633 292.634M306.093 282.243C312.293 275.189 316.525 271.716 324.567 265.846M308.633 292.634L307.652 294.828M308.633 292.634H317.639L328.378 288.478L341.426 297.946M300.55 296.676L300.204 298.292L299.973 299.678V303.604L299.858 306.952M300.55 296.676L302.398 293.443M300.55 296.676L298.357 302.68L297.36 306.952M285.078 319.307L287.041 315.035L289.235 307.299L289.342 306.952M285.078 319.307L283.692 321.386L281.845 323.579L281.037 324.272L280.113 323.579V322.078L281.037 319.307L280.575 316.651L281.614 313.303L282.46 307.299M285.078 319.307L284.501 365.609M284.501 292.519H284.963L285.54 292.981L285.771 294.944L283.577 300.717L282.769 305.105L282.46 307.299M284.501 292.519L284.732 293.212L284.616 293.905C284.404 295.413 284.229 296.19 283.577 297.138C283.654 297.292 283.762 297.623 283.577 297.715C283.346 297.83 283.231 297.83 283 297.946C282.815 298.038 282.615 297.984 282.538 297.946M284.501 292.519C281.115 291.742 279.382 292.178 276.429 293.674M282.538 297.946L282.422 298.177C282.422 298.485 282.076 299.678 282.076 299.678C282.076 299.678 281.576 301.14 281.383 301.987L280.556 307.53M282.538 297.946C280.518 296.719 278.783 296.436 275.956 295.752M275.956 295.752L275.263 298.754L274.455 303.026L274.109 307.991M275.956 295.752L276.429 293.674M276.533 293.212L277.111 289.748M276.533 293.212L273.531 297.138L271.799 299.216C271.145 299.447 269.813 299.909 269.721 299.909C269.629 299.909 268.605 299.986 268.104 300.024H267.643M276.533 293.212L276.429 293.674M267.643 300.024L266.719 301.064L265.911 301.294L265.218 301.064C264.662 299.97 265.912 297.315 267.181 294.713L267.323 294.597M267.643 300.024L268.451 298.754L270.067 295.29C270.243 293.898 269.827 293.988 268.797 293.789C267.753 294.055 267.557 294.246 267.323 294.597M267.323 294.597C267.352 294.573 267.346 294.287 267.323 293.905M311.404 124.285V130.173C309.858 135.925 308.778 139.944 307.524 144.607M306.748 147.493L303.206 144.838L298.588 142.875L291.66 141.72H286.002L283 142.297L277.688 142.875L273.416 143.337L270.356 142.817M306.748 147.493C306.539 148.272 306.323 149.077 306.097 149.918M306.748 147.493C307.017 146.493 307.274 145.537 307.524 144.607M306.748 147.493L304.592 144.26L302.167 139.642L299.742 130.173L298.934 123.476L299.742 116.548L300.897 112.854L301.474 108.928L302.975 105.579L308.864 100.065M238.314 150.265V148.533L238.891 147.262L240.162 145.646L242.702 144.26L246.512 143.337L251.131 142.297L257.366 141.72H261.869L267.296 142.297L270.356 142.817M238.314 150.265L242.355 146.339L246.05 144.953L250.785 144.26L253.671 143.337L261.869 143.683L269.375 144.376L274.109 145.069L281.614 144.26L284.616 143.914L290.389 143.568L293.507 143.914L296.394 144.145C297.125 144.376 298.657 144.838 298.934 144.838C299.28 144.838 300.666 145.53 301.012 145.761C301.359 145.992 302.975 146.801 303.206 147.147C303.391 147.424 304.592 148.186 305.169 148.533L306.097 149.918M238.314 150.265L236.929 141.72M238.314 150.265L238.891 156.846L242.355 164.813L245.473 171.395L251.131 187.907L253.671 194.142L254.698 198.76L255.288 201.416V213.309M306.097 149.918C305.946 150.479 305.791 151.055 305.631 151.65L299.396 170.471L291.544 192.987L290.71 197.375L288.427 209.383C288.243 211.111 288.099 212.601 288.012 214.002M307.524 144.607L304.245 137.101L301.474 124.285L302.167 116.548L304.245 110.313L307.132 104.078L311.404 100.152M311.404 100.152H309.788C309.425 100.152 309.118 100.121 308.864 100.065M308.864 100.065C308.626 100.013 308.435 99.9387 308.287 99.8481M243.741 123.476L241.085 131.097L238.891 137.794L236.929 141.72M236.929 141.72L235.774 134.908V128.441M279.05 116.548L279.42 118.28L279.668 116.548M279.668 116.548L280.459 111.006L281.706 116.202M279.668 116.548L281.706 116.202M281.706 116.202L282.316 118.742M282.538 115.971V94.9563L281.332 78.3291M282.538 115.971L286.925 114.124L292.237 110.082L296.971 106.849L299.28 104.771L301.474 103.27L303.206 102L303.957 101.307M282.538 115.971V118.742M308 99.5813L304.707 100.614L303.957 101.307M308 99.5813C308.064 99.6803 308.159 99.7703 308.287 99.8481M308.287 99.8481L303.899 102.923L301.243 105.464L298.357 108.35L295.008 110.891L289.581 115.971L285.424 118.05L282.538 118.742M282.538 118.742V119.666L282.316 118.742M282.316 118.742L279.42 119.32L269.259 119.435H260.137L256.327 117.588C255.863 117.229 255.484 116.895 255.165 116.548M255.288 213.309L254.364 224.278M255.288 213.309L272.377 212.501L281.383 213.309L288.012 214.002M254.364 224.278L262.562 222.893L263.832 222.997M254.364 224.278L253.799 237.788M256.442 283.397C260.377 284.69 263.344 284.885 264.64 288.016C264.673 290.961 264.411 292.344 263.832 293.905M256.442 283.397C250.081 278.723 245.638 280.257 237.506 283.975M256.442 283.397C256.236 282.739 256.042 282.089 255.859 281.434M257.482 288.478C257.256 290.056 257.13 290.941 256.904 292.519L255.403 296.791C254.799 300.674 255.012 301.62 255.865 302.218C255.904 304.341 255.472 306.053 257.482 305.913C259.371 304.874 260.263 302.929 261.869 299.562L263.832 293.905M257.482 288.478V286.168M257.482 288.478L254.826 292.173L252.517 296.791V301.294L253.325 307.183L253.614 308.222M254.71 323.579H256.673V320.924L257.135 319.307L255.865 316.305L253.614 308.222M254.71 323.579L252.517 319.654L249.63 312.841L246.974 307.645L244.78 301.064L243.972 295.29M254.71 323.579V326.582L254.018 327.736C253.861 329.169 253.693 329.335 253.325 329.122C252.608 329.654 252.234 329.424 251.593 327.736L249.63 325.08L246.397 319.654L244.78 315.728M237.506 297.715L239.815 303.142L241.894 308.107L243.972 313.765L244.78 315.728M231.271 297.253L234.619 305.913L237.044 314.458L239.238 318.961L239.366 319.307M244.78 315.728L245.242 320.462L246.281 324.734C247.08 325.851 248.094 327.893 246.974 329.468V331.431C246.838 332.964 246.59 333.149 245.935 332.586L241.894 326.12L239.366 319.307M239.366 319.307C239.99 321.875 240.151 323.164 239.366 324.619C239.719 326.892 239.545 327.37 238.43 326.582L235.543 322.425L233.349 316.998L230.89 308.338M237.506 283.975L237.423 282.358M237.506 283.975C236.797 284.612 236.117 285.186 235.468 285.707M233.465 233.747L231.502 237.788L221.918 240.79C217.092 246.767 215.469 250.285 214.182 256.84M233.465 233.747C235.068 244.264 235.944 251.612 236.498 262.036M288.012 214.002C287.822 217.061 287.902 219.697 288.427 223.47L288.52 224.856M288.52 224.856L280.69 223.47H269.606L263.832 222.997M288.52 224.856L289.341 236.98M263.832 222.997L266.488 226.703L267.643 230.629L264.987 237.326M264.987 237.326L253.799 237.788M264.987 237.326L276.649 236.98C278.804 236.98 283.254 236.98 283.808 236.98C284.362 236.98 287.728 236.98 289.341 236.98M264.987 237.326L266.488 247.834C266.346 248.636 266.226 249.403 266.129 250.143M253.799 237.788L253.446 246.217M289.341 236.98L289.634 241.31M260.577 230.398C260.559 231.002 260.629 231.686 260.715 232.477C261.656 233.354 262.246 233.702 263.948 232.707L264.987 230.976C265.352 229.834 265.404 229.22 264.987 228.204C264.486 227.253 264.045 227.105 263.139 227.165C261.158 228.009 260.622 228.98 260.577 230.398ZM260.577 230.398L256.096 230.629M214.182 256.84L189.241 257.417L168.226 260.65L156.91 263.652L150.906 262.844L140.976 276.238L131.623 293.905L131.367 295.868M214.182 256.84L230.347 259.265L236.498 262.036M165.917 445.396L155.871 448.514L116.728 444.109M165.917 445.396L169.208 428.307M165.917 445.396L170.074 458.559M185.2 345.287L192.128 327.39L191.088 312.264M185.2 345.287L178.849 364.108L171.459 384.661L165.917 399.556V411.103L161.067 423.804L162.453 431.54M185.2 345.287L181.285 365.609M191.088 312.264C198.625 315.971 203.937 315.747 211.526 313.303L215.819 308.338M191.088 312.264L188.548 309.031L180.119 305.913L170.766 297.715L163.492 280.049M227.598 294.713L228.269 299.332L230.693 307.645L230.89 308.338M227.598 294.713L227.28 292.519M227.598 294.713L215.819 308.338M169.208 428.307L162.453 430.039L106.288 423.804M169.208 428.307L171.107 418.452M106.288 423.804L101.487 442.394L109.107 443.252M106.288 423.804L109.389 411.796M170.074 458.559L151.599 454.287L134.625 449.207L129.429 448.514L126.427 458.559L141.9 461.446L144.671 465.487L142.824 469.529L140.283 473.339L136.819 478.882L134.625 484.078L132.316 487.888L130.931 493.777L129.891 499.319L129.429 504.977L129.693 507.402M170.074 458.559L171.107 462.485M172.96 469.529L174.805 472.877M172.96 469.529L169.034 473.339L165.109 476.803L158.642 480.036L156.102 482.346L150.906 486.387L146.403 490.082L141.9 494.354L138.089 498.28L136.357 500.589M172.96 469.529L171.107 462.485M79.779 521.95C78.3389 526.429 77.9706 528.856 78.7398 532.92L88.9008 535.835M79.779 521.95L81.511 520.103L83.3585 513.29M79.779 521.95L86.2451 524.722L92.0184 526.915H102.526L112.456 525.53L120.77 522.297L127.928 518.025L132.547 513.868L136.819 506.478L142.246 499.665L147.442 494.354L153.677 489.62L162.106 485.348L169.034 480.498L173.769 476.803L174.805 472.877M83.3585 513.29L87.0534 515.484L92.5958 516.639L99.2928 517.332L107.029 516.639L113.38 515.946L119.268 513.637L124.464 510.866L129.314 507.748L129.693 507.402M83.3585 513.29C83.2923 509.987 83.6504 508.025 84.6933 506.478M116.728 444.109L114.534 455.904L110.609 473.108L104.027 488.812C99.9856 493.084 98.0132 494.338 95.136 498.28C90.8834 500.091 89.2393 501.436 87.0534 504.169C86.0347 504.915 85.2621 505.634 84.6933 506.478M116.728 444.109L109.107 443.252M174.805 472.877L176.078 475.187L177.925 485.348L170.074 493.777L166.841 493.084L167.302 495.74L158.642 500.936L150.906 498.28C146.824 501.505 144.468 503.272 141.9 507.402L143.632 510.866L140.976 513.868L140.052 514.214L140.514 515.253L138.782 518.025L136.819 517.101L137.512 519.988L136.011 522.297L134.625 522.528V524.26L132.893 525.53L129.776 524.722L130.238 527.493L123.079 531.996L120.654 531.188L120.077 533.382L109.8 536.73L108.184 535.46L107.029 536.73H92.0184L88.9008 535.835M129.693 507.402L134.625 502.899L135.751 501.397M171.107 462.485L165.917 469.529L162.63 471.838M136.357 500.589L136.127 498.511L137.628 494.354L139.821 490.89L146.403 484.078L154.601 478.535L158.873 475.995L159.913 473.339L161.645 472.531L162.63 471.838M136.357 500.589L135.751 501.397M135.751 501.397L135.203 498.857L136.127 494.354L139.013 488.812L142.246 484.539L144.325 481.306L150.906 472.531L155.294 468.49L158.642 468.028L160.836 469.529L162.63 471.838M150.444 283.975L157.603 314.458L156.218 330.046L154.717 365.609L152.754 406.715M263.832 293.905H267.323M267.323 293.905C267.291 293.364 267.919 292.632 267.874 292.173L269.144 289.748M307.652 294.828L306.67 297.022L305.746 299.447L305.631 301.987L304.983 306.952M307.652 294.828L321.681 293.905L327.108 295.29L329.186 303.604L330.572 306.086L330.926 306.721M382.762 460.176L377.22 476.803L376.501 481.306M382.762 460.176L394.54 451.978L395.348 440.2L400.313 435.755M382.762 460.176L377.616 446.666M400.891 521.95H387.035L368.791 511.558L371.216 499.435L372.428 497.241M400.891 521.95L405.278 524.837L403.777 529.34L413.361 538.924L430.219 542.965L470.517 545.506L475.251 544.582C478.035 543.469 476.414 539.492 474.674 533.613L471.556 530.033M400.891 521.95L389.344 513.175M471.556 530.033L468.438 520.334M471.556 530.033H463.589L448.925 530.726H434.838L423.407 530.033L414.747 526.8L408.627 520.334L402.045 513.175L394.771 508.095L383.917 503.591L372.428 497.241M468.438 520.334C467.798 513.927 465.999 510.607 453.89 506.363C445.402 499.48 443.168 494.939 439.572 486.733L429.642 460.984M468.438 520.334L458.277 519.179L443.498 521.027L422.829 520.334L411.514 511.558L408.883 508.095M429.642 460.984L425.254 450.246L436.339 435.813M429.642 460.984L422.136 445.281L422.425 442.856M436.339 435.813L431.027 430.617L424.099 428.809M436.339 435.813L434.775 431.309M415.901 374.846L422.945 386.855L424.862 399.556M415.901 374.846L415.013 367.572M415.901 374.846L407.887 366.302L398.466 324.965L390.73 284.552L385.375 261.343M406.664 294.02L407.887 307.068M424.099 428.809L420.404 427.845L411.283 428.538L405.278 431.309L400.313 435.755M424.099 428.809L422.425 442.856M400.313 435.755L409.897 442.856H422.425M376.501 481.306L375.026 490.544L373.641 495.047L372.428 497.241M376.501 481.306L381.261 474.956L390.614 467.104L398.004 460.176L405.74 454.749L415.093 453.248L420.173 465.141L411.514 463.294L407.357 462.601L402.045 465.141L399.736 471.723L400.891 478.073L407.357 485.001L411.514 492.853L416.017 514.445M376.501 481.306L385.765 488.928M385.765 488.928L387.727 490.544V492.853L404.586 502.437L408.883 508.095M385.765 488.928L389.344 484.308L397.196 487.888L403.2 498.511L408.883 508.095M270.991 286.746L271.799 285.822L274.109 284.205L278.15 282.935L283.808 281.434L287.156 277.508L287.603 274.968M270.991 286.746L269.144 289.748M270.991 286.746C270.546 285.599 270.208 283.952 269.874 282.935M269.144 289.748C267.68 287.385 266.55 286.676 265.795 275.545L264.987 268.502L258.752 267.001C257.184 264.795 256.567 262.523 255.75 257.302L253.446 246.217M253.446 246.217L253.094 254.646C253.396 264.431 253.806 270.418 254.49 274.968M255.859 281.434C250.529 277.785 247.059 276.765 237.423 282.358M255.859 281.434C255.509 280.176 255.2 278.899 254.928 277.508M237.423 282.358L237.294 279.818M407.887 307.068L408.742 316.19L415.013 367.572M407.887 307.068L553.075 308.338M553.075 308.338L550.766 293.327M553.075 308.338L563.467 371.729M550.766 293.327H406.664L385.375 261.343M563.467 371.729L415.013 367.572M563.467 371.729L610 674.481L275.956 662.784M275.956 662.784L284.501 365.609M275.956 662.784L274.109 674.25H-13.7486L-5.20414 630.489M275.956 662.784L-5.20414 630.489M284.501 365.609L358.055 366.302M284.501 365.609H181.285M358.055 366.302L356.09 360.067L350.316 341.477L346.044 321.27L334.151 308.8L331.957 308.569L330.926 306.721M358.055 366.302L364.75 387.548L368.56 395.861L369.236 413.528M181.285 365.609L174.746 399.556M131.367 295.868L57.494 297.369L55.0692 310.185M131.367 295.868L129.496 310.185M55.0692 310.185H129.496M55.0692 310.185L44.5618 364.685M129.496 310.185L128.621 316.882C127.371 337.684 126.053 351.488 122.755 364.685M44.5618 364.685H122.755M44.5618 364.685L40.1741 386.278M122.755 364.685C121.255 370.692 119.344 376.572 116.844 382.929L109.389 411.796M40.1741 386.278C58.3609 395.581 66.1015 402.888 72.5046 422.188L77.7006 444.109M40.1741 386.278C28.6664 382.994 21.1371 382.546 4.72597 385.585C-12.5936 391.801 -21.7253 397.324 -36.7264 411.796C-60.1121 453.749 -70.6187 476.914 -72.6364 515.946C-73.9059 541.362 -72.8073 555.643 -53.3536 581.416C-46.4777 588.478 -41.4681 591.185 -31.0686 594.463C-19.0639 598.37 -10.6519 599.953 1.37742 595.849M77.7006 444.109L98.4846 419.532L109.389 411.796M77.7006 444.109L78.8553 463.525M174.746 399.556L185.2 403.828C209.48 414.436 217.232 425.184 227.807 447.013C244.801 497.688 234.013 517.121 219.378 553.819C207.396 571.649 201.278 582.25 181.62 592.385C162.974 602.931 151.779 606.801 127.928 602.892C108.817 599.225 98.9238 594.515 83.3585 579.337C69.7201 563.389 66.6192 553.364 61.189 535.46L48.7186 558.784C34.5382 576.05 27.5142 582.113 15.9262 589.152C10.4012 592.206 5.66007 594.388 1.37742 595.849M174.746 399.556L171.107 418.452M1.37742 595.849L-5.20414 630.489M424.862 399.556L425.716 405.214L426.293 406.877M424.862 399.556C459.731 405.226 476.109 415.188 501.115 442.048C521.233 465.094 527.189 480.811 532.407 511.674C536.829 538.037 533.948 550.167 525.825 570.331C511.308 599.604 498.849 609.343 474.212 622.983C422.805 634.894 401.191 624.354 365.789 598.043C341.531 572.129 335.981 555.882 327.108 526.685C322.374 494.63 325.155 479.386 335.19 454.749C344.629 437.149 350.586 427.541 369.236 413.528M369.236 413.528L369.368 416.992L373.982 436.39M434.775 431.309C456.878 439.725 468.188 446.496 484.026 466.758C492.211 478.672 495.52 485.865 499.152 499.55M434.775 431.309L426.293 406.877M499.152 499.55L515.202 500.936L518.897 533.613L501.808 531.996M499.152 499.55L482.063 497.818L482.987 530.033L501.808 531.996M501.808 531.996L496.612 552.434C486.145 574.63 476.562 583.274 451.58 590.653C418.181 596.853 403.403 589.055 379.298 568.714C364.44 554.695 361.563 543.904 356.09 524.837C351.341 499.854 353.899 487.651 361.979 467.104C367.886 456.451 371.295 451.868 377.616 446.666M377.616 446.666L374.449 438.353L373.982 436.39M255.165 116.548V126.479L253.556 134.908M303.957 101.307L286.925 109.505M307.15 261.343L314.522 258.11L325.607 254.877L332.361 253.722M236.498 262.036C236.641 264.721 236.762 267.611 236.869 270.811M289.124 264.23L289.004 267.001L287.603 274.968M289.124 264.23L289.928 245.64L289.634 241.31M289.124 264.23L268.314 268.502M268.314 268.502C268.354 268.016 268.4 267.516 268.451 267.001C266.01 259.87 265.396 255.759 266.129 250.143M268.314 268.502C267.865 274.022 268.188 277.804 269.874 282.935M266.129 250.143L289.634 241.31M314.522 292.173C323.829 279.332 330.509 273.064 346.044 264.23M287.603 274.968L277.111 280.741L269.874 282.935M254.49 274.968C257.942 277.321 259.831 278.68 264.64 279.818M254.49 274.968C254.625 275.865 254.77 276.705 254.928 277.508M254.928 277.508C257.309 280.037 259.113 281.357 263.832 283.397M248.937 197.259C243.979 195.272 240.992 194.68 235.197 194.719M292.93 197.375C295.646 195.314 297.129 194.105 301.128 193.795M270.356 142.817C270.54 140.486 270.356 139.642 271.822 134.121M260.137 169.556C268.342 170.676 272.47 171.887 277.688 176.706L269.375 175.321L261.869 176.706C269.138 177.612 271.748 179.44 273.416 185.02M171.107 418.452C194.751 428.57 201.723 438.508 210.718 458.559C218.329 488.655 218.877 502.916 210.718 521.95C202.918 545.982 194.25 555.835 173.769 569.176C151.253 581.762 124.464 574.026 114.419 566.52C101.458 557.134 96.5647 551.159 90.7483 539.617L88.9008 535.835M84.6933 506.478C84.3012 495.301 85.9698 487.416 90.171 472.3C94.3892 461.294 97.4011 456.659 103.103 449.207L109.107 443.252M227.28 292.519L227.229 292.173C227.916 290.346 230.941 289.333 235.468 285.707M227.28 292.519L210.602 296.791L202.866 297.715M237.294 279.818L236.929 272.659C236.909 272.031 236.89 271.416 236.869 270.811M237.294 279.818C225.452 271.052 214.834 266.749 188.664 260.188M236.869 270.811C230.074 265.302 225.324 263.359 216.029 260.881M235.468 285.707C219.058 278.131 209.504 273.967 190.511 267.001M347.314 294.944L370.292 267.809M426.293 406.877L413.592 405.214L395.926 412.142L388.998 417.223L389.921 426.575L373.982 436.39M330.926 306.721L304.983 306.952M304.983 306.952L304.938 307.299L304.13 312.148L302.167 317.46C301.107 320.591 300.528 322.502 299.165 322.309C298.188 322.515 298.197 320.972 298.241 318.153L299.165 313.649L299.742 310.301L299.858 306.952M299.858 306.952H297.36M297.36 306.952L296.74 309.608L295.47 313.649L294.893 318.037L293.969 321.27L292.699 325.542L291.775 327.274C290.783 328.849 290.267 329.515 289.581 329.468C288.16 329.683 288.439 328.465 288.427 326.928C287.513 326.095 287.893 324.445 288.311 321.847L289.004 317.46L289.812 312.726L290.389 308.569L290.713 306.952M290.713 306.952L291.313 303.95L292.583 298.292L293.622 294.944L292.93 294.366L292.121 296.907L291.313 300.602L289.342 306.952M290.713 306.952H289.342M282.46 307.299L280.556 307.53M280.556 307.53L279.767 310.994L279.42 314.227L278.958 315.843L278.612 316.651L277.226 319.307L276.764 319.654L275.956 319.076L275.263 318.153L274.571 316.651L274.224 315.497L274.109 312.841V308.8V307.991M274.109 307.991L253.614 308.222M230.89 308.338H215.819M326.069 75.9043L325.491 74.7497C325.72 74.1644 326.19 74.0774 327.223 74.0569C328.746 74.3205 329.124 74.4941 329.533 74.8651L330.11 75.6734H328.84H327.223L326.069 75.9043ZM72.5046 490.082C65.6267 516.751 60.1344 530.837 38.904 549.893C19.9154 563.023 10.9183 565.228 -2.77936 561.555C-17.3146 551.785 -22.6655 543.623 -27.4891 524.722C-30.6318 511.126 -30.051 502.257 -24.487 484.078L-9.01453 449.207C5.13708 432.632 12.9778 422.973 31.1677 422.188C49.1881 419.51 56.5763 425.694 67.7705 442.394L72.5046 490.082Z" stroke="#FBAB9A" stroke-width="1.32879"/>
</g>
<defs>
<filter id="filter0_d" x="-93.6646" y="0.509033" width="724.443" height="694.664" filterUnits="userSpaceOnUse" color-interpolation-filters="sRGB">
<feFlood flood-opacity="0" result="BackgroundImageFix"/>
<feColorMatrix in="SourceAlpha" type="matrix" values="0 0 0 0 0 0 0 0 0 0 0 0 0 0 0 0 0 0 127 0"/>
<feOffset/>
<feGaussianBlur stdDeviation="10"/>
<feColorMatrix type="matrix" values="0 0 0 0 0.975 0 0 0 0 0.581912 0 0 0 0 0.495625 0 0 0 0.4 0"/>
<feBlend mode="normal" in2="BackgroundImageFix" result="effect1_dropShadow"/>
<feBlend mode="normal" in="SourceGraphic" in2="effect1_dropShadow" result="shape"/>
</filter>
</defs>
</svg>
