<svg width="64" height="548" viewBox="0 0 64 548" fill="none" xmlns="http://www.w3.org/2000/svg">
<g opacity="0.3" filter="url(#filter0_d)">
<path d="M54.5024 3.36316L55.0024 3.36316L55.0024 2.86316L54.5024 2.86316L54.5024 3.36316ZM54.5024 5.18574L54.5024 5.68574L55.0024 5.68574L55.0024 5.18574L54.5024 5.18574ZM30.4775 5.18574L30.4775 4.68574L29.9775 4.68574L29.9775 5.18574L30.4775 5.18574ZM30.4775 33.5739L29.9775 33.5739L29.9775 34.0739L30.4775 34.0739L30.4775 33.5739ZM54.5024 33.5739L55.0024 33.5739L55.0024 33.0739L54.5024 33.0739L54.5024 33.5739ZM54.5024 35.3964L54.5024 35.8964L55.0024 35.8964L55.0024 35.3964L54.5024 35.3964ZM13.0801 35.3964L12.5801 35.3964L12.5801 35.8964L13.0801 35.8964L13.0801 35.3964ZM13.0801 33.5739L13.0801 33.0739L12.5801 33.0739L12.5801 33.5739L13.0801 33.5739ZM28.8758 33.5739L28.8758 34.0739L29.3758 34.0739L29.3758 33.5739L28.8758 33.5739ZM28.8758 5.18574L29.3758 5.18574L29.3758 4.68574L28.8758 4.68574L28.8758 5.18574ZM13.0801 5.18574L12.5801 5.18574L12.5801 5.68574L13.0801 5.68574L13.0801 5.18574ZM13.0801 3.36315L13.0801 2.86315L12.5801 2.86315L12.5801 3.36315L13.0801 3.36315ZM54.0024 3.36316L54.0024 5.18574L55.0024 5.18574L55.0024 3.36316L54.0024 3.36316ZM54.5024 4.68574L30.4775 4.68574L30.4775 5.68574L54.5024 5.68574L54.5024 4.68574ZM29.9775 5.18574L29.9775 33.5739L30.9775 33.5739L30.9775 5.18574L29.9775 5.18574ZM30.4775 34.0739L54.5024 34.0739L54.5024 33.0739L30.4775 33.0739L30.4775 34.0739ZM54.0024 33.5739L54.0024 35.3964L55.0024 35.3964L55.0024 33.5739L54.0024 33.5739ZM54.5024 34.8964L13.0801 34.8964L13.0801 35.8964L54.5024 35.8964L54.5024 34.8964ZM13.5801 35.3964L13.5801 33.5739L12.5801 33.5739L12.5801 35.3964L13.5801 35.3964ZM13.0801 34.0739L28.8758 34.0739L28.8758 33.0739L13.0801 33.0739L13.0801 34.0739ZM29.3758 33.5739L29.3758 5.18574L28.3758 5.18574L28.3758 33.5739L29.3758 33.5739ZM28.8758 4.68574L13.0801 4.68574L13.0801 5.68574L28.8758 5.68574L28.8758 4.68574ZM13.5801 5.18574L13.5801 3.36315L12.5801 3.36315L12.5801 5.18574L13.5801 5.18574ZM13.0801 3.86315L54.5024 3.86316L54.5024 2.86316L13.0801 2.86315L13.0801 3.86315ZM13.0801 88.4326L12.5801 88.4326L12.5801 89.2332L13.2995 88.8819L13.0801 88.4326ZM13.0801 86.4996L12.8577 86.0517L12.5801 86.1896L12.5801 86.4996L13.0801 86.4996ZM28.8758 78.6569L29.0982 79.1048L29.3758 78.9669L29.3758 78.6569L28.8758 78.6569ZM28.8758 56.6755L29.3758 56.6755L29.3758 56.3625L29.0944 56.2258L28.8758 56.6755ZM13.0801 48.9985L12.5801 48.9985L12.5801 49.3114L12.8615 49.4482L13.0801 48.9985ZM13.0801 47.0655L13.299 46.6159L12.5801 46.2658L12.5801 47.0655L13.0801 47.0655ZM55.4966 67.7214L55.716 68.1707L56.6374 67.7208L55.7155 67.2719L55.4966 67.7214ZM30.4775 77.9942L29.9775 77.9942L29.9775 78.7984L30.6987 78.4426L30.4775 77.9942ZM51.52 67.611L51.7413 68.0593L52.6598 67.6061L51.7375 67.1607L51.52 67.611ZM30.4775 57.4487L30.6949 56.9984L29.9775 56.652L29.9775 57.4487L30.4775 57.4487ZM13.5801 88.4326L13.5801 86.4996L12.5801 86.4996L12.5801 88.4326L13.5801 88.4326ZM13.3024 86.9474L29.0982 79.1048L28.6535 78.2091L12.8577 86.0517L13.3024 86.9474ZM29.3758 78.6569L29.3758 56.6755L28.3758 56.6755L28.3758 78.6569L29.3758 78.6569ZM29.0944 56.2258L13.2986 48.5488L12.8615 49.4482L28.6572 57.1252L29.0944 56.2258ZM13.5801 48.9985L13.5801 47.0655L12.5801 47.0655L12.5801 48.9985L13.5801 48.9985ZM12.8612 47.515L55.2777 68.171L55.7155 67.2719L13.299 46.6159L12.8612 47.515ZM55.2772 67.2721L12.8607 87.9833L13.2995 88.8819L55.716 68.1707L55.2772 67.2721ZM30.6987 78.4426L51.7413 68.0593L51.2988 67.1626L30.2562 77.5458L30.6987 78.4426ZM51.7375 67.1607L30.6949 56.9984L30.26 57.8989L51.3026 68.0612L51.7375 67.1607ZM29.9775 57.4487L29.9775 77.9942L30.9775 77.9942L30.9775 57.4487L29.9775 57.4487ZM14.6817 97.6823L15.1817 97.6823L15.1817 97.1823L14.6817 97.1823L14.6817 97.6823ZM14.6817 100.72L14.1817 100.72L14.1817 101.032L14.462 101.169L14.6817 100.72ZM55.4413 120.658L55.661 121.107L56.5792 120.658L55.661 120.209L55.4413 120.658ZM14.6817 140.596L14.462 140.147L14.1817 140.284L14.1817 140.596L14.6817 140.596ZM14.6817 143.247L14.6817 143.747L15.1817 143.747L15.1817 143.247L14.6817 143.247ZM7.72278 143.247L7.22278 143.247L7.22278 143.747L7.72278 143.747L7.72278 143.247ZM7.72278 141.535L7.72278 141.035L7.22278 141.035L7.22278 141.535L7.72278 141.535ZM13.0801 141.535L13.0801 142.035L13.5801 142.035L13.5801 141.535L13.0801 141.535ZM13.0801 99.284L13.5801 99.284L13.5801 98.784L13.0801 98.784L13.0801 99.284ZM7.72278 99.284L7.22278 99.284L7.22278 99.784L7.72278 99.784L7.72278 99.284ZM7.72278 97.6823L7.72278 97.1823L7.22278 97.1823L7.22278 97.6823L7.72278 97.6823ZM14.6817 138.718L14.1817 138.718L14.1817 139.522L14.9029 139.166L14.6817 138.718ZM51.6305 120.492L51.8517 120.941L52.7649 120.49L51.8501 120.043L51.6305 120.492ZM14.6817 102.432L14.9013 101.983L14.1817 101.631L14.1817 102.432L14.6817 102.432ZM14.1817 97.6823L14.1817 100.72L15.1817 100.72L15.1817 97.6823L14.1817 97.6823ZM14.462 101.169L55.2216 121.107L55.661 120.209L14.9014 100.271L14.462 101.169ZM55.2216 120.209L14.462 140.147L14.9014 141.045L55.661 121.107L55.2216 120.209ZM14.1817 140.596L14.1817 143.247L15.1817 143.247L15.1817 140.596L14.1817 140.596ZM14.6817 142.747L7.72278 142.747L7.72278 143.747L14.6817 143.747L14.6817 142.747ZM8.22278 143.247L8.22278 141.535L7.22278 141.535L7.22278 143.247L8.22278 143.247ZM7.72278 142.035L13.0801 142.035L13.0801 141.035L7.72278 141.035L7.72278 142.035ZM13.5801 141.535L13.5801 99.284L12.5801 99.284L12.5801 141.535L13.5801 141.535ZM13.0801 98.784L7.72278 98.784L7.72278 99.784L13.0801 99.784L13.0801 98.784ZM8.22278 99.284L8.22278 97.6823L7.22278 97.6823L7.22278 99.284L8.22278 99.284ZM7.72278 98.1823L14.6817 98.1823L14.6817 97.1823L7.72278 97.1823L7.72278 98.1823ZM14.9029 139.166L51.8517 120.941L51.4093 120.044L14.4605 138.27L14.9029 139.166ZM51.8501 120.043L14.9013 101.983L14.4622 102.881L51.4109 120.941L51.8501 120.043ZM14.1817 102.432L14.1817 138.718L15.1817 138.718L15.1817 102.432L14.1817 102.432ZM54.5024 155.04L55.0024 155.04L55.0024 154.54L54.5024 154.54L54.5024 155.04ZM54.5024 169.897L54.5024 170.397L55.0024 170.397L55.0024 169.897L54.5024 169.897ZM52.9008 169.897L52.4008 169.897L52.4008 170.397L52.9008 170.397L52.9008 169.897ZM52.9008 156.863L53.4008 156.863L53.4008 156.363L52.9008 156.363L52.9008 156.863ZM30.367 156.863L30.367 156.363L29.867 156.363L29.867 156.863L30.367 156.863ZM30.367 167.743L30.367 168.243L30.867 168.243L30.867 167.743L30.367 167.743ZM28.7653 167.743L28.2653 167.743L28.2653 168.243L28.7653 168.243L28.7653 167.743ZM28.7653 156.863L29.2653 156.863L29.2653 156.363L28.7653 156.363L28.7653 156.863ZM14.6817 156.863L14.6817 156.363L14.1817 156.363L14.1817 156.863L14.6817 156.863ZM14.6817 169.897L14.6817 170.397L15.1817 170.397L15.1817 169.897L14.6817 169.897ZM13.0801 169.897L12.5801 169.897L12.5801 170.397L13.0801 170.397L13.0801 169.897ZM13.0801 155.04L13.0801 154.54L12.5801 154.54L12.5801 155.04L13.0801 155.04ZM54.0024 155.04L54.0024 169.897L55.0024 169.897L55.0024 155.04L54.0024 155.04ZM54.5024 169.397L52.9008 169.397L52.9008 170.397L54.5024 170.397L54.5024 169.397ZM53.4008 169.897L53.4008 156.863L52.4008 156.863L52.4008 169.897L53.4008 169.897ZM52.9008 156.363L30.367 156.363L30.367 157.363L52.9008 157.363L52.9008 156.363ZM29.867 156.863L29.867 167.743L30.867 167.743L30.867 156.863L29.867 156.863ZM30.367 167.243L28.7653 167.243L28.7653 168.243L30.367 168.243L30.367 167.243ZM29.2653 167.743L29.2653 156.863L28.2653 156.863L28.2653 167.743L29.2653 167.743ZM28.7653 156.363L14.6817 156.363L14.6817 157.363L28.7653 157.363L28.7653 156.363ZM14.1817 156.863L14.1817 169.897L15.1817 169.897L15.1817 156.863L14.1817 156.863ZM14.6817 169.397L13.0801 169.397L13.0801 170.397L14.6817 170.397L14.6817 169.397ZM13.5801 169.897L13.5801 155.04L12.5801 155.04L12.5801 169.897L13.5801 169.897ZM13.0801 155.54L54.5024 155.54L54.5024 154.54L13.0801 154.54L13.0801 155.54ZM52.9008 187.572L52.9008 188.072L53.4008 188.072L53.4008 187.572L52.9008 187.572ZM52.9008 178.017L52.9008 177.517L52.4008 177.517L52.4008 178.017L52.9008 178.017ZM54.5024 178.017L55.0024 178.017L55.0024 177.517L54.5024 177.517L54.5024 178.017ZM54.5024 198.839L54.5024 199.339L55.0024 199.339L55.0024 198.839L54.5024 198.839ZM52.9008 198.839L52.4008 198.839L52.4008 199.339L52.9008 199.339L52.9008 198.839ZM52.9008 189.394L53.4008 189.394L53.4008 188.894L52.9008 188.894L52.9008 189.394ZM13.0801 189.394L12.5801 189.394L12.5801 189.894L13.0801 189.894L13.0801 189.394ZM13.0801 187.572L13.0801 187.072L12.5801 187.072L12.5801 187.572L13.0801 187.572ZM53.4008 187.572L53.4008 178.017L52.4008 178.017L52.4008 187.572L53.4008 187.572ZM52.9008 178.517L54.5024 178.517L54.5024 177.517L52.9008 177.517L52.9008 178.517ZM54.0024 178.017L54.0024 198.839L55.0024 198.839L55.0024 178.017L54.0024 178.017ZM54.5024 198.339L52.9008 198.339L52.9008 199.339L54.5024 199.339L54.5024 198.339ZM53.4008 198.839L53.4008 189.394L52.4008 189.394L52.4008 198.839L53.4008 198.839ZM52.9008 188.894L13.0801 188.894L13.0801 189.894L52.9008 189.894L52.9008 188.894ZM13.5801 189.394L13.5801 187.572L12.5801 187.572L12.5801 189.394L13.5801 189.394ZM13.0801 188.072L52.9008 188.072L52.9008 187.072L13.0801 187.072L13.0801 188.072ZM54.5024 209.661L55.0024 209.661L55.0024 209.161L54.5024 209.161L54.5024 209.661ZM54.5024 211.483L54.5024 211.983L55.0024 211.983L55.0024 211.483L54.5024 211.483ZM38.3201 211.483L38.3201 210.983L37.8201 210.983L37.8201 211.483L38.3201 211.483ZM36.6632 218.277L36.228 218.03L36.2227 218.04L36.6632 218.277ZM32.1896 222.861L31.946 222.424L31.9424 222.426L32.1896 222.861ZM18.9897 222.75L19.2457 222.321L19.2395 222.317L18.9897 222.75ZM14.5713 218.166L14.1257 218.393L14.1292 218.4L14.5713 218.166ZM13.0801 209.661L13.0801 209.161L12.5801 209.161L12.5801 209.661L13.0801 209.661ZM14.6817 211.483L14.6817 210.983L14.1817 210.983L14.1817 211.483L14.6817 211.483ZM16.0625 217.282L15.6232 217.521L16.0625 217.282ZM19.9286 221.204L20.1746 220.768L20.1714 220.767L19.9286 221.204ZM31.4716 221.259L31.7144 221.696L31.4716 221.259ZM36.7184 211.483L37.2184 211.483L37.2184 210.983L36.7184 210.983L36.7184 211.483ZM54.0024 209.661L54.0024 211.483L55.0024 211.483L55.0024 209.661L54.0024 209.661ZM54.5024 210.983L38.3201 210.983L38.3201 211.983L54.5024 211.983L54.5024 210.983ZM37.8201 211.483C37.8201 213.987 37.2841 216.165 36.2281 218.03L37.0983 218.523C38.2514 216.486 38.8201 214.134 38.8201 211.483L37.8201 211.483ZM36.2227 218.04C35.1987 219.947 33.7747 221.404 31.9461 222.424L32.4331 223.297C34.4337 222.182 35.9921 220.583 37.1037 218.513L36.2227 218.04ZM31.9424 222.426C30.149 223.446 28.0822 223.962 25.7277 223.962L25.7277 224.962C28.2334 224.962 30.4745 224.411 32.4367 223.295L31.9424 222.426ZM25.7277 223.962C23.2261 223.962 21.0715 223.409 19.2457 222.321L18.7336 223.18C20.7371 224.374 23.0745 224.962 25.7277 224.962L25.7277 223.962ZM19.2395 222.317C17.4064 221.26 16.0003 219.801 15.0134 217.933L14.1292 218.4C15.2042 220.435 16.7437 222.032 18.7398 223.183L19.2395 222.317ZM15.0168 217.939C14.0633 216.068 13.5801 213.92 13.5801 211.483L12.5801 211.483C12.5801 214.055 13.091 216.362 14.1258 218.393L15.0168 217.939ZM13.5801 211.483L13.5801 209.661L12.5801 209.661L12.5801 211.483L13.5801 211.483ZM13.0801 210.161L54.5024 210.161L54.5024 209.161L13.0801 209.161L13.0801 210.161ZM14.1817 211.483C14.1817 213.728 14.658 215.745 15.6232 217.521L16.5018 217.044C15.626 215.432 15.1817 213.583 15.1817 211.483L14.1817 211.483ZM15.6232 217.521C16.5882 219.297 17.9444 220.673 19.6857 221.641L20.1714 220.767C18.599 219.893 17.3778 218.656 16.5018 217.044L15.6232 217.521ZM19.6825 221.639C21.4598 222.644 23.4794 223.14 25.7277 223.14L25.7277 222.14C23.6313 222.14 21.7848 221.679 20.1746 220.769L19.6825 221.639ZM25.7277 223.14C27.9725 223.14 29.973 222.664 31.7144 221.696L31.2288 220.822C29.6564 221.695 27.8277 222.14 25.7277 222.14L25.7277 223.14ZM31.7144 221.696C33.4558 220.729 34.812 219.352 35.777 217.576L34.8984 217.099C34.0224 218.711 32.8012 219.948 31.2288 220.822L31.7144 221.696ZM35.777 217.576C36.7428 215.799 37.2184 213.764 37.2184 211.483L36.2184 211.483C36.2184 213.621 35.7736 215.489 34.8984 217.099L35.777 217.576ZM36.7184 210.983L14.6817 210.983L14.6817 211.983L36.7184 211.983L36.7184 210.983ZM15.0131 281.945L14.5865 281.685L15.0131 281.945ZM23.0767 274.047L22.8306 273.612L22.825 273.615L23.0767 274.047ZM44.6715 274.103L44.4178 274.534L44.4199 274.535L44.6715 274.103ZM52.6246 282.001L52.1938 282.254L52.1959 282.258L52.6246 282.001ZM52.6798 303.54L52.2502 303.284L52.6798 303.54ZM44.7267 311.328L44.4787 310.893L44.473 310.897L44.7267 311.328ZM22.911 311.328L23.1606 310.894L23.159 310.893L22.911 311.328ZM14.9026 303.485L14.4731 303.741L14.4739 303.742L14.9026 303.485ZM16.2834 302.546L15.8542 302.803L15.8565 302.806L16.2834 302.546ZM23.6842 309.726L23.9339 309.293L23.9323 309.292L23.6842 309.726ZM43.8983 309.781L44.1464 310.215L43.8983 309.781ZM51.2439 302.601L50.817 302.341L50.8147 302.345L51.2439 302.601ZM51.2439 282.884L50.8146 283.141L50.817 283.145L51.2439 282.884ZM43.8983 275.649L44.1503 275.217L44.1464 275.215L43.8983 275.649ZM23.6842 275.649L23.4383 275.214L23.4323 275.217L23.6842 275.649ZM16.2834 282.884L15.8565 282.624L15.8542 282.628L16.2834 282.884ZM12.4755 292.715C12.4755 288.942 13.4624 285.442 15.4397 282.206L14.5865 281.685C12.5136 285.077 11.4755 288.757 11.4755 292.715L12.4755 292.715ZM15.4397 282.206C17.4217 278.963 20.0494 276.389 23.3283 274.48L22.825 273.615C19.4027 275.609 16.6547 278.3 14.5865 281.685L15.4397 282.206ZM23.3227 274.483C26.6356 272.61 30.1776 271.676 33.9569 271.676L33.9569 270.676C30.0041 270.676 26.2926 271.655 22.8306 273.612L23.3227 274.483ZM33.9569 271.676C37.6966 271.676 41.1806 272.627 44.4178 274.534L44.9252 273.672C41.5349 271.675 37.8758 270.676 33.9569 270.676L33.9569 271.676ZM44.4199 274.535C47.6971 276.444 50.2862 279.015 52.1938 282.254L53.0555 281.747C51.0602 278.359 48.3472 275.665 44.9232 273.671L44.4199 274.535ZM52.1959 282.258C54.1375 285.494 55.107 288.995 55.107 292.77L56.107 292.77C56.107 288.814 55.0883 285.135 53.0534 281.743L52.1959 282.258ZM55.107 292.77C55.107 296.585 54.1545 300.087 52.2502 303.284L53.1094 303.796C55.1081 300.44 56.107 296.761 56.107 292.77L55.107 292.77ZM52.2502 303.284C50.3435 306.486 47.7553 309.021 44.4787 310.893L44.9748 311.762C48.3994 309.805 51.1133 307.148 53.1094 303.796L52.2502 303.284ZM44.473 310.897C41.2366 312.803 37.7343 313.755 33.9569 313.755L33.9569 314.755C37.9118 314.755 41.5894 313.755 44.9805 311.758L44.473 310.897ZM33.9569 313.755C30.0664 313.755 26.4707 312.801 23.1606 310.894L22.6614 311.761C26.1261 313.757 29.8944 314.755 33.9569 314.755L33.9569 313.755ZM23.159 310.893C19.8829 309.021 17.2757 306.468 15.3314 303.228L14.4739 303.742C16.5062 307.129 19.2378 309.805 22.6629 311.762L23.159 310.893ZM15.3322 303.229C13.428 300.031 12.4755 296.53 12.4755 292.715L11.4755 292.715C11.4755 296.706 12.4744 300.385 14.4731 303.741L15.3322 303.229ZM13.0771 292.715C13.0771 296.34 14.0034 299.705 15.8542 302.803L16.7126 302.29C14.955 299.348 14.0771 296.16 14.0771 292.715L13.0771 292.715ZM15.8565 302.806C17.7418 305.898 20.2705 308.351 23.4361 310.16L23.9323 309.292C20.9122 307.566 18.507 305.232 16.7103 302.286L15.8565 302.806ZM23.4345 310.159C26.6408 312.008 30.1145 312.932 33.8465 312.932L33.8465 311.932C30.2881 311.932 26.9869 311.053 23.9339 309.293L23.4345 310.159ZM33.8465 312.932C37.5407 312.932 40.9769 312.026 44.1464 310.215L43.6502 309.347C40.6339 311.071 37.369 311.932 33.8465 311.932L33.8465 312.932ZM44.1464 310.215C47.3129 308.406 49.8242 305.952 51.6731 302.858L50.8147 302.345C49.0552 305.289 46.6695 307.622 43.6502 309.347L44.1464 310.215ZM51.6708 302.862C53.5596 299.764 54.5054 296.397 54.5054 292.77L53.5054 292.77C53.5054 296.213 52.6102 299.4 50.817 302.341L51.6708 302.862ZM54.5054 292.77C54.5054 289.108 53.5601 285.722 51.6708 282.624L50.817 283.145C52.6097 286.085 53.5054 289.29 53.5054 292.77L54.5054 292.77ZM51.6731 282.628C49.8248 279.535 47.3147 277.063 44.1502 275.217L43.6464 276.081C46.6677 277.843 49.0546 280.195 50.8147 283.141L51.6731 282.628ZM44.1464 275.215C40.9769 273.404 37.5407 272.498 33.8465 272.498L33.8465 273.498C37.369 273.498 40.6339 274.36 43.6502 276.083L44.1464 275.215ZM33.8465 272.498C30.1164 272.498 26.6441 273.403 23.4383 275.214L23.93 276.085C26.9836 274.36 30.2862 273.498 33.8465 273.498L33.8465 272.498ZM23.4323 275.217C20.2687 277.063 17.7412 279.533 15.8565 282.624L16.7103 283.145C18.5075 280.197 20.914 277.844 23.9361 276.081L23.4323 275.217ZM15.8542 282.628C14.0034 285.725 13.0771 289.091 13.0771 292.715L14.0771 292.715C14.0771 289.27 14.955 286.082 16.7126 283.141L15.8542 282.628ZM14.6817 318.807L15.1817 318.807L15.1817 318.307L14.6817 318.307L14.6817 318.807ZM14.6817 321.844L14.1817 321.844L14.1817 322.156L14.462 322.293L14.6817 321.844ZM55.4413 341.782L55.661 342.231L56.5792 341.782L55.661 341.333L55.4413 341.782ZM14.6817 361.72L14.462 361.271L14.1817 361.408L14.1817 361.72L14.6817 361.72ZM14.6817 364.371L14.6817 364.871L15.1817 364.871L15.1817 364.371L14.6817 364.371ZM7.72277 364.371L7.22277 364.371L7.22277 364.871L7.72277 364.871L7.72277 364.371ZM7.72277 362.659L7.72277 362.159L7.22277 362.159L7.22277 362.659L7.72277 362.659ZM13.0801 362.659L13.0801 363.159L13.5801 363.159L13.5801 362.659L13.0801 362.659ZM13.0801 320.408L13.5801 320.408L13.5801 319.908L13.0801 319.908L13.0801 320.408ZM7.72277 320.408L7.22277 320.408L7.22277 320.908L7.72277 320.908L7.72277 320.408ZM7.72277 318.807L7.72277 318.307L7.22277 318.307L7.22277 318.807L7.72277 318.807ZM14.6817 359.842L14.1817 359.842L14.1817 360.646L14.9029 360.291L14.6817 359.842ZM51.6305 341.616L51.8517 342.065L52.7649 341.614L51.85 341.167L51.6305 341.616ZM14.6817 323.556L14.9013 323.107L14.1817 322.755L14.1817 323.556L14.6817 323.556ZM14.1817 318.807L14.1817 321.844L15.1817 321.844L15.1817 318.807L14.1817 318.807ZM14.462 322.293L55.2216 342.231L55.661 341.333L14.9014 321.395L14.462 322.293ZM55.2216 341.333L14.462 361.271L14.9014 362.169L55.661 342.231L55.2216 341.333ZM14.1817 361.72L14.1817 364.371L15.1817 364.371L15.1817 361.72L14.1817 361.72ZM14.6817 363.871L7.72277 363.871L7.72277 364.871L14.6817 364.871L14.6817 363.871ZM8.22277 364.371L8.22277 362.659L7.22277 362.659L7.22277 364.371L8.22277 364.371ZM7.72277 363.159L13.0801 363.159L13.0801 362.159L7.72277 362.159L7.72277 363.159ZM13.5801 362.659L13.5801 320.408L12.5801 320.408L12.5801 362.659L13.5801 362.659ZM13.0801 319.908L7.72277 319.908L7.72277 320.908L13.0801 320.908L13.0801 319.908ZM8.22277 320.408L8.22277 318.807L7.22277 318.807L7.22277 320.408L8.22277 320.408ZM7.72277 319.307L14.6817 319.307L14.6817 318.307L7.72277 318.307L7.72277 319.307ZM14.9029 360.291L51.8517 342.065L51.4093 341.168L14.4605 359.394L14.9029 360.291ZM51.85 341.167L14.9013 323.107L14.4622 324.005L51.4109 342.066L51.85 341.167ZM14.1817 323.556L14.1817 359.842L15.1817 359.842L15.1817 323.556L14.1817 323.556ZM54.5024 376.164L55.0024 376.164L55.0024 375.664L54.5024 375.664L54.5024 376.164ZM54.5024 391.021L54.5024 391.521L55.0024 391.521L55.0024 391.021L54.5024 391.021ZM52.9008 391.021L52.4008 391.021L52.4008 391.521L52.9008 391.521L52.9008 391.021ZM52.9008 377.987L53.4008 377.987L53.4008 377.487L52.9008 377.487L52.9008 377.987ZM30.367 377.987L30.367 377.487L29.867 377.487L29.867 377.987L30.367 377.987ZM30.367 388.867L30.367 389.367L30.867 389.367L30.867 388.867L30.367 388.867ZM28.7653 388.867L28.2653 388.867L28.2653 389.367L28.7653 389.367L28.7653 388.867ZM28.7653 377.987L29.2653 377.987L29.2653 377.487L28.7653 377.487L28.7653 377.987ZM14.6817 377.987L14.6817 377.487L14.1817 377.487L14.1817 377.987L14.6817 377.987ZM14.6817 391.021L14.6817 391.521L15.1817 391.521L15.1817 391.021L14.6817 391.021ZM13.0801 391.021L12.5801 391.021L12.5801 391.521L13.0801 391.521L13.0801 391.021ZM13.0801 376.164L13.0801 375.664L12.5801 375.664L12.5801 376.164L13.0801 376.164ZM54.0024 376.164L54.0024 391.021L55.0024 391.021L55.0024 376.164L54.0024 376.164ZM54.5024 390.521L52.9008 390.521L52.9008 391.521L54.5024 391.521L54.5024 390.521ZM53.4008 391.021L53.4008 377.987L52.4008 377.987L52.4008 391.021L53.4008 391.021ZM52.9008 377.487L30.367 377.487L30.367 378.487L52.9008 378.487L52.9008 377.487ZM29.867 377.987L29.867 388.867L30.867 388.867L30.867 377.987L29.867 377.987ZM30.367 388.367L28.7653 388.367L28.7653 389.367L30.367 389.367L30.367 388.367ZM29.2653 388.867L29.2653 377.987L28.2653 377.987L28.2653 388.867L29.2653 388.867ZM28.7653 377.487L14.6817 377.487L14.6817 378.487L28.7653 378.487L28.7653 377.487ZM14.1817 377.987L14.1817 391.021L15.1817 391.021L15.1817 377.987L14.1817 377.987ZM14.6817 390.521L13.0801 390.521L13.0801 391.521L14.6817 391.521L14.6817 390.521ZM13.5801 391.021L13.5801 376.164L12.5801 376.164L12.5801 391.021L13.5801 391.021ZM13.0801 376.664L54.5024 376.664L54.5024 375.664L13.0801 375.664L13.0801 376.664ZM13.0801 447.081L12.5801 447.081L12.5801 448.205L13.415 447.452L13.0801 447.081ZM13.0801 445.037L12.7447 444.666L12.5801 444.815L12.5801 445.037L13.0801 445.037ZM36.1109 424.216L36.4462 424.587L37.4095 423.716L36.1109 423.716L36.1109 424.216ZM13.0801 424.216L12.5801 424.216L12.5801 424.716L13.0801 424.716L13.0801 424.216ZM13.0801 422.448L13.0801 421.948L12.5801 421.948L12.5801 422.448L13.0801 422.448ZM36.1109 422.448L36.1109 422.948L37.4121 422.948L36.4457 422.077L36.1109 422.448ZM13.0801 401.682L12.5801 401.682L12.5801 401.904L12.7452 402.053L13.0801 401.682ZM13.0801 399.638L13.415 399.267L12.5801 398.514L12.5801 399.638L13.0801 399.638ZM37.8782 422.006L37.5434 422.378L37.8816 422.683L38.2168 422.374L37.8782 422.006ZM54.5024 406.708L55.0024 406.708L55.0024 405.568L54.1638 406.34L54.5024 406.708ZM54.5024 408.696L54.8407 409.064L55.0024 408.916L55.0024 408.696L54.5024 408.696ZM39.5351 422.448L39.1969 422.08L38.252 422.948L39.5351 422.948L39.5351 422.448ZM54.5024 422.448L55.0024 422.448L55.0024 421.948L54.5024 421.948L54.5024 422.448ZM54.5024 424.216L54.5024 424.716L55.0024 424.716L55.0024 424.216L54.5024 424.216ZM39.5351 424.216L39.5351 423.716L38.252 423.716L39.1969 424.584L39.5351 424.216ZM54.5024 437.968L55.0024 437.968L55.0024 437.748L54.8407 437.6L54.5024 437.968ZM54.5024 440.011L54.1638 440.379L55.0024 441.151L55.0024 440.011L54.5024 440.011ZM37.8782 424.713L38.2168 424.345L37.8816 424.036L37.5434 424.341L37.8782 424.713ZM13.5801 447.081L13.5801 445.037L12.5801 445.037L12.5801 447.081L13.5801 447.081ZM13.4154 445.408L36.4462 424.587L35.7756 423.845L12.7447 444.666L13.4154 445.408ZM36.1109 423.716L13.0801 423.716L13.0801 424.716L36.1109 424.716L36.1109 423.716ZM13.5801 424.216L13.5801 422.448L12.5801 422.448L12.5801 424.216L13.5801 424.216ZM13.0801 422.948L36.1109 422.948L36.1109 421.948L13.0801 421.948L13.0801 422.948ZM36.4457 422.077L13.4149 401.311L12.7452 402.053L35.7761 422.82L36.4457 422.077ZM13.5801 401.682L13.5801 399.638L12.5801 399.638L12.5801 401.682L13.5801 401.682ZM12.7452 400.01L37.5434 422.378L38.2131 421.635L13.415 399.267L12.7452 400.01ZM38.2168 422.374L54.841 407.076L54.1638 406.34L37.5397 421.639L38.2168 422.374ZM54.0024 406.708L54.0024 408.696L55.0024 408.696L55.0024 406.708L54.0024 406.708ZM54.1641 408.328L39.1969 422.08L39.8734 422.816L54.8407 409.064L54.1641 408.328ZM39.5351 422.948L54.5024 422.948L54.5024 421.948L39.5351 421.948L39.5351 422.948ZM54.0024 422.448L54.0024 424.216L55.0024 424.216L55.0024 422.448L54.0024 422.448ZM54.5024 423.716L39.5351 423.716L39.5351 424.716L54.5024 424.716L54.5024 423.716ZM39.1969 424.584L54.1641 438.336L54.8407 437.6L39.8734 423.848L39.1969 424.584ZM54.0024 437.968L54.0024 440.011L55.0024 440.011L55.0024 437.968L54.0024 437.968ZM54.841 439.643L38.2168 424.345L37.5397 425.081L54.1638 440.379L54.841 439.643ZM37.5434 424.341L12.7452 446.71L13.415 447.452L38.2131 425.084L37.5434 424.341ZM14.6817 456.137L15.1817 456.137L15.1817 455.637L14.6817 455.637L14.6817 456.137ZM14.6817 459.174L14.1817 459.174L14.1817 459.486L14.462 459.624L14.6817 459.174ZM55.4413 479.112L55.661 479.561L56.5792 479.112L55.661 478.663L55.4413 479.112ZM14.6817 499.05L14.462 498.601L14.1817 498.738L14.1817 499.05L14.6817 499.05ZM14.6817 501.701L14.6817 502.201L15.1817 502.201L15.1817 501.701L14.6817 501.701ZM7.72276 501.701L7.22276 501.701L7.22276 502.201L7.72276 502.201L7.72276 501.701ZM7.72276 499.989L7.72276 499.489L7.22276 499.489L7.22276 499.989L7.72276 499.989ZM13.0801 499.989L13.0801 500.489L13.5801 500.489L13.5801 499.989L13.0801 499.989ZM13.0801 457.738L13.5801 457.738L13.5801 457.238L13.0801 457.238L13.0801 457.738ZM7.72277 457.738L7.22277 457.738L7.22277 458.238L7.72277 458.238L7.72277 457.738ZM7.72277 456.137L7.72277 455.637L7.22277 455.637L7.22277 456.137L7.72277 456.137ZM14.6817 497.173L14.1817 497.173L14.1817 497.977L14.9029 497.621L14.6817 497.173ZM51.6305 478.947L51.8517 479.395L52.7649 478.945L51.85 478.497L51.6305 478.947ZM14.6817 460.887L14.9013 460.437L14.1817 460.086L14.1817 460.887L14.6817 460.887ZM14.1817 456.137L14.1817 459.174L15.1817 459.174L15.1817 456.137L14.1817 456.137ZM14.462 459.624L55.2216 479.561L55.661 478.663L14.9014 458.725L14.462 459.624ZM55.2216 478.663L14.462 498.601L14.9014 499.499L55.661 479.561L55.2216 478.663ZM14.1817 499.05L14.1817 501.701L15.1817 501.701L15.1817 499.05L14.1817 499.05ZM14.6817 501.201L7.72276 501.201L7.72276 502.201L14.6817 502.201L14.6817 501.201ZM8.22276 501.701L8.22276 499.989L7.22276 499.989L7.22276 501.701L8.22276 501.701ZM7.72276 500.489L13.0801 500.489L13.0801 499.489L7.72276 499.489L7.72276 500.489ZM13.5801 499.989L13.5801 457.738L12.5801 457.738L12.5801 499.989L13.5801 499.989ZM13.0801 457.238L7.72277 457.238L7.72277 458.238L13.0801 458.238L13.0801 457.238ZM8.22277 457.738L8.22277 456.137L7.22277 456.137L7.22277 457.738L8.22277 457.738ZM7.72277 456.637L14.6817 456.637L14.6817 455.637L7.72277 455.637L7.72277 456.637ZM14.9029 497.621L51.8517 479.395L51.4093 478.498L14.4605 496.724L14.9029 497.621ZM51.85 478.497L14.9013 460.437L14.4622 461.336L51.4109 479.396L51.85 478.497ZM14.1817 460.887L14.1817 497.173L15.1817 497.173L15.1817 460.887L14.1817 460.887ZM54.5024 535.447L54.2783 535.894L55.0024 536.257L55.0024 535.447L54.5024 535.447ZM13.0801 514.68L12.5801 514.68L12.5801 514.989L12.856 515.127L13.0801 514.68ZM13.0801 512.692L13.3027 512.244L12.5801 511.885L12.5801 512.692L13.0801 512.692ZM23.0767 517.663L22.854 518.11L23.0829 518.224L23.3092 518.105L23.0767 517.663ZM54.5024 501.149L55.0024 501.149L55.0024 500.321L54.2698 500.706L54.5024 501.149ZM54.5024 503.137L54.7356 503.58L55.0024 503.439L55.0024 503.137L54.5024 503.137ZM24.9545 518.712L24.7213 518.27L23.8591 518.724L24.7312 519.159L24.9545 518.712ZM54.5024 533.458L55.0024 533.458L55.0024 533.149L54.7257 533.011L54.5024 533.458ZM54.7265 535L13.3041 514.233L12.856 515.127L54.2783 535.894L54.7265 535ZM13.5801 514.68L13.5801 512.692L12.5801 512.692L12.5801 514.68L13.5801 514.68ZM12.8574 513.14L22.854 518.11L23.2993 517.215L13.3027 512.244L12.8574 513.14ZM23.3092 518.105L54.735 501.592L54.2698 500.706L22.8441 517.22L23.3092 518.105ZM54.0024 501.149L54.0024 503.137L55.0024 503.137L55.0024 501.149L54.0024 501.149ZM54.2693 502.695L24.7213 518.27L25.1876 519.154L54.7356 503.58L54.2693 502.695ZM24.7312 519.159L54.2791 533.906L54.7257 533.011L25.1777 518.265L24.7312 519.159ZM54.0024 533.458L54.0024 535.447L55.0024 535.447L55.0024 533.458L54.0024 533.458Z" fill="#C4BEC0"/>
</g>
<defs>
<filter id="filter0_d" x="0.667826" y="0.678216" width="62.5243" height="546.503" filterUnits="userSpaceOnUse" color-interpolation-filters="sRGB">
<feFlood flood-opacity="0" result="BackgroundImageFix"/>
<feColorMatrix in="SourceAlpha" type="matrix" values="0 0 0 0 0 0 0 0 0 0 0 0 0 0 0 0 0 0 127 0"/>
<feOffset dy="4.36989"/>
<feGaussianBlur stdDeviation="3.27742"/>
<feColorMatrix type="matrix" values="0 0 0 0 0 0 0 0 0 0 0 0 0 0 0 0 0 0 0.06 0"/>
<feBlend mode="normal" in2="BackgroundImageFix" result="effect1_dropShadow"/>
<feBlend mode="normal" in="SourceGraphic" in2="effect1_dropShadow" result="shape"/>
</filter>
</defs>
</svg>
