<svg width="61" height="547" viewBox="0 0 61 547" fill="none" xmlns="http://www.w3.org/2000/svg">
<g opacity="0.3" filter="url(#filter0_d)">
<path d="M40.9624 533.585L39.8869 533.785L40.0355 534.584L40.8434 534.672L40.9624 533.585ZM39.5816 530.437L38.8578 531.257L38.8718 531.269L38.8862 531.281L39.5816 530.437ZM12.6847 529.995L13.272 530.918L13.2923 530.905L13.312 530.891L12.6847 529.995ZM12.0772 531.596L10.9832 531.596L10.9832 531.615L10.9838 531.633L12.0772 531.596ZM12.1324 533.253L12.7122 534.181L13.2467 533.847L13.2257 533.217L12.1324 533.253ZM11.6906 533.529L11.5595 534.616L11.9429 534.662L12.2704 534.457L11.6906 533.529ZM8.48723 533.143L7.39331 533.134L7.38509 534.112L8.35615 534.229L8.48723 533.143ZM8.54246 526.57L9.63642 526.58L9.63642 526.57L8.54246 526.57ZM8.15585 518.341L8.25489 517.252L6.98299 517.136L7.0641 518.411L8.15585 518.341ZM11.801 518.673L12.8823 518.506L12.7522 517.661L11.9001 517.583L11.801 518.673ZM12.4085 520.771L13.3689 520.248L13.3614 520.234L13.3535 520.22L12.4085 520.771ZM13.4579 521.655L13.0652 522.676L13.1003 522.69L13.1362 522.701L13.4579 521.655ZM15.7776 521.986L15.7023 523.078L15.7171 523.079L15.732 523.079L15.7776 521.986ZM23.7307 522.318L23.6851 523.411L24.8073 523.458L24.8245 522.334L23.7307 522.318ZM23.8411 515.083L24.9349 515.099L24.9351 515.091L24.9351 515.083L23.8411 515.083ZM23.4545 508.51L24.5425 508.397L24.4401 507.416L23.4545 507.416L23.4545 508.51ZM12.6847 508.897L13.272 509.82L13.2923 509.807L13.312 509.793L12.6847 508.897ZM12.0772 510.499L10.9832 510.499L10.9832 510.516L10.9838 510.534L12.0772 510.499ZM12.1324 512.211L12.7122 513.138L13.2461 512.805L13.2258 512.175L12.1324 512.211ZM11.6906 512.487L11.5411 513.571L11.934 513.625L12.2704 513.415L11.6906 512.487ZM8.48723 512.045L7.39331 512.036L7.38568 512.997L8.33775 513.129L8.48723 512.045ZM8.54246 505.086L9.63642 505.095L9.63642 505.086L8.54246 505.086ZM8.15585 497.078L8.23975 495.987L6.98555 495.891L7.06402 497.146L8.15585 497.078ZM11.7458 497.354L12.8299 497.207L12.7115 496.331L11.8297 496.263L11.7458 497.354ZM12.6295 500.06L13.4389 499.324L13.4359 499.321L12.6295 500.06ZM14.7834 500.778L14.7082 501.87L14.7214 501.87L14.7834 500.778ZM25.9399 501.275L25.9015 502.369L25.9111 502.369L25.9399 501.275ZM39.6368 500.999L40.1516 501.964L40.176 501.951L40.1997 501.937L39.6368 500.999ZM40.2996 497.078L39.7568 496.128L39.133 496.484L39.2123 497.199L40.2996 497.078ZM40.6862 496.857L40.8409 495.774L40.4693 495.721L40.1435 495.907L40.6862 496.857ZM44.1657 497.354L45.2596 497.354L45.2596 496.405L44.3204 496.271L44.1657 497.354ZM44.1105 498.514L43.0275 498.359L43.0185 498.422L43.0169 498.485L44.1105 498.514ZM44 505.307L42.906 505.307L42.906 505.315L42.9062 505.323L44 505.307ZM44.1105 512.929L43.9748 514.014L45.2225 514.17L45.2043 512.913L44.1105 512.929ZM40.5758 512.487L39.4824 512.525L39.5146 513.457L40.4401 513.572L40.5758 512.487ZM40.0787 510.057L39.1002 510.546L39.1067 510.559L39.1134 510.572L40.0787 510.057ZM38.5875 508.842L38.9169 507.799L38.9094 507.796L38.9018 507.794L38.5875 508.842ZM28.3147 508.51L28.3147 507.416L27.2307 507.416L27.2208 508.5L28.3147 508.51ZM28.2595 514.586L27.1655 514.576L27.1655 514.586L28.2595 514.586ZM28.4252 517.899L29.5158 517.813L28.4252 517.899ZM28.8118 522.428L27.7223 522.527L27.8109 523.501L28.7889 523.522L28.8118 522.428ZM36.7097 522.594L36.6867 523.688L36.6982 523.688L36.7097 523.688L36.7097 522.594ZM39.7473 522.152L39.2045 521.202L39.2045 521.202L39.7473 522.152ZM40.3548 518.396L39.6545 517.556L39.2026 517.933L39.2676 518.517L40.3548 518.396ZM40.6862 518.12L40.8409 517.037L40.3595 516.969L39.9859 517.28L40.6862 518.12ZM44.1657 518.617L45.2587 518.663L45.2999 517.674L44.3204 517.534L44.1657 518.617ZM44.1657 529.884L43.0737 529.95L43.0738 529.951L44.1657 529.884ZM44.4971 533.971L44.3781 535.059L45.7473 535.209L45.5832 533.841L44.4971 533.971ZM42.0379 533.385C41.7357 531.761 41.2209 530.369 40.2771 529.592L38.8862 531.281C39.1942 531.535 39.5999 532.242 39.8869 533.785L42.0379 533.385ZM40.3054 529.616C39.3679 528.789 37.9348 528.514 36.3231 528.514L36.3231 530.702C37.8041 530.702 38.5435 530.98 38.8578 531.257L40.3054 529.616ZM36.3231 528.514L14.9491 528.514L14.9491 530.702L36.3231 530.702L36.3231 528.514ZM14.9491 528.514C14.3435 528.514 13.8028 528.548 13.3428 528.626C12.9032 528.701 12.4361 528.833 12.0573 529.099L13.312 530.891C13.3015 530.898 13.3959 530.837 13.7111 530.783C14.0059 530.733 14.4133 530.702 14.9491 530.702L14.9491 528.514ZM12.0974 529.072C11.2065 529.639 10.9832 530.673 10.9832 531.596L13.1711 531.596C13.1711 531.273 13.2129 531.079 13.2519 530.976C13.2858 530.887 13.3042 530.897 13.272 530.918L12.0974 529.072ZM10.9838 531.633L11.039 533.29L13.2257 533.217L13.1705 531.56L10.9838 531.633ZM11.5526 532.326L11.1108 532.602L12.2704 534.457L12.7122 534.181L11.5526 532.326ZM11.8216 532.443L8.61831 532.057L8.35615 534.229L11.5595 534.616L11.8216 532.443ZM9.58115 533.152L9.63638 526.58L7.44854 526.561L7.39331 533.134L9.58115 533.152ZM9.63642 526.57C9.63642 525.094 9.50507 522.318 9.2476 518.272L7.0641 518.411C7.32211 522.465 7.4485 525.175 7.4485 526.57L9.63642 526.57ZM8.0568 519.431L11.702 519.762L11.9001 517.583L8.25489 517.252L8.0568 519.431ZM10.7198 518.839C10.8727 519.833 11.0996 520.699 11.4636 521.323L13.3535 520.22C13.202 519.96 13.0239 519.427 12.8823 518.506L10.7198 518.839ZM11.4482 521.295C11.8074 521.954 12.3732 522.41 13.0652 522.676L13.8506 520.634C13.5853 520.532 13.4515 520.399 13.3689 520.248L11.4482 521.295ZM13.1362 522.701C13.743 522.887 14.6232 523.003 15.7023 523.078L15.8528 520.895C14.7964 520.822 14.1302 520.717 13.7796 520.609L13.1362 522.701ZM15.732 523.079L23.6851 523.411L23.7762 521.225L15.8231 520.893L15.732 523.079ZM24.8245 522.334L24.9349 515.099L22.7473 515.066L22.6368 522.301L24.8245 522.334ZM24.9351 515.083C24.9351 513.121 24.8031 510.891 24.5425 508.397L22.3665 508.624C22.6213 511.064 22.7472 513.215 22.7472 515.083L24.9351 515.083ZM23.4545 507.416L14.9491 507.416L14.9491 509.604L23.4545 509.604L23.4545 507.416ZM14.9491 507.416C14.3436 507.416 13.8028 507.45 13.3428 507.529C12.9032 507.604 12.4361 507.736 12.0574 508.001L13.312 509.793C13.3015 509.801 13.3959 509.739 13.7111 509.685C14.0059 509.635 14.4133 509.604 14.9491 509.604L14.9491 507.416ZM12.0974 507.974C11.2065 508.541 10.9832 509.575 10.9832 510.499L13.1711 510.499C13.1711 510.175 13.2129 509.981 13.2519 509.879C13.2858 509.789 13.3042 509.799 13.272 509.82L12.0974 507.974ZM10.9838 510.534L11.039 512.246L13.2258 512.175L13.1706 510.463L10.9838 510.534ZM11.5526 511.283L11.1108 511.559L12.2704 513.415L12.7122 513.138L11.5526 511.283ZM11.84 511.403L8.6367 510.961L8.33775 513.129L11.5411 513.571L11.84 511.403ZM9.58115 512.054L9.63638 505.095L7.44853 505.077L7.39331 512.036L9.58115 512.054ZM9.63642 505.086C9.63642 503.83 9.50486 501.125 9.24767 497.01L7.06402 497.146C7.32231 501.279 7.4485 503.912 7.4485 505.086L9.63642 505.086ZM8.07194 498.168L11.6619 498.445L11.8297 496.263L8.23975 495.987L8.07194 498.168ZM10.6617 497.5C10.759 498.221 10.8902 498.857 11.0649 499.392C11.2354 499.914 11.4714 500.416 11.823 500.799L13.4359 499.321C13.3825 499.263 13.2687 499.092 13.1447 498.713C13.0248 498.346 12.9166 497.849 12.8299 497.207L10.6617 497.5ZM11.82 500.796C12.4922 501.535 13.5935 501.793 14.7082 501.87L14.8587 499.687C13.8378 499.616 13.5031 499.395 13.4389 499.324L11.82 500.796ZM14.7214 501.87C17.9713 502.055 21.6983 502.221 25.9015 502.369L25.9782 500.182C21.7865 500.035 18.0758 499.87 14.8455 499.686L14.7214 501.87ZM25.9111 502.369C30.114 502.479 33.6407 502.535 36.4887 502.535L36.4887 500.347C33.6666 500.347 30.1606 500.292 25.9686 500.182L25.9111 502.369ZM36.4887 502.535C37.292 502.535 37.9955 502.497 38.5876 502.414C39.1639 502.333 39.7106 502.2 40.1516 501.964L39.122 500.034C39.0108 500.093 38.7567 500.181 38.2835 500.247C37.8264 500.311 37.2319 500.347 36.4887 500.347L36.4887 502.535ZM40.1997 501.937C41.1987 501.338 41.5593 500.285 41.5593 499.176L39.3713 499.176C39.3713 499.836 39.1796 499.998 39.074 500.061L40.1997 501.937ZM41.5593 499.176C41.5593 498.704 41.4972 497.95 41.3869 496.957L39.2123 497.199C39.3229 498.194 39.3713 498.839 39.3713 499.176L41.5593 499.176ZM40.8424 498.028L41.229 497.807L40.1435 495.907L39.7568 496.128L40.8424 498.028ZM40.5315 497.94L44.011 498.437L44.3204 496.271L40.8409 495.774L40.5315 497.94ZM43.0717 497.354C43.0717 497.857 43.053 498.181 43.0275 498.359L45.1934 498.668C45.2416 498.331 45.2596 497.881 45.2596 497.354L43.0717 497.354ZM43.0169 498.485C42.9431 501.288 42.906 503.563 42.906 505.307L45.094 505.307C45.094 503.59 45.1305 501.336 45.204 498.543L43.0169 498.485ZM42.9062 505.323L43.0166 512.945L45.2043 512.913L45.0938 505.291L42.9062 505.323ZM44.2461 511.843L40.7114 511.401L40.4401 513.572L43.9748 514.014L44.2461 511.843ZM41.6691 512.449C41.63 511.317 41.454 510.311 41.0439 509.542L39.1134 510.572C39.2925 510.907 39.4478 511.521 39.4824 512.525L41.6691 512.449ZM41.0571 509.568C40.6144 508.682 39.8635 508.097 38.9169 507.799L38.2581 509.885C38.7106 510.028 38.9538 510.253 39.1002 510.546L41.0571 509.568ZM38.9018 507.794C38.0138 507.527 36.8396 507.416 35.4394 507.416L35.4394 509.604C36.7638 509.604 37.6884 509.714 38.2731 509.89L38.9018 507.794ZM35.4394 507.416L28.3147 507.416L28.3147 509.604L35.4394 509.604L35.4394 507.416ZM27.2208 508.5L27.1656 514.576L29.3534 514.596L29.4086 508.52L27.2208 508.5ZM27.1655 514.586C27.1655 515.438 27.2233 516.575 27.3346 517.986L29.5158 517.813C29.4062 516.425 29.3535 515.354 29.3535 514.586L27.1655 514.586ZM27.3346 517.986C27.4455 519.39 27.5747 520.904 27.7223 522.527L29.9013 522.329C29.7543 520.713 29.6258 519.208 29.5158 517.813L27.3346 517.986ZM28.7889 523.522L36.6867 523.688L36.7326 521.5L28.8347 521.335L28.7889 523.522ZM36.7097 523.688C37.4949 523.688 38.1822 523.65 38.7588 523.566C39.3169 523.485 39.8571 523.349 40.2901 523.102L39.2045 521.202C39.122 521.249 38.8982 521.335 38.4438 521.401C38.0079 521.464 37.434 521.5 36.7097 521.5L36.7097 523.688ZM40.2901 523.102C41.2819 522.535 41.6145 521.493 41.6145 520.44L39.4266 520.44C39.4266 521.08 39.2436 521.18 39.2045 521.202L40.2901 523.102ZM41.6145 520.44C41.6145 520.003 41.5519 519.264 41.4421 518.276L39.2676 518.517C39.3786 519.517 39.4266 520.141 39.4266 520.44L41.6145 520.44ZM41.0552 519.237L41.3865 518.961L39.9859 517.28L39.6545 517.556L41.0552 519.237ZM40.5315 519.203L44.011 519.7L44.3204 517.534L40.8409 517.037L40.5315 519.203ZM43.0727 518.572C42.9619 521.231 42.906 523.457 42.906 525.245L45.094 525.245C45.094 523.498 45.1486 521.305 45.2587 518.663L43.0727 518.572ZM42.906 525.245C42.906 526.526 42.9625 528.096 43.0737 529.95L45.2577 529.819C45.148 527.99 45.094 526.467 45.094 525.245L42.906 525.245ZM43.0738 529.951C43.1846 531.761 43.2965 533.149 43.4109 534.102L45.5832 533.841C45.4767 532.953 45.3677 531.616 45.2576 529.817L43.0738 529.951ZM44.616 532.884L41.0813 532.497L40.8434 534.672L44.3781 535.059L44.616 532.884ZM44 471.87L43.9076 472.96L44.2708 472.99L44.5798 472.797L44 471.87ZM40.7414 471.594L39.6517 471.69L39.7326 472.606L40.6491 472.684L40.7414 471.594ZM40.4101 468.887L41.4828 468.673L41.4777 468.647L41.4714 468.622L40.4101 468.887ZM39.8578 467.672L40.6313 466.899L40.6016 466.869L40.5697 466.842L39.8578 467.672ZM36.8201 467.617L36.5877 466.548L36.5598 466.554L36.5323 466.562L36.8201 467.617ZM32.5674 468.777L32.2796 467.721L31.5051 467.933L31.4743 468.735L32.5674 468.777ZM32.7331 478L31.6433 478.096L31.6441 478.104L32.7331 478ZM32.8436 479.16L31.7545 479.264L31.8226 479.979L32.5058 480.2L32.8436 479.16ZM37.0963 480.541L36.7585 481.581L36.7833 481.589L36.8084 481.596L37.0963 480.541ZM40.1891 480.32L41.0853 480.947L41.0992 480.927L41.1121 480.907L40.1891 480.32ZM40.5758 475.901L39.9399 475.011L39.4818 475.338L39.4818 475.901L40.5758 475.901ZM40.9624 475.625L41.0871 474.538L40.669 474.49L40.3265 474.735L40.9624 475.625ZM44.3314 476.012L45.4226 476.09L45.4972 475.045L44.4561 474.925L44.3314 476.012ZM44.1105 479.326L43.0188 479.254L43.0181 479.266L43.0175 479.278L44.1105 479.326ZM44.0552 488.273L42.9617 488.305L42.9618 488.306L44.0552 488.273ZM44.1657 490.703L44.0486 491.791L45.376 491.934L45.2552 490.604L44.1657 490.703ZM40.5758 490.316L39.498 490.504L39.6392 491.316L40.4586 491.404L40.5758 490.316ZM39.5264 488.218L38.7528 488.991L39.5264 488.218ZM36.8201 486.671L37.2108 485.649L37.1976 485.644L37.1843 485.64L36.8201 486.671ZM8.81861 476.785L7.73058 476.899L7.80249 477.587L8.45441 477.817L8.81861 476.785ZM7.93493 468.335L6.93903 467.882L6.81597 468.153L6.8469 468.449L7.93493 468.335ZM8.21108 467.727L7.93268 466.669L7.43019 466.802L7.21518 467.275L8.21108 467.727ZM21.1349 464.303L21.4156 465.361L21.4227 465.359L21.1349 464.303ZM36.7649 459.774L36.4452 458.728L36.4336 458.732L36.7649 459.774ZM39.5816 458.228L40.4019 458.952L39.5816 458.228ZM40.5758 455.411L40.033 454.461L39.5363 454.745L39.486 455.315L40.5758 455.411ZM40.9624 455.19L41.0934 454.104L40.734 454.061L40.4196 454.24L40.9624 455.19ZM44.1657 455.577L45.2564 455.661L45.3368 454.616L44.2968 454.491L44.1657 455.577ZM44.1657 468.059L43.0736 468.123L43.0743 468.135L43.0752 468.146L44.1657 468.059ZM44.4418 471.594L45.0216 472.521L45.5799 472.172L45.533 471.516L44.4418 471.594ZM28.0386 469.771L29.1313 469.719L29.0669 468.367L27.7588 468.713L28.0386 469.771ZM15.7223 473.029L15.4425 471.972L14.6284 472.187L14.6284 473.029L15.7223 473.029ZM15.7223 473.747L14.6284 473.747L14.6284 474.54L15.3819 474.787L15.7223 473.747ZM28.2043 477.834L27.8639 478.874L29.2982 479.344L29.2982 477.834L28.2043 477.834ZM44.0924 470.78L40.8338 470.503L40.6491 472.684L43.9076 472.96L44.0924 470.78ZM41.8312 471.497C41.7204 470.242 41.6059 469.288 41.4828 468.673L39.3373 469.102C39.4351 469.591 39.5416 470.441 39.6517 471.69L41.8312 471.497ZM41.4714 468.622C41.3136 467.991 41.0719 467.339 40.6313 466.899L39.0842 468.446C39.0716 468.433 39.1067 468.465 39.1656 468.594C39.2224 468.719 39.2858 468.901 39.3488 469.153L41.4714 468.622ZM40.5697 466.842C40.0458 466.393 39.387 466.247 38.7532 466.247L38.7532 468.435C38.9109 468.435 39.0132 468.453 39.074 468.471C39.1035 468.48 39.1218 468.489 39.1319 468.494C39.1417 468.499 39.1454 468.502 39.1458 468.503L40.5697 466.842ZM38.7532 466.247C38.1904 466.247 37.4529 466.36 36.5877 466.548L37.0525 468.686C37.8811 468.506 38.4323 468.435 38.7532 468.435L38.7532 466.247ZM36.5323 466.562L32.2796 467.721L32.8553 469.832L37.108 468.672L36.5323 466.562ZM31.4743 468.735C31.4003 470.659 31.363 472.368 31.363 473.858L33.5509 473.858C33.5509 472.403 33.5873 470.723 33.6606 468.819L31.4743 468.735ZM31.363 473.858C31.363 474.577 31.4601 476.007 31.6433 478.096L33.8229 477.905C33.6379 475.796 33.5509 474.464 33.5509 473.858L31.363 473.858ZM31.6441 478.104L31.7545 479.264L33.9326 479.056L33.8221 477.896L31.6441 478.104ZM32.5058 480.2L36.7585 481.581L37.4341 479.5L33.1814 478.12L32.5058 480.2ZM36.8084 481.596C37.612 481.815 38.3129 481.966 38.8084 481.966L38.8084 479.778C38.6411 479.778 38.2006 479.708 37.3841 479.485L36.8084 481.596ZM38.8084 481.966C39.6491 481.966 40.5382 481.729 41.0853 480.947L39.2929 479.692C39.2928 479.693 39.2932 479.693 39.2909 479.694C39.2879 479.697 39.2748 479.706 39.2444 479.718C39.179 479.744 39.0448 479.778 38.8084 479.778L38.8084 481.966ZM41.1121 480.907C41.547 480.224 41.6697 479.271 41.6697 478.276L39.4818 478.276C39.4818 479.196 39.3468 479.606 39.2662 479.733L41.1121 480.907ZM41.6697 478.276L41.6697 475.901L39.4818 475.901L39.4818 478.276L41.6697 478.276ZM41.2116 476.792L41.5982 476.515L40.3265 474.735L39.9399 475.011L41.2116 476.792ZM40.8376 476.712L44.2067 477.099L44.4561 474.925L41.0871 474.538L40.8376 476.712ZM43.2402 475.934C43.2031 476.453 43.1292 477.562 43.0188 479.254L45.2021 479.397C45.3126 477.702 45.386 476.601 45.4226 476.09L43.2402 475.934ZM43.0175 479.278C42.9433 480.985 42.906 482.585 42.906 484.075L45.094 484.075C45.094 482.621 45.1303 481.053 45.2034 479.373L43.0175 479.278ZM42.906 484.075C42.906 485.63 42.9245 487.04 42.9617 488.305L45.1487 488.241C45.1123 487.002 45.094 485.614 45.094 484.075L42.906 484.075ZM42.9618 488.306C42.9984 489.516 43.0359 490.359 43.0762 490.802L45.2552 490.604C45.2218 490.237 45.1857 489.46 45.1487 488.24L42.9618 488.306ZM44.2828 489.615L40.6929 489.229L40.4586 491.404L44.0486 491.791L44.2828 489.615ZM41.6535 490.129C41.4717 489.083 41.0276 488.172 40.2999 487.444L38.7528 488.991C39.1298 489.368 39.3852 489.856 39.498 490.504L41.6535 490.129ZM40.2999 487.444C39.5875 486.732 38.5179 486.149 37.2108 485.649L36.4294 487.693C37.6261 488.151 38.3607 488.599 38.7528 488.991L40.2999 487.444ZM37.1843 485.64L9.1828 475.754L8.45441 477.817L36.4559 487.703L37.1843 485.64ZM9.90663 476.671L9.02295 468.221L6.8469 468.449L7.73058 476.899L9.90663 476.671ZM8.93083 468.788L9.20698 468.18L7.21518 467.275L6.93903 467.882L8.93083 468.788ZM8.48949 468.785C10.5896 468.233 14.8987 467.091 21.4156 465.36L20.8541 463.246C14.3368 464.976 10.03 466.118 7.93268 466.669L8.48949 468.785ZM21.4227 465.359C27.9098 463.589 33.136 462.075 37.0962 460.817L36.4336 458.732C32.5143 459.977 27.3205 461.482 20.847 463.248L21.4227 465.359ZM37.0846 460.821C38.4894 460.391 39.6542 459.799 40.4019 458.952L38.7613 457.504C38.4044 457.909 37.6914 458.347 36.4452 458.728L37.0846 460.821ZM40.4019 458.952C41.1691 458.082 41.5443 456.88 41.6655 455.507L39.486 455.315C39.3863 456.446 39.0987 457.122 38.7613 457.504L40.4019 458.952ZM41.1185 456.361L41.5051 456.14L40.4196 454.24L40.033 454.461L41.1185 456.361ZM40.8313 456.276L44.0346 456.663L44.2968 454.491L41.0934 454.104L40.8313 456.276ZM43.075 455.493C43.0358 456.002 42.9984 456.93 42.9617 458.253L45.1488 458.314C45.1857 456.985 45.222 456.109 45.2564 455.661L43.075 455.493ZM42.9617 458.253C42.9246 459.589 42.906 460.943 42.906 462.315L45.094 462.315C45.094 460.962 45.1122 459.629 45.1488 458.314L42.9617 458.253ZM42.906 462.315C42.906 464.287 42.9619 466.223 43.0736 468.123L45.2578 467.995C45.1486 466.139 45.094 464.246 45.094 462.315L42.906 462.315ZM43.0752 468.146C43.2226 469.988 43.3142 471.162 43.3507 471.671L45.533 471.516C45.4958 470.994 45.4033 469.811 45.2562 467.972L43.0752 468.146ZM43.862 470.666L43.4202 470.942L44.5798 472.797L45.0216 472.521L43.862 470.666ZM29.2982 473.858C29.2982 473.42 29.241 472.023 29.1313 469.719L26.9459 469.823C27.0571 472.158 27.1103 473.486 27.1103 473.858L29.2982 473.858ZM27.7588 468.713L15.4425 471.972L16.0021 474.087L28.3184 470.828L27.7588 468.713ZM14.6284 473.029L14.6284 473.747L16.8163 473.747L16.8163 473.029L14.6284 473.029ZM15.3819 474.787L27.8639 478.874L28.5447 476.795L16.0627 472.708L15.3819 474.787ZM29.2982 477.834L29.2982 473.858L27.1103 473.858L27.1103 477.834L29.2982 477.834ZM52.3397 413.076L53.4302 412.989L53.3497 411.977L52.3346 411.982L52.3397 413.076ZM52.7263 417.936L52.8587 419.022L53.9 418.895L53.8168 417.849L52.7263 417.936ZM48.1975 418.488L48.065 417.402L48.0573 417.403L48.0497 417.404L48.1975 418.488ZM44.8837 420.2L45.8051 420.79L44.8837 420.2ZM44.8837 441.574L43.9623 442.164L43.9678 442.173L43.9735 442.181L44.8837 441.574ZM48.1975 443.231L48.0497 444.315L48.0529 444.316L48.1975 443.231ZM52.3397 443.784L53.4302 443.697L53.3602 442.816L52.4843 442.699L52.3397 443.784ZM52.7263 448.644L52.7263 449.738L53.9107 449.738L53.8168 448.557L52.7263 448.644ZM40.5758 448.644L39.9194 449.519L40.2111 449.738L40.5758 449.738L40.5758 448.644ZM39.913 448.147L38.8841 448.518L38.9951 448.826L39.2566 449.022L39.913 448.147ZM36.4887 442.348L35.7376 443.143L35.7435 443.149L35.7495 443.154L36.4887 442.348ZM31.6838 439.697L31.9733 438.642L31.6838 439.697ZM22.2947 437.929L22.4583 436.848L22.4508 436.846L22.2947 437.929ZM16.1642 437.046L16.3202 435.963L16.3101 435.961L16.2999 435.96L16.1642 437.046ZM12.4638 442.9L12.995 443.856L13.5682 443.538L13.5576 442.882L12.4638 442.9ZM11.9667 443.176L11.8267 444.261L12.1835 444.307L12.498 444.132L11.9667 443.176ZM8.54246 442.734L7.4485 442.734L7.4485 443.696L8.40246 443.819L8.54246 442.734ZM8.26631 413.628L8.35021 412.537L7.01874 412.435L7.1804 413.761L8.26631 413.628ZM11.8562 413.904L12.9409 413.762L12.8251 412.882L11.9402 412.814L11.8562 413.904ZM12.7399 416.721L13.5803 416.021L13.575 416.014L12.7399 416.721ZM14.7834 417.494L14.7026 418.585L14.7041 418.585L14.7834 417.494ZM39.1398 417.77L39.691 418.715L39.7093 418.705L39.7271 418.693L39.1398 417.77ZM39.8025 416.169L40.8954 416.218L40.8955 416.215L39.8025 416.169ZM39.913 413.573L39.3062 412.663L38.8437 412.971L38.82 413.526L39.913 413.573ZM40.5758 413.131L40.5706 412.037L40.2422 412.039L39.9689 412.221L40.5758 413.131ZM13.955 425.723L14.6384 426.578L14.6632 426.558L14.6868 426.537L13.955 425.723ZM13.4027 427.546L14.4965 427.563L14.4966 427.555L14.4966 427.546L13.4027 427.546ZM13.3475 431.081L12.2536 431.064L12.2385 432.031L13.197 432.164L13.3475 431.081ZM23.2888 432.461L23.1383 433.545L23.1484 433.546L23.2888 432.461ZM30.9658 433.787L30.7097 434.851L30.7169 434.852L30.7242 434.854L30.9658 433.787ZM36.0469 435.775L35.4736 436.707L35.4805 436.711L36.0469 435.775ZM39.2502 439.2L38.2768 439.699L38.6731 440.471L39.5156 440.261L39.2502 439.2ZM39.6921 439.089L39.9574 440.15L40.786 439.943L40.786 439.089L39.6921 439.089ZM51.2492 413.163L51.6358 418.023L53.8168 417.849L53.4302 412.989L51.2492 413.163ZM52.5939 416.85L48.065 417.402L48.3299 419.574L52.8587 419.022L52.5939 416.85ZM48.0497 417.404C46.2718 417.647 44.7957 418.309 43.9623 419.611L45.8051 420.79C46.1499 420.251 46.883 419.772 48.3453 419.572L48.0497 417.404ZM43.9623 419.611C43.2026 420.798 42.906 422.49 42.906 424.508L45.094 424.508C45.094 422.623 45.3865 421.444 45.8051 420.79L43.9623 419.611ZM42.906 424.508L42.906 437.211L45.094 437.211L45.094 424.508L42.906 424.508ZM42.906 437.211C42.906 439.261 43.2011 440.975 43.9623 442.164L45.8051 440.985C45.388 440.333 45.094 439.138 45.094 437.211L42.906 437.211ZM43.9735 442.181C44.8122 443.439 46.286 444.075 48.0497 444.315L48.3453 442.147C46.8688 441.946 46.1334 441.477 45.7939 440.968L43.9735 442.181ZM48.0529 444.316L52.1951 444.868L52.4843 442.699L48.342 442.147L48.0529 444.316ZM51.2492 443.87L51.6358 448.731L53.8168 448.557L53.4302 443.697L51.2492 443.87ZM52.7263 447.55L40.5758 447.55L40.5758 449.738L52.7263 449.738L52.7263 447.55ZM41.2321 447.769L40.5694 447.272L39.2566 449.022L39.9194 449.519L41.2321 447.769ZM40.9419 447.775C39.9553 445.043 38.7372 442.925 37.228 441.541L35.7495 443.154C36.8913 444.201 37.956 445.948 38.8841 448.518L40.9419 447.775ZM37.2399 441.552C35.7753 440.169 34.0118 439.201 31.9733 438.642L31.3942 440.752C33.1113 441.223 34.5512 442.022 35.7376 443.143L37.2399 441.552ZM31.9733 438.642C30.028 438.108 26.8427 437.511 22.4583 436.848L22.1311 439.011C26.5098 439.673 29.5838 440.255 31.3942 440.752L31.9733 438.642ZM22.4508 436.846L16.3202 435.963L16.0081 438.128L22.1386 439.012L22.4508 436.846ZM16.2999 435.96C15.7165 435.887 15.2475 435.841 14.9491 435.841L14.9491 438.029C15.0926 438.029 15.4336 438.057 16.0285 438.131L16.2999 435.96ZM14.9491 435.841C14.2869 435.841 13.6445 435.977 13.0875 436.324C12.5201 436.676 12.1265 437.194 11.8869 437.807L13.9244 438.604C14.0161 438.37 14.1288 438.252 14.2426 438.182C14.3667 438.105 14.5803 438.029 14.9491 438.029L14.9491 435.841ZM11.8869 437.807C11.4677 438.878 11.3333 440.645 11.37 442.918L13.5576 442.882C13.5206 440.589 13.6808 439.226 13.9244 438.604L11.8869 437.807ZM11.9325 441.944L11.4354 442.22L12.498 444.132L12.995 443.856L11.9325 441.944ZM12.1067 442.091L8.68245 441.649L8.40246 443.819L11.8267 444.261L12.1067 442.091ZM9.63642 442.734L9.63642 421.36L7.4485 421.36L7.4485 442.734L9.63642 442.734ZM9.63642 421.36C9.63642 417.715 9.54519 415.078 9.35222 413.496L7.1804 413.761C7.35563 415.197 7.4485 417.715 7.4485 421.36L9.63642 421.36ZM8.18241 414.719L11.7723 414.995L11.9402 412.814L8.35021 412.537L8.18241 414.719ZM10.7716 414.047C10.8687 414.785 10.9991 415.436 11.1714 415.985C11.3402 416.523 11.57 417.032 11.9048 417.428L13.575 416.014C13.5048 415.931 13.3848 415.731 13.259 415.33C13.1369 414.941 13.0279 414.423 12.9409 413.762L10.7716 414.047ZM11.8995 417.421C12.5568 418.21 13.6153 418.505 14.7026 418.585L14.8642 416.403C13.9633 416.336 13.6594 416.116 13.5803 416.021L11.8995 417.421ZM14.7041 418.585C20.8137 419.03 28.1135 419.251 36.5992 419.251L36.5992 417.063C28.1477 417.063 20.9037 416.842 14.8628 416.403L14.7041 418.585ZM36.5992 419.251C37.2576 419.251 37.8414 419.217 38.3378 419.142C38.8181 419.069 39.2971 418.945 39.691 418.715L38.5886 416.825C38.5406 416.853 38.3752 416.923 38.0087 416.979C37.6583 417.032 37.1927 417.063 36.5992 417.063L36.5992 419.251ZM39.7271 418.693C40.5925 418.143 40.8535 417.14 40.8954 416.218L38.7097 416.119C38.6949 416.444 38.6451 416.645 38.5984 416.758C38.5561 416.861 38.5294 416.862 38.5525 416.847L39.7271 418.693ZM40.8955 416.215L41.006 413.619L38.82 413.526L38.7096 416.122L40.8955 416.215ZM40.5198 414.483L41.1826 414.041L39.9689 412.221L39.3062 412.663L40.5198 414.483ZM40.5809 414.225L52.3448 414.17L52.3346 411.982L40.5706 412.037L40.5809 414.225ZM16.0537 424.132C15.4866 424.132 14.9632 424.177 14.5037 424.286C14.0506 424.393 13.5913 424.579 13.2232 424.91L14.6868 426.537C14.6846 426.539 14.7019 426.522 14.7549 426.498C14.8084 426.473 14.89 426.443 15.0079 426.415C15.248 426.358 15.5898 426.32 16.0537 426.32L16.0537 424.132ZM13.2716 424.869C12.4813 425.501 12.3087 426.581 12.3087 427.546L14.4966 427.546C14.4966 427.149 14.5374 426.883 14.5877 426.717C14.6374 426.553 14.6775 426.546 14.6384 426.578L13.2716 424.869ZM12.3089 427.529L12.2536 431.064L14.4413 431.098L14.4965 427.563L12.3089 427.529ZM13.197 432.164L23.1383 433.545L23.4393 431.378L13.4979 429.997L13.197 432.164ZM23.1484 433.546C26.2576 433.949 28.7742 434.385 30.7097 434.851L31.2218 432.723C29.1808 432.232 26.5794 431.784 23.4292 431.377L23.1484 433.546ZM30.7242 434.854C32.5797 435.274 34.1571 435.897 35.4736 436.707L36.6202 434.844C35.0648 433.886 33.2548 433.184 31.2073 432.72L30.7242 434.854ZM35.4805 436.711C36.7086 437.454 37.6343 438.446 38.2768 439.699L40.2237 438.7C39.3934 437.081 38.1836 435.79 36.6134 434.839L35.4805 436.711ZM39.5156 440.261L39.9574 440.15L39.4268 438.028L38.9849 438.138L39.5156 440.261ZM40.786 439.089L40.786 429.424L38.5981 429.424L38.5981 439.089L40.786 439.089ZM40.786 429.424C40.786 427.766 40.5214 426.279 39.6617 425.362L38.0655 426.858C38.3104 427.119 38.5981 427.842 38.5981 429.424L40.786 429.424ZM39.6617 425.362C38.7726 424.413 37.2614 424.132 35.6051 424.132L35.6051 426.32C37.1889 426.32 37.8501 426.628 38.0655 426.858L39.6617 425.362ZM35.6051 424.132L16.0537 424.132L16.0537 426.32L35.6051 426.32L35.6051 424.132ZM33.5616 374.99L33.7814 373.918L33.2877 373.817L32.8899 374.126L33.5616 374.99ZM43.7791 376.481L44.515 375.671L44.2488 375.429L43.891 375.393L43.7791 376.481ZM44.3866 377.033L45.4798 377.073L45.4984 376.565L45.1225 376.224L44.3866 377.033ZM44.5523 403.654L44.4386 404.742L45.7948 404.884L45.6391 403.529L44.5523 403.654ZM40.8519 403.267L39.7689 403.422L39.8896 404.267L40.7382 404.355L40.8519 403.267ZM39.5264 400.119L40.2267 399.279L39.5264 400.119ZM36.1021 399.291L36.0993 400.385L36.1021 400.385L36.1021 399.291ZM15.0596 399.236L15.0624 398.142L15.0596 398.142L15.0596 399.236ZM12.6847 399.567L13.2085 400.527L13.2283 400.517L13.2475 400.505L12.6847 399.567ZM12.1876 402.715L12.7944 403.625L13.3484 403.256L13.2749 402.594L12.1876 402.715ZM11.6906 403.046L11.546 404.131L11.9545 404.185L12.2974 403.957L11.6906 403.046ZM8.37677 402.605L7.28281 402.605L7.28281 403.562L8.23219 403.689L8.37677 402.605ZM8.37677 401.5L7.28378 401.454L7.28281 401.477L7.28281 401.5L8.37677 401.5ZM7.8797 375.818L7.23627 374.933L6.70046 375.323L6.79755 375.978L7.8797 375.818ZM8.48723 375.376L8.71842 374.307L8.23981 374.204L7.8438 374.492L8.48723 375.376ZM13.3475 376.205L13.1987 377.289L13.2092 377.29L13.2196 377.291L13.3475 376.205ZM18.4838 376.647L19.5753 376.573L19.5097 375.6L18.5359 375.554L18.4838 376.647ZM18.8152 381.562L18.7606 382.655L19.9894 382.716L19.9067 381.488L18.8152 381.562ZM16.606 381.452L16.6606 380.359L16.6333 380.358L16.606 380.358L16.606 381.452ZM14.2864 381.949L14.8597 382.88L14.9025 382.854L14.9427 382.824L14.2864 381.949ZM13.3475 383.826L14.4202 384.041L14.425 384.017L14.4287 383.993L13.3475 383.826ZM13.1818 390.509L14.2545 390.295L13.1818 390.509ZM13.6788 391.282L13.1361 392.232L13.1904 392.263L13.2479 392.288L13.6788 391.282ZM14.9491 391.503L14.8809 392.595L14.8906 392.596L14.9004 392.596L14.9491 391.503ZM23.6202 391.89L23.5715 392.983L24.7021 393.033L24.7141 391.902L23.6202 391.89ZM23.6754 386.698L24.7694 386.71L24.7694 386.698L23.6754 386.698ZM23.565 383.826L24.6567 383.756L24.6556 383.74L24.6541 383.724L23.565 383.826ZM23.1784 380.292L22.4516 379.474L22.0215 379.856L22.0929 380.427L23.1784 380.292ZM23.6754 379.85L23.8532 378.77L23.3385 378.686L22.9486 379.032L23.6754 379.85ZM28.37 380.623L29.4639 380.623L29.4639 379.695L28.5477 379.544L28.37 380.623ZM28.3147 381.728L27.2318 381.573L27.223 381.634L27.2212 381.696L28.3147 381.728ZM28.5357 392.111L27.4509 392.252L27.5734 393.192L28.5204 393.205L28.5357 392.111ZM36.4335 392.221L36.4182 393.315L36.4259 393.315L36.4335 393.315L36.4335 392.221ZM38.6427 392L38.9886 393.038L39.0266 393.026L39.0635 393.01L38.6427 392ZM39.5264 391.062L40.5642 391.407L40.5682 391.395L40.572 391.383L39.5264 391.062ZM39.3607 383.385L40.4241 383.128L40.4211 383.115L40.4177 383.103L39.3607 383.385ZM37.6486 381.01L37.1103 381.962L37.1103 381.962L37.6486 381.01ZM33.4511 379.905L32.3611 379.998L32.4359 380.874L33.3079 380.99L33.4511 379.905ZM33.0645 375.376L32.3929 374.513L31.924 374.877L31.9745 375.469L33.0645 375.376ZM33.3417 376.061C36.2593 376.66 39.7029 377.162 43.6672 377.569L43.891 375.393C39.9758 374.99 36.6078 374.498 33.7814 373.918L33.3417 376.061ZM43.0432 377.29L43.6507 377.843L45.1225 376.224L44.515 375.671L43.0432 377.29ZM43.2934 376.993C43.0354 384.032 42.906 389.772 42.906 394.21L45.094 394.21C45.094 389.81 45.2223 384.099 45.4798 377.073L43.2934 376.993ZM42.906 394.21C42.906 397.346 43.0927 400.536 43.4655 403.779L45.6391 403.529C45.2755 400.365 45.094 397.259 45.094 394.21L42.906 394.21ZM44.666 402.566L40.9656 402.179L40.7382 404.355L44.4386 404.742L44.666 402.566ZM41.9349 403.113C41.7035 401.493 41.2108 400.099 40.2267 399.279L38.8261 400.96C39.1675 401.244 39.5584 401.949 39.7689 403.422L41.9349 403.113ZM40.2267 399.279C39.2564 398.47 37.7819 398.197 36.1021 398.197L36.1021 400.385C37.6625 400.385 38.4708 400.664 38.8261 400.96L40.2267 399.279ZM36.105 398.197L15.0624 398.142L15.0567 400.329L36.0993 400.385L36.105 398.197ZM15.0596 398.142C14.4246 398.142 13.8679 398.17 13.4034 398.235C12.9658 398.296 12.4984 398.403 12.1219 398.629L13.2475 400.505C13.2392 400.51 13.3517 400.451 13.7057 400.402C14.0329 400.356 14.4795 400.33 15.0596 400.33L15.0596 398.142ZM12.1608 398.607C11.2262 399.116 10.9832 400.121 10.9832 401.003L13.1711 401.003C13.1711 400.725 13.2109 400.579 13.2365 400.518C13.2544 400.476 13.2502 400.505 13.2085 400.527L12.1608 398.607ZM10.9832 401.003C10.9832 401.534 11.0239 402.147 11.1004 402.836L13.2749 402.594C13.2041 401.957 13.1711 401.429 13.1711 401.003L10.9832 401.003ZM11.5808 401.805L11.0837 402.136L12.2974 403.957L12.7944 403.625L11.5808 401.805ZM11.8351 401.962L8.52135 401.52L8.23219 403.689L11.546 404.131L11.8351 401.962ZM9.47073 402.605L9.47073 401.5L7.28281 401.5L7.28281 402.605L9.47073 402.605ZM9.46975 401.546C9.581 398.913 9.63642 395.933 9.63642 392.608L7.4485 392.608C7.4485 395.91 7.39345 398.858 7.28378 401.454L9.46975 401.546ZM9.63642 392.608C9.63642 384.405 9.41716 378.731 8.96185 375.658L6.79755 375.978C7.22591 378.87 7.4485 384.389 7.4485 392.608L9.63642 392.608ZM8.52313 376.703L9.13066 376.261L7.8438 374.492L7.23627 374.933L8.52313 376.703ZM8.25604 376.446C9.65335 376.748 11.3023 377.028 13.1987 377.289L13.4962 375.121C11.637 374.866 10.0458 374.594 8.71842 374.307L8.25604 376.446ZM13.2196 377.291C15.1174 377.514 16.8552 377.664 18.4318 377.739L18.5359 375.554C17.0196 375.482 15.3332 375.337 13.4753 375.118L13.2196 377.291ZM17.3923 376.72L17.7237 381.636L19.9067 381.488L19.5753 376.573L17.3923 376.72ZM18.8698 380.469L16.6606 380.359L16.5514 382.544L18.7606 382.655L18.8698 380.469ZM16.606 380.358C15.4627 380.358 14.3744 380.515 13.63 381.073L14.9427 382.824C15.0819 382.719 15.5401 382.546 16.606 382.546L16.606 380.358ZM13.713 381.017C12.8162 381.569 12.4286 382.605 12.2662 383.66L14.4287 383.993C14.5609 383.133 14.7992 382.917 14.8597 382.88L13.713 381.017ZM12.2747 383.612C12.0673 384.649 11.9773 386.31 11.9773 388.521L14.1653 388.521C14.1653 386.313 14.2594 384.845 14.4202 384.041L12.2747 383.612ZM11.9773 388.521C11.9773 389.473 12.0116 390.236 12.109 390.724L14.2545 390.295C14.2047 390.046 14.1653 389.483 14.1653 388.521L11.9773 388.521ZM12.109 390.724C12.227 391.314 12.534 391.888 13.1361 392.232L14.2216 390.333C14.2335 390.339 14.2466 390.349 14.259 390.361C14.2712 390.372 14.2784 390.382 14.2815 390.387C14.2872 390.396 14.2703 390.374 14.2545 390.295L12.109 390.724ZM13.2479 392.288C13.6894 392.477 14.2737 392.557 14.8809 392.595L15.0174 390.412C14.4463 390.376 14.1837 390.309 14.1098 390.277L13.2479 392.288ZM14.9004 392.596L23.5715 392.983L23.6689 390.797L14.9978 390.411L14.9004 392.596ZM24.7141 391.902L24.7693 386.71L22.5815 386.687L22.5263 391.878L24.7141 391.902ZM24.7694 386.698C24.7694 385.893 24.7312 384.911 24.6567 383.756L22.4733 383.897C22.546 385.025 22.5815 385.957 22.5815 386.698L24.7694 386.698ZM24.6541 383.724C24.5426 382.535 24.4125 381.345 24.2639 380.156L22.0929 380.427C22.2387 381.595 22.3664 382.762 22.4758 383.929L24.6541 383.724ZM23.9051 381.109L24.4022 380.668L22.9486 379.032L22.4516 379.474L23.9051 381.109ZM23.4976 380.929L28.1922 381.703L28.5477 379.544L23.8532 378.77L23.4976 380.929ZM27.276 380.623C27.276 381.085 27.2576 381.392 27.2318 381.573L29.3977 381.882C29.4455 381.548 29.4639 381.118 29.4639 380.623L27.276 380.623ZM27.2212 381.696C27.1475 384.278 27.1103 386.333 27.1103 387.858L29.2982 387.858C29.2982 386.364 29.3347 384.332 29.4082 381.759L27.2212 381.696ZM27.1103 387.858C27.1103 389.064 27.2265 390.532 27.4509 392.252L29.6204 391.969C29.4029 390.302 29.2982 388.935 29.2982 387.858L27.1103 387.858ZM28.5204 393.205L36.4182 393.315L36.4488 391.128L28.551 391.017L28.5204 393.205ZM36.4335 393.315C37.4746 393.315 38.3657 393.246 38.9886 393.038L38.2968 390.963C38.0361 391.05 37.4543 391.127 36.4335 391.127L36.4335 393.315ZM39.0635 393.01C39.788 392.708 40.3138 392.159 40.5642 391.407L38.4886 390.716C38.4445 390.848 38.3811 390.924 38.222 390.991L39.0635 393.01ZM40.572 391.383C40.7718 390.734 40.8413 389.779 40.8413 388.631L38.6533 388.631C38.6533 389.767 38.5756 390.432 38.4808 390.74L40.572 391.383ZM40.8413 388.631C40.8413 386.193 40.7147 384.332 40.4241 383.128L38.2973 383.641C38.5222 384.573 38.6533 386.209 38.6533 388.631L40.8413 388.631ZM40.4177 383.103C40.0617 381.768 39.3344 380.706 38.1869 380.057L37.1103 381.962C37.6564 382.271 38.0705 382.792 38.3037 383.666L40.4177 383.103ZM38.1869 380.057C37.1476 379.47 35.5719 379.082 33.5943 378.821L33.3079 380.99C35.2332 381.244 36.4558 381.592 37.1103 381.962L38.1869 380.057ZM34.5411 379.812L34.1545 375.283L31.9745 375.469L32.3611 379.998L34.5411 379.812ZM33.7361 376.24L34.2332 375.853L32.8899 374.126L32.3929 374.513L33.7361 376.24ZM40.7414 360.867L39.6516 360.962L39.7284 361.845L40.6078 361.953L40.7414 360.867ZM40.0787 357.222L41.0944 356.816L40.0787 357.222ZM38.5323 355.731L38.1709 356.763L38.1709 356.763L38.5323 355.731ZM12.7399 355.344L12.7399 354.25L11.6076 354.25L11.6466 355.382L12.7399 355.344ZM13.2922 359.873L12.2544 360.219L12.2566 360.226L12.259 360.232L13.2922 359.873ZM15.1148 361.64L15.4989 360.616L15.4922 360.614L15.4854 360.611L15.1148 361.64ZM19.975 362.524L21.0661 362.444L20.9996 361.536L20.094 361.437L19.975 362.524ZM20.3064 367.053L20.2145 368.143L21.4909 368.251L21.3975 366.973L20.3064 367.053ZM8.54246 366.39L7.76892 367.164L8.07204 367.467L8.50041 367.483L8.54246 366.39ZM7.93493 365.783L6.84766 365.662L6.7896 366.184L7.16138 366.556L7.93493 365.783ZM8.54246 360.315L9.62973 360.436L9.63642 360.376L9.63642 360.315L8.54246 360.315ZM8.54246 343.083L9.63642 343.083L9.63642 343.024L9.62999 342.965L8.54246 343.083ZM7.93493 337.505L7.16139 336.731L6.79063 337.102L6.8474 337.623L7.93493 337.505ZM8.54246 336.897L8.52423 335.804L8.0818 335.811L7.76892 336.124L8.54246 336.897ZM19.975 336.345L21.0661 336.265L20.9847 335.154L19.8749 335.256L19.975 336.345ZM20.3064 340.874L20.4342 341.96L21.4738 341.838L21.3975 340.794L20.3064 340.874ZM15.17 341.813L15.5034 342.855L15.5221 342.849L15.5406 342.842L15.17 341.813ZM13.3475 343.47L14.353 343.901L14.3651 343.873L14.3755 343.844L13.3475 343.47ZM12.7399 347.667L11.6467 347.628L11.6082 348.687L12.6662 348.759L12.7399 347.667ZM23.8411 348.164L23.8067 349.258L23.8153 349.258L23.8411 348.164ZM39.5264 347.612L38.8365 346.763L39.5264 347.612ZM40.2444 342.365L39.561 341.511L39.0928 341.886L39.1566 342.482L40.2444 342.365ZM40.5205 342.144L40.6662 341.06L40.2025 340.998L39.8371 341.29L40.5205 342.144ZM44.2209 342.641L45.3141 342.683L45.3516 341.689L44.3666 341.557L44.2209 342.641ZM44.3314 361.309L44.1977 362.395L45.4924 362.554L45.4238 361.252L44.3314 361.309ZM41.8313 360.772C41.6828 359.065 41.4529 357.712 41.0944 356.816L39.063 357.628C39.2936 358.205 39.5055 359.282 39.6516 360.962L41.8313 360.772ZM41.0944 356.816C40.6847 355.791 39.934 355.062 38.8936 354.698L38.1709 356.763C38.6033 356.915 38.8836 357.18 39.063 357.628L41.0944 356.816ZM38.8936 354.698C37.9698 354.375 36.5941 354.25 34.8871 354.25L34.8871 356.438C36.5675 356.438 37.6219 356.571 38.1709 356.763L38.8936 354.698ZM34.8871 354.25L12.7399 354.25L12.7399 356.438L34.8871 356.438L34.8871 354.25ZM11.6466 355.382C11.7204 357.522 11.9054 359.172 12.2544 360.219L14.33 359.527C14.0899 358.807 13.9067 357.437 13.8332 355.307L11.6466 355.382ZM12.259 360.232C12.6728 361.422 13.5454 362.238 14.7443 362.67L15.4854 360.611C14.8432 360.38 14.5007 360.018 14.3255 359.514L12.259 360.232ZM14.7307 362.665C15.7581 363.05 17.5048 363.354 19.8561 363.612L20.094 361.437C17.7323 361.178 16.2389 360.894 15.4989 360.616L14.7307 362.665ZM18.884 362.604L19.2154 367.133L21.3975 366.973L21.0661 362.444L18.884 362.604ZM20.3983 365.963C17.3192 365.703 13.3796 365.481 8.5845 365.297L8.50041 367.483C13.2785 367.667 17.1815 367.887 20.2145 368.143L20.3983 365.963ZM9.316 365.617L8.70847 365.009L7.16138 366.556L7.76892 367.164L9.316 365.617ZM9.0222 365.903L9.62973 360.436L7.45519 360.194L6.84766 365.662L9.0222 365.903ZM9.63642 360.315L9.63642 343.083L7.4485 343.083L7.4485 360.315L9.63642 360.315ZM9.62999 342.965L9.02246 337.387L6.8474 337.623L7.45493 343.202L9.62999 342.965ZM8.70847 338.279L9.316 337.671L7.76892 336.124L7.16139 336.731L8.70847 338.279ZM8.56069 337.991C12.9971 337.917 16.8367 337.732 20.0752 337.435L19.8749 335.256C16.7067 335.547 12.9246 335.73 8.52423 335.804L8.56069 337.991ZM18.884 336.425L19.2154 340.954L21.3975 340.794L21.0661 336.265L18.884 336.425ZM20.1786 339.788C17.6819 340.081 15.8529 340.404 14.7995 340.784L15.5406 342.842C16.3282 342.559 17.9234 342.256 20.4342 341.96L20.1786 339.788ZM14.8366 340.771C13.6383 341.154 12.7447 341.926 12.3194 343.096L14.3755 343.844C14.5393 343.393 14.8608 343.061 15.5034 342.855L14.8366 340.771ZM12.3419 343.039C11.9219 344.019 11.7202 345.605 11.6467 347.628L13.8332 347.707C13.9069 345.679 14.1103 344.467 14.353 343.901L12.3419 343.039ZM12.6662 348.759C15.4099 348.944 19.1252 349.11 23.8067 349.258L23.8756 347.071C19.2047 346.924 15.5193 346.759 12.8137 346.576L12.6662 348.759ZM23.8153 349.258C28.4982 349.369 32.7597 349.424 36.5992 349.424L36.5992 347.236C32.7802 347.236 28.5363 347.181 23.867 347.071L23.8153 349.258ZM36.5992 349.424C38.0353 349.424 39.3286 349.182 40.2162 348.461L38.8365 346.763C38.546 346.999 37.8878 347.236 36.5992 347.236L36.5992 349.424ZM40.2162 348.461C41.1531 347.7 41.504 346.549 41.504 345.292L39.3161 345.292C39.3161 346.171 39.078 346.567 38.8365 346.763L40.2162 348.461ZM41.504 345.292C41.504 344.328 41.4462 343.314 41.3321 342.249L39.1566 342.482C39.2635 343.479 39.3161 344.415 39.3161 345.292L41.504 345.292ZM40.9278 343.219L41.2039 342.999L39.8371 341.29L39.561 341.511L40.9278 343.219ZM40.3749 343.229L44.0753 343.726L44.3666 341.557L40.6662 341.06L40.3749 343.229ZM43.1277 342.6C42.9802 346.51 42.906 349.691 42.906 352.141L45.094 352.141C45.094 349.73 45.1671 346.579 45.3141 342.683L43.1277 342.6ZM42.906 352.141C42.906 354.086 43.0179 357.167 43.2389 361.367L45.4238 361.252C45.203 357.056 45.094 354.025 45.094 352.141L42.906 352.141ZM44.465 360.223L40.8751 359.781L40.6078 361.953L44.1977 362.395L44.465 360.223ZM44.2762 316.386L43.1895 316.26L43.1889 316.265L44.2762 316.386ZM44.1105 318.264L43.02 318.177L44.1105 318.264ZM44.5523 328.371L44.4369 329.459L45.7881 329.602L45.6397 328.251L44.5523 328.371ZM40.9071 327.984L39.8334 328.194L39.9882 328.987L40.7918 329.072L40.9071 327.984ZM39.5264 324.891L40.2502 324.071L39.5264 324.891ZM36.4887 324.063L36.4859 325.157L36.4887 325.157L36.4887 324.063ZM14.9491 324.008L14.9138 325.101L14.9301 325.102L14.9463 325.102L14.9491 324.008ZM12.6847 324.394L13.272 325.317L13.3219 325.286L13.3681 325.249L12.6847 324.394ZM12.0772 325.941L10.9832 325.941L10.9832 325.957L10.9837 325.973L12.0772 325.941ZM12.1324 327.819L12.7122 328.746L13.2443 328.414L13.2259 327.786L12.1324 327.819ZM11.6906 328.095L11.5411 329.178L11.934 329.233L12.2704 329.022L11.6906 328.095ZM8.48723 327.653L7.39381 327.619L7.36307 328.602L8.33775 328.737L8.48723 327.653ZM8.15585 311.968L8.25489 310.878L6.9597 310.76L7.06552 312.057L8.15585 311.968ZM11.801 312.299L12.8877 312.173L12.785 311.29L11.9001 311.21L11.801 312.299ZM12.6847 315.502L13.5669 314.855L12.6847 315.502ZM14.9491 316.386L14.992 315.293L14.9856 315.293L14.9491 316.386ZM23.3993 316.717L23.3564 317.811L24.4932 317.855L24.4932 316.717L23.3993 316.717ZM26.0503 301.971L26.8989 302.661L26.9045 302.654L26.0503 301.971ZM39.195 300.369L38.5836 301.277L39.195 300.369ZM43.1716 305.174L44.1675 304.722L44.1638 304.714L43.1716 305.174ZM38.477 308.157L39.265 307.398L39.2579 307.391L39.2506 307.383L38.477 308.157ZM29.8612 308.046L30.5898 308.862L30.5971 308.856L30.6044 308.849L29.8612 308.046ZM27.8729 312.299L26.7917 312.133L26.7729 312.255L26.7818 312.378L27.8729 312.299ZM28.2043 316.883L27.1132 316.962L27.1851 317.957L28.1828 317.977L28.2043 316.883ZM36.6544 317.049L36.633 318.143L36.6437 318.143L36.6544 318.143L36.6544 317.049ZM39.1398 315.944L40.036 316.572L40.0431 316.561L40.05 316.551L39.1398 315.944ZM43.4583 312.133C43.4583 313.333 43.37 314.708 43.1895 316.26L45.3628 316.512C45.5505 314.898 45.6463 313.437 45.6463 312.133L43.4583 312.133ZM43.1889 316.265C43.1499 316.616 43.0935 317.258 43.02 318.177L45.2009 318.351C45.2747 317.429 45.3287 316.819 45.3634 316.507L43.1889 316.265ZM43.02 318.177C42.9446 319.119 42.906 319.978 42.906 320.749L45.094 320.749C45.094 320.048 45.1291 319.25 45.2009 318.351L43.02 318.177ZM42.906 320.749C42.906 322.541 43.0956 325.13 43.4649 328.49L45.6397 328.251C45.2726 324.911 45.094 322.418 45.094 320.749L42.906 320.749ZM44.6677 327.283L41.0225 326.896L40.7918 329.072L44.4369 329.459L44.6677 327.283ZM41.9808 327.775C41.6741 326.203 41.1555 324.87 40.2502 324.071L38.8026 325.712C39.1491 326.018 39.5511 326.747 39.8334 328.194L41.9808 327.775ZM40.2502 324.071C39.3272 323.257 37.9875 322.969 36.4887 322.969L36.4887 325.157C37.7883 325.157 38.4737 325.422 38.8026 325.712L40.2502 324.071ZM36.4916 322.969L14.9519 322.914L14.9463 325.102L36.4859 325.157L36.4916 322.969ZM14.9844 322.914C14.3723 322.895 13.8186 322.917 13.3428 322.998C12.8846 323.077 12.3937 323.226 12.0013 323.54L13.3681 325.249C13.3439 325.268 13.4145 325.206 13.7111 325.155C13.9901 325.108 14.3845 325.084 14.9138 325.101L14.9844 322.914ZM12.0974 323.471C11.2189 324.031 10.9832 325.03 10.9832 325.941L13.1711 325.941C13.1711 325.641 13.2116 325.465 13.2473 325.374C13.2773 325.298 13.2938 325.303 13.272 325.317L12.0974 323.471ZM10.9837 325.973L11.0389 327.851L13.2259 327.786L13.1707 325.909L10.9837 325.973ZM11.5526 326.891L11.1108 327.167L12.2704 329.022L12.7122 328.746L11.5526 326.891ZM11.84 327.011L8.63671 326.569L8.33775 328.737L11.5411 329.178L11.84 327.011ZM9.58065 327.687C9.65437 325.328 9.69165 323.547 9.69165 322.351L7.50373 322.351C7.50373 323.511 7.46737 325.265 7.39381 327.619L9.58065 327.687ZM9.69165 322.351C9.69165 319.005 9.54294 315.514 9.24618 311.879L7.06552 312.057C7.35788 315.638 7.50373 319.069 7.50373 322.351L9.69165 322.351ZM8.05681 313.057L11.702 313.389L11.9001 311.21L8.25489 310.878L8.05681 313.057ZM10.7144 312.425C10.8103 313.251 10.9384 313.973 11.1054 314.578C11.269 315.171 11.4879 315.72 11.8025 316.149L13.5669 314.855C13.4765 314.732 13.3456 314.471 13.2146 313.996C13.0871 313.534 12.9758 312.931 12.8877 312.173L10.7144 312.425ZM11.8025 316.149C12.502 317.103 13.6779 317.438 14.9127 317.479L14.9856 315.293C14.0112 315.26 13.6774 315.006 13.5669 314.855L11.8025 316.149ZM14.9063 317.479L23.3564 317.811L23.4421 315.624L14.992 315.293L14.9063 317.479ZM24.4932 316.717L24.4932 311.194L22.3053 311.194L22.3053 316.717L24.4932 316.717ZM24.4932 311.194C24.4932 307.366 25.3452 304.571 26.8989 302.661L25.2017 301.281C23.2207 303.716 22.3053 307.07 22.3053 311.194L24.4932 311.194ZM26.9045 302.654C28.4377 300.738 30.5719 299.751 33.4511 299.751L33.4511 297.563C29.9973 297.563 27.1976 298.786 25.1961 301.288L26.9045 302.654ZM33.4511 299.751C35.3793 299.751 37.0791 300.263 38.5836 301.277L39.8064 299.462C37.9235 298.193 35.794 297.563 33.4511 297.563L33.4511 299.751ZM38.5836 301.277C40.0939 302.294 41.2962 303.733 42.1793 305.635L44.1638 304.714C43.1323 302.492 41.6835 300.727 39.8064 299.462L38.5836 301.277ZM42.1757 305.627C43.0212 307.487 43.4583 309.648 43.4583 312.133L45.6463 312.133C45.6463 309.39 45.1629 306.912 44.1675 304.722L42.1757 305.627ZM41.007 312.299C41.007 310.331 40.4694 308.649 39.265 307.398L37.689 308.916C38.3993 309.653 38.819 310.732 38.819 312.299L41.007 312.299ZM39.2506 307.383C37.9975 306.13 36.2878 305.572 34.2796 305.572L34.2796 307.76C35.8796 307.76 36.9682 308.195 37.7035 308.93L39.2506 307.383ZM34.2796 305.572C32.173 305.572 30.3881 306.068 29.1179 307.244L30.6044 308.849C31.3226 308.184 32.4832 307.76 34.2796 307.76L34.2796 305.572ZM29.1326 307.23C27.8488 308.377 27.1095 310.067 26.7917 312.133L28.9541 312.465C29.2254 310.702 29.8117 309.557 30.5898 308.862L29.1326 307.23ZM26.7818 312.378L27.1132 316.962L29.2954 316.804L28.964 312.22L26.7818 312.378ZM28.1828 317.977L36.633 318.143L36.6759 315.955L28.2257 315.789L28.1828 317.977ZM36.6544 318.143C38.0452 318.143 39.261 317.679 40.036 316.572L38.2436 315.317C37.9876 315.683 37.5465 315.955 36.6544 315.955L36.6544 318.143ZM40.05 316.551C40.747 315.506 41.007 314.024 41.007 312.299L38.819 312.299C38.819 313.888 38.5636 314.836 38.2296 315.337L40.05 316.551ZM42.564 253.014L43.4982 253.583L43.5034 253.574L43.5084 253.566L42.564 253.014ZM36.4887 258.481L36.9613 259.468L36.9724 259.463L36.4887 258.481ZM17.1031 258.095L17.607 257.124L17.1031 258.095ZM10.3098 251.743L9.36623 252.297L9.36952 252.303L10.3098 251.743ZM9.97843 233.683L10.9228 234.235L10.9278 234.227L10.9327 234.218L9.97843 233.683ZM15.9433 228.16L16.4157 229.147L16.4242 229.143L16.4325 229.139L15.9433 228.16ZM35.3842 228.547L34.8806 229.518L34.8852 229.52L35.3842 228.547ZM42.2327 235.009L41.2859 235.557L41.2891 235.562L42.2327 235.009ZM36.8754 236.942L36.2366 237.83L36.2395 237.832L36.8754 236.942ZM16.9926 237.052L17.5652 237.984L17.5712 237.981L16.9926 237.052ZM16.2746 249.921L15.6462 250.816L15.6494 250.819L16.2746 249.921ZM36.1574 249.755L36.7202 250.693L36.7281 250.688L36.736 250.684L36.1574 249.755ZM43.5688 244.564C43.5688 247.643 42.9054 250.262 41.6196 252.462L43.5084 253.566C45.021 250.979 45.7567 247.965 45.7567 244.564L43.5688 244.564ZM41.6299 252.444C40.3081 254.613 38.444 256.298 36.0051 257.5L36.9724 259.463C39.7619 258.088 41.948 256.127 43.4982 253.583L41.6299 252.444ZM36.0163 257.495C33.5797 258.662 30.6553 259.265 27.2101 259.265L27.2101 261.453C30.908 261.453 34.1693 260.805 36.9612 259.468L36.0163 257.495ZM27.2101 259.265C23.5267 259.265 20.3358 258.54 17.607 257.124L16.5992 259.066C19.6879 260.669 23.235 261.453 27.2101 261.453L27.2101 259.265ZM17.607 257.124C14.8728 255.705 12.7623 253.728 11.2501 251.184L9.36952 252.303C11.0975 255.209 13.5158 257.466 16.5992 259.066L17.607 257.124ZM11.2534 251.19C9.74282 248.615 8.97366 245.644 8.97366 242.244L6.78574 242.244C6.78574 245.987 7.63666 249.349 9.36625 252.297L11.2534 251.19ZM8.97366 242.244C8.97366 239.086 9.63918 236.431 10.9228 234.235L9.03402 233.131C7.51938 235.722 6.78574 238.774 6.78574 242.244L8.97366 242.244ZM10.9327 234.218C12.1801 231.993 13.9961 230.306 16.4157 229.147L15.4708 227.174C12.662 228.519 10.5014 230.513 9.02419 233.148L10.9327 234.218ZM16.4325 229.139C18.826 227.942 21.7251 227.321 25.1666 227.321L25.1666 225.133C21.4651 225.133 18.2153 225.801 15.454 227.182L16.4325 229.139ZM25.1666 227.321C28.8453 227.321 32.0743 228.063 34.8806 229.518L35.8877 227.576C32.7292 225.938 29.1465 225.133 25.1666 225.133L25.1666 227.321ZM34.8852 229.52C37.6484 230.937 39.7737 232.945 41.2859 235.557L43.1794 234.461C41.4514 231.476 39.011 229.176 35.8831 227.573L34.8852 229.52ZM41.2891 235.562C42.7986 238.135 43.5688 241.125 43.5688 244.564L45.7567 244.564C45.7567 240.786 44.9068 237.405 43.1762 234.455L41.2891 235.562ZM41.0622 243.128C41.0622 240.143 39.8759 237.741 37.5112 236.052L36.2395 237.832C37.9986 239.089 38.8743 240.811 38.8743 243.128L41.0622 243.128ZM37.5142 236.054C35.1607 234.361 31.9581 233.583 28.0386 233.583L28.0386 235.771C31.7039 235.771 34.3925 236.504 36.2366 237.83L37.5142 236.054ZM28.0386 233.583C23.1239 233.583 19.2042 234.385 16.414 236.124L17.5712 237.981C19.8622 236.553 23.3065 235.771 28.0386 235.771L28.0386 233.583ZM16.42 236.12C13.5344 237.893 12.0326 240.483 12.0326 243.79L14.2205 243.79C14.2205 241.28 15.2961 239.378 17.5652 237.984L16.42 236.12ZM12.0326 243.79C12.0326 246.753 13.2489 249.134 15.6462 250.816L16.903 249.025C15.1029 247.762 14.2205 246.056 14.2205 243.79L12.0326 243.79ZM15.6494 250.819C17.9665 252.432 21.1472 253.169 25.0562 253.169L25.0562 250.981C21.3802 250.981 18.7066 250.281 16.8998 249.023L15.6494 250.819ZM25.0562 253.169C29.9695 253.169 33.8992 252.386 36.7202 250.693L35.5945 248.817C33.2608 250.217 29.7897 250.981 25.0562 250.981L25.0562 253.169ZM36.736 250.684C39.5754 248.914 41.0622 246.365 41.0622 243.128L38.8743 243.128C38.8743 245.56 37.8205 247.43 35.5788 248.827L36.736 250.684ZM52.3397 184.616L53.4302 184.53L53.3497 183.518L52.3346 183.522L52.3397 184.616ZM52.7263 189.477L52.8587 190.563L53.9 190.436L53.8168 189.39L52.7263 189.477ZM48.1975 190.029L48.065 188.943L48.0573 188.944L48.0497 188.945L48.1975 190.029ZM44.8837 191.741L45.8051 192.331L44.8837 191.741ZM44.8837 213.115L43.9623 213.705L43.9678 213.713L43.9735 213.722L44.8837 213.115ZM48.1975 214.772L48.0497 215.856L48.0529 215.856L48.1975 214.772ZM52.3397 215.324L53.4302 215.237L53.3602 214.357L52.4843 214.24L52.3397 215.324ZM52.7263 220.184L52.7263 221.278L53.9107 221.278L53.8168 220.098L52.7263 220.184ZM40.5758 220.184L39.9194 221.06L40.2111 221.278L40.5758 221.278L40.5758 220.184ZM39.913 219.687L38.8841 220.059L38.9951 220.366L39.2566 220.562L39.913 219.687ZM36.4887 213.888L35.7376 214.684L35.7435 214.689L35.7495 214.695L36.4887 213.888ZM31.6838 211.237L31.9733 210.182L31.6838 211.237ZM22.2947 209.47L22.4583 208.388L22.4508 208.387L22.2947 209.47ZM16.1642 208.586L16.3202 207.503L16.3101 207.502L16.2999 207.501L16.1642 208.586ZM12.4638 214.44L12.995 215.397L13.5682 215.078L13.5576 214.423L12.4638 214.44ZM11.9667 214.717L11.8267 215.802L12.1835 215.848L12.498 215.673L11.9667 214.717ZM8.54246 214.275L7.4485 214.275L7.4485 215.237L8.40247 215.36L8.54246 214.275ZM8.26631 185.169L8.35021 184.078L7.01874 183.976L7.1804 185.301L8.26631 185.169ZM11.8562 185.445L12.9409 185.302L12.8251 184.422L11.9402 184.354L11.8562 185.445ZM12.7399 188.262L13.5804 187.561L13.575 187.555L12.7399 188.262ZM14.7834 189.035L14.7026 190.126L14.7041 190.126L14.7834 189.035ZM39.1398 189.311L39.691 190.256L39.7093 190.245L39.7271 190.234L39.1398 189.311ZM39.8025 187.709L40.8954 187.759L40.8955 187.756L39.8025 187.709ZM39.913 185.113L39.3062 184.203L38.8437 184.512L38.82 185.067L39.913 185.113ZM40.5758 184.672L40.5706 183.578L40.2422 183.579L39.9689 183.761L40.5758 184.672ZM13.955 197.264L14.6384 198.118L14.6632 198.098L14.6868 198.077L13.955 197.264ZM13.4027 199.087L14.4965 199.104L14.4966 199.095L14.4966 199.087L13.4027 199.087ZM13.3475 202.621L12.2536 202.604L12.2385 203.572L13.197 203.705L13.3475 202.621ZM23.2888 204.002L23.1383 205.086L23.1484 205.087L23.2888 204.002ZM30.9658 205.328L30.7097 206.391L30.7169 206.393L30.7242 206.395L30.9658 205.328ZM36.0469 207.316L35.4736 208.248L35.4805 208.252L36.0469 207.316ZM39.2502 210.74L38.2768 211.239L38.6731 212.012L39.5156 211.801L39.2502 210.74ZM39.6921 210.63L39.9574 211.691L40.786 211.484L40.786 210.63L39.6921 210.63ZM51.2492 184.703L51.6358 189.563L53.8168 189.39L53.4302 184.53L51.2492 184.703ZM52.5939 188.391L48.065 188.943L48.3299 191.115L52.8587 190.563L52.5939 188.391ZM48.0497 188.945C46.2718 189.187 44.7957 189.849 43.9623 191.151L45.8051 192.331C46.1499 191.792 46.883 191.312 48.3453 191.113L48.0497 188.945ZM43.9623 191.151C43.2026 192.338 42.906 194.031 42.906 196.049L45.094 196.049C45.094 194.164 45.3865 192.985 45.8051 192.331L43.9623 191.151ZM42.906 196.049L42.906 208.752L45.094 208.752L45.094 196.049L42.906 196.049ZM42.906 208.752C42.906 210.802 43.2011 212.515 43.9623 213.705L45.8051 212.525C45.388 211.874 45.094 210.678 45.094 208.752L42.906 208.752ZM43.9735 213.722C44.8122 214.98 46.286 215.615 48.0497 215.856L48.3453 213.688C46.8688 213.487 46.1334 213.017 45.7939 212.508L43.9735 213.722ZM48.0529 215.856L52.1951 216.409L52.4843 214.24L48.3421 213.688L48.0529 215.856ZM51.2492 215.411L51.6358 220.271L53.8168 220.098L53.4302 215.237L51.2492 215.411ZM52.7263 219.09L40.5758 219.09L40.5758 221.278L52.7263 221.278L52.7263 219.09ZM41.2321 219.309L40.5694 218.812L39.2566 220.562L39.9194 221.06L41.2321 219.309ZM40.9419 219.316C39.9553 216.584 38.7372 214.465 37.228 213.082L35.7495 214.695C36.8913 215.741 37.956 217.489 38.8841 220.059L40.9419 219.316ZM37.2399 213.093C35.7753 211.71 34.0119 210.742 31.9733 210.182L31.3942 212.292C33.1113 212.763 34.5512 213.563 35.7376 214.684L37.2399 213.093ZM31.9733 210.182C30.028 209.648 26.8427 209.051 22.4583 208.388L22.1311 210.551C26.5098 211.214 29.5838 211.795 31.3942 212.292L31.9733 210.182ZM22.4508 208.387L16.3202 207.503L16.0081 209.669L22.1386 210.553L22.4508 208.387ZM16.2999 207.501C15.7165 207.428 15.2475 207.382 14.9491 207.382L14.9491 209.57C15.0926 209.57 15.4336 209.597 16.0285 209.672L16.2999 207.501ZM14.9491 207.382C14.2869 207.382 13.6445 207.518 13.0875 207.864C12.5201 208.217 12.1265 208.735 11.8869 209.347L13.9244 210.145C14.0161 209.91 14.1288 209.793 14.2426 209.722C14.3668 209.645 14.5803 209.57 14.9491 209.57L14.9491 207.382ZM11.8869 209.347C11.4677 210.419 11.3333 212.186 11.37 214.458L13.5576 214.423C13.5206 212.13 13.6808 210.767 13.9244 210.145L11.8869 209.347ZM11.9325 213.484L11.4354 213.76L12.498 215.673L12.995 215.397L11.9325 213.484ZM12.1067 213.632L8.68246 213.19L8.40247 215.36L11.8267 215.802L12.1067 213.632ZM9.63642 214.275L9.63642 192.901L7.4485 192.901L7.4485 214.275L9.63642 214.275ZM9.63642 192.901C9.63642 189.255 9.54519 186.619 9.35222 185.036L7.1804 185.301C7.35563 186.738 7.4485 189.256 7.4485 192.901L9.63642 192.901ZM8.18241 186.259L11.7723 186.536L11.9402 184.354L8.35021 184.078L8.18241 186.259ZM10.7716 185.588C10.8687 186.325 10.9991 186.976 11.1714 187.526C11.3402 188.064 11.57 188.572 11.9048 188.968L13.575 187.555C13.5048 187.472 13.3848 187.272 13.259 186.871C13.1369 186.481 13.0279 185.964 12.9409 185.302L10.7716 185.588ZM11.8995 188.962C12.5568 189.751 13.6153 190.045 14.7026 190.126L14.8642 187.944C13.9633 187.877 13.6594 187.656 13.5803 187.561L11.8995 188.962ZM14.7041 190.126C20.8137 190.57 28.1135 190.791 36.5992 190.791L36.5992 188.604C28.1478 188.604 20.9037 188.383 14.8628 187.944L14.7041 190.126ZM36.5992 190.791C37.2576 190.791 37.8414 190.758 38.3378 190.682C38.8181 190.609 39.2971 190.486 39.691 190.256L38.5886 188.366C38.5406 188.394 38.3752 188.464 38.0087 188.519C37.6583 188.573 37.1927 188.604 36.5992 188.604L36.5992 190.791ZM39.7271 190.234C40.5926 189.683 40.8535 188.681 40.8954 187.759L38.7097 187.66C38.6949 187.985 38.6451 188.186 38.5984 188.299C38.5561 188.401 38.5294 188.403 38.5525 188.388L39.7271 190.234ZM40.8955 187.756L41.006 185.16L38.82 185.067L38.7096 187.663L40.8955 187.756ZM40.5198 186.024L41.1826 185.582L39.9689 183.761L39.3062 184.203L40.5198 186.024ZM40.5809 185.766L52.3448 185.71L52.3346 183.522L40.5706 183.578L40.5809 185.766ZM16.0537 195.673C15.4866 195.673 14.9632 195.718 14.5037 195.827C14.0506 195.934 13.5913 196.12 13.2232 196.451L14.6868 198.077C14.6846 198.079 14.7019 198.063 14.7549 198.038C14.8084 198.013 14.89 197.984 15.0079 197.956C15.248 197.899 15.5898 197.861 16.0537 197.861L16.0537 195.673ZM13.2716 196.41C12.4813 197.042 12.3087 198.121 12.3087 199.087L14.4966 199.087C14.4966 198.69 14.5374 198.424 14.5877 198.258C14.6374 198.094 14.6775 198.087 14.6384 198.118L13.2716 196.41ZM12.3089 199.069L12.2536 202.604L14.4413 202.638L14.4965 199.104L12.3089 199.069ZM13.197 203.705L23.1383 205.086L23.4393 202.918L13.4979 201.538L13.197 203.705ZM23.1484 205.087C26.2576 205.489 28.7742 205.925 30.7097 206.391L31.2218 204.264C29.1808 203.773 26.5794 203.325 23.4292 202.917L23.1484 205.087ZM30.7242 206.395C32.5797 206.815 34.1571 207.437 35.4736 208.247L36.6203 206.384C35.0648 205.427 33.2548 204.724 31.2073 204.261L30.7242 206.395ZM35.4805 208.252C36.7086 208.995 37.6343 209.986 38.2768 211.239L40.2237 210.241C39.3934 208.622 38.1836 207.33 36.6134 206.38L35.4805 208.252ZM39.5156 211.801L39.9574 211.691L39.4268 209.568L38.9849 209.679L39.5156 211.801ZM40.786 210.63L40.786 200.964L38.5981 200.964L38.5981 210.63L40.786 210.63ZM40.786 200.964C40.786 199.307 40.5214 197.819 39.6617 196.902L38.0655 198.399C38.3104 198.66 38.5981 199.382 38.5981 200.964L40.786 200.964ZM39.6617 196.902C38.7726 195.954 37.2614 195.673 35.6051 195.673L35.6051 197.861C37.1889 197.861 37.8501 198.169 38.0655 198.399L39.6617 196.902ZM35.6051 195.673L16.0537 195.673L16.0537 197.861L35.6051 197.861L35.6051 195.673ZM33.5616 146.53L33.7814 145.459L33.2877 145.357L32.8899 145.667L33.5616 146.53ZM43.7791 148.021L44.515 147.212L44.2488 146.97L43.891 146.933L43.7791 148.021ZM44.3866 148.574L45.4798 148.614L45.4984 148.106L45.1225 147.764L44.3866 148.574ZM44.5523 175.195L44.4386 176.283L45.7948 176.424L45.6391 175.07L44.5523 175.195ZM40.8519 174.808L39.7689 174.963L39.8896 175.807L40.7382 175.896L40.8519 174.808ZM39.5264 171.66L40.2267 170.819L39.5264 171.66ZM36.1021 170.831L36.0993 171.925L36.1021 171.925L36.1021 170.831ZM15.0596 170.776L15.0624 169.682L15.0596 169.682L15.0596 170.776ZM12.6847 171.108L13.2085 172.068L13.2283 172.057L13.2475 172.046L12.6847 171.108ZM12.1876 174.256L12.7944 175.166L13.3484 174.797L13.2749 174.135L12.1876 174.256ZM11.6906 174.587L11.546 175.671L11.9545 175.726L12.2974 175.497L11.6906 174.587ZM8.37677 174.145L7.28281 174.145L7.28281 175.103L8.23219 175.229L8.37677 174.145ZM8.37677 173.041L7.28379 172.994L7.28281 173.017L7.28281 173.041L8.37677 173.041ZM7.8797 147.359L7.23627 146.474L6.70046 146.864L6.79755 147.519L7.8797 147.359ZM8.48723 146.917L8.71842 145.848L8.23981 145.744L7.8438 146.032L8.48723 146.917ZM13.3475 147.745L13.1987 148.829L13.2092 148.831L13.2196 148.832L13.3475 147.745ZM18.4838 148.187L19.5753 148.114L19.5097 147.141L18.5359 147.094L18.4838 148.187ZM18.8152 153.103L18.7606 154.195L19.9894 154.257L19.9067 153.029L18.8152 153.103ZM16.606 152.992L16.6606 151.9L16.6333 151.898L16.606 151.898L16.606 152.992ZM14.2864 153.489L14.8597 154.421L14.9025 154.395L14.9427 154.364L14.2864 153.489ZM13.3475 155.367L14.4202 155.582L14.425 155.558L14.4287 155.533L13.3475 155.367ZM13.1818 162.05L14.2545 161.835L13.1818 162.05ZM13.6788 162.823L13.1361 163.773L13.1904 163.804L13.2479 163.829L13.6788 162.823ZM14.9491 163.044L14.8809 164.136L14.8906 164.136L14.9004 164.137L14.9491 163.044ZM23.6202 163.431L23.5715 164.523L24.7021 164.574L24.7141 163.442L23.6202 163.431ZM23.6754 158.239L24.7694 158.251L24.7694 158.239L23.6754 158.239ZM23.565 155.367L24.6567 155.297L24.6556 155.281L24.6542 155.265L23.565 155.367ZM23.1784 151.832L22.4516 151.015L22.0215 151.397L22.0929 151.968L23.1784 151.832ZM23.6754 151.39L23.8532 150.311L23.3385 150.226L22.9486 150.573L23.6754 151.39ZM28.37 152.164L29.4639 152.164L29.4639 151.235L28.5477 151.084L28.37 152.164ZM28.3147 153.268L27.2318 153.114L27.223 153.175L27.2212 153.237L28.3147 153.268ZM28.5357 163.651L27.4509 163.793L27.5734 164.732L28.5204 164.745L28.5357 163.651ZM36.4335 163.762L36.4182 164.856L36.4259 164.856L36.4335 164.856L36.4335 163.762ZM38.6427 163.541L38.9887 164.579L39.0266 164.566L39.0635 164.551L38.6427 163.541ZM39.5264 162.602L40.5642 162.948L40.5682 162.936L40.572 162.924L39.5264 162.602ZM39.3607 154.925L40.4241 154.668L40.4211 154.656L40.4177 154.643L39.3607 154.925ZM37.6486 152.55L37.1103 153.503L37.1103 153.503L37.6486 152.55ZM33.4511 151.446L32.3611 151.539L32.4359 152.415L33.3079 152.53L33.4511 151.446ZM33.0645 146.917L32.3929 146.053L31.924 146.418L31.9745 147.01L33.0645 146.917ZM33.3417 147.602C36.2593 148.2 39.7029 148.702 43.6672 149.11L43.891 146.933C39.9758 146.531 36.6078 146.038 33.7814 145.459L33.3417 147.602ZM43.0432 148.831L43.6507 149.383L45.1225 147.764L44.515 147.212L43.0432 148.831ZM43.2934 148.534C43.0354 155.573 42.906 161.313 42.906 165.75L45.094 165.75C45.094 161.351 45.2223 155.64 45.4798 148.614L43.2934 148.534ZM42.906 165.75C42.906 168.887 43.0927 172.076 43.4655 175.319L45.6391 175.07C45.2755 171.906 45.094 168.8 45.094 165.75L42.906 165.75ZM44.666 174.106L40.9656 173.72L40.7382 175.896L44.4386 176.283L44.666 174.106ZM41.9349 174.653C41.7035 173.034 41.2108 171.639 40.2267 170.819L38.8261 172.5C39.1675 172.785 39.5584 173.489 39.7689 174.963L41.9349 174.653ZM40.2267 170.819C39.2564 170.011 37.7819 169.737 36.1021 169.737L36.1021 171.925C37.6625 171.925 38.4708 172.204 38.8261 172.5L40.2267 170.819ZM36.105 169.737L15.0624 169.682L15.0567 171.87L36.0993 171.925L36.105 169.737ZM15.0596 169.682C14.4246 169.682 13.8679 169.711 13.4034 169.776C12.9658 169.837 12.4984 169.944 12.1219 170.169L13.2475 172.046C13.2392 172.051 13.3517 171.992 13.7057 171.942C14.0329 171.897 14.4795 171.87 15.0596 171.87L15.0596 169.682ZM12.1609 170.147C11.2262 170.657 10.9832 171.662 10.9832 172.543L13.1711 172.543C13.1711 172.265 13.2109 172.119 13.2366 172.058C13.2544 172.016 13.2503 172.045 13.2085 172.068L12.1609 170.147ZM10.9832 172.543C10.9832 173.075 11.0239 173.688 11.1004 174.376L13.2749 174.135C13.2041 173.498 13.1711 172.97 13.1711 172.543L10.9832 172.543ZM11.5808 173.345L11.0837 173.677L12.2974 175.497L12.7944 175.166L11.5808 173.345ZM11.8351 173.503L8.52135 173.061L8.23219 175.229L11.546 175.671L11.8351 173.503ZM9.47073 174.145L9.47073 173.041L7.28281 173.041L7.28281 174.145L9.47073 174.145ZM9.46975 173.087C9.58101 170.454 9.63642 167.474 9.63642 164.149L7.4485 164.149C7.4485 167.451 7.39345 170.399 7.28379 172.994L9.46975 173.087ZM9.63642 164.149C9.63642 155.945 9.41717 150.272 8.96185 147.198L6.79755 147.519C7.22592 150.41 7.4485 155.93 7.4485 164.149L9.63642 164.149ZM8.52313 148.243L9.13066 147.802L7.8438 146.032L7.23627 146.474L8.52313 148.243ZM8.25605 147.986C9.65336 148.288 11.3023 148.569 13.1987 148.829L13.4962 146.661C11.637 146.406 10.0458 146.135 8.71842 145.848L8.25605 147.986ZM13.2196 148.832C15.1174 149.055 16.8552 149.205 18.4318 149.28L18.5359 147.094C17.0196 147.022 15.3332 146.877 13.4753 146.659L13.2196 148.832ZM17.3923 148.261L17.7237 153.176L19.9067 153.029L19.5753 148.114L17.3923 148.261ZM18.8698 152.01L16.6606 151.9L16.5514 154.085L18.7606 154.195L18.8698 152.01ZM16.606 151.898C15.4627 151.898 14.3744 152.056 13.63 152.614L14.9427 154.364C15.082 154.26 15.5401 154.086 16.606 154.086L16.606 151.898ZM13.713 152.558C12.8162 153.109 12.4286 154.145 12.2662 155.201L14.4287 155.533C14.5609 154.674 14.7993 154.458 14.8597 154.421L13.713 152.558ZM12.2747 155.152C12.0674 156.189 11.9773 157.851 11.9773 160.062L14.1653 160.062C14.1653 157.854 14.2594 156.386 14.4202 155.582L12.2747 155.152ZM11.9773 160.062C11.9773 161.014 12.0116 161.777 12.1091 162.264L14.2545 161.835C14.2047 161.586 14.1653 161.024 14.1653 160.062L11.9773 160.062ZM12.1091 162.264C12.227 162.854 12.534 163.429 13.1361 163.773L14.2216 161.873C14.2335 161.88 14.2466 161.89 14.259 161.901C14.2712 161.913 14.2784 161.923 14.2815 161.928C14.2872 161.937 14.2703 161.915 14.2545 161.835L12.1091 162.264ZM13.2479 163.829C13.6894 164.018 14.2737 164.098 14.8809 164.136L15.0174 161.952C14.4463 161.916 14.1837 161.849 14.1098 161.818L13.2479 163.829ZM14.9004 164.137L23.5715 164.523L23.6689 162.338L14.9978 161.951L14.9004 164.137ZM24.7141 163.442L24.7693 158.251L22.5815 158.227L22.5263 163.419L24.7141 163.442ZM24.7694 158.239C24.7694 157.434 24.7312 156.451 24.6567 155.297L22.4733 155.437C22.5461 156.565 22.5815 157.497 22.5815 158.239L24.7694 158.239ZM24.6542 155.265C24.5426 154.075 24.4125 152.886 24.2639 151.697L22.0929 151.968C22.2387 153.135 22.3664 154.302 22.4758 155.469L24.6542 155.265ZM23.9051 152.65L24.4022 152.208L22.9486 150.573L22.4516 151.015L23.9051 152.65ZM23.4976 152.47L28.1922 153.243L28.5477 151.084L23.8532 150.311L23.4976 152.47ZM27.276 152.164C27.276 152.626 27.2576 152.933 27.2318 153.114L29.3977 153.423C29.4455 153.088 29.4639 152.659 29.4639 152.164L27.276 152.164ZM27.2212 153.237C27.1475 155.819 27.1103 157.874 27.1103 159.399L29.2982 159.399C29.2982 157.904 29.3347 155.873 29.4082 153.3L27.2212 153.237ZM27.1103 159.399C27.1103 160.605 27.2265 162.073 27.4509 163.793L29.6204 163.51C29.4029 161.843 29.2982 160.476 29.2982 159.399L27.1103 159.399ZM28.5204 164.745L36.4182 164.856L36.4488 162.668L28.551 162.558L28.5204 164.745ZM36.4335 164.856C37.4746 164.856 38.3657 164.786 38.9887 164.579L38.2968 162.503C38.0361 162.59 37.4543 162.668 36.4335 162.668L36.4335 164.856ZM39.0635 164.551C39.788 164.249 40.3138 163.699 40.5642 162.948L38.4886 162.256C38.4445 162.389 38.3811 162.465 38.222 162.531L39.0635 164.551ZM40.572 162.924C40.7718 162.274 40.8413 161.319 40.8413 160.172L38.6534 160.172C38.6534 161.308 38.5756 161.972 38.4808 162.28L40.572 162.924ZM40.8413 160.172C40.8413 157.734 40.7147 155.872 40.4241 154.668L38.2973 155.182C38.5222 156.114 38.6534 157.75 38.6534 160.172L40.8413 160.172ZM40.4177 154.643C40.0617 153.308 39.3344 152.247 38.1869 151.598L37.1103 153.503C37.6564 153.811 38.0705 154.333 38.3037 155.207L40.4177 154.643ZM38.1869 151.598C37.1476 151.01 35.5719 150.622 33.5943 150.361L33.3079 152.53C35.2332 152.785 36.4558 153.133 37.1103 153.503L38.1869 151.598ZM34.5411 151.353L34.1545 146.824L31.9745 147.01L32.3611 151.539L34.5411 151.353ZM33.7361 147.78L34.2332 147.394L32.8899 145.667L32.3929 146.053L33.7361 147.78ZM41.349 86.0147L41.4977 84.931L41.0411 84.8683L40.6774 85.1512L41.349 86.0147ZM44.1657 86.4014L45.2537 86.2878L45.1647 85.4343L44.3145 85.3176L44.1657 86.4014ZM44.8285 92.7528L45.9224 92.7528L45.9224 92.6959L45.9165 92.6393L44.8285 92.7528ZM39.6921 98.8833L40.2054 99.8493L40.2058 99.8491L39.6921 98.8833ZM28.2595 104.959L27.7462 103.993L27.1655 104.301L27.1655 104.959L28.2595 104.959ZM28.2595 108.659L27.1655 108.659L27.1655 109.725L28.2311 109.753L28.2595 108.659ZM36.7649 108.88L36.7365 109.973L36.7382 109.974L36.7649 108.88ZM39.8025 108.493L40.3453 109.443L40.3607 109.434L40.3759 109.425L39.8025 108.493ZM40.4653 105.456L39.3758 105.555L39.3768 105.565L40.4653 105.456ZM40.3548 104.627L39.6429 103.797L39.1296 104.237L39.2935 104.893L40.3548 104.627ZM40.7414 104.296L40.8986 103.213L40.4068 103.142L40.0295 103.465L40.7414 104.296ZM44.1657 104.793L45.2595 104.81L45.2743 103.848L44.3228 103.71L44.1657 104.793ZM44.1105 108.383L45.2041 108.411L45.2043 108.4L44.1105 108.383ZM44 112.691L42.9064 112.663L42.906 112.677L42.906 112.691L44 112.691ZM44.1657 120.312L44.011 121.395L45.3334 121.584L45.2579 120.251L44.1657 120.312ZM40.6862 119.815L39.6019 119.96L39.7114 120.781L40.5315 120.898L40.6862 119.815ZM40.0787 117.33L41.07 116.867L41.0577 116.841L41.0439 116.815L40.0787 117.33ZM38.8084 116.225L38.4243 117.25L38.4432 117.257L38.4625 117.263L38.8084 116.225ZM28.2595 115.894L28.2595 114.8L27.1655 114.8L27.1655 115.894L28.2595 115.894ZM28.2595 119.539L27.1655 119.539L27.1655 120.197L27.7462 120.505L28.2595 119.539ZM39.6921 125.615L40.2058 124.649L40.2054 124.648L39.6921 125.615ZM44.8285 131.69L45.9165 131.803L45.9224 131.747L45.9224 131.69L44.8285 131.69ZM44.1657 138.041L44.3352 139.122L45.1664 138.992L45.2537 138.155L44.1657 138.041ZM41.349 138.483L40.6774 139.347L41.0509 139.637L41.5185 139.564L41.349 138.483ZM40.8519 138.096L39.7579 138.096L39.7579 138.632L40.1803 138.96L40.8519 138.096ZM36.1021 131.911L35.5429 132.851L35.5558 132.859L35.569 132.866L36.1021 131.911ZM29.6955 128.1L30.2547 127.16L30.2285 127.144L30.2015 127.13L29.6955 128.1ZM25.6637 124.841L26.5299 124.173L25.9401 123.409L25.1083 123.899L25.6637 124.841ZM19.478 128.486L18.9226 127.544L18.9151 127.548L19.478 128.486ZM16.2746 131.082L17.1361 131.757L16.2746 131.082ZM15.7223 137.323L16.4959 138.097L16.951 137.642L16.7742 137.023L15.7223 137.323ZM15.0043 138.041L15.0043 139.135L15.4575 139.135L15.7779 138.815L15.0043 138.041ZM8.04539 136.053L6.95165 136.031L6.94072 136.578L7.37118 136.914L8.04539 136.053ZM8.81861 131.414L9.84047 131.804L9.84411 131.795L8.81861 131.414ZM11.1935 127.989L11.9253 128.803L11.9322 128.796L11.9389 128.79L11.1935 127.989ZM15.7776 124.786L16.3222 125.735L16.3231 125.734L15.7776 124.786ZM23.8411 120.147L24.3867 121.095L24.9351 120.779L24.9351 120.147L23.8411 120.147ZM23.8411 115.839L24.9351 115.839L24.9351 114.745L23.8411 114.745L23.8411 115.839ZM12.6295 116.281L13.2168 117.204L13.2454 117.185L13.2729 117.165L12.6295 116.281ZM12.0772 118.987L13.1627 118.851L12.0772 118.987ZM12.1324 119.539L12.7122 120.467L13.2264 120.146L13.2264 119.539L12.1324 119.539ZM11.6906 119.815L11.5617 120.902L11.9439 120.947L12.2704 120.743L11.6906 119.815ZM8.432 119.429L7.33817 119.412L7.32333 120.399L8.30311 120.515L8.432 119.429ZM8.54246 112.083L9.6363 112.1L9.63642 112.091L9.63642 112.083L8.54246 112.083ZM8.32154 107.499L7.22922 107.56L7.22985 107.57L8.32154 107.499ZM8.15585 104.517L8.2564 103.427L6.99321 103.311L7.06358 104.577L8.15585 104.517ZM11.7458 104.848L12.8207 104.645L12.6674 103.835L11.8463 103.759L11.7458 104.848ZM12.7952 107.61L11.9913 108.352L12.0061 108.368L12.0216 108.383L12.7952 107.61ZM14.9491 108.328L14.9086 109.421L14.9219 109.421L14.9491 108.328ZM23.8411 108.549L23.814 109.642L24.9351 109.67L24.9351 108.549L23.8411 108.549ZM23.8411 104.296L24.9351 104.296L24.9351 103.663L24.3867 103.348L23.8411 104.296ZM15.7776 99.6565L16.3231 98.7083L16.3222 98.7078L15.7776 99.6565ZM11.1935 96.4532L11.9389 95.6525L11.9322 95.6462L11.9253 95.64L11.1935 96.4532ZM8.81861 93.0842L9.84043 92.6935H9.84042L8.81861 93.0842ZM8.04539 88.4449L7.37118 87.5834L6.94072 87.9203L6.95165 88.4667L8.04539 88.4449ZM15.0044 86.4566L15.7779 85.683L15.4575 85.3626L15.0044 85.3626L15.0044 86.4566ZM15.7223 87.1746L16.7742 87.4751L16.951 86.8562L16.4959 86.401L15.7223 87.1746ZM16.2746 93.3603L15.4131 94.0345L16.2746 93.3603ZM19.478 95.9561L20.0423 95.019L20.0408 95.0181L19.478 95.9561ZM24.6143 99.049L24.05 99.9862L24.5956 100.315L25.1507 100.002L24.6143 99.049ZM36.1021 92.5871L35.569 91.6319L35.5658 91.6336L36.1021 92.5871ZM40.8519 86.4014L40.1803 85.5378L39.7579 85.8663L39.7579 86.4014L40.8519 86.4014ZM41.2002 87.0985L44.0169 87.4852L44.3145 85.3176L41.4977 84.931L41.2002 87.0985ZM43.0776 86.5149L43.7404 92.8663L45.9165 92.6393L45.2537 86.2878L43.0776 86.5149ZM43.7345 92.7528C43.7345 93.6424 43.4232 94.4828 42.7254 95.302L44.3909 96.7207C45.3868 95.5517 45.9224 94.2197 45.9224 92.7528L43.7345 92.7528ZM42.7254 95.302C42.0008 96.1525 40.8423 97.0324 39.1783 97.9175L40.2058 99.8491C42.0029 98.8932 43.4218 97.8584 44.3909 96.7207L42.7254 95.302ZM39.1787 97.9173L27.7462 103.993L28.7729 105.925L40.2054 99.8493L39.1787 97.9173ZM27.1655 104.959L27.1655 108.659L29.3535 108.659L29.3535 104.959L27.1655 104.959ZM28.2311 109.753L36.7365 109.973L36.7933 107.786L28.2879 107.565L28.2311 109.753ZM36.7382 109.974C37.5246 109.993 38.2146 109.97 38.7946 109.896C39.3556 109.825 39.904 109.695 40.3453 109.443L39.2598 107.543C39.1856 107.586 38.9699 107.668 38.5184 107.726C38.0859 107.781 37.5148 107.804 36.7916 107.786L36.7382 109.974ZM40.3759 109.425C41.3342 108.835 41.6145 107.761 41.6145 106.726L39.4266 106.726C39.4266 107.078 39.3777 107.295 39.3275 107.419C39.2835 107.527 39.2446 107.552 39.2292 107.562L40.3759 109.425ZM41.6145 106.726C41.6145 106.221 41.5951 105.76 41.5538 105.347L39.3768 105.565C39.4091 105.888 39.4266 106.274 39.4266 106.726L41.6145 106.726ZM41.5548 105.357C41.5186 104.959 41.4763 104.602 41.4161 104.362L39.2935 104.893C39.3071 104.947 39.3384 105.143 39.3758 105.555L41.5548 105.357ZM41.0668 105.458L41.4534 105.126L40.0295 103.465L39.6429 103.797L41.0668 105.458ZM40.5843 105.378L44.0085 105.875L44.3228 103.71L40.8986 103.213L40.5843 105.378ZM43.0719 104.776L43.0166 108.366L45.2043 108.4L45.2595 104.81L43.0719 104.776ZM43.0169 108.355L42.9064 112.663L45.0936 112.719L45.2041 108.411L43.0169 108.355ZM42.906 112.691C42.906 115.83 42.9614 118.394 43.0735 120.374L45.2579 120.251C45.1491 118.328 45.094 115.81 45.094 112.691L42.906 112.691ZM44.3204 119.229L40.8409 118.732L40.5315 120.898L44.011 121.395L44.3204 119.229ZM41.7706 119.671C41.6186 118.531 41.3986 117.572 41.07 116.867L39.0874 117.793C39.2742 118.193 39.4592 118.89 39.6019 119.96L41.7706 119.671ZM41.0439 116.815C40.6284 116.036 39.9936 115.467 39.1543 115.188L38.4625 117.263C38.7278 117.352 38.9398 117.519 39.1134 117.845L41.0439 116.815ZM39.1925 115.201C38.424 114.913 37.4437 114.8 36.3231 114.8L36.3231 116.988C37.338 116.988 38.0146 117.096 38.4243 117.25L39.1925 115.201ZM36.3231 114.8L28.2595 114.8L28.2595 116.988L36.3231 116.988L36.3231 114.8ZM27.1655 115.894L27.1655 119.539L29.3535 119.539L29.3535 115.894L27.1655 115.894ZM27.7462 120.505L39.1787 126.581L40.2054 124.648L28.7729 118.573L27.7462 120.505ZM39.1783 126.58C40.8423 127.465 42.0008 128.345 42.7254 129.196L44.3909 127.777C43.4218 126.639 42.0029 125.605 40.2058 124.649L39.1783 126.58ZM42.7254 129.196C43.4294 130.022 43.7345 130.846 43.7345 131.69L45.9224 131.69C45.9224 130.251 45.3806 128.939 44.3909 127.777L42.7254 129.196ZM43.7404 131.576L43.0776 137.928L45.2537 138.155L45.9165 131.803L43.7404 131.576ZM43.9962 136.961L41.1794 137.402L41.5185 139.564L44.3352 139.122L43.9962 136.961ZM42.0206 137.62L41.5235 137.233L40.1803 138.96L40.6774 139.347L42.0206 137.62ZM41.9459 138.096C41.9459 135.156 39.9461 132.803 36.6353 130.956L35.569 132.866C38.5912 134.553 39.7579 136.324 39.7579 138.096L41.9459 138.096ZM36.6614 130.971L30.2547 127.16L29.1362 129.04L35.5429 132.851L36.6614 130.971ZM30.2015 127.13C28.6241 126.307 27.4118 125.316 26.5299 124.173L24.7975 125.51C25.9038 126.944 27.3795 128.125 29.1895 129.07L30.2015 127.13ZM25.1083 123.899L18.9226 127.544L20.0334 129.429L26.2191 125.784L25.1083 123.899ZM18.9151 127.548C17.3878 128.465 16.1929 129.412 15.4131 130.408L17.1361 131.757C17.6819 131.059 18.6225 130.276 20.0408 129.425L18.9151 127.548ZM15.4131 130.408C14.5715 131.483 14.1865 132.803 14.1865 134.286L16.3745 134.286C16.3745 133.191 16.6522 132.375 17.1361 131.757L15.4131 130.408ZM14.1865 134.286C14.1865 135.389 14.3502 136.503 14.6705 137.624L16.7742 137.023C16.5054 136.082 16.3745 135.17 16.3745 134.286L14.1865 134.286ZM14.9488 136.55L14.2308 137.268L15.7779 138.815L16.4959 138.097L14.9488 136.55ZM15.0043 136.947C12.2139 136.947 10.1607 136.319 8.71961 135.191L7.37118 136.914C9.31751 138.438 11.9037 139.135 15.0043 139.135L15.0043 136.947ZM9.13913 136.075C9.1743 134.316 9.4202 132.903 9.84042 131.804L7.7968 131.023C7.2597 132.428 6.99012 134.108 6.95165 136.031L9.13913 136.075ZM9.84411 131.795C10.2563 130.685 10.9412 129.688 11.9253 128.803L10.4617 127.176C9.2366 128.279 8.33822 129.565 7.79311 131.033L9.84411 131.795ZM11.9389 128.79C12.9213 127.875 14.3702 126.855 16.3222 125.735L15.2329 123.837C13.2084 125 11.6012 126.115 10.448 127.189L11.9389 128.79ZM16.3231 125.734L24.3867 121.095L23.2956 119.199L15.232 123.838L16.3231 125.734ZM24.9351 120.147L24.9351 115.839L22.7472 115.839L22.7472 120.147L24.9351 120.147ZM23.8411 114.745L14.9491 114.745L14.9491 116.933L23.8411 116.933L23.8411 114.745ZM14.9491 114.745C14.3375 114.745 13.7852 114.784 13.3085 114.875C12.8445 114.963 12.3724 115.115 11.986 115.396L13.2729 117.165C13.2915 117.152 13.4086 117.083 13.7178 117.024C14.0143 116.967 14.4194 116.933 14.9491 116.933L14.9491 114.745ZM12.0421 115.358C11.1512 115.925 10.928 116.959 10.928 117.882L13.1159 117.882C13.1159 117.559 13.1577 117.365 13.1967 117.262C13.2306 117.173 13.249 117.183 13.2168 117.204L12.0421 115.358ZM10.928 117.882C10.928 118.35 10.9472 118.767 10.9917 119.123L13.1627 118.851C13.1335 118.618 13.1159 118.298 13.1159 117.882L10.928 117.882ZM10.9917 119.123C11.0095 119.266 11.0221 119.375 11.0301 119.455C11.034 119.495 11.0364 119.523 11.0378 119.541C11.0394 119.564 11.0384 119.559 11.0384 119.539L13.2264 119.539C13.2264 119.382 13.1963 119.12 13.1627 118.851L10.9917 119.123ZM11.5526 118.612L11.1108 118.888L12.2704 120.743L12.7122 120.467L11.5526 118.612ZM11.8194 118.729L8.56089 118.342L8.30311 120.515L11.5617 120.902L11.8194 118.729ZM9.52583 119.445L9.6363 112.1L7.44863 112.067L7.33817 119.412L9.52583 119.445ZM9.63642 112.083C9.63642 111.269 9.56016 109.706 9.41323 107.429L7.22985 107.57C7.37749 109.858 7.4485 111.351 7.4485 112.083L9.63642 112.083ZM9.41382 107.438L9.24812 104.456L7.06358 104.577L7.22927 107.56L9.41382 107.438ZM8.0553 105.606L11.6452 105.937L11.8463 103.759L8.2564 103.427L8.0553 105.606ZM10.6709 105.051C10.9325 106.434 11.3236 107.628 11.9913 108.352L13.599 106.868C13.383 106.634 13.0746 105.987 12.8207 104.645L10.6709 105.051ZM12.0216 108.383C12.7464 109.108 13.7944 109.38 14.9086 109.421L14.9896 107.234C14.1156 107.202 13.7276 106.995 13.5687 106.836L12.0216 108.383ZM14.9219 109.421L23.814 109.642L23.8683 107.455L14.9763 107.234L14.9219 109.421ZM24.9351 108.549L24.9351 104.296L22.7472 104.296L22.7472 108.549L24.9351 108.549ZM24.3867 103.348L16.3231 98.7083L15.232 100.605L23.2956 105.244L24.3867 103.348ZM16.3222 98.7078C14.3702 97.5872 12.9213 96.5671 11.9389 95.6525L10.4481 97.2538C11.6012 98.3275 13.2084 99.443 15.2329 100.605L16.3222 98.7078ZM11.9253 95.64C10.9352 94.749 10.2507 93.7666 9.84043 92.6935L7.7968 93.4749C8.3438 94.9055 9.24255 96.1691 10.4617 97.2663L11.9253 95.64ZM9.84042 92.6935C9.4202 91.5945 9.1743 90.1816 9.13913 88.423L6.95165 88.4667C6.99012 90.3901 7.2597 92.0702 7.7968 93.4749L9.84042 92.6935ZM8.71961 89.3064C10.1607 88.1786 12.2139 87.5505 15.0044 87.5505L15.0044 85.3626C11.9037 85.3626 9.31751 86.0602 7.37118 87.5834L8.71961 89.3064ZM14.2308 87.2301L14.9488 87.9481L16.4959 86.401L15.7779 85.683L14.2308 87.2301ZM14.6705 86.8741C14.3502 87.9951 14.1865 89.1088 14.1865 90.2122L16.3745 90.2122C16.3745 89.3274 16.5054 88.416 16.7742 87.4751L14.6705 86.8741ZM14.1865 90.2122C14.1865 91.6666 14.5758 92.9647 15.4131 94.0345L17.1361 92.6861C16.6479 92.0623 16.3745 91.2616 16.3745 90.2122L14.1865 90.2122ZM15.4131 94.0345C16.1929 95.0309 17.3878 95.9778 18.9151 96.8942L20.0408 95.0181C18.6225 94.1671 17.6819 93.3835 17.1361 92.6861L15.4131 94.0345ZM18.9136 96.8933L24.05 99.9862L25.1787 98.1118L20.0423 95.019L18.9136 96.8933ZM25.1507 100.002L36.6385 93.5406L35.5658 91.6336L24.078 98.0955L25.1507 100.002ZM36.6353 93.5423C39.9461 91.6945 41.9459 89.3414 41.9459 86.4014L39.7579 86.4014C39.7579 88.1743 38.5912 89.945 35.569 91.6319L36.6353 93.5423ZM41.5235 87.2649L42.0206 86.8783L40.6774 85.1512L40.1803 85.5378L41.5235 87.2649ZM52.3397 43.2949L53.4302 43.2082L53.3497 42.1962L52.3346 42.201L52.3397 43.2949ZM52.7263 48.1552L52.8587 49.2411L53.9 49.1141L53.8168 48.0684L52.7263 48.1552ZM48.1975 48.7075L48.065 47.6216L48.0573 47.6225L48.0497 47.6235L48.1975 48.7075ZM44.8837 50.4196L45.8051 51.0093L44.8837 50.4196ZM44.8837 71.7935L43.9623 72.3832L43.9678 72.3918L43.9735 72.4003L44.8837 71.7935ZM48.1975 73.4504L48.0497 74.5343L48.0529 74.5348L48.1975 73.4504ZM52.3397 74.0027L53.4302 73.916L53.3602 73.0351L52.4843 72.9183L52.3397 74.0027ZM52.7263 78.8629L52.7263 79.9569L53.9107 79.9569L53.8168 78.7762L52.7263 78.8629ZM40.5758 78.8629L39.9194 79.7381L40.2111 79.9569L40.5758 79.9569L40.5758 78.8629ZM39.913 78.3659L38.8841 78.7374L38.9951 79.0449L39.2566 79.241L39.913 78.3659ZM36.4887 72.5667L35.7376 73.3621L35.7435 73.3676L35.7495 73.3731L36.4887 72.5667ZM31.6838 69.9157L31.9733 68.8608L31.6838 69.9157ZM22.2947 68.1483L22.4583 67.0667L22.4508 67.0656L22.2947 68.1483ZM16.1642 67.2647L16.3203 66.1819L16.3101 66.1805L16.2999 66.1792L16.1642 67.2647ZM12.4638 73.119L12.9951 74.0753L13.5682 73.7569L13.5576 73.1014L12.4638 73.119ZM11.9667 73.3952L11.8267 74.4801L12.1835 74.5262L12.498 74.3515L11.9667 73.3952ZM8.54246 72.9533L7.44851 72.9533L7.44851 73.9152L8.40247 74.0383L8.54246 72.9533ZM8.26631 43.8472L8.35022 42.7565L7.01874 42.6541L7.1804 43.9796L8.26631 43.8472ZM11.8563 44.1234L12.9409 43.9807L12.8251 43.1007L11.9402 43.0327L11.8563 44.1234ZM12.7399 46.9401L13.5804 46.2397L13.575 46.2335L12.7399 46.9401ZM14.7834 47.7133L14.7026 48.8043L14.7041 48.8044L14.7834 47.7133ZM39.1398 47.9895L39.691 48.9344L39.7093 48.9237L39.7271 48.9124L39.1398 47.9895ZM39.8025 46.3878L40.8954 46.4375L40.8955 46.4343L39.8025 46.3878ZM39.913 43.792L39.3062 42.8818L38.8437 43.1901L38.82 43.7455L39.913 43.792ZM40.5758 43.3502L40.5706 42.2562L40.2422 42.2578L39.9689 42.4399L40.5758 43.3502ZM13.955 55.9426L14.6384 56.7968L14.6632 56.7769L14.6868 56.7557L13.955 55.9426ZM13.4027 57.7651L14.4965 57.7822L14.4966 57.7737L14.4966 57.7651L13.4027 57.7651ZM13.3475 61.2999L12.2536 61.2827L12.2385 62.2503L13.197 62.3834L13.3475 61.2999ZM23.2888 62.6806L23.1383 63.7642L23.1484 63.7655L23.2888 62.6806ZM30.9658 64.0061L30.7097 65.0697L30.7169 65.0714L30.7242 65.0731L30.9658 64.0061ZM36.0469 65.9944L35.4736 66.9261L35.4805 66.9303L36.0469 65.9944ZM39.2502 69.4186L38.2768 69.9178L38.6731 70.6906L39.5156 70.4799L39.2502 69.4186ZM39.6921 69.3082L39.9574 70.3695L40.786 70.1623L40.786 69.3082L39.6921 69.3082ZM51.2492 43.3817L51.6358 48.2419L53.8168 48.0684L53.4302 43.2082L51.2492 43.3817ZM52.5939 47.0692L48.065 47.6216L48.3299 49.7934L52.8587 49.2411L52.5939 47.0692ZM48.0497 47.6235C46.2718 47.866 44.7957 48.5276 43.9623 49.8299L45.8051 51.0093C46.1499 50.4705 46.883 49.9908 48.3453 49.7914L48.0497 47.6235ZM43.9623 49.8299C43.2026 51.0169 42.906 52.7096 42.906 54.7275L45.094 54.7275C45.094 52.8425 45.3865 51.6633 45.8051 51.0093L43.9623 49.8299ZM42.906 54.7275L42.906 67.4304L45.094 67.4304L45.094 54.7275L42.906 54.7275ZM42.906 67.4304C42.906 69.4802 43.2011 71.1939 43.9623 72.3832L45.8051 71.2038C45.388 70.5521 45.094 69.3571 45.094 67.4304L42.906 67.4304ZM43.9735 72.4003C44.8122 73.6585 46.286 74.2939 48.0497 74.5343L48.3453 72.3665C46.8688 72.1651 46.1334 71.6959 45.7939 71.1867L43.9735 72.4003ZM48.0529 74.5348L52.1951 75.0871L52.4843 72.9183L48.3421 72.3661L48.0529 74.5348ZM51.2492 74.0894L51.6358 78.9497L53.8168 78.7762L53.4302 73.916L51.2492 74.0894ZM52.7263 77.769L40.5758 77.769L40.5758 79.9569L52.7263 79.9569L52.7263 77.769ZM41.2321 77.9878L40.5694 77.4907L39.2566 79.241L39.9194 79.7381L41.2321 77.9878ZM40.9419 77.9943C39.9553 75.2622 38.7372 73.1438 37.228 71.7603L35.7495 73.3731C36.8913 74.4198 37.956 76.1675 38.8841 78.7374L40.9419 77.9943ZM37.2399 71.7714C35.7753 70.3882 34.0119 69.4203 31.9733 68.8608L31.3942 70.9706C33.1113 71.442 34.5512 72.2415 35.7376 73.3621L37.2399 71.7714ZM31.9733 68.8608C30.0281 68.3268 26.8427 67.7299 22.4583 67.0667L22.1311 69.23C26.5098 69.8923 29.5838 70.4737 31.3942 70.9706L31.9733 68.8608ZM22.4508 67.0656L16.3203 66.1819L16.0081 68.3474L22.1386 69.2311L22.4508 67.0656ZM16.2999 66.1792C15.7165 66.1062 15.2475 66.0602 14.9491 66.0602L14.9491 68.2482C15.0926 68.2482 15.4336 68.2758 16.0285 68.3502L16.2999 66.1792ZM14.9491 66.0602C14.2869 66.0602 13.6445 66.1965 13.0875 66.5427C12.5201 66.8954 12.1265 67.4134 11.8869 68.0258L13.9244 68.8231C14.0161 68.5887 14.1288 68.4716 14.2426 68.4009C14.3668 68.3237 14.5803 68.2482 14.9491 68.2482L14.9491 66.0602ZM11.8869 68.0258C11.4677 69.0971 11.3333 70.8641 11.37 73.1367L13.5576 73.1014C13.5206 70.8083 13.6808 69.4456 13.9244 68.8231L11.8869 68.0258ZM11.9325 72.1628L11.4354 72.4389L12.498 74.3515L12.9951 74.0753L11.9325 72.1628ZM12.1067 72.3102L8.68246 71.8684L8.40247 74.0383L11.8267 74.4801L12.1067 72.3102ZM9.63642 72.9533L9.63642 51.5794L7.44851 51.5794L7.44851 72.9533L9.63642 72.9533ZM9.63642 51.5794C9.63642 47.934 9.54519 45.2971 9.35223 43.7148L7.1804 43.9796C7.35563 45.4166 7.44851 47.9345 7.44851 51.5794L9.63642 51.5794ZM8.18241 44.938L11.7723 45.2141L11.9402 43.0327L8.35022 42.7565L8.18241 44.938ZM10.7716 44.2661C10.8687 45.0038 10.9991 45.6549 11.1714 46.2044C11.3402 46.7424 11.57 47.251 11.9048 47.6467L13.575 46.2335C13.5048 46.1505 13.3848 45.9503 13.259 45.5495C13.1369 45.16 13.0279 44.6421 12.9409 43.9807L10.7716 44.2661ZM11.8995 47.6404C12.5568 48.4292 13.6153 48.7238 14.7026 48.8043L14.8642 46.6223C13.9633 46.5556 13.6594 46.3347 13.5803 46.2398L11.8995 47.6404ZM14.7041 48.8044C20.8137 49.2487 28.1135 49.47 36.5992 49.47L36.5992 47.2821C28.1478 47.2821 20.9037 47.0616 14.8628 46.6223L14.7041 48.8044ZM36.5992 49.47C37.2576 49.47 37.8414 49.4365 38.3378 49.3609C38.8181 49.2878 39.2971 49.1642 39.691 48.9344L38.5886 47.0445C38.5407 47.0725 38.3752 47.1421 38.0087 47.1979C37.6583 47.2512 37.1927 47.2821 36.5992 47.2821L36.5992 49.47ZM39.7271 48.9124C40.5926 48.3617 40.8535 47.3591 40.8954 46.4375L38.7097 46.3381C38.6949 46.6636 38.6451 46.8646 38.5984 46.9775C38.5561 47.0798 38.5294 47.0812 38.5525 47.0665L39.7271 48.9124ZM40.8955 46.4343L41.006 43.8385L38.82 43.7455L38.7096 46.3413L40.8955 46.4343ZM40.5198 44.7022L41.1826 44.2604L39.9689 42.4399L39.3062 42.8818L40.5198 44.7022ZM40.5809 44.4441L52.3448 44.3889L52.3346 42.201L40.5706 42.2562L40.5809 44.4441ZM16.0537 54.3515C15.4866 54.3515 14.9632 54.3964 14.5037 54.5052C14.0506 54.6125 13.5913 54.7981 13.2232 55.1294L14.6868 56.7557C14.6846 56.7577 14.7019 56.7415 14.7549 56.7169C14.8084 56.692 14.89 56.6622 15.0079 56.6343C15.248 56.5774 15.5898 56.5395 16.0537 56.5395L16.0537 54.3515ZM13.2716 55.0883C12.4813 55.7205 12.3087 56.8 12.3087 57.7651L14.4966 57.7651C14.4966 57.3686 14.5374 57.1024 14.5877 56.9364C14.6374 56.7724 14.6775 56.7655 14.6384 56.7968L13.2716 55.0883ZM12.3089 57.748L12.2536 61.2827L14.4413 61.317L14.4965 57.7822L12.3089 57.748ZM13.197 62.3834L23.1383 63.7642L23.4393 61.597L13.498 60.2163L13.197 62.3834ZM23.1484 63.7655C26.2576 64.1679 28.7742 64.6037 30.7097 65.0697L31.2218 62.9425C29.1808 62.4512 26.5794 62.0034 23.4292 61.5957L23.1484 63.7655ZM30.7242 65.0731C32.5797 65.4932 34.1571 66.1159 35.4736 66.9261L36.6203 65.0627C35.0648 64.1055 33.2548 63.4027 31.2073 62.9391L30.7242 65.0731ZM35.4805 66.9303C36.7086 67.6736 37.6343 68.6649 38.2768 69.9178L40.2237 68.9194C39.3934 67.3004 38.1836 66.0089 36.6134 65.0585L35.4805 66.9303ZM39.5156 70.4799L39.9574 70.3695L39.4268 68.2469L38.9849 68.3573L39.5156 70.4799ZM40.786 69.3082L40.786 59.6429L38.5981 59.6429L38.5981 69.3082L40.786 69.3082ZM40.786 59.6429C40.786 57.9851 40.5214 56.498 39.6617 55.581L38.0655 57.0774C38.3104 57.3386 38.5981 58.0607 38.5981 59.6429L40.786 59.6429ZM39.6617 55.581C38.7726 54.6325 37.2614 54.3515 35.6051 54.3515L35.6051 56.5395C37.1889 56.5395 37.8501 56.8476 38.0655 57.0774L39.6617 55.581ZM35.6051 54.3515L16.0537 54.3515L16.0537 56.5395L35.6051 56.5395L35.6051 54.3515ZM8.76338 3.66235L8.89227 2.57599L8.40914 2.51868L8.04301 2.83905L8.76338 3.66235ZM12.0219 4.04895L12.8125 3.29279L12.5409 3.00891L12.1508 2.96265L12.0219 4.04895ZM17.9868 7.97028L18.4305 6.97028L18.4177 6.96478L17.9868 7.97028ZM35.6603 15.8129L36.1074 14.8145L36.104 14.813L35.6603 15.8129ZM41.1833 19.0715L40.4611 19.8933L40.4683 19.8995L40.4755 19.9056L41.1833 19.0715ZM44.4418 29.5652L45.317 30.2215L45.5358 29.9298L45.5358 29.5652L44.4418 29.5652ZM43.9448 30.2279L44.2774 31.2701L44.6103 31.1638L44.8199 30.8843L43.9448 30.2279ZM36.7649 30.9459L35.9585 31.6851L36.2476 32.0005L36.6741 32.0361L36.7649 30.9459ZM36.1574 30.2831L35.0984 30.0086L34.9492 30.5841L35.351 31.0223L36.1574 30.2831ZM34.6109 20.6732L35.2325 19.7729L34.6651 19.3811L34.0669 19.7241L34.6109 20.6732ZM17.6554 30.3936L18.1958 31.3448L18.1995 31.3427L17.6554 30.3936ZM14.0654 32.7685L13.3535 31.9379L13.3535 31.9379L14.0654 32.7685ZM12.0219 35.1433L12.5848 36.0814L12.8049 35.9493L12.9433 35.7331L12.0219 35.1433ZM11.7458 35.3091L11.6549 36.3992L12.0063 36.4285L12.3086 36.2471L11.7458 35.3091ZM8.432 35.0329L7.33828 35.0103L7.31709 36.0378L8.34115 36.1231L8.432 35.0329ZM8.54246 29.6756L9.63619 29.6982L9.63642 29.6869L9.63642 29.6756L8.54246 29.6756ZM8.15585 21.0045L7.54903 20.0943L7.0289 20.441L7.06358 21.0652L8.15585 21.0045ZM8.65292 20.6732L8.77156 19.5856L8.37664 19.5425L8.0461 19.7629L8.65292 20.6732ZM11.6906 21.0045L12.7824 20.9363L12.7249 20.0169L11.8092 19.917L11.6906 21.0045ZM12.1876 23.5451L11.2092 24.0343L11.2092 24.0343L12.1876 23.5451ZM16.9926 22.9928L16.4815 22.0256L16.4778 22.0275L16.9926 22.9928ZM26.7131 17.8564L27.2242 18.8237L27.807 18.5157L27.807 17.8564L26.7131 17.8564ZM26.7131 17.1937L27.807 17.1937L27.807 16.4683L27.1388 16.1859L26.7131 17.1937ZM16.3851 12.8305L16.8108 11.8228L16.8016 11.819L16.3851 12.8305ZM12.2981 12.941L13.2894 13.4036L13.3074 13.365L13.3224 13.3251L12.2981 12.941ZM11.8563 15.7577L12.2625 16.7734L12.9298 16.5065L12.9498 15.7881L11.8563 15.7577ZM11.5801 15.8682L11.4656 16.9561L11.7349 16.9844L11.9864 16.8839L11.5801 15.8682ZM8.432 15.5367L7.33826 15.5151L7.31837 16.5195L8.31748 16.6247L8.432 15.5367ZM8.54246 9.95856L9.63621 9.98022L9.63642 9.96936L9.63642 9.95856L8.54246 9.95856ZM8.32154 4.04895L7.60117 3.22571L7.18801 3.58722L7.23093 4.13452L8.32154 4.04895ZM8.6345 4.74872L11.8931 5.13532L12.1508 2.96265L8.89227 2.57599L8.6345 4.74872ZM11.2314 4.80512C12.0843 5.69684 12.9518 6.44885 13.8358 7.05158L15.0683 5.24384C14.3322 4.74194 13.5796 4.09479 12.8125 3.29279L11.2314 4.80512ZM13.8358 7.05158C14.7311 7.66199 15.9835 8.30194 17.5558 8.97577L18.4177 6.96478C16.8972 6.31311 15.7931 5.73804 15.0683 5.24384L13.8358 7.05158ZM17.543 8.97022L35.2166 16.8129L36.104 14.813L18.4305 6.97034L17.543 8.97022ZM35.2132 16.8113C37.6376 17.8969 39.3652 18.9301 40.4611 19.8933L41.9054 18.2498C40.5713 17.0773 38.6168 15.9381 36.1074 14.8145L35.2132 16.8113ZM40.4755 19.9056C41.5237 20.795 42.2566 21.9196 42.6767 23.3094L44.771 22.6762C44.2338 20.8994 43.273 19.4099 41.8911 18.2373L40.4755 19.9056ZM42.6767 23.3094C43.1102 24.7433 43.3479 26.8109 43.3479 29.5652L45.5358 29.5652C45.5358 26.7228 45.2948 24.4088 44.771 22.6762L42.6767 23.3094ZM43.5667 28.9088L43.0696 29.5715L44.8199 30.8843L45.317 30.2215L43.5667 28.9088ZM43.6122 29.1857C41.9861 29.7047 40.3493 29.9624 38.6979 29.9624L38.6979 32.1503C40.5813 32.1503 42.4423 31.8557 44.2774 31.2701L43.6122 29.1857ZM38.6979 29.9624C38.3417 29.9624 37.736 29.929 36.8557 29.8557L36.6741 32.0361C37.5612 32.11 38.2442 32.1503 38.6979 32.1503L38.6979 29.9624ZM37.5713 30.2067L36.9638 29.5439L35.351 31.0223L35.9585 31.6851L37.5713 30.2067ZM37.2163 30.5577C37.7414 28.5323 38.0245 26.8278 38.0245 25.4782L35.8366 25.4781C35.8366 26.5586 35.6043 28.0574 35.0984 30.0086L37.2163 30.5577ZM38.0245 25.4782C38.0245 23.04 37.1187 21.0753 35.2325 19.7729L33.9894 21.5734C35.1961 22.4066 35.8366 23.6451 35.8366 25.4781L38.0245 25.4782ZM34.0669 19.7241L17.1113 29.4445L18.1995 31.3427L35.155 21.6222L34.0669 19.7241ZM17.115 29.4424C15.4752 30.3741 14.2067 31.2066 13.3535 31.9379L14.7774 33.5991C15.4706 33.0049 16.5954 32.2541 18.1958 31.3447L17.115 29.4424ZM13.3535 31.9379C12.4933 32.6752 11.7431 33.5496 11.1005 34.5537L12.9433 35.7331C13.479 34.8961 14.0911 34.1873 14.7774 33.5991L13.3535 31.9379ZM11.4591 34.2053L11.183 34.371L12.3086 36.2471L12.5848 36.0814L11.4591 34.2053ZM11.8366 34.2189L8.52285 33.9427L8.34115 36.1231L11.6549 36.3992L11.8366 34.2189ZM9.52573 35.0555L9.63619 29.6982L7.44874 29.653L7.33828 35.0103L9.52573 35.0555ZM9.63642 29.6756C9.63642 28.4969 9.50522 25.5714 9.24813 20.9438L7.06358 21.0652C7.32197 25.7162 7.44851 28.5715 7.44851 29.6756L9.63642 29.6756ZM8.76267 21.9147L9.25974 21.5834L8.0461 19.7629L7.54903 20.0943L8.76267 21.9147ZM8.53429 21.7606L11.5719 22.092L11.8092 19.917L8.77156 19.5856L8.53429 21.7606ZM10.5987 21.0728C10.6739 22.2761 10.8473 23.3106 11.2092 24.0343L13.1661 23.0558C13.0125 22.7486 12.8545 22.0894 12.7824 20.9363L10.5987 21.0728ZM11.2092 24.0343C11.4089 24.4337 11.6968 24.7931 12.0974 25.0479C12.5006 25.3045 12.9505 25.4123 13.4027 25.4123L13.4027 23.2244C13.3026 23.2244 13.2738 23.2032 13.272 23.2021C13.2675 23.1992 13.2241 23.1719 13.1661 23.0558L11.2092 24.0343ZM13.4027 25.4123C13.9616 25.4123 14.5872 25.251 15.2314 25.0132C15.8925 24.7691 16.6535 24.4135 17.5074 23.9581L16.4778 22.0275C15.6748 22.4558 15.0091 22.7629 14.4735 22.9607C13.9211 23.1647 13.5802 23.2244 13.4027 23.2244L13.4027 25.4123ZM17.5037 23.96L27.2242 18.8237L26.202 16.8892L16.4815 22.0256L17.5037 23.96ZM27.807 17.8564L27.807 17.1937L25.6191 17.1937L25.6191 17.8564L27.807 17.8564ZM27.1388 16.1859L16.8108 11.8228L15.9594 13.8383L26.2873 18.2014L27.1388 16.1859ZM16.8016 11.819C15.5453 11.3016 14.4484 10.9633 13.6236 10.9633L13.6236 13.1512C13.9771 13.1512 14.7211 13.3284 15.9686 13.842L16.8016 11.819ZM13.6236 10.9633C13.13 10.9633 12.629 11.0742 12.1883 11.368C11.7432 11.6647 11.4495 12.0883 11.2738 12.5568L13.3224 13.3251C13.3461 13.2619 13.3679 13.2274 13.3804 13.2108C13.3918 13.1955 13.3988 13.1906 13.402 13.1884C13.4032 13.1876 13.4545 13.1512 13.6236 13.1512L13.6236 10.9633ZM11.3068 12.4783C10.9465 13.2504 10.7999 14.3873 10.7627 15.7273L12.9498 15.7881C12.9862 14.4771 13.1342 13.7361 13.2894 13.4036L11.3068 12.4783ZM11.45 14.7419L11.1738 14.8524L11.9864 16.8839L12.2625 16.7734L11.45 14.7419ZM11.6946 14.7802L8.54652 14.4489L8.31748 16.6247L11.4656 16.9561L11.6946 14.7802ZM9.52575 15.5584L9.63621 9.98022L7.44872 9.93689L7.33826 15.5151L9.52575 15.5584ZM9.63642 9.95856C9.63642 7.87073 9.56186 5.87219 9.41215 3.96344L7.23093 4.13452C7.37578 5.98132 7.44851 7.92255 7.44851 9.95856L9.63642 9.95856ZM9.04192 4.87225L9.48376 4.48566L8.04301 2.83905L7.60117 3.22571L9.04192 4.87225Z" fill="#C4BEC0"/>
</g>
<defs>
<filter id="filter0_d" x="0.145609" y="0.333733" width="60.32" height="545.799" filterUnits="userSpaceOnUse" color-interpolation-filters="sRGB">
<feFlood flood-opacity="0" result="BackgroundImageFix"/>
<feColorMatrix in="SourceAlpha" type="matrix" values="0 0 0 0 0 0 0 0 0 0 0 0 0 0 0 0 0 0 127 0"/>
<feOffset dy="4.36989"/>
<feGaussianBlur stdDeviation="3.27742"/>
<feColorMatrix type="matrix" values="0 0 0 0 0 0 0 0 0 0 0 0 0 0 0 0 0 0 0.06 0"/>
<feBlend mode="normal" in2="BackgroundImageFix" result="effect1_dropShadow"/>
<feBlend mode="normal" in="SourceGraphic" in2="effect1_dropShadow" result="shape"/>
</filter>
</defs>
</svg>
