<svg width="292" height="329" viewBox="0 0 292 329" fill="none" xmlns="http://www.w3.org/2000/svg">
<g clip-path="url(#clip0)">
<g filter="url(#filter0_d)">
<mask id="path-1-inside-1" fill="white">
<path d="M78.6972 211.365C86.1276 213.591 88.1247 213.031 89.2494 210.005L90.5549 200.704L110.19 176.336L117.969 147.835L126.671 117.212L136.571 86.6976L147.83 57.924L151.916 49.1583C153.181 46.175 154.538 43.2327 156.071 40.2465C159.583 33.4037 164.022 26.3297 170.403 18C171.576 34.5986 169.591 45.1948 166.432 63.9072C162.361 87.5595 158.75 104.962 154.217 123.086L224.034 43.51C227.482 57.5897 227.173 67.2965 198.741 107.149L151.529 168.504L140.542 182.047C138.239 189.289 136.964 193.622 134.776 202.825C136.621 208.83 138.13 214.068 139.328 218.98C139.866 221.19 140.342 223.334 140.757 225.452C142.601 234.871 143.242 243.775 142.88 255.695C143.586 259.796 145.375 260.98 150.332 261.678C159.496 265.35 163.823 268.282 167.629 277.724C171.926 297.903 168.455 308.86 153.759 322.38C139.998 334.455 111.851 327.399 114.379 297.087C114.953 293.672 114.012 292.001 111.115 289.255C107.417 284.359 106.442 280.508 113.454 280.171C118.533 278.431 121.306 275.564 126.182 268.803C132.26 252.22 132.017 244.07 129.278 231.816L93.1209 249.983C85.1474 266.765 77.619 275.641 62.4883 287.351C48.8829 294.443 41.2479 298.736 28.0035 288.928C25.0922 285.904 23.1386 283.3 21.9027 280.552C20.5378 277.518 20.0483 274.308 20.1107 270.163C20.1242 269.267 20.1636 268.326 20.2254 267.335C24.1273 253.277 27.9222 245.758 36.9239 232.85C50.7086 215.779 60.3072 212.628 78.6972 211.365Z"/>
<path d="M207.39 186.725C207.39 193.995 201.496 199.888 194.227 199.888C186.957 199.888 181.064 193.995 181.064 186.725C181.064 179.455 186.957 173.562 194.227 173.562C201.496 173.562 207.39 179.455 207.39 186.725Z"/>
<path d="M194.771 189.499C194.771 190.43 194.016 191.185 193.085 191.185C192.153 191.185 191.398 190.43 191.398 189.499C191.398 188.568 192.153 187.813 193.085 187.813C194.016 187.813 194.771 188.568 194.771 189.499Z"/>
<path d="M196.838 184.277C196.838 185.209 196.083 185.964 195.151 185.964C194.22 185.964 193.465 185.209 193.465 184.277C193.465 183.346 194.22 182.591 195.151 182.591C196.083 182.591 196.838 183.346 196.838 184.277Z"/>
<path d="M212.728 232.25C213.876 239.428 208.987 246.178 201.809 247.326C194.63 248.474 187.88 243.585 186.732 236.407C185.584 229.228 190.473 222.478 197.651 221.33C204.83 220.182 211.58 225.071 212.728 232.25Z"/>
<path d="M200.705 236.981C200.852 237.901 200.226 238.766 199.307 238.913C198.387 239.06 197.522 238.434 197.375 237.514C197.228 236.594 197.854 235.73 198.774 235.583C199.694 235.436 200.558 236.062 200.705 236.981Z"/>
<path d="M201.922 231.499C202.069 232.419 201.442 233.283 200.523 233.43C199.603 233.577 198.739 232.951 198.592 232.031C198.445 231.112 199.071 230.247 199.99 230.1C200.91 229.953 201.775 230.579 201.922 231.499Z"/>
<path d="M233.269 249.115C235.603 255.214 232.551 262.051 226.452 264.386C220.353 266.72 213.516 263.668 211.181 257.569C208.847 251.47 211.899 244.633 217.998 242.298C224.097 239.964 230.934 243.016 233.269 249.115Z"/>
<path d="M223.572 255.495C223.871 256.276 223.48 257.152 222.699 257.451C221.918 257.75 221.042 257.359 220.743 256.578C220.444 255.796 220.835 254.92 221.616 254.621C222.397 254.322 223.273 254.713 223.572 255.495Z"/>
<path d="M223.629 250.45C223.929 251.231 223.538 252.107 222.756 252.406C221.975 252.705 221.099 252.314 220.8 251.533C220.501 250.752 220.892 249.876 221.673 249.577C222.455 249.278 223.33 249.669 223.629 250.45Z"/>
<path d="M254.61 253.099C250.36 260.469 240.94 262.998 233.57 258.748C226.201 254.498 223.672 245.078 227.922 237.709C232.172 230.339 241.591 227.81 248.961 232.06C256.331 236.31 258.86 245.73 254.61 253.099Z"/>
<path d="M240.195 248.534C239.651 249.478 238.444 249.802 237.5 249.258C236.556 248.713 236.232 247.507 236.777 246.563C237.321 245.619 238.528 245.295 239.472 245.839C240.416 246.384 240.74 247.59 240.195 248.534Z"/>
<path d="M245.343 244.449C244.799 245.393 243.592 245.717 242.648 245.173C241.704 244.628 241.38 243.422 241.925 242.478C242.469 241.534 243.676 241.21 244.62 241.754C245.564 242.298 245.888 243.505 245.343 244.449Z"/>
<path d="M239.178 271.181C239.689 278.172 234.436 284.253 227.445 284.764C220.454 285.274 214.373 280.021 213.862 273.03C213.352 266.039 218.605 259.958 225.596 259.448C232.586 258.937 238.667 264.19 239.178 271.181Z"/>
<path d="M227.238 274.735C227.304 275.63 226.631 276.409 225.735 276.475C224.84 276.54 224.061 275.867 223.995 274.972C223.93 274.076 224.603 273.297 225.498 273.232C226.394 273.166 227.173 273.839 227.238 274.735Z"/>
<path d="M228.859 269.568C228.924 270.464 228.251 271.243 227.356 271.308C226.46 271.374 225.681 270.701 225.616 269.805C225.551 268.91 226.224 268.131 227.119 268.065C228.015 268 228.794 268.673 228.859 269.568Z"/>
<path d="M212.503 257.97C213.415 263.672 209.531 269.034 203.829 269.946C198.127 270.858 192.765 266.974 191.853 261.272C190.941 255.57 194.824 250.208 200.527 249.296C206.229 248.384 211.591 252.267 212.503 257.97Z"/>
<path d="M206.249 261.556C206.636 262.187 206.439 263.012 205.809 263.399C205.178 263.786 204.353 263.588 203.966 262.958C203.579 262.328 203.777 261.503 204.407 261.116C205.037 260.729 205.862 260.926 206.249 261.556Z"/>
<path d="M201.354 261.992C201.741 262.622 201.544 263.447 200.913 263.834C200.283 264.221 199.458 264.024 199.071 263.393C198.684 262.763 198.881 261.938 199.512 261.551C200.142 261.164 200.967 261.361 201.354 261.992Z"/>
<path d="M205.478 257.162C205.865 257.793 205.668 258.618 205.037 259.005C204.407 259.392 203.582 259.195 203.195 258.564C202.808 257.934 203.005 257.109 203.636 256.722C204.266 256.335 205.091 256.532 205.478 257.162Z"/>
<path d="M200.583 257.598C200.97 258.228 200.773 259.053 200.142 259.44C199.512 259.827 198.687 259.63 198.3 258.999C197.913 258.369 198.11 257.544 198.741 257.157C199.371 256.77 200.196 256.967 200.583 257.598Z"/>
<path d="M198.411 288.211C196.121 292.818 190.53 294.696 185.924 292.406C181.317 290.116 179.439 284.525 181.729 279.918C184.019 275.312 189.61 273.434 194.217 275.724C198.823 278.014 200.701 283.605 198.411 288.211Z"/>
<path d="M192.02 287.576C191.975 288.233 191.405 288.729 190.747 288.683C190.09 288.638 189.594 288.068 189.64 287.41C189.685 286.753 190.255 286.257 190.913 286.303C191.57 286.348 192.066 286.918 192.02 287.576Z"/>
<path d="M188.246 285.357C188.2 286.015 187.63 286.511 186.973 286.465C186.315 286.419 185.82 285.85 185.865 285.192C185.911 284.535 186.481 284.039 187.138 284.084C187.796 284.13 188.291 284.7 188.246 285.357Z"/>
<path d="M193.735 283.991C193.69 284.648 193.12 285.144 192.463 285.098C191.805 285.053 191.309 284.483 191.355 283.825C191.4 283.168 191.97 282.672 192.628 282.718C193.285 282.763 193.781 283.333 193.735 283.991Z"/>
<path d="M189.961 281.772C189.915 282.43 189.345 282.926 188.688 282.88C188.031 282.834 187.535 282.265 187.58 281.607C187.626 280.95 188.196 280.454 188.853 280.499C189.511 280.545 190.007 281.115 189.961 281.772Z"/>
<path d="M232.46 238.541C227.31 241.957 220.365 240.552 216.949 235.402C213.532 230.252 214.937 223.307 220.087 219.89C225.237 216.474 232.182 217.879 235.599 223.029C239.016 228.179 237.61 235.124 232.46 238.541Z"/>
<path d="M226.194 234.04C225.751 234.696 224.86 234.87 224.204 234.427C223.547 233.985 223.374 233.094 223.816 232.437C224.258 231.781 225.149 231.607 225.806 232.05C226.462 232.492 226.636 233.383 226.194 234.04Z"/>
<path d="M223.599 229.464C223.157 230.121 222.266 230.294 221.609 229.852C220.953 229.409 220.779 228.519 221.221 227.862C221.664 227.205 222.555 227.032 223.211 227.474C223.868 227.917 224.042 228.808 223.599 229.464Z"/>
<path d="M230.132 231.34C229.689 231.997 228.798 232.17 228.142 231.728C227.485 231.285 227.312 230.395 227.754 229.738C228.197 229.081 229.087 228.908 229.744 229.35C230.401 229.793 230.574 230.684 230.132 231.34Z"/>
<path d="M227.537 226.765C227.095 227.421 226.204 227.595 225.547 227.152C224.891 226.71 224.717 225.819 225.16 225.163C225.602 224.506 226.493 224.332 227.15 224.775C227.806 225.217 227.98 226.108 227.537 226.765Z"/>
</mask>
<path d="M108.124 198.474L107.859 198.333L107.785 198.472L107.857 198.612L108.124 198.474ZM110.19 184.713L109.9 184.638L109.88 184.715L109.901 184.791L110.19 184.713ZM141.847 76.363L141.565 76.2606L141.562 76.2686L141.847 76.363ZM142.499 165.893L142.211 165.81L142.173 165.944L142.25 166.06L142.499 165.893ZM143.968 169.7L144.257 169.781L144.263 169.759L144.266 169.736L143.968 169.7ZM117.588 216.043L117.325 216.187L117.35 216.233L117.389 216.267L117.588 216.043ZM151.916 49.1583L151.644 49.0315L151.64 49.0412L151.916 49.1583ZM84.5717 244.49L84.7994 244.685L84.8018 244.682L84.5717 244.49ZM89.2494 229.26L89.5467 229.22L89.5397 229.168L89.515 229.121L89.2494 229.26ZM62.0533 225.452L61.9175 225.185L61.9045 225.192L61.8922 225.199L62.0533 225.452ZM130.751 207.177L130.918 207.425L131.009 207.364L131.039 207.26L130.751 207.177ZM141.521 169.7L141.809 169.783L141.817 169.754L141.82 169.723L141.521 169.7ZM139.943 166.926L140.159 166.718L140.123 166.68L140.075 166.657L139.943 166.926ZM120.308 155.395L120.599 155.468L120.601 155.457L120.308 155.395ZM137.169 93.7686L136.885 93.6731L136.884 93.6764L137.169 93.7686ZM160.232 34.8616L159.975 34.7067L159.965 34.723L159.957 34.7405L160.232 34.8616ZM145.491 270.163L145.539 269.867L145.511 269.862L145.483 269.863L145.491 270.163ZM122.538 299.426L122.238 299.405L122.237 299.422L122.238 299.439L122.538 299.426ZM142.445 317.756L142.473 318.055L142.529 318.05L142.579 318.025L142.445 317.756ZM161.265 288.711L161.564 288.734L161.566 288.709L161.564 288.685L161.265 288.711ZM175.897 174.922L176.127 175.114L176.144 175.094L176.157 175.071L175.897 174.922ZM128.738 229.478L129.03 229.408L129.02 229.366L128.999 229.329L128.738 229.478ZM127.009 226.595L127.262 226.434L127.009 226.595ZM96.1028 243.402L96.3782 243.522L96.3827 243.51L96.1028 243.402ZM30.5039 265.866L30.2111 265.8L30.5039 265.866ZM29.3635 273.1L29.0649 273.071L29.0635 273.086V273.1H29.3635ZM49.5974 284.414L49.7607 284.665L49.7919 284.645L49.8172 284.618L49.5974 284.414ZM151.529 216.043L151.726 216.269L151.749 216.248L151.768 216.224L151.529 216.043ZM186.612 169.7L186.851 169.881L186.861 169.868L186.87 169.853L186.612 169.7ZM217.779 117.212L218.037 117.365L218.04 117.36L217.779 117.212ZM237.958 81.5847L238.219 81.7325L238.225 81.7222L238.23 81.7114L237.958 81.5847ZM121.613 175.248L121.355 175.095L121.339 175.122L121.329 175.151L121.613 175.248ZM132.383 175.248L132.658 175.13L132.643 175.096L132.621 175.066L132.383 175.248ZM128.521 183.734L128.439 183.445L128.409 183.453L128.38 183.468L128.521 183.734ZM37.7943 157.843L37.5568 157.659L37.4013 157.861L37.5747 158.047L37.7943 157.843ZM42.5808 151.642L42.8086 151.447L42.5687 151.167L42.3433 151.459L42.5808 151.642ZM78.643 65.7021L78.8149 65.4563L78.6059 65.3101L78.428 65.4929L78.643 65.7021ZM95.287 77.3421L95.5167 77.5351L95.7276 77.2841L95.4589 77.0962L95.287 77.3421ZM24.3594 130.157L24.1122 129.987L24.0905 130.019L24.0774 130.055L24.3594 130.157ZM24.3594 135.379L24.5985 135.56L24.7219 135.397L24.6155 135.223L24.3594 135.379ZM21.4766 139.186L21.2374 139.005L21.0806 139.212L21.2632 139.397L21.4766 139.186ZM37.4679 151.098L37.3149 151.356L37.5569 151.5L37.7156 151.267L37.4679 151.098ZM43.5055 148.759L43.4347 149.051L43.6215 149.096L43.7407 148.945L43.5055 148.759ZM84.0822 100.024L83.8678 100.234L84.1777 100.55L84.3566 100.145L84.0822 100.024ZM90.99 90.3962L91.1553 90.1459L90.929 89.9965L90.7576 90.2066L90.99 90.3962ZM104.316 100.024L104.544 100.219L104.725 100.007L104.528 99.8111L104.316 100.024ZM96.8644 110.413L97.0902 110.61L97.1644 110.525V110.413H96.8644ZM55.2542 162.629L55.0577 162.856L55.2922 163.059L55.4874 162.818L55.2542 162.629ZM50.2501 167.633L50.0941 167.89L50.3222 168.029L50.4865 167.818L50.2501 167.633ZM54.6015 162.063L54.798 161.837L54.7834 161.824L54.7672 161.813L54.6015 162.063ZM48.8425 142.015L49.0777 142.201L48.8425 142.015ZM38.8035 109.706L38.5609 109.529L38.8035 109.706ZM59 129.178L59.2353 129.364L59 129.178ZM62.7445 124.446L62.9798 124.632L62.7445 124.446ZM66.6182 119.551L66.8534 119.737H66.8534L66.6182 119.551ZM59 83.7407L58.7731 83.5445L59 83.7407ZM64.8991 77.3421L64.6876 77.1294L64.8991 77.3421ZM75.1832 108.726L75.4185 108.913H75.4185L75.1832 108.726ZM69.5594 73.2731L69.3863 73.0281L69.5594 73.2731ZM89.3039 104.562L89.1116 104.792L89.1338 104.811L89.1591 104.825L89.3039 104.562ZM77.2287 105.463L77.412 105.225L76.7318 104.7L76.9375 105.535L77.2287 105.463ZM81.9089 128.471L82.1412 128.661L82.1426 128.659L81.9089 128.471ZM81.9089 124.446H82.2089V124.409L82.2001 124.374L81.9089 124.446ZM64.6813 121.998L64.4461 121.812H64.4461L64.6813 121.998ZM67.3293 122.374L67.3715 122.077L67.3293 122.374ZM73.1347 136.521L73.4238 136.441L73.4191 136.424L73.4123 136.407L73.1347 136.521ZM54.0288 135.46L53.7936 135.274L54.0288 135.46ZM63.4427 152.512L63.6758 152.701L63.6804 152.696L63.6846 152.69L63.4427 152.512ZM47.5305 147.309L47.5767 147.013L47.5305 147.309ZM55.7122 162.063L55.9454 162.252H55.9454L55.7122 162.063ZM104.336 208.209L111.407 204.837L111.149 204.295L104.078 207.667L104.336 208.209ZM111.545 204.428L108.39 198.336L107.857 198.612L111.012 204.704L111.545 204.428ZM108.388 198.615C109.86 195.856 110.749 193.691 111.084 191.544C111.42 189.391 111.195 187.281 110.48 184.634L109.901 184.791C110.602 187.388 110.81 189.409 110.491 191.452C110.172 193.499 109.32 195.594 107.859 198.333L108.388 198.615ZM110.481 184.787C121.578 141.319 128.488 117.602 142.132 76.4574L141.562 76.2686C127.914 117.427 121 141.158 109.9 184.638L110.481 184.787ZM142.25 166.06C143.347 167.7 143.81 168.502 143.67 169.664L144.266 169.736C144.436 168.322 143.828 167.34 142.749 165.726L142.25 166.06ZM117.851 215.898L111.541 204.421L111.015 204.71L117.325 216.187L117.851 215.898ZM153.926 123.013C150.669 136.04 146.935 149.44 142.211 165.81L142.788 165.976C147.512 149.605 151.248 136.196 154.508 123.159L153.926 123.013ZM143.679 169.62L140.253 181.967L140.831 182.128L144.257 169.781L143.679 169.62ZM90.758 200.925L100.984 191.515L100.578 191.073L90.3517 200.483L90.758 200.925ZM100.487 191.355L103.913 207.999L104.501 207.878L101.074 191.234L100.487 191.355ZM101.035 191.454L110.444 176.496L109.936 176.176L100.527 191.134L101.035 191.454ZM142.129 76.4654C145.96 65.9083 148.731 57.4411 152.193 49.2754L151.64 49.0412C148.17 57.2263 145.387 65.7275 141.565 76.2607L142.129 76.4654ZM152.188 49.2851L156.343 40.3732L155.799 40.1197L151.644 49.0316L152.188 49.2851ZM84.8018 244.682C87.3209 241.672 88.7181 239.305 89.3761 236.927C90.0344 234.548 89.9441 232.189 89.5467 229.22L88.952 229.3C89.3462 232.245 89.4233 234.506 88.7979 236.767C88.1722 239.028 86.8348 241.318 84.3417 244.297L84.8018 244.682ZM89.515 229.121C87.8985 226.039 85.8104 224.011 83.4652 222.77C81.1227 221.531 78.5419 221.086 75.9509 221.141C70.7776 221.251 65.5213 223.356 61.9175 225.185L62.1891 225.72C65.7651 223.905 70.9249 221.848 75.9637 221.741C78.4788 221.687 80.9531 222.12 83.1846 223.301C85.4134 224.48 87.4183 226.416 88.9837 229.399L89.515 229.121ZM117.755 216.291L130.918 207.425L130.583 206.928L117.42 215.794L117.755 216.291ZM131.039 207.26L141.809 169.783L141.232 169.617L130.463 207.094L131.039 207.26ZM141.82 169.723C141.87 169.065 141.704 168.565 141.39 168.097C141.09 167.65 140.645 167.222 140.159 166.718L139.727 167.135C140.242 167.668 140.63 168.042 140.892 168.431C141.139 168.799 141.261 169.167 141.221 169.677L141.82 169.723ZM140.075 166.657C137.676 165.478 135.14 164.581 132.72 163.796C130.292 163.009 127.998 162.339 126.044 161.607C124.086 160.873 122.526 160.095 121.555 159.119C121.074 158.635 120.743 158.108 120.577 157.517C120.411 156.926 120.403 156.253 120.599 155.468L120.016 155.323C119.8 156.192 119.8 156.973 119.999 157.68C120.198 158.386 120.591 159 121.13 159.542C122.199 160.617 123.866 161.431 125.833 162.168C127.804 162.907 130.132 163.588 132.535 164.367C134.947 165.149 137.451 166.036 139.811 167.196L140.075 166.657ZM120.601 155.457C125.495 132.093 129.503 118.48 137.455 93.8608L136.884 93.6764C128.929 118.306 124.914 131.941 120.014 155.334L120.601 155.457ZM137.454 93.864C144.528 72.7795 149.466 59.997 160.506 34.9828L159.957 34.7405C148.911 59.7695 143.966 72.5693 136.885 93.6731L137.454 93.864ZM160.488 35.0166L170.66 18.155L170.146 17.845L159.975 34.7067L160.488 35.0166ZM145.483 269.863C140.156 270.001 134.706 272.183 130.406 276.945C126.108 281.704 122.976 289.021 122.238 299.405L122.837 299.447C123.568 289.162 126.664 281.983 130.851 277.347C135.037 272.712 140.329 270.597 145.499 270.463L145.483 269.863ZM122.238 299.439C122.485 305.276 124.158 310.254 127.485 313.616C130.819 316.985 135.771 318.687 142.473 318.055L142.417 317.458C135.848 318.077 131.09 316.406 127.911 313.194C124.725 309.974 123.08 305.162 122.837 299.413L122.238 299.439ZM142.579 318.025C148.606 315.012 153.05 311.828 156.138 307.311C159.226 302.794 160.936 296.975 161.564 288.734L160.966 288.688C160.342 296.873 158.649 302.575 155.643 306.972C152.637 311.369 148.296 314.496 142.311 317.488L142.579 318.025ZM161.564 288.685C161.264 285.195 160.635 281.027 158.384 277.461C156.124 273.879 152.25 270.94 145.539 269.867L145.444 270.459C152.004 271.508 155.718 274.361 157.877 277.782C160.046 281.219 160.668 285.264 160.966 288.737L161.564 288.685ZM252.71 40.0975L175.636 174.773L176.157 175.071L253.231 40.3955L252.71 40.0975ZM175.666 174.73L139.097 218.788L139.558 219.171L176.127 175.114L175.666 174.73ZM128.999 229.329C128.402 228.286 127.834 227.333 127.262 226.434L126.756 226.756C127.322 227.644 127.884 228.589 128.478 229.627L128.999 229.329ZM127.262 226.434C124.921 222.755 122.519 220.011 117.787 215.818L117.389 216.267C122.092 220.434 124.454 223.137 126.756 226.756L127.262 226.434ZM96.3827 243.51C96.8902 242.195 97.358 240.927 97.7911 239.694L97.225 239.495C96.794 240.722 96.3284 241.985 95.8229 243.294L96.3827 243.51ZM97.7911 239.694C101.484 229.177 102.653 221.176 104.504 207.98L103.91 207.896C102.058 221.094 100.896 229.041 97.225 239.495L97.7911 239.694ZM126.888 226.32L97.3871 239.32L97.629 239.869L127.13 226.869L126.888 226.32ZM61.8922 225.199C40.2189 238.989 32.8282 254.112 30.2111 265.8L30.7966 265.932C33.3792 254.398 40.6755 239.409 62.2143 225.706L61.8922 225.199ZM30.2111 265.8C29.6252 268.417 29.2791 270.859 29.0649 273.071L29.6621 273.129C29.8744 270.936 30.2171 268.52 30.7966 265.932L30.2111 265.8ZM84.4614 244.211L30.3936 265.587L30.6142 266.145L84.682 244.769L84.4614 244.211ZM20.0085 269.881L-3.10223 278.257L-2.89777 278.822L20.213 270.445L20.0085 269.881ZM29.0635 273.1C29.0635 274.57 29.2625 275.943 29.6284 277.209L30.2048 277.042C29.855 275.832 29.6635 274.515 29.6635 273.1H29.0635ZM29.6284 277.209C32.1357 285.883 42.4312 289.422 49.7607 284.665L49.4341 284.162C42.431 288.707 32.5966 285.316 30.2048 277.042L29.6284 277.209ZM49.8172 284.618C59.9517 273.705 66.7753 265.782 75.1767 255.944L74.7205 255.554C66.3207 265.391 59.5035 273.306 49.3776 284.21L49.8172 284.618ZM75.1767 255.944C78.1206 252.496 81.2578 248.814 84.7994 244.685L84.344 244.295C80.8018 248.424 77.6638 252.107 74.7205 255.554L75.1767 255.944ZM30.0453 277.396L75.0772 256.02L74.82 255.478L29.788 276.854L30.0453 277.396ZM93.3918 250.112C94.3757 248.041 95.3661 245.851 96.378 243.521L95.8276 243.282C94.818 245.607 93.8304 247.791 92.8499 249.855L93.3918 250.112ZM129.571 231.751C129.4 230.987 129.219 230.207 129.03 229.408L128.446 229.547C128.635 230.343 128.815 231.121 128.985 231.882L129.571 231.751ZM140.954 225.678L151.726 216.269L151.331 215.817L140.559 225.227L140.954 225.678ZM151.768 216.224L186.851 169.881L186.373 169.519L151.289 215.862L151.768 216.224ZM186.87 169.853L218.037 117.365L217.521 117.059L186.354 169.547L186.87 169.853ZM218.04 117.36L238.219 81.7325L237.697 81.4368L217.518 117.064L218.04 117.36ZM238.23 81.7114L253.242 49.5112L252.699 49.2576L237.686 81.4579L238.23 81.7114ZM121.871 175.402C122.941 173.601 124.664 172.509 126.525 172.407C128.38 172.304 130.426 173.183 132.144 175.431L132.621 175.066C130.804 172.69 128.58 171.692 126.492 171.808C124.409 171.923 122.515 173.143 121.355 175.095L121.871 175.402ZM132.107 175.367C133.409 178.387 132.095 182.415 128.439 183.445L128.602 184.022C132.67 182.876 134.076 178.419 132.658 175.13L132.107 175.367ZM128.38 183.468C126.658 184.38 124.486 183.995 123.012 182.56C121.551 181.137 120.759 178.654 121.897 175.346L121.329 175.151C120.128 178.642 120.94 181.38 122.593 182.99C124.234 184.587 126.685 185.045 128.661 183.999L128.38 183.468ZM21.7882 280.275L12.4332 284.137L12.6622 284.691L22.0171 280.829L21.7882 280.275ZM12.2656 284.516L30.2218 334.122L30.7859 333.918L12.8298 284.312L12.2656 284.516ZM12.4332 284.137L0.706572 288.977L0.935518 289.532L12.6622 284.691L12.4332 284.137ZM0.706572 288.977L-3.11447 290.555L-2.88553 291.109L0.935518 289.532L0.706572 288.977ZM0.545792 289.374L19.9502 334.139L20.5007 333.9L1.0963 289.135L0.545792 289.374ZM38.0318 158.026L42.8183 151.825L42.3433 151.459L37.5568 157.659L38.0318 158.026ZM78.471 65.948L95.1151 77.5879L95.4589 77.0962L78.8149 65.4563L78.471 65.948ZM95.0574 77.1491L90.7604 82.2619L91.2197 82.648L95.5167 77.5351L95.0574 77.1491ZM91.1412 82.1958L72.8653 71.5349L72.563 72.0532L90.8389 82.7141L91.1412 82.1958ZM72.9292 72.0033L78.8579 65.9113L78.428 65.4929L72.4992 71.5848L72.9292 72.0033ZM24.0774 130.055C23.555 131.492 23.3287 132.497 23.3553 133.332C23.3823 134.182 23.6704 134.825 24.1032 135.535L24.6155 135.223C24.2082 134.555 23.9773 134.015 23.955 133.313C23.9321 132.595 24.1258 131.678 24.6413 130.26L24.0774 130.055ZM24.1202 135.198L21.2374 139.005L21.7157 139.367L24.5985 135.56L24.1202 135.198ZM21.2632 139.397C26.569 144.767 30.3356 147.219 37.3149 151.356L37.6209 150.84C30.6585 146.713 26.9428 144.291 21.69 138.975L21.2632 139.397ZM37.7156 151.267L39.9457 148.004L39.4503 147.665L37.2202 150.929L37.7156 151.267ZM39.6272 148.126L43.4347 149.051L43.5763 148.468L39.7688 147.543L39.6272 148.126ZM82.2878 100.23C82.6775 99.8168 82.9049 99.7083 83.0725 99.7104C83.2455 99.7126 83.4751 99.8325 83.8678 100.234L84.2965 99.8138C83.9038 99.4128 83.5203 99.116 83.0801 99.1105C82.6343 99.1049 82.2482 99.3975 81.8515 99.8178L82.2878 100.23ZM84.3566 100.145C85.9786 96.4726 88.1211 94.3861 91.2224 90.5859L90.7576 90.2066C87.6992 93.9541 85.4726 96.1332 83.8078 99.9025L84.3566 100.145ZM90.8247 90.6466C95.8541 93.9668 97.6378 93.7991 104.104 100.236L104.528 99.8111C98.006 93.319 96.0837 93.3994 91.1553 90.1459L90.8247 90.6466ZM104.088 99.8286L96.6365 108.531L97.0923 108.922L104.544 100.219L104.088 99.8286ZM96.5644 108.726V110.413H97.1644V108.726H96.5644ZM37.5747 158.047C42.3098 163.135 45.1199 164.861 50.0941 167.89L50.4062 167.377C45.4493 164.359 42.6937 162.667 38.0139 157.638L37.5747 158.047ZM55.4507 162.403L54.798 161.837L54.405 162.29L55.0577 162.856L55.4507 162.403ZM54.7672 161.813C49.7153 158.466 47.0213 156.363 42.8086 151.447L42.353 151.837C46.611 156.806 49.3511 158.944 54.4358 162.314L54.7672 161.813ZM50.4865 167.818L54.8379 162.248L54.3651 161.879L50.0137 167.449L50.4865 167.818ZM24.1328 130.354L39.4714 148.031L39.9246 147.638L24.586 129.96L24.1328 130.354ZM27.0838 125.689C26.0746 127.141 25.0827 128.576 24.1122 129.987L24.6065 130.327C25.5765 128.917 26.5679 127.483 27.5765 126.031L27.0838 125.689ZM27.0851 126.033L43.2604 148.932L43.7505 148.586L27.5752 125.687L27.0851 126.033ZM31.5051 119.377C30.0043 121.502 28.5264 123.613 27.0838 125.689L27.5765 126.031C29.0183 123.957 30.4953 121.847 31.9952 119.724L31.5051 119.377ZM31.4858 119.692L45.58 145.945L46.1087 145.662L32.0144 119.409L31.4858 119.692ZM34.4036 115.297C33.4302 116.659 32.463 118.021 31.5051 119.377L31.9952 119.724C32.9525 118.368 33.9191 117.007 34.8918 115.646L34.4036 115.297ZM46.0796 145.99L49.0777 142.201L48.6072 141.828L45.6091 145.617L46.0796 145.99ZM34.3831 115.613L48.5779 142.156L49.107 141.873L34.9122 115.33L34.3831 115.613ZM38.5609 109.529C37.1689 111.442 35.7801 113.37 34.4036 115.297L34.8918 115.646C36.2674 113.72 37.6552 111.794 39.0461 109.882L38.5609 109.529ZM49.0777 142.201L52.3488 138.067L51.8783 137.695L48.6072 141.828L49.0777 142.201ZM38.5323 109.834L51.8423 138.009L52.3848 137.753L39.0748 109.577L38.5323 109.834ZM42.3398 104.383C41.082 106.079 39.8202 107.798 38.5609 109.529L39.0461 109.882C40.3044 108.153 41.5652 106.435 42.8218 104.741L42.3398 104.383ZM42.3092 104.689L55.6726 133.167L56.2157 132.912L42.8524 104.434L42.3092 104.689ZM45.605 100.021C44.5226 101.453 43.4328 102.909 42.3398 104.383L42.8218 104.741C43.9137 103.268 45.0025 101.813 46.0837 100.383L45.605 100.021ZM56.1794 133.226L59.2353 129.364L58.7648 128.992L55.7089 132.854L56.1794 133.226ZM45.5712 100.326L58.7268 129.302L59.2732 129.054L46.1175 100.078L45.5712 100.326ZM50.5141 93.6379C48.9058 95.6899 47.2642 97.8266 45.605 100.021L46.0837 100.383C47.741 98.1908 49.3805 96.057 50.9863 94.008L50.5141 93.6379ZM59.2353 129.364L62.9798 124.632L62.5093 124.26L58.7648 128.992L59.2353 129.364ZM50.4709 93.9324L62.4652 124.555L63.0239 124.336L51.0295 93.7136L50.4709 93.9324ZM54.5866 88.5393C53.2606 90.1648 51.8997 91.87 50.5141 93.6379L50.9863 94.008C52.3698 92.2428 53.7283 90.5406 55.0516 88.9186L54.5866 88.5393ZM54.5389 88.8362L66.338 119.658L66.8983 119.443L55.0993 88.6217L54.5389 88.8362ZM58.7731 83.5445C57.4273 85.1009 56.0274 86.7731 54.5866 88.5393L55.0516 88.9186C56.4893 87.1561 57.8855 85.4883 59.2269 83.9369L58.7731 83.5445ZM66.8534 119.737L71.5018 113.862L71.0313 113.49L66.3829 119.364L66.8534 119.737ZM58.7224 83.8544L70.9889 113.79L71.5441 113.562L59.2776 83.627L58.7224 83.8544ZM64.6876 77.1294C62.8832 78.9237 60.8946 81.091 58.7731 83.5445L59.2269 83.9369C61.3422 81.4907 63.3203 79.3353 65.1107 77.5548L64.6876 77.1294ZM71.5018 113.862L75.4185 108.913L74.948 108.54L71.0313 113.49L71.5018 113.862ZM75.4185 108.913L82.3049 100.21L81.8344 99.8375L74.9479 108.54L75.4185 108.913ZM64.614 77.4355L74.8981 108.82L75.4683 108.633L65.1842 77.2487L64.614 77.4355ZM72.6868 71.4953C71.7706 71.5792 70.6518 72.1336 69.3863 73.0281L69.7326 73.5181C70.9813 72.6355 71.9909 72.1616 72.7415 72.0928L72.6868 71.4953ZM69.3863 73.0281C68.0195 73.9941 66.4372 75.3895 64.6876 77.1294L65.1107 77.5548C66.8492 75.8259 68.4047 74.4566 69.7326 73.5181L69.3863 73.0281ZM69.2877 73.4002L81.7979 100.151L82.3414 99.8966L69.8312 73.146L69.2877 73.4002ZM82.3064 100.208C88.5484 92.1936 91.3992 87.9176 91.29 82.449L90.6901 82.461C90.7943 87.6819 88.1015 91.7908 81.833 99.8394L82.3064 100.208ZM83.8899 100.432L89.1116 104.792L89.4961 104.332L84.2745 99.9718L83.8899 100.432ZM89.1591 104.825L96.7197 108.989L97.0091 108.464L89.4486 104.299L89.1591 104.825ZM96.6386 110.215L91.3082 116.307L91.7597 116.702L97.0902 110.61L96.6386 110.215ZM91.7172 116.267L77.412 105.225L77.0454 105.7L91.3506 116.742L91.7172 116.267ZM91.3002 116.317L81.6751 128.283L82.1426 128.659L91.7677 116.693L91.3002 116.317ZM76.9375 105.535L81.6176 124.518L82.2001 124.374L77.52 105.391L76.9375 105.535ZM81.6088 124.446V128.471H82.2089V124.446H81.6088ZM62.9798 124.632L64.9166 122.184L64.4461 121.812L62.5093 124.26L62.9798 124.632ZM64.9166 122.184L66.8534 119.737L66.3829 119.364L64.4461 121.812L64.9166 122.184ZM81.951 124.149L67.3715 122.077L67.2871 122.671L81.8667 124.743L81.951 124.149ZM67.3715 122.077L64.7235 121.701L64.6391 122.295L67.2871 122.671L67.3715 122.077ZM81.6765 128.281L73.4609 138.344L73.9256 138.723L82.1412 128.661L81.6765 128.281ZM67.0518 122.488L72.8572 136.635L73.4123 136.407L67.6069 122.261L67.0518 122.488ZM72.8457 136.601L73.4042 138.614L73.9823 138.453L73.4238 136.441L72.8457 136.601ZM52.3488 138.067L54.2641 135.646L53.7936 135.274L51.8783 137.695L52.3488 138.067ZM54.2641 135.646L56.1794 133.226L55.7089 132.854L53.7936 135.274L54.2641 135.646ZM73.1514 136.221L57.3922 135.347L57.3589 135.946L73.1181 136.821L73.1514 136.221ZM57.3922 135.347L54.0455 135.161L54.0122 135.76L57.3589 135.946L57.3922 135.347ZM73.4513 138.356L63.2007 152.335L63.6846 152.69L73.9352 138.711L73.4513 138.356ZM57.0932 135.748L62.1234 149.731L62.6879 149.528L57.6578 135.545L57.0932 135.748ZM62.1234 149.731L63.1604 152.614L63.7249 152.411L62.6879 149.528L62.1234 149.731ZM43.7407 148.945L45.2041 147.096L44.7336 146.724L43.2702 148.573L43.7407 148.945ZM45.2041 147.096L46.0796 145.99L45.6091 145.617L44.7336 146.724L45.2041 147.096ZM62.4519 149.333L47.5767 147.013L47.4843 147.606L62.3594 149.926L62.4519 149.333ZM47.5767 147.013L45.0151 146.614L44.9226 147.206L47.4843 147.606L47.5767 147.013ZM63.2095 152.324L55.479 161.875L55.9454 162.252L63.6758 152.701L63.2095 152.324ZM55.479 161.875L55.021 162.441L55.4874 162.818L55.9454 162.252L55.479 161.875ZM47.2682 147.455L55.4499 162.209L55.9746 161.918L47.7929 147.164L47.2682 147.455ZM89.2494 210.005L89.8118 210.214L89.8345 210.153L89.8435 210.088L89.2494 210.005ZM78.6972 211.365L78.8694 210.79L78.765 210.759L78.6561 210.766L78.6972 211.365ZM36.9239 232.85L36.4571 232.473L36.4438 232.489L36.4318 232.507L36.9239 232.85ZM20.2254 267.335L19.6473 267.174L19.6305 267.235L19.6266 267.297L20.2254 267.335ZM28.0035 288.928L27.5713 289.344L27.6061 289.381L27.6465 289.411L28.0035 288.928ZM62.4883 287.351L62.7656 287.883L62.8132 287.858L62.8555 287.826L62.4883 287.351ZM170.403 18L171.001 17.9577L170.89 16.3779L169.926 17.6351L170.403 18ZM166.432 63.9072L167.023 64.0089L167.024 64.007L166.432 63.9072ZM142.88 255.695L142.281 255.676L142.279 255.737L142.289 255.796L142.88 255.695ZM150.332 261.678L150.555 261.121L150.488 261.094L150.416 261.084L150.332 261.678ZM167.629 277.724L168.216 277.599L168.205 277.548L168.185 277.499L167.629 277.724ZM153.759 322.38L154.155 322.831L154.165 322.821L153.759 322.38ZM114.379 297.087L113.787 296.988L113.783 297.012L113.781 297.037L114.379 297.087ZM111.115 289.255L110.636 289.616L110.666 289.656L110.702 289.69L111.115 289.255ZM113.454 280.171L113.483 280.771L113.568 280.766L113.648 280.739L113.454 280.171ZM126.182 268.803L126.668 269.154L126.717 269.087L126.745 269.01L126.182 268.803ZM154.217 123.086L153.635 122.94L154.668 123.482L154.217 123.086ZM224.034 43.51L224.616 43.3673L224.342 42.2483L223.583 43.1143L224.034 43.51ZM198.741 107.149L199.217 107.515L199.223 107.506L199.23 107.498L198.741 107.149ZM151.529 168.504L151.995 168.882L151.999 168.876L152.004 168.87L151.529 168.504ZM140.542 182.047L140.076 181.669L140.004 181.757L139.97 181.866L140.542 182.047ZM134.776 202.825L134.192 202.686L134.154 202.845L134.202 203.002L134.776 202.825ZM90.5549 200.704L90.0877 200.328L89.9837 200.457L89.9607 200.621L90.5549 200.704ZM110.19 176.336L110.658 176.713L110.736 176.615L110.769 176.494L110.19 176.336ZM117.969 147.835L117.391 147.671L117.39 147.677L117.969 147.835ZM126.671 117.212L126.101 117.027L126.097 117.037L126.094 117.048L126.671 117.212ZM136.571 86.6976L136.012 86.4789L136.006 86.4955L136 86.5124L136.571 86.6976ZM147.83 57.924L147.286 57.6705L147.278 57.6877L147.271 57.7054L147.83 57.924ZM151.916 49.1583L152.46 49.4118L152.465 49.4022L152.469 49.3925L151.916 49.1583ZM156.071 40.2465L155.537 39.9725V39.9725L156.071 40.2465ZM139.328 218.98L139.911 218.838L139.328 218.98ZM20.1107 270.163L19.5108 270.154L20.1107 270.163ZM21.9027 280.552L22.4499 280.306L21.9027 280.552ZM93.1209 249.983L92.8515 249.447L92.6674 249.54L92.5789 249.726L93.1209 249.983ZM129.278 231.816L129.863 231.686L129.696 230.935L129.008 231.28L129.278 231.816ZM140.757 225.452L140.168 225.568L140.757 225.452ZM88.6869 209.796C88.4217 210.51 88.1258 211.019 87.7554 211.375C87.3955 211.72 86.9275 211.958 86.2472 212.062C84.8291 212.279 82.5946 211.906 78.8694 210.79L78.525 211.94C82.2302 213.05 84.7094 213.511 86.4287 213.248C87.317 213.112 88.0236 212.781 88.5867 212.24C89.1392 211.709 89.5147 211.014 89.8118 210.214L88.6869 209.796ZM78.6561 210.766C69.4424 211.399 62.3515 212.508 55.8241 215.638C49.2916 218.771 43.3794 223.9 36.4571 232.473L37.3907 233.227C44.2531 224.729 50.0325 219.747 56.343 216.72C62.6586 213.692 69.5621 212.594 78.7383 211.963L78.6561 210.766ZM36.4318 232.507C27.398 245.46 23.5702 253.04 19.6473 267.174L20.8036 267.495C24.6843 253.513 28.4463 246.055 37.416 233.193L36.4318 232.507ZM27.6465 289.411C34.357 294.38 39.7315 295.833 45.1933 295.071C50.5847 294.32 56.0001 291.41 62.7656 287.883L62.211 286.819C55.3711 290.384 50.1662 293.167 45.0277 293.883C39.9596 294.589 34.8944 293.285 28.3606 288.446L27.6465 289.411ZM169.804 18.0423C170.972 34.5587 169.001 45.0861 165.841 63.8073L167.024 64.007C170.181 45.3034 172.181 34.6385 171.001 17.9577L169.804 18.0423ZM142.289 255.796C142.654 257.917 143.321 259.41 144.644 260.437C145.934 261.437 147.76 261.922 150.248 262.272L150.416 261.084C147.946 260.736 146.4 260.28 145.38 259.488C144.393 258.723 143.812 257.573 143.472 255.593L142.289 255.796ZM150.109 262.235C154.68 264.066 157.972 265.687 160.594 267.988C163.204 270.279 165.192 273.282 167.072 277.948L168.185 277.499C166.26 272.723 164.181 269.539 161.385 267.086C158.601 264.643 155.148 262.961 150.555 261.121L150.109 262.235ZM167.042 277.849C169.18 287.89 169.368 295.558 167.243 302.37C165.12 309.181 160.661 315.214 153.352 321.938L154.165 322.821C161.552 316.025 166.177 309.82 168.389 302.728C170.6 295.637 170.374 287.737 168.216 277.599L167.042 277.849ZM153.363 321.929C146.672 327.8 136.455 329.033 128.22 325.087C120.033 321.166 113.731 312.08 114.977 297.137L113.781 297.037C112.499 312.407 119.006 322.004 127.701 326.17C136.347 330.311 147.084 329.035 154.154 322.831L153.363 321.929ZM114.97 297.187C115.27 295.406 115.185 294.007 114.597 292.678C114.02 291.374 112.985 290.201 111.528 288.819L110.702 289.69C112.142 291.055 113.025 292.091 113.5 293.163C113.963 294.21 114.062 295.354 113.787 296.988L114.97 297.187ZM111.594 288.893C110.681 287.685 109.953 286.563 109.476 285.56C108.994 284.547 108.796 283.715 108.865 283.066C108.928 282.462 109.227 281.959 109.911 281.563C110.628 281.148 111.77 280.853 113.483 280.771L113.425 279.572C111.631 279.658 110.266 279.97 109.309 280.525C108.319 281.099 107.778 281.928 107.671 282.941C107.569 283.909 107.871 284.979 108.392 286.075C108.919 287.182 109.7 288.376 110.636 289.616L111.594 288.893ZM113.648 280.739C118.915 278.934 121.78 275.932 126.668 269.154L125.695 268.452C120.832 275.195 118.152 277.927 113.259 279.604L113.648 280.739ZM165.841 63.8054C161.772 87.4463 158.163 104.833 153.635 122.94L154.8 123.232C159.336 105.09 162.95 87.6727 167.023 64.0089L165.841 63.8054ZM223.583 43.1143L153.766 122.69L154.668 123.482L224.485 43.9057L223.583 43.1143ZM223.451 43.6527C225.158 50.6249 225.925 56.4451 222.776 65.467C219.606 74.5475 212.466 86.8772 198.253 106.801L199.23 107.498C213.447 87.5683 220.678 75.1184 223.909 65.8624C227.16 56.5479 226.357 50.4748 224.616 43.3673L223.451 43.6527ZM198.266 106.783L151.053 168.138L152.004 168.87L199.217 107.515L198.266 106.783ZM139.97 181.866C137.663 189.119 136.384 193.466 134.192 202.686L135.36 202.964C137.544 193.777 138.814 189.459 141.114 182.229L139.97 181.866ZM151.063 168.126L140.076 181.669L141.008 182.425L151.995 168.882L151.063 168.126ZM89.8435 210.088L91.1491 200.787L89.9607 200.621L88.6552 209.922L89.8435 210.088ZM110.769 176.494L118.547 147.993L117.39 147.677L109.612 176.178L110.769 176.494ZM118.546 147.999L127.249 117.376L126.094 117.048L117.391 147.671L118.546 147.999ZM127.242 117.397L137.142 86.8827L136 86.5124L126.101 117.027L127.242 117.397ZM137.13 86.9162L148.389 58.1426L147.271 57.7054L136.012 86.4789L137.13 86.9162ZM152.469 49.3925C153.729 46.4208 155.079 43.492 156.605 40.5205L155.537 39.9725C153.997 42.9735 152.634 45.9291 151.364 48.9241L152.469 49.3925ZM156.605 40.5205C160.099 33.7134 164.517 26.6696 170.879 18.3649L169.926 17.6351C163.526 25.9897 159.068 33.0939 155.537 39.9725L156.605 40.5205ZM148.374 58.1775L152.46 49.4118L151.373 48.9048L147.286 57.6705L148.374 58.1775ZM91.0221 201.08L110.658 176.713L109.723 175.96L90.0877 200.328L91.0221 201.08ZM134.202 203.002C136.046 209.002 137.551 214.227 138.745 219.122L139.911 218.838C138.709 213.91 137.196 208.659 135.349 202.649L134.202 203.002ZM19.6266 267.297C19.5643 268.297 19.5245 269.246 19.5108 270.154L20.7107 270.172C20.724 269.287 20.7629 268.356 20.8243 267.372L19.6266 267.297ZM19.5108 270.154C19.4475 274.353 19.943 277.658 21.3555 280.798L22.4499 280.306C21.1327 277.377 20.6491 274.263 20.7107 270.172L19.5108 270.154ZM21.3555 280.798C22.631 283.634 24.6361 286.295 27.5713 289.344L28.4358 288.512C25.5482 285.512 23.6461 282.965 22.4499 280.306L21.3555 280.798ZM62.8555 287.826C78.0526 276.064 85.6447 267.116 93.6628 250.241L92.5789 249.726C84.65 266.413 77.1854 275.217 62.1211 286.877L62.8555 287.826ZM126.745 269.01C129.796 260.687 131.274 254.444 131.635 248.724C131.997 243.001 131.239 237.837 129.863 231.686L128.692 231.947C130.057 238.05 130.789 243.088 130.438 248.648C130.086 254.212 128.646 260.336 125.618 268.597L126.745 269.01ZM93.3902 250.52L129.547 232.353L129.008 231.28L92.8515 249.447L93.3902 250.52ZM138.745 219.122C139.282 221.324 139.755 223.46 140.168 225.568L141.346 225.337C140.929 223.209 140.451 221.056 139.911 218.838L138.745 219.122ZM140.168 225.568C142.002 234.934 142.642 243.793 142.281 255.676L143.48 255.713C143.843 243.758 143.2 234.808 141.346 225.337L140.168 225.568ZM206.79 186.725C206.79 193.663 201.165 199.288 194.227 199.288V200.488C201.828 200.488 207.99 194.326 207.99 186.725H206.79ZM194.227 199.288C187.288 199.288 181.664 193.663 181.664 186.725H180.464C180.464 194.326 186.626 200.488 194.227 200.488V199.288ZM181.664 186.725C181.664 179.787 187.288 174.162 194.227 174.162V172.962C186.626 172.962 180.464 179.124 180.464 186.725H181.664ZM194.227 174.162C201.165 174.162 206.79 179.787 206.79 186.725H207.99C207.99 179.124 201.828 172.962 194.227 172.962V174.162ZM194.171 189.499C194.171 190.099 193.684 190.585 193.085 190.585V191.785C194.347 191.785 195.371 190.762 195.371 189.499H194.171ZM193.085 190.585C192.485 190.585 191.998 190.099 191.998 189.499H190.798C190.798 190.762 191.822 191.785 193.085 191.785V190.585ZM191.998 189.499C191.998 188.899 192.485 188.413 193.085 188.413V187.213C191.822 187.213 190.798 188.237 190.798 189.499H191.998ZM193.085 188.413C193.684 188.413 194.171 188.899 194.171 189.499H195.371C195.371 188.237 194.347 187.213 193.085 187.213V188.413ZM196.238 184.277C196.238 184.877 195.751 185.364 195.151 185.364V186.564C196.414 186.564 197.438 185.54 197.438 184.277H196.238ZM195.151 185.364C194.552 185.364 194.065 184.877 194.065 184.277H192.865C192.865 185.54 193.889 186.564 195.151 186.564V185.364ZM194.065 184.277C194.065 183.678 194.552 183.191 195.151 183.191V181.991C193.889 181.991 192.865 183.015 192.865 184.277H194.065ZM195.151 183.191C195.751 183.191 196.238 183.678 196.238 184.277H197.438C197.438 183.015 196.414 181.991 195.151 181.991V183.191ZM212.135 232.344C213.231 239.196 208.565 245.638 201.714 246.734L201.903 247.918C209.409 246.718 214.521 239.661 213.32 232.155L212.135 232.344ZM201.714 246.734C194.863 247.829 188.42 243.163 187.325 236.312L186.14 236.502C187.34 244.007 194.398 249.119 201.903 247.918L201.714 246.734ZM187.325 236.312C186.229 229.461 190.895 223.019 197.746 221.923L197.557 220.738C190.051 221.938 184.939 228.996 186.14 236.502L187.325 236.312ZM197.746 221.923C204.597 220.827 211.04 225.493 212.135 232.344L213.32 232.155C212.12 224.649 205.062 219.538 197.557 220.738L197.746 221.923ZM200.113 237.076C200.208 237.669 199.804 238.226 199.212 238.32L199.401 239.505C200.648 239.306 201.497 238.134 201.298 236.887L200.113 237.076ZM199.212 238.32C198.619 238.415 198.062 238.012 197.968 237.419L196.783 237.609C196.982 238.856 198.155 239.705 199.401 239.505L199.212 238.32ZM197.968 237.419C197.873 236.827 198.276 236.27 198.869 236.175L198.679 234.99C197.432 235.19 196.583 236.362 196.783 237.609L197.968 237.419ZM198.869 236.175C199.461 236.081 200.018 236.484 200.113 237.076L201.298 236.887C201.098 235.64 199.926 234.791 198.679 234.99L198.869 236.175ZM201.329 231.594C201.424 232.186 201.021 232.743 200.428 232.838L200.618 234.023C201.864 233.823 202.714 232.651 202.514 231.404L201.329 231.594ZM200.428 232.838C199.836 232.932 199.279 232.529 199.184 231.937L197.999 232.126C198.199 233.373 199.371 234.222 200.618 234.023L200.428 232.838ZM199.184 231.937C199.089 231.344 199.493 230.787 200.085 230.693L199.896 229.508C198.649 229.707 197.8 230.879 197.999 232.126L199.184 231.937ZM200.085 230.693C200.677 230.598 201.234 231.001 201.329 231.594L202.514 231.404C202.315 230.157 201.142 229.308 199.896 229.508L200.085 230.693ZM232.708 249.33C234.924 255.119 232.027 261.609 226.237 263.825L226.666 264.946C233.075 262.493 236.282 255.309 233.829 248.901L232.708 249.33ZM226.237 263.825C220.448 266.041 213.958 263.144 211.742 257.354L210.621 257.783C213.074 264.192 220.258 267.399 226.666 264.946L226.237 263.825ZM211.742 257.354C209.526 251.565 212.423 245.075 218.213 242.859L217.784 241.738C211.375 244.191 208.168 251.375 210.621 257.783L211.742 257.354ZM218.213 242.859C224.002 240.643 230.492 243.54 232.708 249.33L233.829 248.901C231.376 242.492 224.192 239.285 217.784 241.738L218.213 242.859ZM223.012 255.709C223.192 256.181 222.956 256.71 222.484 256.89L222.913 258.011C224.004 257.594 224.55 256.371 224.132 255.28L223.012 255.709ZM222.484 256.89C222.013 257.071 221.484 256.835 221.303 256.363L220.182 256.792C220.6 257.883 221.823 258.429 222.913 258.011L222.484 256.89ZM221.303 256.363C221.123 255.891 221.359 255.362 221.83 255.182L221.402 254.061C220.311 254.479 219.765 255.701 220.182 256.792L221.303 256.363ZM221.83 255.182C222.302 255.001 222.831 255.237 223.012 255.709L224.132 255.28C223.715 254.189 222.492 253.644 221.402 254.061L221.83 255.182ZM223.069 250.664C223.25 251.136 223.014 251.665 222.542 251.846L222.971 252.967C224.061 252.549 224.607 251.326 224.19 250.236L223.069 250.664ZM222.542 251.846C222.07 252.026 221.541 251.79 221.36 251.318L220.24 251.747C220.657 252.838 221.88 253.384 222.971 252.967L222.542 251.846ZM221.36 251.318C221.18 250.847 221.416 250.318 221.888 250.137L221.459 249.016C220.368 249.434 219.822 250.657 220.24 251.747L221.36 251.318ZM221.888 250.137C222.36 249.957 222.889 250.193 223.069 250.664L224.19 250.236C223.772 249.145 222.55 248.599 221.459 249.016L221.888 250.137ZM254.09 252.8C250.006 259.882 240.953 262.313 233.87 258.228L233.271 259.268C240.927 263.683 250.714 261.056 255.13 253.399L254.09 252.8ZM233.87 258.228C226.787 254.144 224.357 245.091 228.441 238.008L227.402 237.409C222.986 245.066 225.614 254.852 233.271 259.268L233.87 258.228ZM228.441 238.008C232.526 230.926 241.579 228.495 248.661 232.58L249.261 231.54C241.604 227.125 231.817 229.752 227.402 237.409L228.441 238.008ZM248.661 232.58C255.744 236.664 258.174 245.717 254.09 252.8L255.13 253.399C259.545 245.742 256.918 235.956 249.261 231.54L248.661 232.58ZM239.676 248.235C239.297 248.892 238.457 249.117 237.8 248.738L237.201 249.778C238.432 250.488 240.005 250.065 240.715 248.834L239.676 248.235ZM237.8 248.738C237.143 248.359 236.918 247.519 237.296 246.862L236.257 246.263C235.547 247.494 235.969 249.068 237.201 249.778L237.8 248.738ZM237.296 246.862C237.675 246.205 238.515 245.98 239.172 246.359L239.772 245.319C238.54 244.609 236.967 245.032 236.257 246.263L237.296 246.862ZM239.172 246.359C239.829 246.738 240.055 247.578 239.676 248.235L240.715 248.834C241.425 247.603 241.003 246.029 239.772 245.319L239.172 246.359ZM244.824 244.149C244.445 244.806 243.605 245.032 242.948 244.653L242.349 245.692C243.58 246.402 245.153 245.98 245.863 244.749L244.824 244.149ZM242.948 244.653C242.291 244.274 242.066 243.434 242.444 242.777L241.405 242.178C240.695 243.409 241.117 244.983 242.349 245.692L242.948 244.653ZM242.444 242.777C242.823 242.12 243.663 241.895 244.32 242.274L244.92 241.234C243.688 240.524 242.115 240.947 241.405 242.178L242.444 242.777ZM244.32 242.274C244.977 242.653 245.203 243.492 244.824 244.149L245.863 244.749C246.573 243.518 246.151 241.944 244.92 241.234L244.32 242.274ZM238.58 271.225C239.066 277.885 234.061 283.679 227.401 284.165L227.489 285.362C234.81 284.827 240.311 278.459 239.777 271.137L238.58 271.225ZM227.401 284.165C220.741 284.652 214.947 279.647 214.461 272.986L213.264 273.074C213.799 280.395 220.167 285.897 227.489 285.362L227.401 284.165ZM214.461 272.986C213.974 266.326 218.979 260.533 225.639 260.046L225.552 258.849C218.231 259.384 212.729 265.753 213.264 273.074L214.461 272.986ZM225.639 260.046C232.3 259.56 238.093 264.564 238.58 271.225L239.777 271.137C239.242 263.816 232.873 258.314 225.552 258.849L225.639 260.046ZM226.64 274.779C226.681 275.344 226.256 275.835 225.691 275.876L225.779 277.073C227.005 276.984 227.926 275.917 227.837 274.691L226.64 274.779ZM225.691 275.876C225.126 275.918 224.635 275.493 224.594 274.928L223.397 275.016C223.486 276.242 224.553 277.163 225.779 277.073L225.691 275.876ZM224.594 274.928C224.552 274.363 224.977 273.872 225.542 273.83L225.454 272.633C224.228 272.723 223.307 273.79 223.397 275.016L224.594 274.928ZM225.542 273.83C226.107 273.789 226.598 274.214 226.64 274.779L227.837 274.691C227.747 273.465 226.681 272.544 225.454 272.633L225.542 273.83ZM228.261 269.612C228.302 270.177 227.877 270.669 227.312 270.71L227.4 271.907C228.626 271.817 229.547 270.751 229.457 269.525L228.261 269.612ZM227.312 270.71C226.747 270.751 226.256 270.327 226.214 269.762L225.018 269.849C225.107 271.075 226.174 271.996 227.4 271.907L227.312 270.71ZM226.214 269.762C226.173 269.197 226.598 268.705 227.163 268.664L227.075 267.467C225.849 267.557 224.928 268.623 225.018 269.849L226.214 269.762ZM227.163 268.664C227.728 268.623 228.219 269.047 228.261 269.612L229.457 269.525C229.368 268.299 228.301 267.377 227.075 267.467L227.163 268.664ZM211.91 258.064C212.77 263.439 209.109 268.494 203.734 269.353L203.924 270.538C209.953 269.574 214.06 263.904 213.095 257.875L211.91 258.064ZM203.734 269.353C198.359 270.213 193.305 266.552 192.445 261.177L191.26 261.367C192.225 267.396 197.894 271.502 203.924 270.538L203.734 269.353ZM192.445 261.177C191.586 255.802 195.246 250.748 200.621 249.888L200.432 248.703C194.402 249.668 190.296 255.337 191.26 261.367L192.445 261.177ZM200.621 249.888C205.997 249.029 211.051 252.689 211.91 258.064L213.095 257.875C212.131 251.845 206.461 247.739 200.432 248.703L200.621 249.888ZM205.738 261.87C205.952 262.218 205.843 262.674 205.495 262.887L206.123 263.91C207.035 263.35 207.321 262.155 206.761 261.242L205.738 261.87ZM205.495 262.887C205.147 263.101 204.691 262.992 204.478 262.644L203.455 263.272C204.015 264.185 205.21 264.47 206.123 263.91L205.495 262.887ZM204.478 262.644C204.264 262.296 204.373 261.841 204.721 261.627L204.093 260.604C203.18 261.165 202.895 262.359 203.455 263.272L204.478 262.644ZM204.721 261.627C205.069 261.413 205.524 261.522 205.738 261.87L206.761 261.242C206.2 260.33 205.006 260.044 204.093 260.604L204.721 261.627ZM200.843 262.305C201.056 262.654 200.947 263.109 200.599 263.323L201.227 264.345C202.14 263.785 202.426 262.59 201.865 261.678L200.843 262.305ZM200.599 263.323C200.251 263.536 199.796 263.427 199.582 263.079L198.56 263.707C199.12 264.62 200.314 264.906 201.227 264.345L200.599 263.323ZM199.582 263.079C199.369 262.731 199.478 262.276 199.826 262.062L199.198 261.04C198.285 261.6 197.999 262.794 198.56 263.707L199.582 263.079ZM199.826 262.062C200.174 261.849 200.629 261.957 200.843 262.305L201.865 261.678C201.305 260.765 200.111 260.479 199.198 261.04L199.826 262.062ZM204.967 257.476C205.18 257.824 205.072 258.28 204.724 258.493L205.351 259.516C206.264 258.956 206.55 257.761 205.989 256.849L204.967 257.476ZM204.724 258.493C204.376 258.707 203.92 258.598 203.707 258.25L202.684 258.878C203.244 259.791 204.439 260.077 205.351 259.516L204.724 258.493ZM203.707 258.25C203.493 257.902 203.602 257.447 203.95 257.233L203.322 256.211C202.409 256.771 202.123 257.965 202.684 258.878L203.707 258.25ZM203.95 257.233C204.298 257.02 204.753 257.128 204.967 257.476L205.989 256.849C205.429 255.936 204.235 255.65 203.322 256.211L203.95 257.233ZM200.071 257.912C200.285 258.26 200.176 258.715 199.828 258.929L200.456 259.951C201.369 259.391 201.655 258.196 201.094 257.284L200.071 257.912ZM199.828 258.929C199.48 259.142 199.025 259.033 198.811 258.685L197.789 259.313C198.349 260.226 199.543 260.512 200.456 259.951L199.828 258.929ZM198.811 258.685C198.598 258.337 198.706 257.882 199.054 257.668L198.427 256.646C197.514 257.206 197.228 258.4 197.789 259.313L198.811 258.685ZM199.054 257.668C199.402 257.455 199.858 257.564 200.071 257.912L201.094 257.284C200.534 256.371 199.339 256.085 198.427 256.646L199.054 257.668ZM197.874 287.944C195.731 292.254 190.501 294.011 186.191 291.868L185.656 292.943C190.56 295.381 196.511 293.382 198.948 288.479L197.874 287.944ZM186.191 291.868C181.881 289.726 180.124 284.495 182.267 280.185L181.192 279.651C178.754 284.554 180.753 290.505 185.656 292.943L186.191 291.868ZM182.267 280.185C184.409 275.875 189.64 274.118 193.95 276.261L194.484 275.187C189.581 272.749 183.63 274.748 181.192 279.651L182.267 280.185ZM193.95 276.261C198.26 278.404 200.016 283.634 197.874 287.944L198.948 288.479C201.386 283.575 199.387 277.624 194.484 275.187L193.95 276.261ZM191.422 287.534C191.399 287.861 191.116 288.107 190.789 288.085L190.706 289.282C191.694 289.35 192.55 288.605 192.619 287.617L191.422 287.534ZM190.789 288.085C190.462 288.062 190.216 287.779 190.238 287.452L189.041 287.369C188.973 288.357 189.718 289.213 190.706 289.282L190.789 288.085ZM190.238 287.452C190.261 287.125 190.544 286.878 190.871 286.901L190.954 285.704C189.966 285.635 189.11 286.381 189.041 287.369L190.238 287.452ZM190.871 286.901C191.198 286.924 191.445 287.207 191.422 287.534L192.619 287.617C192.688 286.629 191.942 285.773 190.954 285.704L190.871 286.901ZM187.647 285.316C187.625 285.643 187.341 285.889 187.014 285.867L186.931 287.064C187.919 287.132 188.776 286.387 188.844 285.399L187.647 285.316ZM187.014 285.867C186.688 285.844 186.441 285.561 186.464 285.234L185.267 285.151C185.198 286.139 185.943 286.995 186.931 287.064L187.014 285.867ZM186.464 285.234C186.486 284.907 186.77 284.66 187.097 284.683L187.18 283.486C186.192 283.417 185.335 284.163 185.267 285.151L186.464 285.234ZM187.097 284.683C187.423 284.706 187.67 284.989 187.647 285.316L188.844 285.399C188.913 284.411 188.168 283.554 187.18 283.486L187.097 284.683ZM193.137 283.949C193.114 284.276 192.831 284.522 192.504 284.5L192.421 285.697C193.409 285.765 194.265 285.02 194.334 284.032L193.137 283.949ZM192.504 284.5C192.177 284.477 191.931 284.194 191.953 283.867L190.756 283.784C190.688 284.772 191.433 285.628 192.421 285.697L192.504 284.5ZM191.953 283.867C191.976 283.54 192.259 283.293 192.586 283.316L192.669 282.119C191.681 282.05 190.825 282.796 190.756 283.784L191.953 283.867ZM192.586 283.316C192.913 283.339 193.16 283.622 193.137 283.949L194.334 284.032C194.403 283.044 193.657 282.188 192.669 282.119L192.586 283.316ZM189.362 281.731C189.34 282.058 189.056 282.304 188.729 282.282L188.646 283.479C189.634 283.547 190.491 282.802 190.559 281.814L189.362 281.731ZM188.729 282.282C188.403 282.259 188.156 281.975 188.179 281.649L186.982 281.566C186.913 282.554 187.658 283.41 188.646 283.479L188.729 282.282ZM188.179 281.649C188.201 281.322 188.485 281.075 188.812 281.098L188.895 279.901C187.907 279.832 187.05 280.578 186.982 281.566L188.179 281.649ZM188.812 281.098C189.138 281.121 189.385 281.404 189.362 281.731L190.559 281.814C190.628 280.826 189.883 279.969 188.895 279.901L188.812 281.098ZM232.129 238.041C227.255 241.274 220.682 239.944 217.449 235.07L216.449 235.734C220.048 241.16 227.366 242.641 232.792 239.041L232.129 238.041ZM217.449 235.07C214.215 230.196 215.545 223.624 220.419 220.39L219.756 219.39C214.329 222.99 212.849 230.307 216.449 235.734L217.449 235.07ZM220.419 220.39C225.293 217.157 231.865 218.487 235.099 223.361L236.099 222.697C232.499 217.271 225.182 215.79 219.756 219.39L220.419 220.39ZM235.099 223.361C238.333 228.235 237.003 234.807 232.129 238.041L232.792 239.041C238.218 235.441 239.699 228.124 236.099 222.697L235.099 223.361ZM225.696 233.704C225.439 234.086 224.921 234.187 224.539 233.93L223.868 234.925C224.8 235.553 226.063 235.306 226.691 234.375L225.696 233.704ZM224.539 233.93C224.157 233.673 224.056 233.154 224.314 232.773L223.318 232.102C222.691 233.033 222.937 234.297 223.868 234.925L224.539 233.93ZM224.314 232.773C224.571 232.391 225.089 232.29 225.471 232.547L226.141 231.552C225.21 230.925 223.946 231.171 223.318 232.102L224.314 232.773ZM225.471 232.547C225.852 232.805 225.953 233.323 225.696 233.704L226.691 234.375C227.319 233.444 227.073 232.18 226.141 231.552L225.471 232.547ZM223.102 229.129C222.844 229.511 222.326 229.612 221.944 229.354L221.274 230.349C222.205 230.977 223.469 230.731 224.097 229.8L223.102 229.129ZM221.944 229.354C221.563 229.097 221.462 228.579 221.719 228.197L220.724 227.527C220.096 228.458 220.343 229.722 221.274 230.349L221.944 229.354ZM221.719 228.197C221.976 227.816 222.494 227.715 222.876 227.972L223.547 226.977C222.615 226.349 221.352 226.595 220.724 227.527L221.719 228.197ZM222.876 227.972C223.258 228.229 223.359 228.747 223.102 229.129L224.097 229.8C224.724 228.868 224.478 227.604 223.547 226.977L222.876 227.972ZM229.634 231.005C229.377 231.387 228.859 231.488 228.477 231.23L227.806 232.225C228.738 232.853 230.002 232.607 230.629 231.676L229.634 231.005ZM228.477 231.23C228.095 230.973 227.994 230.455 228.252 230.073L227.257 229.403C226.629 230.334 226.875 231.598 227.806 232.225L228.477 231.23ZM228.252 230.073C228.509 229.692 229.027 229.591 229.409 229.848L230.079 228.853C229.148 228.225 227.884 228.471 227.257 229.403L228.252 230.073ZM229.409 229.848C229.79 230.105 229.891 230.623 229.634 231.005L230.629 231.676C231.257 230.744 231.011 229.48 230.079 228.853L229.409 229.848ZM227.04 226.43C226.782 226.811 226.264 226.912 225.883 226.655L225.212 227.65C226.143 228.278 227.407 228.031 228.035 227.1L227.04 226.43ZM225.883 226.655C225.501 226.398 225.4 225.88 225.657 225.498L224.662 224.827C224.034 225.759 224.281 227.022 225.212 227.65L225.883 226.655ZM225.657 225.498C225.914 225.116 226.432 225.015 226.814 225.272L227.485 224.277C226.554 223.65 225.29 223.896 224.662 224.827L225.657 225.498ZM226.814 225.272C227.196 225.53 227.297 226.048 227.04 226.43L228.035 227.1C228.662 226.169 228.416 224.905 227.485 224.277L226.814 225.272Z" fill="#FBAB9A" mask="url(#path-1-inside-1)"/>
</g>
<path d="M139 220C145.046 219.671 173.937 201.176 182 191.5M202 176.5C231.094 153.14 245.676 134.514 270.5 97.5M141 226C161.257 215.253 170.068 208.749 185 197M206.5 182C233.501 155.758 247.498 139.868 270.5 109.5" stroke="#FBAB9A"/>
<path d="M73 130L77 125L67 120L64 125M73 130L64 125M73 130C70.0223 138.386 67.4536 145.118 64.4652 151M64 125C62.6065 125.985 61.2742 126.941 60 127.881M35 167L46.5 173.5M35 167L33 171L44 177L46.5 173.5M35 167C39.4066 146.092 46.4015 137.915 60 127.881M35 167L50.6527 165M46.5 173.5C48.3099 171.938 49.9686 170.404 51.5 168.877M60 127.881L63.4995 146M64.4652 151L63.4995 146M64.4652 151C61.082 157.659 57.161 163.229 51.5 168.877M63.4995 146H46.5M43 146H46.5M46.5 146L50.6527 165M51.5 168.877L50.6527 165M51.5 168.877C51.5 168.877 60.5 175.5 56.5 191C52.5 206.5 65 197.5 65 197.5" stroke="#FBAB9A"/>
</g>
<g filter="url(#filter1_d)">
<rect x="21" y="21" width="250" height="287" stroke="#FBAB9A" stroke-width="2"/>
</g>
<defs>
<filter id="filter0_d" x="0.105469" y="-2" width="276.567" height="349.972" filterUnits="userSpaceOnUse" color-interpolation-filters="sRGB">
<feFlood flood-opacity="0" result="BackgroundImageFix"/>
<feColorMatrix in="SourceAlpha" type="matrix" values="0 0 0 0 0 0 0 0 0 0 0 0 0 0 0 0 0 0 127 0"/>
<feOffset/>
<feGaussianBlur stdDeviation="10"/>
<feColorMatrix type="matrix" values="0 0 0 0 0.975 0 0 0 0 0.581912 0 0 0 0 0.495625 0 0 0 0.4 0"/>
<feBlend mode="normal" in2="BackgroundImageFix" result="effect1_dropShadow"/>
<feBlend mode="normal" in="SourceGraphic" in2="effect1_dropShadow" result="shape"/>
</filter>
<filter id="filter1_d" x="0" y="0" width="292" height="329" filterUnits="userSpaceOnUse" color-interpolation-filters="sRGB">
<feFlood flood-opacity="0" result="BackgroundImageFix"/>
<feColorMatrix in="SourceAlpha" type="matrix" values="0 0 0 0 0 0 0 0 0 0 0 0 0 0 0 0 0 0 127 0"/>
<feOffset/>
<feGaussianBlur stdDeviation="10"/>
<feColorMatrix type="matrix" values="0 0 0 0 1 0 0 0 0 0.566083 0 0 0 0 0.470833 0 0 0 1 0"/>
<feBlend mode="normal" in2="BackgroundImageFix" result="effect1_dropShadow"/>
<feBlend mode="normal" in="SourceGraphic" in2="effect1_dropShadow" result="shape"/>
</filter>
<clipPath id="clip0">
<rect width="252" height="289" fill="white" transform="translate(20 20)"/>
</clipPath>
</defs>
</svg>
