<svg width="292" height="329" viewBox="0 0 292 329" fill="none" xmlns="http://www.w3.org/2000/svg">
<g filter="url(#filter0_d)">
<rect x="21" y="21" width="250" height="287" stroke="#FBAB9A" stroke-width="2"/>
</g>
<g clip-path="url(#clip0)">
<g filter="url(#filter1_d)">
<path fill-rule="evenodd" clip-rule="evenodd" d="M140.272 53.9857C139.139 53.9611 137.801 53.9602 136.967 54.0616L136.955 54.063L130.383 55.1057L124.008 55.8798L123.98 55.8887C118.746 57.546 116.598 58.5765 113.563 60.5053L113.558 60.5081L111.553 61.8295L107.215 65.1178L103.998 68.518L101.229 73.0413L99.8145 80.4327L98.0786 86.417L98.4505 91.0662L98.473 91.1163C98.7441 91.7195 99.002 92.2988 99.2496 92.855C100.068 94.6941 100.775 96.2809 101.476 97.6497C102.38 99.4151 103.287 100.842 104.439 102.01L106.324 106.274L107.575 108.906C107.305 109.493 107.13 110.06 107.271 110.941C107.41 111.812 107.856 112.98 108.772 114.802C107.766 115.352 107.121 115.981 106.658 116.785C106.166 117.641 105.892 118.68 105.581 119.97L104.426 122.959C90.0691 129.388 81.9999 133.154 68.5613 142.932L63.8537 145.491L61.0795 148.82L59.4384 151.419L57.6852 153.981L56.7345 155.018L54.2249 156.494L55.1045 158.645L52.6752 167.462L52.2173 174.055L52.6611 178.005L50.1881 181.647L50.1792 181.724C50.1106 182.319 50.0279 183.222 50.0038 183.999C49.9917 184.385 49.9938 184.751 50.0217 185.035C50.0356 185.175 50.057 185.311 50.0925 185.423C50.1103 185.479 50.1351 185.541 50.1719 185.599C50.1961 185.637 50.2315 185.682 50.2816 185.72C50.2859 185.733 50.2912 185.749 50.2971 185.771C50.3228 185.865 50.3481 186.006 50.3712 186.194C50.4169 186.567 50.4489 187.076 50.47 187.645C50.5119 188.777 50.5098 190.114 50.4949 191.003L50.1759 196.151L50.4904 198.667L49.5054 203.144L49.5041 203.15L47.7835 210.349L47.7815 210.357L46.8271 213.947L46.4145 216.377L46.1407 219.115L45.7291 224.193L47.3827 233.058L51.4913 238.872C48.866 240.483 46.78 241.859 45.0518 243.996C43.259 246.212 41.8695 249.221 40.6113 254.107L40.6108 254.109L39.3057 259.33L39.3061 259.371C39.5699 284.245 39.5398 305.505 39.3061 350.463L39.3036 350.952L39.7512 350.756C60.122 341.817 76.8738 345.181 94.9664 348.813C96.4377 349.109 97.9178 349.406 99.4094 349.699C119.249 353.589 141.053 356.622 170.93 343.416L171.163 343.313L171.113 343.063C168.661 330.839 170.537 319.997 172.742 307.256C172.822 306.793 172.903 306.328 172.983 305.859C175.285 292.525 177.77 277.074 175.944 255.944C177.566 250.237 177.151 246.397 175.765 243.731C174.375 241.059 172.041 239.63 169.982 238.677L169.918 238.647L81.9323 239.188V235.734L87.5494 231.897L92.6115 225.536L187.726 224.403L187.719 223.768L92.9933 224.896L97.2421 217.042L97.2513 217.012C97.5997 215.891 98.1223 214.155 98.5582 212.589C98.776 211.807 98.9729 211.064 99.1156 210.46C99.2545 209.873 99.3523 209.378 99.3523 209.115C99.3523 208.922 99.3963 208.493 99.4737 207.9C99.5501 207.315 99.656 206.592 99.774 205.826C100.01 204.297 100.292 202.602 100.481 201.507L100.482 201.503L101.619 195.818L102.027 188.196L103.564 180.286L103.565 180.279L104.834 174.479L104.836 174.471L106.195 167.356L106.197 167.349L107.237 162.509L107.239 162.502L108.232 158.349L110.569 151.381L111.135 151.614L113.775 150.735L115.504 148.865L117.2 147.169L119.426 143.853L120.974 142.214L122.73 139.287L123.085 140.022L123.235 141.469L124.714 142.098L120.116 145.539L117.589 147.589V149.801L118.905 152.903L123.98 158.572L131.381 166.204H133.104L136.167 162.961L146.395 164.673L147.965 168.531L149.484 169.182L152.606 167.763L152.609 167.762L158.688 164.904L158.691 164.902L163.732 162.473L165.267 160.889V158.707L163.516 154.001L167.234 153.211L171.002 151.303L174.227 147.518L175.334 142.03L175.898 138.111L177.039 138.418L178.19 138.994C178.273 139.035 178.53 139.139 178.842 139.264C179.165 139.393 179.569 139.554 179.97 139.718C180.372 139.882 180.767 140.048 181.072 140.186C181.225 140.255 181.351 140.315 181.442 140.363C181.488 140.388 181.52 140.406 181.541 140.42C181.545 140.423 181.548 140.425 181.55 140.426C181.598 140.477 181.653 140.509 181.678 140.524C181.719 140.547 181.767 140.571 181.818 140.594C181.92 140.641 182.054 140.695 182.208 140.754C182.517 140.872 182.927 141.016 183.372 141.165C184.263 141.465 185.306 141.795 185.996 142.007L186.02 142.015L191.806 142.835L192.036 142.263L191.058 141.558L191.526 138.191L192.658 134.659L193.07 132.462L192.446 132.345L192.041 134.503L190.905 138.049L190.376 141.85L190.619 142.025L186.159 141.393C185.472 141.181 184.448 140.857 183.574 140.563C183.132 140.415 182.732 140.274 182.434 140.161C182.285 140.104 182.166 140.055 182.083 140.017C182.042 139.998 182.015 139.984 181.998 139.975C181.958 139.935 181.914 139.905 181.887 139.888C181.844 139.86 181.794 139.831 181.74 139.802C181.631 139.745 181.491 139.678 181.334 139.607C181.018 139.464 180.613 139.295 180.21 139.13C179.88 138.995 179.548 138.863 179.263 138.748C179.199 138.723 179.137 138.698 179.078 138.674C178.747 138.541 178.527 138.452 178.474 138.426L177.266 137.822L175.989 137.478L176.155 136.328V132.366L174.88 127.054L177.068 127.857L185.739 129.491L192.216 131.56L194.686 133.087L199.455 135.672L201.006 139.025L190.471 151.887L190.962 152.289L201.441 139.496L205.129 141.955L210.722 146.962L216.008 153.114L218.411 154.444L218.221 156.048L215.447 159.526L211.61 162.253L211.978 162.771L215.888 159.992L218.485 156.734L221.331 161.578L221.878 161.256L218.853 156.106L219.093 154.095L216.415 152.613L211.177 146.516L205.519 141.452L201.628 138.858L199.943 135.214L195.004 132.537L192.484 130.979L185.895 128.875L177.237 127.243L174.633 126.287L174.015 125.43L174.75 124.533V121.664L174.458 120.313L173.545 118.776L171.611 117.027L169.731 116.215L169.405 113.807L169.395 113.738C169.395 113.738 170.24 112.686 170.307 111.881C170.392 110.847 169.259 109.439 169.259 109.439V108.322C169.486 108.371 169.719 108.397 169.988 108.374C170.409 108.338 170.892 108.186 171.568 107.879L171.592 107.868L171.614 107.853C173.664 106.471 174.828 105.103 175.417 103.394C175.981 101.76 176.007 99.8494 175.853 97.3955C176.366 97.2088 176.743 96.7595 177.268 96.0795L177.346 95.979L177.332 95.8527C177.29 95.4421 177.253 95.0354 177.217 94.6504C177.171 94.1475 177.128 93.6817 177.082 93.2925C177.04 92.9461 176.993 92.6399 176.933 92.4035C176.904 92.2856 176.868 92.1735 176.822 92.0782C176.78 91.99 176.71 91.8759 176.592 91.8038L176.522 91.7606L176.439 91.7575C175.434 91.7197 174.562 91.7022 173.749 91.7049C171.854 91.7112 170.284 91.8278 168.102 92.0521L166.432 87.984L164.252 79.1295L164.238 79.1004C162.433 75.3006 161.256 73.6413 158.946 72.3506L159.151 70.9991L158.598 69.294C158.595 69.1468 158.592 69.0028 158.59 68.8615C158.572 67.7629 158.557 66.8272 158.353 65.8022C158.12 64.6244 157.642 63.3403 156.655 61.5286L156.645 61.5119L156.634 61.4963C154.892 59.0513 153.215 57.7193 151.315 56.8086C149.886 56.1235 148.326 55.6773 146.547 55.1682C145.99 55.0089 145.411 54.8434 144.808 54.6625L144.805 54.6615C144.464 54.5629 143.94 54.4148 143.478 54.2913C143.247 54.2295 143.03 54.1734 142.857 54.1324C142.772 54.112 142.694 54.0948 142.631 54.0825C142.578 54.0721 142.507 54.0593 142.449 54.0593L142.444 54.0592L142.431 54.0589L142.387 54.0574C142.351 54.056 142.302 54.054 142.242 54.0515L142.182 54.049C142.07 54.0443 141.927 54.0384 141.762 54.0319C141.368 54.0165 140.843 53.998 140.272 53.9857ZM158.573 72.87C160.743 74.0643 161.854 75.5651 163.651 79.3439L165.826 88.1815L167.695 92.7328L167.931 92.7082C168.931 92.6041 169.797 92.5221 170.615 92.4622C169.65 92.8186 168.758 93.2577 167.933 93.7162C167.175 94.1367 166.469 94.5759 165.816 94.9825C165.76 95.0174 165.704 95.052 165.649 95.0864C165.05 95.4585 164.5 95.7966 163.987 96.0699C163.622 95.3803 163.429 94.6283 163.177 92.9795L162.549 93.0755C162.802 94.732 163.006 95.5673 163.417 96.3515C162.642 96.7009 162.006 96.8282 161.454 96.6691L161.44 96.6652L157.896 95.9748L153.7 96.1593L145.149 98.2061L145.142 98.2078L143.898 98.4743L121.997 100.469L119.747 100.74C118.242 100.746 117.067 101.541 116.643 101.962L114.443 103.989L112.024 103.676L108.952 105.692L107.853 107.842L107.826 107.955L106.901 106.009L106.897 106.002L105.023 101.761V100.169L105.019 100.143C104.951 99.7353 104.849 99.1126 104.764 98.5696C104.722 98.298 104.684 98.0474 104.656 97.8541C104.643 97.7572 104.632 97.6762 104.624 97.6147C104.621 97.5839 104.618 97.5594 104.616 97.541C104.615 97.5202 104.615 97.5149 104.615 97.5186C104.615 97.4629 104.609 97.3421 104.602 97.1907C104.595 97.0285 104.586 96.8313 104.58 96.6418C104.569 96.2416 104.572 95.8602 104.608 95.6755C104.622 95.6096 104.64 95.5197 104.662 95.4136C104.713 95.1623 104.783 94.8197 104.847 94.4882C104.893 94.2517 104.936 94.0171 104.968 93.8205C104.998 93.6335 105.023 93.4546 105.023 93.345C105.023 93.3494 105.024 93.3219 105.044 93.246C105.062 93.1784 105.089 93.0921 105.124 92.9909C105.194 92.789 105.291 92.5415 105.399 92.2918C105.508 92.0421 105.624 91.7951 105.732 91.5935C105.846 91.3792 105.932 91.2523 105.973 91.2106C106.118 91.0663 106.57 90.6792 107.045 90.3058C107.281 90.1208 107.516 89.9436 107.716 89.8055C107.929 89.6581 108.065 89.5808 108.117 89.5635C108.304 89.5012 108.761 89.2896 109.229 89.0655C109.703 88.8388 110.218 88.5848 110.552 88.4178L112.864 87.484L115.843 87.0394H120.673C120.673 87.0394 120.676 87.0394 120.682 87.0398C120.686 87.04 120.691 87.0403 120.697 87.0407C120.701 87.041 120.705 87.0414 120.71 87.0418C120.734 87.0438 120.765 87.0469 120.804 87.0511C120.881 87.0595 120.981 87.0717 121.1 87.0865C121.169 87.0951 121.244 87.1045 121.324 87.1146C121.519 87.1393 121.744 87.1676 121.98 87.1959C122.641 87.275 123.419 87.3569 123.94 87.3569C124.868 87.3569 125.769 87.742 125.93 87.8224C125.983 87.849 126.173 87.9242 126.414 88.018C126.666 88.1162 126.999 88.2446 127.363 88.3838C128.09 88.6623 128.938 88.9845 129.498 89.1963L129.847 88.6869C129.798 88.6324 129.751 88.535 129.719 88.3826C129.687 88.2338 129.676 88.06 129.675 87.8799C129.675 87.7008 129.685 87.5272 129.694 87.377C129.698 87.304 129.703 87.2327 129.705 87.173C129.706 87.1204 129.707 87.049 129.697 86.9872C129.681 86.8912 129.63 86.6814 129.572 86.4389C129.539 86.3049 129.505 86.1608 129.472 86.0204C129.424 85.8149 129.378 85.6089 129.345 85.4306C129.31 85.2452 129.293 85.1126 129.293 85.0433C129.293 84.8553 129.252 84.4892 129.205 84.1314C129.159 83.7764 129.104 83.4036 129.066 83.1588V81.8089L128.885 79.6768V75.2454C128.885 75.1316 128.831 75.0337 128.808 74.9921C128.775 74.9343 128.732 74.8741 128.688 74.8164C128.598 74.6999 128.481 74.5675 128.36 74.4414C128.239 74.3144 128.111 74.1885 127.996 74.0845C127.888 73.9867 127.774 73.8902 127.687 73.8382C127.69 73.8401 127.69 73.8396 127.686 73.8347C127.676 73.824 127.647 73.7925 127.598 73.7209C127.558 73.6624 127.518 73.6 127.473 73.5293C127.445 73.4854 127.415 73.4384 127.382 73.3871C127.3 73.2624 127.206 73.1239 127.1 73.0024C126.997 72.8839 126.864 72.7589 126.7 72.6862C126.231 72.4776 125.633 72.432 125.301 72.432H114.981L114.958 72.4352C114.746 72.4655 114.418 72.5133 114.125 72.5581C113.86 72.5985 113.6 72.6399 113.494 72.6637C113.491 72.6637 113.487 72.6636 113.483 72.6634C113.46 72.6625 113.427 72.6596 113.383 72.654C113.324 72.6464 113.253 72.6349 113.174 72.6207L113.316 72.5428C113.538 72.47 113.893 72.3644 114.267 72.276C114.662 72.1824 115.051 72.1144 115.321 72.1144C116.132 72.1144 117.343 71.8799 117.994 71.6939C118.256 71.6191 118.606 71.6151 118.964 71.6375C119.123 71.6474 119.275 71.6618 119.415 71.6751L119.459 71.6792C119.604 71.6929 119.748 71.7061 119.857 71.7061C119.958 71.7061 120.115 71.6991 120.295 71.6909C120.445 71.6842 120.61 71.6768 120.774 71.672C121.156 71.6607 121.567 71.6615 121.905 71.7037C122.101 71.7282 122.384 71.7508 122.688 71.7749C122.941 71.7951 123.208 71.8163 123.449 71.8406C123.726 71.8687 123.982 71.9015 124.184 71.9423C124.285 71.9627 124.366 71.9838 124.427 72.0048C124.485 72.0252 124.505 72.0388 124.505 72.0388L124.504 72.038C124.611 72.1297 124.755 72.1668 124.857 72.1867C124.973 72.2094 125.109 72.2222 125.25 72.2289C125.534 72.2424 125.875 72.2332 126.202 72.216C126.531 72.1988 126.852 72.1729 127.099 72.1515C127.222 72.1409 127.328 72.1311 127.405 72.1243C127.447 72.1206 127.477 72.1181 127.496 72.1166C127.516 72.115 127.524 72.1144 127.524 72.1144C127.576 72.1144 127.629 72.101 127.648 72.0962L127.65 72.0956C127.681 72.0878 127.718 72.0774 127.757 72.0655C127.836 72.0416 127.938 72.0082 128.055 71.9688C128.29 71.89 128.591 71.7843 128.895 71.6765C129.175 71.5769 129.456 71.4761 129.69 71.3918C129.969 71.2917 130.183 71.2148 130.255 71.1908C130.389 71.1464 130.753 70.9752 131.123 70.7968C131.477 70.6263 131.865 70.4345 132.137 70.2987C132.612 70.2914 133.294 70.2831 133.884 70.2805C134.195 70.2792 134.479 70.2795 134.693 70.2824C134.801 70.2838 134.889 70.2858 134.953 70.2885C134.986 70.2899 135.01 70.2913 135.026 70.2926C135.03 70.2929 135.033 70.2932 135.035 70.2934C135.242 70.3448 136.807 70.7289 137.595 70.9221L140.938 72.0968C141.29 72.2191 141.847 72.4024 142.376 72.5556C142.641 72.6321 142.903 72.702 143.13 72.7531C143.349 72.8024 143.562 72.8403 143.719 72.8403C143.828 72.8403 144.048 72.8749 144.353 72.9402C144.647 73.0033 144.99 73.0885 145.329 73.1761C145.556 73.2346 145.778 73.2934 145.98 73.3472C146.081 73.374 146.177 73.3995 146.266 73.4231C146.522 73.4904 146.747 73.5482 146.85 73.5629C146.927 73.574 147.175 73.6038 147.507 73.6435C147.864 73.6863 148.318 73.7408 148.76 73.7961C149.191 73.8499 149.614 73.9049 149.936 73.9519C150.098 73.9755 150.232 73.9966 150.328 74.0142C150.376 74.0231 150.411 74.0304 150.433 74.0359L150.437 74.037C150.458 74.0467 150.474 74.0524 150.483 74.0553C150.492 74.0586 150.502 74.0614 150.511 74.064C150.52 74.0666 150.529 74.0689 150.538 74.0709C150.57 74.0787 150.607 74.0857 150.646 74.0921C150.723 74.1051 150.825 74.1186 150.941 74.1325C151.175 74.1603 151.486 74.1909 151.823 74.2214C152.498 74.2825 153.289 74.3439 153.812 74.3818L153.868 74.3858L156.201 73.7325L158.573 72.87ZM104.388 101.018C103.526 100.019 102.79 98.8227 102.041 97.3602C101.349 96.0083 100.652 94.4436 99.8353 92.609C99.5934 92.0655 99.3409 91.4984 99.0748 90.9061L98.7209 86.4822L100.433 80.5811L101.831 73.2743L104.505 68.9062L107.64 65.5924L111.92 62.3482L113.903 61.0413L113.905 61.0399C116.878 59.151 118.972 58.142 124.144 56.5031L130.477 55.7341L137.049 54.6914C137.833 54.5969 139.123 54.5961 140.259 54.6206C140.824 54.6329 141.345 54.6512 141.737 54.6665C141.887 54.6724 142.021 54.678 142.131 54.6826C142.302 54.6897 142.416 54.6944 142.449 54.6944C142.446 54.6944 142.444 54.6945 142.444 54.6945C142.444 54.6945 142.462 54.6966 142.51 54.7058C142.561 54.7158 142.628 54.7308 142.711 54.7503C142.874 54.7892 143.085 54.8436 143.314 54.9048C143.77 55.0267 144.288 55.1733 144.627 55.2712C145.253 55.4591 145.846 55.6287 146.41 55.7902C148.175 56.2952 149.664 56.7214 151.041 57.3813C152.831 58.2395 154.425 59.4937 156.106 61.8493C157.067 63.6166 157.514 64.8344 157.73 65.9258C157.922 66.891 157.936 67.7665 157.955 68.8702C157.958 69.0264 157.96 69.1872 157.963 69.3534L157.964 69.4004L158.5 71.0523L158.313 72.2887L156.006 73.1274L153.803 73.7444C153.283 73.7064 152.527 73.6474 151.88 73.5889C151.545 73.5586 151.241 73.5285 151.016 73.5018C150.903 73.4884 150.813 73.4762 150.75 73.4657C150.725 73.4615 150.707 73.458 150.695 73.4554C150.673 73.4454 150.655 73.4395 150.647 73.4368C150.626 73.4298 150.604 73.424 150.585 73.4191C150.545 73.4093 150.496 73.3994 150.442 73.3896C150.335 73.3698 150.192 73.3474 150.028 73.3234C149.698 73.2755 149.271 73.2198 148.839 73.1659C148.38 73.1085 147.919 73.0533 147.564 73.0107C147.246 72.9726 147.013 72.9447 146.939 72.9342C146.883 72.9261 146.705 72.8819 146.428 72.8089C146.341 72.786 146.246 72.7608 146.146 72.7342C145.943 72.6802 145.717 72.6202 145.488 72.5611C145.147 72.4729 144.793 72.3851 144.486 72.3192C144.189 72.2556 143.905 72.2051 143.719 72.2051C143.64 72.2051 143.487 72.1825 143.269 72.1335C143.059 72.0863 142.811 72.0201 142.553 71.9454C142.036 71.7962 141.491 71.6166 141.147 71.497L137.776 70.3127L137.761 70.309C136.959 70.1122 135.321 69.7103 135.177 69.6742C135.139 69.6649 135.099 69.6614 135.078 69.6596C135.05 69.6573 135.016 69.6555 134.98 69.654C134.906 69.6509 134.811 69.6488 134.702 69.6473C134.482 69.6444 134.193 69.6441 133.881 69.6454C133.257 69.6481 132.532 69.6572 132.055 69.6648L131.983 69.6659L131.918 69.6982C131.647 69.8339 131.226 70.0419 130.847 70.2247C130.455 70.4138 130.139 70.5602 130.055 70.5883C129.977 70.6142 129.748 70.6965 129.456 70.8011C129.223 70.885 128.949 70.9832 128.682 71.078C128.379 71.1856 128.082 71.2898 127.853 71.3669C127.738 71.4055 127.642 71.4366 127.573 71.4577C127.553 71.4638 127.536 71.4687 127.522 71.4726C127.511 71.4756 127.502 71.4779 127.495 71.4797L127.493 71.4803C127.455 71.4823 127.402 71.487 127.352 71.4915L127.349 71.4917C127.322 71.4941 127.292 71.4968 127.259 71.4997C127.196 71.5053 127.125 71.5118 127.044 71.5188C126.8 71.5399 126.487 71.5651 126.169 71.5818C125.849 71.5986 125.533 71.6065 125.281 71.5945C125.154 71.5885 125.052 71.5778 124.979 71.5634C124.931 71.5541 124.909 71.5459 124.903 71.5437C124.821 71.4779 124.722 71.4351 124.635 71.405C124.538 71.371 124.426 71.3433 124.31 71.3197C124.077 71.2726 123.796 71.2374 123.513 71.2087C123.234 71.1806 122.96 71.1591 122.711 71.1396C122.429 71.1175 122.177 71.0978 121.983 71.0735C121.595 71.0249 121.144 71.0257 120.755 71.0371C120.56 71.0429 120.388 71.0508 120.241 71.0576C120.08 71.065 119.951 71.071 119.857 71.071C119.785 71.071 119.673 71.0615 119.518 71.0469L119.475 71.0428C119.335 71.0296 119.173 71.0142 119.004 71.0036C118.636 70.9806 118.193 70.9766 117.819 71.0832C117.2 71.2602 116.052 71.4793 115.321 71.4793C114.973 71.4793 114.523 71.5626 114.12 71.658C113.711 71.7549 113.323 71.871 113.088 71.9492L113.061 71.9584L111.419 72.8613L112.204 73.0576C112.389 73.1038 112.676 73.1709 112.937 73.2222C113.067 73.2477 113.195 73.2702 113.303 73.284C113.356 73.2908 113.409 73.2961 113.457 73.298C113.498 73.2996 113.564 73.3006 113.628 73.2844C113.683 73.2709 113.92 73.232 114.221 73.1859C114.501 73.143 114.815 73.0973 115.026 73.0671H125.301C125.604 73.0671 126.095 73.1122 126.442 73.2665C126.483 73.2845 126.543 73.3297 126.621 73.4195C126.697 73.5064 126.772 73.6146 126.849 73.7337C126.874 73.7717 126.9 73.8127 126.927 73.8544C126.977 73.9335 127.029 74.0148 127.075 74.0818C127.139 74.174 127.236 74.3084 127.36 74.3828C127.387 74.3987 127.46 74.4554 127.569 74.5546C127.671 74.6476 127.789 74.7628 127.901 74.8796C128.013 74.9973 128.114 75.1117 128.184 75.2035C128.215 75.2433 128.236 75.2742 128.25 75.2962V79.7038L128.431 81.8359V83.208L128.435 83.2324C128.472 83.4723 128.529 83.8529 128.575 84.2132C128.624 84.5828 128.658 84.9047 128.658 85.0433C128.658 85.1781 128.686 85.3631 128.721 85.5478C128.757 85.7395 128.805 85.9559 128.853 86.1644C128.893 86.3355 128.932 86.4969 128.966 86.6371C129.018 86.8519 129.058 87.0171 129.07 87.0916C129.07 87.0889 129.07 87.0889 129.07 87.0927C129.07 87.0993 129.071 87.1176 129.07 87.1533C129.068 87.202 129.065 87.2631 129.06 87.3391L129.06 87.345C129.051 87.4923 129.04 87.6825 129.04 87.8818C129.041 88.0325 129.048 88.195 129.07 88.3548C128.602 88.1772 128.069 87.9744 127.59 87.7907C127.227 87.6517 126.894 87.5238 126.644 87.4262C126.519 87.3774 126.415 87.3365 126.338 87.3056C126.3 87.2902 126.269 87.2776 126.246 87.268C126.22 87.2572 126.212 87.2534 126.214 87.2543C126.012 87.1533 125.008 86.7218 123.94 86.7218C123.463 86.7218 122.721 86.645 122.055 86.5653C121.821 86.5373 121.6 86.5093 121.405 86.4848C121.325 86.4746 121.249 86.4651 121.179 86.4563C120.954 86.4283 120.756 86.4043 120.674 86.4043H115.796L112.696 86.8669L110.291 87.8384L110.279 87.8441C109.948 88.0099 109.43 88.2653 108.955 88.4927C108.469 88.7253 108.056 88.9144 107.917 88.961C107.765 89.0117 107.555 89.1442 107.354 89.2832C107.14 89.4314 106.894 89.6172 106.653 89.8064C106.175 90.1815 105.697 90.5884 105.524 90.7615C105.407 90.8787 105.283 91.0863 105.172 91.2945C105.054 91.5153 104.93 91.7786 104.817 92.0393C104.704 92.3 104.6 92.5628 104.524 92.7834C104.486 92.8934 104.453 92.9963 104.43 93.0851C104.409 93.1654 104.388 93.2613 104.388 93.345C104.388 93.3943 104.373 93.5215 104.341 93.7187C104.31 93.9063 104.269 94.1338 104.223 94.368C104.16 94.6954 104.092 95.0284 104.041 95.2786C104.019 95.3875 104 95.4808 103.986 95.551C103.932 95.8199 103.935 96.2778 103.946 96.6602C103.952 96.8869 103.962 97.0882 103.969 97.2426C103.975 97.3716 103.98 97.4678 103.98 97.5186C103.98 97.5922 104.001 97.7597 104.027 97.9429C104.055 98.1408 104.094 98.395 104.136 98.6677C104.22 99.202 104.32 99.8122 104.388 100.221V101.018ZM115.248 104.111L117.083 102.42L117.088 102.416C117.422 102.081 118.456 101.375 119.766 101.375H119.785L122.063 101.101L122.072 101.1L143.994 99.1033L145.283 98.8271L145.29 98.8254L153.789 96.7911L157.849 96.6126L161.292 97.2833C162.152 97.5253 163.064 97.2442 164.002 96.7764C164.622 96.4675 165.284 96.0609 165.984 95.6258C166.039 95.5917 166.094 95.5573 166.15 95.5228C166.805 95.1151 167.498 94.6839 168.241 94.2715C169.847 93.38 171.667 92.5867 173.769 92.3399C174.526 92.3377 175.337 92.3532 176.264 92.3866C176.281 92.4279 176.299 92.4845 176.318 92.5594C176.367 92.7545 176.41 93.0273 176.451 93.3682C176.497 93.7539 176.538 94.2007 176.583 94.6918C176.615 95.0382 176.649 95.4067 176.688 95.7913C176.096 96.5502 175.833 96.7819 175.468 96.8424L175.183 96.8894L175.203 97.1768C175.375 99.7565 175.354 101.629 174.817 103.187C174.288 104.72 173.243 105.985 171.281 107.311C170.642 107.601 170.244 107.715 169.934 107.741C169.634 107.767 169.394 107.712 169.052 107.609L166.22 106.365L164.793 100.286H163.458L161.089 100.89L160.163 101.237L160.143 101.432C160.133 101.529 160.123 101.624 160.113 101.718C159.888 103.885 159.715 105.549 159.147 106.966C158.567 108.414 157.566 109.62 155.6 110.797C153.902 111.47 152.697 111.691 151.621 111.386C150.544 111.08 149.526 110.226 148.258 108.561C147.815 107.569 147.554 106.79 147.403 105.999C147.25 105.198 147.208 104.372 147.212 103.281L147.213 103.05L144.86 102.282L120.594 102.055L118.09 102.632L116.73 104.344L115.248 104.111ZM117.296 104.652L118.449 103.201L120.663 102.69L144.756 102.916L146.577 103.51C146.579 104.508 146.627 105.319 146.779 106.118C146.944 106.98 147.228 107.816 147.694 108.854L147.708 108.887L147.73 108.916C149.029 110.628 150.159 111.631 151.448 111.997C152.74 112.364 154.119 112.07 155.858 111.378L155.881 111.368L155.903 111.355C157.98 110.117 159.093 108.808 159.736 107.202C160.338 105.7 160.52 103.953 160.74 101.832C160.744 101.786 160.749 101.74 160.754 101.694L161.28 101.497L163.538 100.921H164.29L165.649 106.711L166.761 108.596L168.637 109.643C168.637 109.643 169.704 110.926 169.731 111.636C169.765 112.529 168.76 113.744 168.76 113.744L167.689 114.968L166.307 115.859L164.857 117.002C164.758 117.023 164.631 117.048 164.513 117.07C164.438 117.084 164.369 117.096 164.313 117.105C164.253 117.114 164.226 117.116 164.224 117.116L163.653 117.116C163.739 117.093 163.829 117.068 163.914 117.044C164.011 117.017 164.103 116.99 164.177 116.968C164.236 116.95 164.318 116.925 164.366 116.901C164.414 116.877 164.465 116.839 164.499 116.814C164.541 116.783 164.587 116.745 164.633 116.708C164.726 116.632 164.824 116.548 164.886 116.493L164.97 116.42L165.114 115.63L164.372 115.012L162.858 114.621H161.2L159.844 115.299L158.448 116.244L157.494 116.297C157.089 116.195 156.815 116.059 156.631 115.893C156.447 115.727 156.331 115.513 156.278 115.216C156.223 114.909 156.235 114.518 156.314 114.013C156.393 113.511 156.535 112.916 156.727 112.209L156.115 112.043C155.921 112.756 155.771 113.378 155.687 113.915C155.603 114.45 155.58 114.921 155.653 115.328C155.727 115.743 155.902 116.091 156.206 116.365C156.504 116.633 156.903 116.809 157.39 116.926L157.436 116.937L158.556 116.874L158.638 116.876L158.64 116.88L158.645 116.877L160.277 116.935L161.387 116.935L162.542 117.112L162.549 117.113L163.031 117.178L162.004 117.306L160.315 118.078L158.96 119.527L157.565 120.921L156.852 120.659L154.837 120.511L153.43 121.466L152.333 122.961L152.339 123.073C152.358 123.489 152.184 123.928 151.966 124.344C151.893 124.484 151.82 124.61 151.751 124.731C151.717 124.791 151.683 124.85 151.65 124.909C151.576 125.041 151.493 125.196 151.452 125.338L151.407 125.41C151.384 125.427 151.353 125.448 151.313 125.469C151.19 125.536 151.015 125.598 150.825 125.636C150.635 125.675 150.449 125.686 150.305 125.668C150.149 125.648 150.107 125.604 150.104 125.6C150.065 125.543 150.015 125.501 149.979 125.474C149.94 125.443 149.895 125.415 149.85 125.388C149.76 125.335 149.649 125.28 149.529 125.225C149.288 125.114 148.989 124.993 148.698 124.881C148.405 124.769 148.117 124.663 147.897 124.584C147.842 124.564 147.793 124.546 147.748 124.53C147.702 124.513 147.661 124.499 147.626 124.486C147.591 124.473 147.567 124.464 147.553 124.459C147.537 124.453 147.532 124.451 147.533 124.452L147.529 124.45L147.509 124.44L147.441 124.403C147.383 124.372 147.303 124.329 147.207 124.277C147.089 124.213 146.946 124.136 146.788 124.05C146.687 123.996 146.58 123.938 146.468 123.877C145.9 123.57 145.23 123.207 144.784 122.965L141.201 120.787L136.628 118.162L136.619 118.156L132.927 115.86L129.462 112.98L127.665 111.183L125.486 108.686L125.476 108.677C124.385 107.622 123.991 106.835 123.448 105.749C123.337 105.526 123.219 105.291 123.088 105.039L123.01 104.89L120.736 104.614L122.745 108.316C123.049 109.059 123.198 109.557 123.243 109.961C123.281 110.306 123.244 110.595 123.143 110.925L122.124 111.277L119.862 111.865L117.605 112.498L117.594 112.501L115.934 112.904L115.926 112.906L114.41 113.236L115.08 111.393L116.863 110.402V111.173H117.498V108.778L114.716 105.852L112.509 105.3L111.147 106.057L109.915 107.1L108.912 108.484L108.516 109.623V110.754L108.949 111.565L109.538 112.018L109.861 112.624L110.269 113.622L110.518 114.09L109.35 114.539C108.431 112.712 108.021 111.612 107.898 110.841C107.774 110.07 107.935 109.621 108.213 109.042L108.227 109.012L108.453 108.063L109.441 106.13L112.176 104.336L114.5 104.637L114.509 104.638L116.72 104.985L119.235 107.28L119.663 106.811L117.296 104.652ZM109.325 115.229L111.055 114.564L113.977 113.98L113.982 113.979L116.069 113.525L116.076 113.523L117.765 113.112L120.028 112.479L120.033 112.477L122.308 111.886L123.451 111.49C124.753 111.477 125.626 111.739 126.356 112.381C127.047 112.99 127.639 113.965 128.305 115.471L115.347 115.165L113.071 115.497L111.604 116.49L111.96 117.016L113.306 116.104L115.385 115.801L128.817 116.119L128.847 116.114C130.475 115.84 131.046 115.868 131.551 116.191C132.595 117.105 133.248 117.837 133.598 118.667C133.921 119.431 134.001 120.314 133.834 121.561L122.265 119.751L122.167 120.379L133.935 122.22C134.759 123.203 135.242 123.949 135.427 124.692C135.598 125.378 135.523 126.101 135.146 127.063L123.633 123.166L123.43 123.768L135.057 127.703C135.326 128.898 135.351 129.917 134.983 131.13C134.594 132.413 133.762 133.931 132.267 136.104L129.707 138.754L127.265 140.974L125.354 141.68L123.828 141.031L123.706 139.846L122.791 137.951L120.465 141.828L118.928 143.456L116.707 146.763L115.046 148.424L113.419 150.184L111.159 150.937L110.183 150.535L107.621 158.174L106.618 162.369L105.573 167.23L104.214 174.344L104.212 174.352L102.943 180.15L102.942 180.158L101.395 188.118L100.987 195.738L99.8559 201.395C99.6668 202.492 99.3829 204.193 99.1463 205.729C99.028 206.497 98.9212 207.226 98.844 207.817C98.7679 208.401 98.7173 208.873 98.7173 209.115C98.7173 209.289 98.6412 209.707 98.4975 210.314C98.3576 210.906 98.1632 211.64 97.9463 212.419C97.5165 213.963 97.0011 215.677 96.654 216.794L92.191 225.044L87.1121 231.426L79.211 236.823L71.4664 210.342L70.8569 210.52L78.847 237.841L81.2972 236.167V239.184L52.1129 238.651L47.9815 232.805L46.3756 224.196L49.0687 215.578C49.8833 213.724 51.1608 211.017 52.2588 208.733C52.809 207.589 53.3136 206.552 53.6912 205.785C53.88 205.401 54.0369 205.085 54.1518 204.856C54.2093 204.742 54.2558 204.65 54.2905 204.583C54.3079 204.549 54.3219 204.523 54.3325 204.503C54.3424 204.485 54.3471 204.476 54.3482 204.475C54.6253 204.028 55.3104 203.317 56.2265 202.499C57.1322 201.691 58.2345 200.804 59.3159 200.006C60.399 199.207 61.4523 198.504 62.2608 198.062C62.6681 197.839 62.9962 197.692 63.2273 197.626C63.345 197.593 63.4125 197.588 63.4417 197.591C63.4641 197.593 63.4073 197.592 63.3718 197.527L63.9291 197.222C63.8291 197.039 63.6506 196.973 63.5009 196.959C63.358 196.946 63.203 196.973 63.0546 197.015C62.7534 197.1 62.375 197.275 61.9559 197.505C61.1115 197.967 60.0322 198.688 58.9389 199.495C57.844 200.303 56.7261 201.202 55.8036 202.026C54.8914 202.84 54.1401 203.605 53.8086 204.139C53.7775 204.19 53.6954 204.35 53.5843 204.571C53.4683 204.802 53.3105 205.12 53.1213 205.504C52.7428 206.274 52.2374 207.312 51.6864 208.458C50.585 210.749 49.299 213.474 48.4801 215.339L48.473 215.355L46.5957 221.362L46.7733 219.173L46.7738 219.167L47.0443 216.462L47.4484 214.082L48.3973 210.513L48.3993 210.505L50.1231 203.292L50.1244 203.286L51.1341 198.696L50.8424 196.362L53.2477 192.653L56.4987 188.589L56.504 188.582L58.9476 185.686L58.9484 185.685L61.4947 182.692L63.801 181.45L63.4999 180.891L61.0883 182.19L58.4638 185.275L58.463 185.276L57.8422 186.012L58.047 184.27L56.5811 183.391L55.8824 183.772L55.1673 184.487V186.772L56.6557 187.144L57.4903 186.428L56.0079 188.185L52.7319 192.281L50.8745 195.145L51.1292 191.035L51.1296 191.028L51.1298 191.02C51.145 190.125 51.1473 188.771 51.1046 187.621C51.0834 187.047 51.0507 186.517 51.0016 186.117C50.9772 185.918 50.9475 185.741 50.9096 185.603C50.8909 185.535 50.8669 185.464 50.8342 185.401C50.8136 185.361 50.7725 185.29 50.6991 185.235L50.6982 185.232C50.6821 185.181 50.6659 185.096 50.6537 184.973C50.6298 184.73 50.6268 184.396 50.6385 184.018C50.661 183.298 50.7359 182.458 50.8014 181.874L53.2369 178.287L56.2865 175.148L58.8264 173.187L63.5437 170.99L63.2755 170.414L58.4942 172.642L55.8626 174.673L53.2303 177.383L52.8549 174.042L53.2847 167.854L55.7362 168.014L55.7376 168.015L60.1833 168.287L60.2221 167.653L55.7778 167.381L55.7764 167.381L53.3994 167.225L55.7743 158.605L55.2227 157.256L56.9408 158.052L59.5053 159.221L63.2369 161.64L63.5823 161.107L59.8114 158.663L57.206 157.475L55.3062 156.595L57.1384 155.517L58.1838 154.377L59.9724 151.763L61.5941 149.195L64.2638 145.991L68.9013 143.47L68.9181 143.457C82.1305 133.843 90.1161 130.068 104.1 123.8L101.427 130.716L93.7696 142.542L86.4711 156.717L87.0357 157.007L94.3198 142.861L101.996 131.007L106.189 120.16L106.194 120.139C106.51 118.826 106.767 117.87 107.209 117.102C107.639 116.354 108.255 115.767 109.325 115.229ZM52.2639 239.289L81.2972 239.819V240.731L52.2639 240.487V239.289ZM81.9323 239.823L169.78 239.283C170.979 239.843 172.234 240.554 173.322 241.568C173.919 242.123 174.466 242.77 174.925 243.532C175.021 243.691 175.113 243.855 175.201 244.024C175.713 245.007 176.09 246.178 176.26 247.584C176.3 247.921 176.329 248.272 176.345 248.637C176.359 248.982 176.363 249.34 176.353 249.711C176.334 250.479 176.261 251.304 176.126 252.191C176.055 252.663 175.966 253.153 175.859 253.66C175.713 254.348 175.534 255.069 175.317 255.826L175.301 255.882L175.306 255.941C177.135 277.017 174.658 292.419 172.358 305.751C172.275 306.233 172.192 306.711 172.109 307.187C169.925 319.811 168.04 330.697 170.441 342.938C140.857 355.949 119.267 352.945 99.5316 349.075C98.0362 348.782 96.5511 348.484 95.0735 348.187C77.1266 344.582 60.3029 341.202 39.9437 349.979C40.175 305.379 40.2041 284.177 39.9416 259.405L41.2264 254.266L41.2267 254.264C41.2499 254.174 41.2732 254.085 41.2965 253.996C41.4607 253.37 41.6269 252.777 41.7956 252.214C42.889 248.568 44.0899 246.195 45.5456 244.395C46.6236 243.062 47.8485 242.035 49.2974 241.035C50.0163 240.538 50.7903 240.049 51.6288 239.533V241.035V241.117L81.9323 241.372V241.054V239.823ZM125.884 142.161L127.601 141.527L129.832 139.499L130.385 140.606L133.335 144.248L137.34 147.24L146.097 151.345L151.905 153.22L154.518 153.561L144.828 156.985L139.951 156.062L136.258 153.214L131.881 149.153L125.884 142.161ZM155.911 153.742L161.379 154.455L162.888 154.135L164.632 158.821V160.632L163.355 161.95L158.418 164.329L158.415 164.33L152.343 167.185L152.339 167.187L149.476 168.488L148.455 168.05L146.85 164.105L135.938 162.279L132.831 165.569H131.65L124.444 158.139L119.448 152.558L118.224 149.672V147.892L120.506 146.04L125.299 142.453L131.423 149.594L135.847 153.699L139.684 156.658L144.878 157.64L155.911 153.742ZM130.313 139.041L132.761 136.507L132.775 136.485C134.287 134.29 135.171 132.7 135.591 131.314C136.005 129.947 135.962 128.796 135.659 127.487C136.129 126.362 136.27 125.446 136.044 124.538C135.823 123.653 135.264 122.819 134.437 121.831C134.646 120.428 134.584 119.368 134.184 118.42C133.909 117.769 133.482 117.189 132.908 116.596L136.302 118.707L140.878 121.334L140.884 121.338L144.468 123.516L144.475 123.519C145.361 124 147.173 124.982 147.251 125.021C147.283 125.037 147.348 125.061 147.402 125.08L147.409 125.083C147.451 125.098 147.504 125.117 147.564 125.139C147.6 125.152 147.639 125.166 147.681 125.181C147.9 125.26 148.184 125.364 148.47 125.474C148.757 125.584 149.041 125.699 149.263 125.801C149.374 125.853 149.464 125.898 149.528 125.936C149.548 125.948 149.564 125.958 149.576 125.966C149.583 125.971 149.589 125.975 149.594 125.979L149.595 125.979C149.754 126.193 150.013 126.271 150.226 126.298C150.429 126.324 150.652 126.311 150.863 126.275L150.474 126.894L150.468 126.906C150.337 127.161 150.095 127.516 149.864 127.856L149.816 127.925C149.698 128.099 149.584 128.268 149.502 128.403C149.462 128.469 149.424 128.536 149.397 128.596C149.383 128.626 149.368 128.663 149.358 128.703C149.351 128.727 149.338 128.782 149.345 128.85C149.344 128.855 149.342 128.863 149.339 128.872C149.326 128.915 149.302 128.979 149.264 129.059C149.189 129.22 149.074 129.424 148.93 129.634C148.786 129.843 148.62 130.05 148.447 130.22C148.271 130.393 148.104 130.51 147.961 130.565L147.949 130.569L147.938 130.575C147.485 130.79 146.778 131.087 146.149 131.348C145.996 131.411 145.845 131.473 145.704 131.532C145.282 131.705 144.943 131.845 144.847 131.893C144.847 131.893 144.84 131.896 144.821 131.902C144.802 131.908 144.776 131.914 144.742 131.921C144.675 131.935 144.588 131.948 144.483 131.959C144.275 131.982 144.014 131.996 143.736 131.999C143.171 132.005 142.588 131.964 142.263 131.872L142.244 131.866L142.225 131.863C141.729 131.787 141.421 131.681 141.182 131.517C140.943 131.352 140.742 131.109 140.499 130.699L140.487 130.679L140.472 130.66C140.363 130.528 140.264 130.32 140.184 130.042C140.106 129.767 140.051 129.444 140.02 129.1C139.957 128.41 139.99 127.665 140.085 127.104L140.253 126.122L139.548 126.826C138.666 127.708 138.316 128.785 138.226 129.735C138.137 130.674 138.3 131.514 138.476 131.968C138.794 132.918 139.141 133.637 139.701 134.2C140.264 134.765 141.014 135.144 142.083 135.475L142.114 135.484L144.663 135.72L144.725 135.7C145.278 135.518 146.127 135.236 146.879 134.982C147.621 134.731 148.295 134.498 148.475 134.418C148.687 134.324 149.068 134.139 149.396 133.967C149.559 133.88 149.715 133.794 149.833 133.722C149.89 133.687 149.947 133.65 149.991 133.615C150.013 133.598 150.041 133.574 150.067 133.545C150.076 133.535 150.088 133.521 150.1 133.503C150.106 133.5 150.112 133.495 150.12 133.491C150.134 133.482 150.151 133.471 150.171 133.459C150.264 133.403 150.398 133.329 150.553 133.247C150.86 133.085 151.231 132.9 151.479 132.78L151.513 132.764L152.812 131.689C153.056 131.605 153.522 131.403 153.865 131.099C154.023 130.959 154.292 130.828 154.609 130.703C154.742 130.651 154.875 130.603 155.004 130.557L155.063 130.535C155.206 130.483 155.347 130.431 155.461 130.381C155.621 130.31 155.76 130.185 155.874 130.065C155.991 129.94 156.103 129.796 156.202 129.658C156.269 129.566 156.334 129.471 156.394 129.385C156.422 129.344 156.448 129.306 156.473 129.271C156.557 129.151 156.612 129.078 156.646 129.045C156.801 128.89 157.102 128.547 157.307 128.311L158.049 128.486L158.172 128.379C158.513 128.082 159.257 127.431 159.413 127.275C159.54 127.148 160.1 126.704 160.381 126.485L160.43 126.447L161.261 125.005L162.196 124.72L163.929 124.036L163.932 124.035L165.127 123.575L165.138 123.569C165.141 123.568 165.153 123.564 165.181 123.56C165.219 123.553 165.27 123.548 165.334 123.545C165.462 123.54 165.617 123.543 165.773 123.552C165.929 123.56 166.079 123.572 166.197 123.583C166.257 123.588 166.305 123.593 166.345 123.596C166.359 123.598 166.377 123.599 166.394 123.601C166.416 123.61 166.448 123.624 166.49 123.643C166.573 123.681 166.691 123.737 166.81 123.788C166.928 123.838 167.064 123.89 167.19 123.92C167.253 123.935 167.327 123.947 167.402 123.946C167.47 123.945 167.574 123.932 167.669 123.866C167.677 123.865 167.711 123.86 167.793 123.879C167.904 123.904 168.037 123.96 168.165 124.023C168.275 124.079 168.524 124.177 168.78 124.279C168.875 124.317 168.971 124.355 169.061 124.391C169.237 124.462 169.397 124.529 169.512 124.582C169.543 124.597 169.568 124.609 169.588 124.619C169.591 124.625 169.594 124.63 169.597 124.635C169.62 124.675 169.648 124.717 169.677 124.757C169.735 124.839 169.811 124.936 169.886 125.028C170.034 125.21 170.202 125.403 170.26 125.461C170.288 125.489 170.321 125.512 170.336 125.523C170.358 125.538 170.383 125.555 170.411 125.573C170.467 125.609 170.54 125.653 170.623 125.703C170.788 125.802 171.001 125.926 171.212 126.046C171.423 126.165 171.636 126.283 171.803 126.372C171.885 126.416 171.96 126.454 172.018 126.482C172.047 126.495 172.075 126.509 172.101 126.519C172.114 126.524 172.13 126.53 172.148 126.536C172.159 126.539 172.202 126.552 172.253 126.552C172.287 126.552 172.327 126.547 172.348 126.544C172.378 126.54 172.413 126.534 172.453 126.528C172.532 126.515 172.632 126.498 172.739 126.479C172.953 126.441 173.197 126.395 173.356 126.365L173.51 126.335L173.664 126.029L174.138 126.687L175.52 132.442V136.283L174.707 141.922L173.637 147.231L170.601 150.794L167.021 152.607L161.353 153.812L152.045 152.598L146.331 150.753L137.668 146.692L133.779 143.787L130.922 140.261L130.313 139.041ZM151.9 125.82C151.968 125.747 152.037 125.648 152.061 125.521C152.068 125.484 152.107 125.394 152.205 125.218C152.232 125.17 152.262 125.117 152.295 125.06C152.367 124.934 152.45 124.789 152.528 124.639C152.741 124.233 152.968 123.712 152.975 123.161L153.877 121.93L155.011 121.161L156.716 121.286L157.727 121.658L159.42 119.964L160.693 118.604L162.179 117.924L163.563 117.751H164.224C164.278 117.751 164.35 117.742 164.408 117.733C164.474 117.723 164.551 117.709 164.629 117.695C164.763 117.67 164.906 117.641 165.012 117.619C165.929 117.713 166.848 117.717 167.65 117.584C168.373 117.464 169.036 117.227 169.509 116.811L171.263 117.568L173.048 119.183L173.859 120.549L174.115 121.732V124.306L173.346 125.244L173.083 125.77C172.943 125.796 172.777 125.827 172.627 125.854C172.522 125.872 172.426 125.889 172.352 125.901C172.33 125.904 172.311 125.907 172.294 125.91L172.292 125.909C172.246 125.887 172.18 125.853 172.1 125.811C171.941 125.726 171.734 125.612 171.525 125.493C171.317 125.375 171.11 125.254 170.949 125.158C170.869 125.11 170.802 125.069 170.754 125.038C170.729 125.022 170.711 125.01 170.7 125.002L170.698 125.001C170.652 124.952 170.514 124.794 170.379 124.628C170.307 124.539 170.241 124.454 170.194 124.389C170.175 124.362 170.162 124.342 170.154 124.329C170.14 124.283 170.12 124.249 170.107 124.231C170.085 124.198 170.061 124.175 170.046 124.161C170.015 124.134 169.982 124.113 169.958 124.098C169.908 124.068 169.845 124.036 169.78 124.006C169.649 123.945 169.475 123.873 169.299 123.802C169.187 123.757 169.076 123.713 168.973 123.672C168.734 123.577 168.533 123.497 168.449 123.455C168.304 123.383 168.119 123.302 167.936 123.26C167.787 123.226 167.561 123.198 167.363 123.308L167.359 123.307C167.353 123.306 167.345 123.304 167.336 123.302C167.264 123.285 167.168 123.25 167.058 123.203C166.975 123.168 166.894 123.13 166.819 123.095C166.797 123.085 166.776 123.075 166.755 123.066C166.711 123.046 166.667 123.026 166.629 123.01C166.61 123.003 166.588 122.994 166.565 122.987C166.55 122.983 166.503 122.968 166.447 122.968C166.456 122.968 166.45 122.968 166.403 122.964C166.366 122.961 166.313 122.956 166.253 122.95C166.132 122.939 165.973 122.926 165.807 122.918C165.642 122.909 165.463 122.904 165.306 122.911C165.227 122.915 165.148 122.921 165.076 122.933C165.014 122.944 164.938 122.961 164.867 122.995L163.699 123.444L161.987 124.12L160.836 124.47L159.942 126.022C159.66 126.243 159.117 126.673 158.964 126.826C158.843 126.947 158.254 127.465 157.878 127.793L157.077 127.605L156.951 127.752C156.767 127.966 156.368 128.425 156.196 128.596C156.117 128.675 156.03 128.796 155.952 128.907C155.923 128.948 155.894 128.99 155.865 129.033C155.808 129.115 155.75 129.2 155.687 129.286C155.594 129.415 155.501 129.534 155.412 129.63C155.318 129.729 155.248 129.78 155.203 129.8C155.113 129.84 154.993 129.885 154.847 129.938C154.704 129.99 154.541 130.048 154.377 130.112C154.059 130.237 153.693 130.402 153.443 130.624C153.164 130.872 152.738 131.049 152.562 131.102L152.502 131.121L151.167 132.226C150.917 132.348 150.558 132.526 150.256 132.686C150.099 132.769 149.952 132.849 149.843 132.915C149.79 132.947 149.738 132.98 149.697 133.011C149.677 133.026 149.651 133.047 149.626 133.073C149.62 133.079 149.612 133.088 149.603 133.098C149.596 133.107 149.588 133.118 149.58 133.129C149.562 133.142 149.536 133.159 149.5 133.181C149.401 133.242 149.259 133.321 149.1 133.404C148.781 133.572 148.414 133.75 148.217 133.838C148.071 133.903 147.437 134.123 146.676 134.38C145.954 134.625 145.141 134.894 144.59 135.076L142.239 134.858C141.234 134.544 140.605 134.207 140.151 133.752C139.692 133.291 139.384 132.68 139.075 131.759L139.073 131.751L139.07 131.744C138.931 131.389 138.778 130.645 138.859 129.795C138.91 129.25 139.056 128.672 139.356 128.128C139.347 128.468 139.357 128.819 139.387 129.158C139.421 129.529 139.481 129.893 139.574 130.217C139.663 130.527 139.788 130.819 139.964 131.043C140.222 131.474 140.477 131.803 140.822 132.04C141.17 132.279 141.579 132.405 142.11 132.488C142.528 132.602 143.177 132.64 143.743 132.634C144.036 132.631 144.318 132.616 144.552 132.591C144.668 132.578 144.777 132.562 144.87 132.543C144.956 132.526 145.052 132.501 145.131 132.461C145.204 132.425 145.499 132.303 145.901 132.137C146.052 132.075 146.218 132.007 146.392 131.935C147.014 131.677 147.729 131.376 148.199 131.154C148.453 131.054 148.689 130.872 148.892 130.673C149.102 130.468 149.293 130.227 149.454 129.993C149.614 129.759 149.748 129.524 149.84 129.328C149.885 129.23 149.923 129.136 149.948 129.052C149.961 129.01 149.972 128.964 149.978 128.918C149.98 128.899 149.983 128.873 149.982 128.843C149.995 128.818 150.016 128.781 150.045 128.732C150.117 128.614 150.221 128.46 150.341 128.283C150.359 128.256 150.378 128.23 150.396 128.202C150.616 127.88 150.875 127.5 151.026 127.209L151.9 125.82ZM169.105 116.321C168.758 116.633 168.225 116.845 167.547 116.958C167.028 117.044 166.443 117.068 165.832 117.042L166.677 116.377L168.108 115.453L168.869 114.584L169.105 116.321ZM131.405 115.42C130.816 115.223 130.106 115.268 128.988 115.447C128.274 113.796 127.613 112.642 126.775 111.905C125.971 111.197 125.033 110.897 123.818 110.859C123.889 110.551 123.913 110.243 123.874 109.891C123.819 109.394 123.641 108.825 123.326 108.059L123.32 108.043L121.881 105.393L122.601 105.48C122.696 105.666 122.785 105.845 122.872 106.018C123.419 107.113 123.859 107.994 125.025 109.124L127.201 111.617L129.033 113.45L131.405 115.42ZM111.136 113.9L110.845 113.352L110.437 112.354L110.034 111.599L109.444 111.145L109.151 110.595V109.73L109.481 108.781L110.384 107.535L111.51 106.582L112.598 105.977L114.383 106.424L116.826 108.993L116.593 109.826L114.564 110.953L113.677 113.392L111.136 113.9ZM159.538 116.273L160.283 116.3H161.435L162.633 116.484L162.639 116.485L163.251 116.566C163.39 116.529 163.577 116.479 163.742 116.433C163.838 116.406 163.925 116.381 163.993 116.36C164.034 116.348 164.06 116.339 164.073 116.335C164.077 116.334 164.08 116.333 164.081 116.332C164.087 116.328 164.099 116.32 164.117 116.306C164.149 116.282 164.188 116.251 164.231 116.216C164.283 116.174 164.337 116.128 164.385 116.087L164.423 115.881L164.075 115.591L162.777 115.256H161.35L160.165 115.848L159.538 116.273ZM168.624 108.909L167.221 108.125L166.721 107.278L168.624 108.114V108.909ZM139.697 157.65L136.434 161.341L146.408 163.029L144.535 158.481L139.697 157.65ZM189.157 157.679L188.501 159.594L187.399 167.58L191.084 181.864L191.677 186.971L193.42 190.917L193.423 190.921L196.503 197.581C196.504 197.582 196.504 197.584 196.505 197.585C196.778 198.229 197.197 199.208 197.571 200.058C197.758 200.484 197.935 200.88 198.077 201.185C198.147 201.338 198.21 201.47 198.262 201.573C198.309 201.667 198.357 201.759 198.397 201.815C198.465 201.91 198.594 202.035 198.728 202.156C198.781 202.204 198.838 202.255 198.9 202.309L192.088 200.014L191.885 200.616L200.369 203.474L200.664 202.921C200.401 202.719 199.996 202.399 199.635 202.099C199.454 201.949 199.287 201.806 199.155 201.686C199.013 201.558 198.936 201.477 198.914 201.446C198.914 201.446 198.906 201.434 198.889 201.403C198.88 201.387 198.871 201.369 198.859 201.347C198.85 201.33 198.84 201.31 198.83 201.289C198.782 201.194 198.723 201.068 198.653 200.918C198.514 200.618 198.339 200.227 198.152 199.802C197.779 198.953 197.36 197.975 197.088 197.333L197.084 197.323L194.001 190.66L193.999 190.655L192.297 186.802L191.71 181.748L188.046 167.543L189.122 159.742L189.758 157.885L189.157 157.679ZM144.082 159.047L145.385 162.211L137.667 160.905L139.938 158.336L144.082 159.047ZM177.878 159.759V162.845L182.097 169.539L182.101 169.545L185.016 174.434L186.367 181.863L186.992 181.749L185.62 174.208L182.638 169.207L178.514 162.661V159.759H177.878ZM175.976 166.722L175.426 167.04L179.73 174.47L182.083 179.358L182.656 179.082L180.291 174.172L175.976 166.722ZM139.004 172.724C139.004 172.724 139.004 172.724 139.312 172.804C139.032 172.955 139.032 172.955 139.032 172.955L139.033 172.956L139.034 172.958L139.037 172.964L139.048 172.984C139.058 173.001 139.072 173.025 139.09 173.054C139.126 173.114 139.178 173.196 139.247 173.293C139.382 173.485 139.583 173.739 139.841 173.976C140.353 174.446 141.148 174.899 142.117 174.571L142.147 174.561L142.175 174.545C142.609 174.293 142.935 174.027 143.134 173.724C143.343 173.408 143.401 173.07 143.333 172.716C143.268 172.378 143.09 172.038 142.853 171.69C142.614 171.339 142.299 170.957 141.935 170.534L141.852 170.438L141.726 170.426C140.664 170.32 139.971 170.94 139.567 171.526C139.364 171.82 139.225 172.117 139.136 172.339C139.091 172.45 139.059 172.544 139.038 172.611C139.027 172.645 139.019 172.672 139.013 172.691L139.007 172.714L139.005 172.72L139.005 172.723L139.004 172.724ZM139.312 172.804L139.032 172.955L138.973 172.845L139.004 172.724L139.312 172.804ZM139.656 172.763C139.673 172.712 139.696 172.648 139.726 172.575C139.803 172.382 139.922 172.13 140.09 171.886C140.409 171.424 140.871 171.031 141.541 171.05C141.863 171.427 142.129 171.755 142.328 172.047C142.547 172.368 142.669 172.624 142.71 172.836C142.748 173.034 142.718 173.202 142.604 173.374C142.485 173.556 142.263 173.756 141.884 173.979C141.246 174.181 140.7 173.902 140.271 173.508C140.056 173.311 139.884 173.095 139.766 172.927C139.721 172.864 139.684 172.808 139.656 172.763ZM231.54 178.182L228.68 172.186L228.106 172.459L231.005 178.535L238.655 187.233L239.132 186.813L231.54 178.182ZM140.212 180.836L141.11 181.105L143.44 181.255C143.636 181 143.721 180.62 143.632 180.269C143.538 179.895 143.243 179.538 142.61 179.442C141.921 179.338 141.21 179.488 140.739 179.794C140.506 179.946 140.344 180.127 140.261 180.32C140.196 180.47 140.173 180.641 140.212 180.836ZM139.558 180.639C139.559 180.439 139.601 180.248 139.678 180.068C139.823 179.734 140.082 179.464 140.393 179.262C141.01 178.861 141.881 178.69 142.705 178.814C143.584 178.948 144.09 179.485 144.248 180.114C144.348 180.509 144.307 180.936 144.146 181.301L147.084 181.49L147.092 181.49C147.222 181.505 147.564 181.492 148.071 181.464C148.22 181.456 148.381 181.447 148.551 181.437C148.937 181.414 149.368 181.389 149.809 181.369C150.443 181.339 151.105 181.32 151.695 181.333C152.277 181.346 152.819 181.39 153.198 181.501L153.246 181.515L157.571 184.414L162.776 189.212L163.707 189.71L170.71 189.407L176.404 186.113L176.722 186.663L172.08 189.348L176.504 189.157L182.268 187.221L182.471 187.823L176.621 189.788L164.911 190.293L180.923 198.008L180.648 198.58L163.496 190.317L163.49 190.314L162.405 189.734L157.177 184.914L152.975 182.098C152.68 182.021 152.229 181.98 151.681 181.968C151.112 181.955 150.467 181.974 149.838 182.003C149.401 182.023 148.977 182.048 148.592 182.07C148.421 182.08 148.259 182.09 148.106 182.098C147.634 182.125 147.229 182.143 147.03 182.122L140.996 181.734L137.055 180.551L128.744 183.322L122.35 185.952C121.416 186.878 120.764 187.586 120.361 188.352C119.975 189.084 119.809 189.888 119.89 191.018C120.629 191.596 121.218 191.971 121.853 192.198C122.504 192.432 123.226 192.516 124.238 192.469L133.255 189.116H145.397V189.751H133.369L124.368 193.099L124.319 193.101C124.211 193.107 124.105 193.111 124.002 193.113L122.127 194.16L118.755 195.535L116.967 198.325L116.437 199.753L117.915 202.75L119.533 202.631L122.062 201.966L133.844 196.458L145.385 196.024L145.409 196.659L133.996 197.088L122.388 202.514L121.559 203.799L120.97 206.196L122.368 208.251L124.295 208.784C124.593 208.686 125.018 208.553 125.424 208.441C125.648 208.379 125.871 208.322 126.064 208.28C126.25 208.24 126.434 208.208 126.571 208.208L126.574 208.208C126.576 208.208 126.578 208.208 126.582 208.207C126.589 208.206 126.598 208.205 126.611 208.202C126.636 208.197 126.668 208.188 126.708 208.174C126.788 208.147 126.886 208.106 127.002 208.053C127.177 207.972 127.374 207.872 127.588 207.763C127.659 207.727 127.732 207.69 127.806 207.652C128.099 207.505 128.412 207.352 128.706 207.235C128.993 207.122 129.298 207.029 129.565 207.029C129.707 207.029 129.994 206.956 130.402 206.813C130.794 206.675 131.25 206.491 131.707 206.304C131.781 206.274 131.854 206.243 131.928 206.213C132.306 206.058 132.677 205.905 132.994 205.786C133.183 205.715 133.358 205.653 133.507 205.609C133.648 205.568 133.797 205.532 133.92 205.532C133.92 205.532 133.924 205.532 133.936 205.53C133.946 205.529 133.961 205.527 133.979 205.524C134.016 205.517 134.064 205.506 134.123 205.491C134.24 205.461 134.389 205.416 134.564 205.359C134.914 205.244 135.355 205.085 135.828 204.906C136.772 204.548 137.83 204.119 138.516 203.832L138.557 203.815L142.43 203.354H145.051L145.812 206.167H141.208L138.254 207.644L134.055 208.818L130.654 211.099V213.559L133.382 215.13L148.335 211.777L161.479 217.689H178.202V218.324H161.343L148.267 212.443L133.279 215.803L130.019 213.926V210.761L133.786 208.234L138.024 207.049L141.058 205.532H144.982L144.565 203.989H142.468L138.72 204.435C138.029 204.723 136.987 205.146 136.053 205.5C135.576 205.68 135.125 205.844 134.762 205.962C134.58 206.022 134.417 206.071 134.281 206.106C134.155 206.139 134.024 206.167 133.92 206.167C133.896 206.167 133.824 206.178 133.687 206.218C133.559 206.256 133.401 206.311 133.218 206.38C132.911 206.496 132.55 206.644 132.171 206.8C132.097 206.83 132.023 206.861 131.948 206.892C131.492 207.078 131.022 207.269 130.612 207.412C130.219 207.55 129.832 207.664 129.565 207.664C129.424 207.664 129.213 207.718 128.94 207.826C128.674 207.931 128.384 208.072 128.092 208.219C128.023 208.254 127.954 208.289 127.885 208.324C127.668 208.435 127.455 208.544 127.267 208.63C127.143 208.687 127.022 208.738 126.911 208.776C126.807 208.811 126.686 208.843 126.571 208.843C126.508 208.843 126.383 208.861 126.198 208.901C126.021 208.939 125.812 208.992 125.593 209.053C125.156 209.174 124.694 209.32 124.403 209.417L124.311 209.447L121.974 208.801L120.286 206.319L120.968 203.544L121.46 202.781L119.637 203.26L117.535 203.414L115.747 199.788L116.396 198.04L118.328 195.023L121.851 193.586L122.787 193.064C122.377 193.014 122.001 192.926 121.639 192.796C120.875 192.523 120.194 192.07 119.388 191.43L119.281 191.345L119.269 191.209C119.155 189.912 119.33 188.947 119.799 188.056C120.26 187.18 120.995 186.399 121.947 185.456L121.992 185.412L128.523 182.726L137.045 179.885L139.558 180.639ZM56.5661 184.122L57.3683 184.604L57.2253 185.819L56.4915 186.448L55.8024 186.276V184.75L56.2668 184.286L56.5661 184.122ZM189.537 192.713V187.522H188.902V192.764L189.451 196.147L190.077 196.045L189.537 192.713ZM240.63 188.184L240.157 188.608L247.136 196.394L251.164 201.272L251.62 203.55L253.873 205.976L247.467 204.229L240.35 201.948H235.083C235.006 201.948 234.897 201.967 234.794 201.987C234.679 202.01 234.535 202.042 234.372 202.08C234.044 202.158 233.626 202.265 233.178 202.384C232.283 202.621 231.263 202.905 230.596 203.094L230.587 203.097L225.179 205.005L225.177 205.006L222.773 205.868L222.987 206.466L225.392 205.604L230.779 203.702C231.443 203.514 232.455 203.232 233.341 202.998C233.786 202.88 234.198 202.774 234.518 202.698C234.678 202.66 234.813 202.63 234.916 202.61C234.968 202.6 235.009 202.593 235.041 202.588C235.066 202.584 235.079 202.583 235.083 202.583L240.251 202.583L247.226 204.819L251.95 208.518L253.782 211.243L254.309 210.889L252.421 208.08L248.812 205.254L254.603 206.833L255.382 209.735L256.102 211.019L256.656 210.709L255.975 209.494L255.148 206.417L252.207 203.249L251.756 200.991L247.618 195.979L240.63 188.184ZM235.109 211.892L234.553 212.2L240.015 222.048L243.726 230.739L243.728 230.743L246.574 237.656L247.158 240.215L247.777 240.074L247.182 237.463L246.326 235.385L251.756 226.661L253.864 218.182V216.251H253.229V218.104L251.164 226.41L246.028 234.662L244.314 230.497L244.312 230.494L240.586 221.769L235.109 211.892ZM257.501 212.574L256.921 212.833L258.333 215.994L258.853 217.434L257.641 222.323L257.639 222.331L255.88 228.733L250.361 239.363L250.925 239.656L256.475 228.966L258.253 222.491L258.255 222.484L259.241 218.509L260.482 221.948L259.265 233.754L258.313 240.098L258.941 240.192L259.895 233.834L261.128 221.869L258.922 215.756L257.501 212.574Z" fill="#FBAB9A"/>
<path fill-rule="evenodd" clip-rule="evenodd" d="M188.347 131.6C188.33 131.611 188.314 131.622 188.298 131.634C187.964 131.893 187.963 132.58 187.941 140.671L187.938 141.648C187.92 150.199 187.901 151.141 187.77 151.141C187.481 151.141 182.651 151.729 170.109 153.286C155.44 155.104 149.873 155.776 143.486 156.494C117.907 159.366 103.444 160.084 97.159 158.778C88.3375 156.951 80.6816 151.551 75.8326 143.728C75.1705 142.655 74.984 142.441 74.4991 142.133C74.1168 141.881 73.2495 141.63 72.7833 141.63C72.4942 141.63 72.4756 141.611 72.4756 141.322C72.4756 140.856 72.774 140.445 73.2309 140.315L73.6132 140.194L73.5573 139.793C73.4641 139.065 73.0258 138.487 72.3357 138.17C72.0187 138.021 71.7202 137.993 70.4334 137.993C69.5568 137.993 68.7549 138.04 68.5497 138.095C67.8503 138.31 67.2722 139.009 67.123 139.83C67.0764 140.11 67.095 140.138 67.3095 140.138C67.4494 140.138 67.6638 140.25 67.8224 140.408C68.0462 140.641 68.0928 140.753 68.0928 141.154V141.63H67.0671C65.8828 141.63 65.2113 141.751 64.6705 142.059C64.139 142.366 63.5609 143.047 63.365 143.616C63.2065 144.082 63.1972 145.528 63.1972 176.785V209.469L63.4116 209.814C63.7939 210.43 64.0924 210.542 65.3326 210.542H66.4143V221.517C66.4143 227.56 66.433 233.174 66.4609 233.994C66.4796 234.973 66.4703 235.328 66.4236 235.02C66.377 234.759 66.3677 234.311 66.3956 234.013C66.4245 233.684 66.4355 233.558 66.3799 233.511C66.3457 233.481 66.2864 233.481 66.1905 233.481C65.9481 233.481 65.9387 233.491 66.0133 233.826C66.1066 234.293 66.0972 235.076 65.9853 235.272C65.9294 235.365 65.8921 234.936 65.8734 234.013C65.8548 232.446 65.7802 232.213 65.2021 231.831C64.7917 231.551 63.9805 231.532 63.5515 231.803C62.9454 232.166 62.9174 232.288 62.9174 234.414C62.9174 236.54 62.9454 236.661 63.5515 237.025C63.9618 237.277 64.7731 237.277 65.1834 237.025C65.5751 236.782 65.8548 236.316 65.8548 235.878C65.8548 235.561 65.8735 235.533 66.1252 235.533H66.405L66.433 237.109C66.4609 238.582 66.4796 238.703 66.6754 238.974L66.8899 239.263H44.8828L39.2132 244.867C37.5856 246.48 35.8943 248.157 34.5107 249.529C33.2466 250.782 32.2392 251.78 31.7718 252.243L30 254.015L41.2965 253.996C41.4607 253.37 41.6269 252.777 41.7956 252.214L34.3828 252.215L45.6661 241.035H49.2974C50.0163 240.538 50.7903 240.049 51.6288 239.533V241.035H65.5751V242.9H65.2767C64.9783 242.9 64.6425 243.123 64.6425 243.319C64.6425 243.44 63.4023 243.552 61.9476 243.552C61.4627 243.552 61.099 243.58 61.127 243.618C61.4347 243.916 76.0004 243.944 77.3246 243.646C77.5857 243.58 77.5204 243.571 76.9516 243.562C76.4201 243.552 76.2895 243.524 76.3735 243.44C76.4481 243.366 76.4854 242.956 76.4854 242.191V241.063L81.9323 241.054V239.823L169.78 239.283C170.979 239.843 172.234 240.554 173.322 241.568C174.548 237.941 177.948 228.073 177.979 228.073C177.988 228.073 177.979 229.686 177.96 231.663C177.914 235.468 178.026 237.855 178.278 238.713C178.632 239.906 180.366 240.941 184.05 242.154C186.978 243.114 191.929 244.242 196.722 245.044C197.953 245.25 199.054 245.417 199.175 245.417C199.296 245.417 199.389 245.455 199.389 245.501C199.389 245.79 190.68 245.837 187.78 245.567C183.374 245.157 178.766 244.431 174.925 243.532C175.021 243.691 175.113 243.855 175.201 244.024C175.713 245.007 176.09 246.178 176.26 247.584C176.392 247.606 176.532 247.63 176.683 247.655C177.867 247.851 179.462 248.112 180.226 248.215C181 248.327 181.644 248.439 181.663 248.457C181.681 248.476 181.262 248.495 180.73 248.495C179.829 248.495 178.177 248.553 176.345 248.637C176.359 248.982 176.363 249.34 176.353 249.711C181.424 249.922 187.132 250.015 194.354 250.015C205.329 250.015 212.099 249.819 219.998 249.269C220.902 249.213 220.94 249.194 220.511 249.138C219.354 248.97 210.039 248.495 207.791 248.495C207.157 248.495 206.654 248.476 206.682 248.448C206.71 248.42 207.586 248.271 208.631 248.122C209.675 247.963 211.353 247.702 212.351 247.525C213.778 247.273 214.533 247.189 215.848 247.143C219.504 247.021 224.782 246.807 226.152 246.723C226.945 246.667 227.738 246.63 227.915 246.63C228.092 246.63 228.213 246.611 228.194 246.592C228.139 246.536 218.45 246.07 217.266 246.07H216.995L217.275 245.837L217.545 245.613L224.595 245.212C228.474 244.998 231.626 244.802 231.607 244.783C231.579 244.755 219.821 244.047 218.944 244.019C218.907 244.019 218.935 243.897 219.019 243.748C219.03 243.726 219.037 243.706 219.044 243.687C219.05 243.672 219.055 243.657 219.062 243.643C219.17 243.427 219.671 243.407 227.96 243.08L230.162 242.993C235.365 242.788 239.776 242.601 239.953 242.592C240.233 242.564 240.214 242.555 239.86 242.536C239.627 242.527 235.002 242.34 229.575 242.116C224.147 241.893 219.699 241.697 219.681 241.678C219.662 241.659 219.671 241.464 219.699 241.24L219.737 240.848H262.977L259.984 245.529C259.233 246.71 258.485 247.883 257.862 248.86C257.121 250.021 256.557 250.905 256.375 251.199L255.75 252.178L176.126 252.191C176.055 252.663 175.966 253.153 175.859 253.66C216.822 253.534 251.13 253.437 252.785 253.437H255.871L261.009 246.294C263.844 242.359 266.157 239.17 266.157 239.207C266.157 239.235 264.124 242.573 261.634 246.63L257.111 253.996L257.158 278.26L266.25 261.466L266.203 239.123L219.559 239.076L219.504 238.722C219.252 237.146 218.496 229.173 218.58 229.089C218.618 229.052 218.991 228.884 219.42 228.698C222.711 227.299 225.238 224.222 226.022 220.65C226.143 220.091 226.199 219.27 226.236 217.209L226.292 214.505L226.553 213.983C226.889 213.293 227.56 212.677 228.232 212.416L228.773 212.22H250.024V212.724C250.024 213.778 250.565 214.934 251.395 215.67C253.512 217.535 256.897 216.659 257.857 213.983L258.035 213.479L258.044 217.004V217.104C258.044 220.093 258.044 220.982 258.45 221.247C258.623 221.359 258.868 221.359 259.216 221.359H259.247H259.816V223.615L260.123 223.559C262.809 223.019 264.655 223.019 267.555 223.55C269.887 223.988 271.006 224.091 273.384 224.091C275.845 224.082 277.85 223.923 280.098 223.55C280.286 223.518 280.456 223.49 280.61 223.465L280.615 223.464L280.617 223.464C281.517 223.316 281.858 223.26 282.009 223.061C282.1 222.939 282.121 222.764 282.154 222.483C282.164 222.405 282.174 222.32 282.186 222.226C282.289 221.433 282.289 221.154 282.186 220.37L282.056 219.447L281.496 219.335C278.979 218.832 276.06 218.543 273.43 218.543C270.996 218.543 270.073 218.627 267.509 219.093C265.802 219.41 265.495 219.438 263.919 219.438C262.305 219.447 261.522 219.373 260.31 219.102L259.816 219V199.846C259.816 198.596 259.816 197.426 259.816 196.331L259.816 196.301C259.818 181.258 259.818 180.267 259.454 180.109C259.429 180.097 259.401 180.09 259.372 180.083C259.339 180.074 259.304 180.065 259.266 180.049C258.902 179.9 258.557 179.993 258.268 180.301L258.044 180.534L258.025 172.346L257.997 164.15L257.69 163.516C256.17 160.438 251.833 160.494 250.369 163.609C250.099 164.206 250.071 164.327 250.043 165.474L250.006 166.714H240.606L240.559 142.329L240.298 141.583C239.45 139.177 237.408 137.331 235.02 136.818C234.097 136.622 232.577 136.65 231.691 136.874C229.621 137.396 227.98 138.73 227.038 140.651C226.989 140.75 226.942 140.84 226.899 140.925C226.807 141.105 226.729 141.257 226.663 141.414C226.295 142.288 226.292 143.315 226.27 150.047C226.269 150.624 226.267 151.242 226.264 151.906L226.236 161.212H220.417C215.895 161.212 214.589 161.184 214.589 161.1C214.589 161.035 214.319 160.429 213.983 159.758C211.167 154.051 206.943 151.076 200.602 150.358C199.138 150.181 197.981 150.171 196.172 150.302C194.82 150.405 191.37 150.722 190.605 150.824L190.158 150.88V132.006L189.841 131.689C189.579 131.428 189.458 131.372 189.123 131.372C188.899 131.372 188.6 131.447 188.46 131.531C188.449 131.538 188.438 131.545 188.427 131.551C188.418 131.557 188.409 131.562 188.4 131.568C188.382 131.579 188.364 131.589 188.347 131.6ZM189.542 132.137C189.673 132.323 189.691 133.041 189.673 138.319C189.663 141.602 189.635 143.597 189.626 142.749C189.579 139.699 189.402 135.354 189.272 134.263C189.132 133.051 189.011 132.696 188.684 132.528L188.47 132.426L188.759 132.174C189.113 131.876 189.356 131.866 189.542 132.137ZM234.778 138.133C237.268 138.767 239.133 140.921 239.627 143.728C239.748 144.427 239.767 145.975 239.748 154.675C239.739 160.242 239.72 164.569 239.702 164.29C239.468 159.963 239.301 157.911 238.918 154.871C237.948 147.094 236.345 142.432 234.293 141.434C233.333 140.968 231.141 141.359 228.745 142.432L227.831 142.833V142.581C227.84 141.667 229.528 139.597 230.964 138.739C232.158 138.021 233.51 137.806 234.778 138.133ZM69.0626 138.319C68.5871 138.608 68.1861 139.177 68.1208 139.662C68.0741 140.026 68.0555 140.044 67.7571 140.044C67.496 140.044 67.4401 140.007 67.4401 139.858C67.4401 139.326 67.9809 138.664 68.6989 138.291C69.2491 138.002 69.5475 138.03 69.0626 138.319ZM71.9907 138.226C72.1772 138.31 72.429 138.468 72.5502 138.58C72.8206 138.832 73.2216 139.597 73.2216 139.858C73.2216 140.026 73.1656 140.044 72.5688 140.044H71.9161V139.699C71.9161 139.261 71.6083 138.627 71.2447 138.319L70.9649 138.086H71.31C71.4871 138.086 71.7948 138.151 71.9907 138.226ZM72.1678 142.516C73.6319 142.795 73.6692 142.833 75.4129 145.733C76.532 147.588 77.0448 148.344 77.5298 148.866L77.8002 149.155L77.6883 157.352C77.6323 161.865 77.5484 165.604 77.5111 165.67C77.4831 165.735 77.3992 162.107 77.3339 157.603L77.222 149.416L76.9143 149.09C76.4481 148.605 75.9165 147.84 74.6483 145.873C74.0235 144.893 73.3894 143.97 73.2309 143.812C72.8672 143.439 72.2891 143.317 70.6385 143.243L69.3983 143.187V142.254L70.452 142.32C71.0209 142.357 71.8042 142.45 72.1678 142.516ZM70.1536 147.476C70.5266 147.682 70.853 148.139 70.9836 148.614C71.0395 148.829 71.0768 153.379 71.0768 161.501L71.0769 163.253C71.0779 173.87 71.078 174.666 70.6807 175.091C70.6721 175.101 70.6633 175.11 70.6543 175.119C70.6487 175.124 70.6431 175.13 70.6375 175.135C70.6316 175.141 70.6257 175.146 70.6198 175.152C70.6056 175.165 70.591 175.179 70.576 175.193C70.5514 175.215 70.5257 175.239 70.4987 175.265C69.6407 176.095 68.4285 176.011 67.6825 175.079L67.3934 174.715L67.3468 148.502L67.5799 148.101C68.0928 147.225 69.2491 146.936 70.1536 147.476ZM227.887 150.283C228.139 155.636 228.25 166.201 228.129 172.822C228.017 179.032 227.887 183.079 227.766 184.059C227.691 184.674 227.635 183.928 227.448 178.976C227.281 174.855 227.281 157.305 227.439 153.333C227.644 148.232 227.672 147.691 227.728 147.738C227.756 147.766 227.831 148.913 227.887 150.283ZM64.6425 151.934C64.8011 157.389 64.9223 166.444 64.913 172.729C64.913 181.877 64.6425 196.61 64.4654 197.207C64.3908 197.44 64.3721 196.909 64.1576 189.794C64.0084 184.805 64.0084 160.597 64.1576 155.524C64.3628 148.502 64.3908 147.831 64.4654 148.064C64.5027 148.194 64.5773 149.929 64.6425 151.934ZM75.3011 171.33C75.3011 180.869 75.2638 189.206 75.2171 189.98C75.1248 191.337 75.1239 191.296 75.0425 187.667L75.0399 187.555C74.9187 182.641 74.9187 160.308 75.0399 155.198C75.1239 151.402 75.1332 151.328 75.2078 152.68C75.2544 153.444 75.3011 161.837 75.3011 171.33ZM188.255 152.12C188.6 152.298 189.57 152.298 189.906 152.12C190.102 152.027 190.158 152.018 190.139 152.102C190.074 152.298 189.477 152.54 189.057 152.54C188.638 152.54 188.227 152.372 188.022 152.13C187.864 151.943 187.92 151.943 188.255 152.12ZM196.555 153.193C199.222 153.305 200.62 153.547 202.746 154.237C206.514 155.459 209.181 157.65 210.747 160.793C211.801 162.9 212.379 165.297 212.631 168.579C212.715 169.726 212.743 171.684 212.659 170.91C212.109 165.67 211.279 162.788 209.582 160.242C207.745 157.482 204.639 155.617 200.508 154.787C197.916 154.274 194.205 154.274 187.5 154.787C179.928 155.365 171.424 156.363 147.44 159.487C143.719 159.972 140.586 160.373 140.492 160.364C140.241 160.354 141.938 160 146.143 159.198C163.656 155.869 182.576 153.417 192.815 153.165C193.069 153.156 193.345 153.146 193.588 153.138L193.594 153.138L193.597 153.138L193.598 153.138C193.842 153.13 194.051 153.123 194.167 153.118C194.401 153.109 195.473 153.146 196.555 153.193ZM86.0062 157.202C89.615 159.021 92.7762 160.289 95.6017 161.044C97.0378 161.427 97.1496 161.511 96.1146 161.445C92.6643 161.222 89.3073 160.084 85.6146 157.893C84.6168 157.305 82.7984 155.981 82.0337 155.282C81.698 154.983 81.81 155.02 83.0129 155.655C83.7589 156.046 85.1017 156.746 86.0062 157.202ZM196.452 155.99C201.926 156.55 205.376 157.697 207.484 159.664C210.141 162.154 211.922 168.318 211.876 174.901L211.857 176.645L211.736 174.92C211.288 168.803 209.927 164.131 207.754 161.175C206.616 159.636 204.705 158.564 201.805 157.818C196.275 156.401 187.798 156.298 175.89 157.492C174.324 157.641 172.272 157.874 171.321 157.995C168.691 158.331 169.018 158.21 172.3 157.622C177.186 156.755 182.054 156.167 186.474 155.906C188.302 155.794 195.137 155.85 196.452 155.99ZM74.2753 166.341C74.2753 171.032 74.238 175.246 74.1821 175.713L74.0981 176.552L74.0049 174.873C73.893 172.701 73.893 160.196 74.0049 157.902L74.0981 156.13L74.1821 156.969C74.2287 157.426 74.2753 161.651 74.2753 166.341ZM198.55 158.545C200.182 158.834 201.749 159.291 203.008 159.869C205.152 160.849 207.232 162.816 208.239 164.83C208.659 165.66 209.143 167.171 209.321 168.15C209.479 169.064 209.451 169.362 209.283 168.56C208.808 166.332 207.642 164.14 206.103 162.611C203.651 160.149 200.061 158.853 194.774 158.508C193.906 158.452 193.151 158.387 193.095 158.359C193.048 158.34 194.056 158.34 195.333 158.359C196.928 158.387 197.944 158.443 198.55 158.545ZM65.976 173.148C65.9947 182.93 65.8921 189.393 65.7336 188.208C65.6123 187.322 65.5937 162.135 65.7149 160.793L65.7989 159.767L65.8828 161.865C65.9201 163.021 65.9667 168.094 65.976 173.148ZM223.821 162.48C224.595 163.702 225.238 166.052 225.462 168.458L225.528 169.139H219.28L219.214 168.644C218.981 166.817 218.338 164.579 217.601 163.096C217.397 162.695 217.223 162.33 217.155 162.187C217.139 162.154 217.129 162.133 217.126 162.126C217.107 162.089 218.543 162.051 220.315 162.051H223.541L223.821 162.48ZM255.666 162.415C256.347 162.751 256.757 163.18 257.102 163.917L257.345 164.429L257.354 170.304C257.373 175.936 257.363 176.114 257.242 174.594C256.906 170.36 256.142 167.432 254.892 165.595C254.23 164.625 253.773 164.271 253.074 164.215C252.598 164.178 252.3 164.262 251.265 164.718C251.106 164.793 251.283 164.094 251.554 163.562C251.871 162.947 252.44 162.434 253.027 162.219C253.782 161.949 254.883 162.033 255.666 162.415ZM215.568 163.45C215.699 163.823 215.801 164.178 215.792 164.234C215.792 164.327 215.466 163.469 215.289 162.872C215.13 162.359 215.354 162.825 215.568 163.45ZM215.979 164.849C215.979 164.933 215.941 164.924 215.895 164.802C215.848 164.7 215.811 164.551 215.811 164.476C215.811 164.392 215.848 164.401 215.895 164.523C215.941 164.625 215.979 164.774 215.979 164.849ZM216.053 165.241C216.025 165.315 215.997 165.287 215.997 165.185C215.988 165.082 216.016 165.026 216.044 165.063C216.072 165.091 216.081 165.175 216.053 165.241ZM251.159 194.519C251.156 206.267 251.156 207.611 251.103 207.613C251.096 207.613 251.088 207.591 251.08 207.566C251.071 207.541 251.061 207.513 251.05 207.502C250.742 207.194 250.519 190.717 250.668 178.939C250.789 169.54 250.901 166.537 251.115 166.751C251.143 166.779 251.171 175.797 251.162 186.782C251.161 189.764 251.16 192.323 251.159 194.519ZM250.024 169.139H240.606V167.367H250.024V169.139ZM239.944 172.915C240.308 178.24 240.308 185.411 239.944 190.679C239.767 193.206 239.72 193.057 239.468 189.141C239.319 186.819 239.319 176.673 239.468 174.454C239.674 171.47 239.702 171.181 239.767 171.255C239.804 171.293 239.888 172.039 239.944 172.915ZM250.024 173.894H240.606V172.962H250.024V173.894ZM250.024 205.972H217.545L217.601 199.557C217.629 196.032 217.704 192.162 217.76 190.959C217.816 189.756 217.89 187.509 217.928 185.97L217.993 183.173L222.124 183.145L226.246 183.126V189.439C226.255 194.307 226.283 195.92 226.376 196.461C226.702 198.27 227.756 199.976 229.183 200.984C230.582 201.972 231.775 202.354 233.472 202.354C235.076 202.354 236.233 202 237.547 201.105C238.965 200.144 239.981 198.68 240.429 196.936C240.597 196.274 240.606 195.743 240.606 185.317C240.606 179.312 240.634 174.361 240.671 174.333C240.699 174.295 242.825 174.267 245.381 174.267H250.024V205.972ZM160.476 176.188C160.448 176.216 160.364 176.226 160.299 176.198C160.224 176.17 160.252 176.142 160.355 176.142C160.457 176.132 160.513 176.16 160.476 176.188ZM163.628 176.468C171.172 177.326 177.587 179.219 181.187 181.653C183.835 183.434 185.672 186.53 186.521 190.605C187.136 193.57 187.192 197.99 186.661 200.993C186.577 201.478 186.54 201.571 186.567 201.263C186.782 198.578 186.829 196.927 186.726 195.221C186.446 190.661 185.421 187.21 183.546 184.599C180.73 180.664 173.979 178.137 161.576 176.365L160.644 176.235L161.53 176.281C162.015 176.3 162.966 176.384 163.628 176.468ZM105.16 176.832C101.02 177.111 97.4294 177.662 94.5759 178.464C89.5031 179.9 85.9689 181.811 82.6399 184.944C81.6887 185.84 81.9126 185.551 83.1994 184.217C86.4445 180.841 91.0511 178.594 97.1403 177.401C99.6487 176.906 101.803 176.72 104.833 176.72H106.932L105.16 176.832ZM150.619 176.888C162.248 177.54 172.319 179.48 177.709 182.1C181.215 183.807 183.257 186.157 184.143 189.504C184.6 191.239 184.693 192.059 184.693 194.503C184.693 197.039 184.572 198.27 184.05 201.403C183.63 203.874 182.091 210.663 182.054 210.215C182.045 210.159 182.194 209.348 182.371 208.397C184.012 199.585 184.367 194.615 183.621 190.913C182.782 186.744 180.665 184.31 176.217 182.427C170.836 180.142 159.982 178.044 147.682 176.916C146.759 176.832 145.985 176.748 145.957 176.72C145.901 176.664 148.102 176.738 150.619 176.888ZM77.651 184.739L77.7442 192.125L77.3526 193.225C76.3921 195.864 75.5621 198.932 74.9374 202.056C74.7509 203.007 74.583 203.8 74.5644 203.818C74.5271 203.865 73.6878 203.632 73.6878 203.576C73.6878 203.557 73.9209 202.606 74.2007 201.468C74.9747 198.298 75.9445 195.267 76.933 192.917L77.2686 192.125L77.3526 184.683C77.4085 180.599 77.4738 177.27 77.5018 177.307C77.5298 177.335 77.6044 180.683 77.651 184.739ZM225.5 181.821H218.953L219.019 181.606C219.27 180.786 219.438 179.9 219.438 179.331V178.659L219.932 178.622C220.194 178.603 221.564 178.585 222.963 178.575L225.5 178.557V181.821ZM137.191 179.107C146.703 179.48 153.52 180.086 159.525 181.084C172.002 183.173 178.837 186.716 180.376 191.91C180.879 193.589 180.655 200.387 179.9 206.42C178.651 216.342 175.667 227.457 171.647 237.165C171.302 237.985 170.985 238.769 170.929 238.909L170.836 239.17H159.87C153.827 239.17 131.279 239.198 109.748 239.226L70.5919 239.281L70.7691 239.02C70.9276 238.769 70.9369 238.172 70.9836 224.669L71.0302 210.588L72.429 210.542C74.0235 210.486 74.182 210.43 74.5177 209.768C74.6297 209.553 74.9933 208.266 75.329 206.905C77.9121 196.508 80.3832 190.978 84.2158 187.005C88.9156 182.147 95.7509 179.778 106.699 179.21C111.781 178.948 131.345 178.883 137.191 179.107ZM259.266 180.571L259.489 180.813L259.517 197.282C259.527 206.336 259.517 213.722 259.489 213.694C259.461 213.666 259.396 209.367 259.349 204.145C259.191 187.863 259.079 181.177 258.967 180.963L258.855 180.758L258.687 180.972C258.492 181.214 258.23 181.177 258.23 180.907C258.23 180.664 258.575 180.329 258.827 180.329C258.939 180.329 259.135 180.44 259.266 180.571ZM72.028 182.632C72.8206 183.005 73.4361 183.62 73.8091 184.413C74.0795 184.972 74.1075 185.131 74.1075 185.877C74.1075 186.595 74.0702 186.791 73.8464 187.266C73.1563 188.758 71.8601 189.551 70.2842 189.448C69.0533 189.365 67.9063 188.609 67.3188 187.462C67.0391 186.94 67.0204 186.837 67.0204 185.924C67.0204 185.038 67.0484 184.889 67.2909 184.366C67.4587 184.003 67.7384 183.611 68.0368 183.331C68.8761 182.539 69.5568 182.278 70.6572 182.315C71.2726 182.343 71.5337 182.399 72.028 182.632ZM209.19 189.411C210.048 189.598 210.71 189.952 211.381 190.605C213.19 192.339 213.19 195.174 211.363 196.927C209.61 198.615 207.008 198.624 205.255 196.955C204.602 196.34 204.21 195.687 204.005 194.922C203.847 194.288 203.828 193.337 203.968 192.731C204.332 191.155 205.74 189.766 207.353 189.42C208.099 189.253 208.444 189.253 209.19 189.411ZM256.925 192.377C256.972 192.75 257.056 194.12 257.121 195.416C257.251 198.251 257.186 209.497 257.028 211.381C256.916 212.668 256.785 213.377 256.664 213.302C256.608 213.274 256.58 191.826 256.636 191.472C256.673 191.23 256.841 191.77 256.925 192.377ZM228.055 192.33C229.015 196.041 230.731 198.531 232.764 199.165C234.61 199.743 236.895 198.885 239.235 196.75C239.524 196.48 239.767 196.284 239.767 196.312C239.767 196.34 239.664 196.591 239.543 196.871C238.862 198.401 237.445 199.771 235.869 200.405C234.675 200.9 232.829 201.142 231.794 200.946C229.649 200.545 228.278 198.634 227.84 195.407C227.719 194.521 227.71 191.407 227.821 191.612C227.868 191.686 227.971 192.013 228.055 192.33ZM214.86 208.416C215.139 223.345 215.857 232.623 217.21 238.834C217.359 239.543 217.471 240.167 217.452 240.223C217.405 240.382 216.408 237.389 216.035 235.971C213.703 227.01 213.023 212.705 214.319 199.911L214.35 199.599C214.451 198.585 214.518 197.92 214.569 197.922C214.667 197.924 214.711 200.322 214.839 207.271L214.86 208.416ZM186.493 202.168C186.465 202.233 186.446 202.186 186.446 202.056C186.446 201.925 186.465 201.879 186.493 201.935C186.512 202 186.512 202.112 186.493 202.168ZM65.3792 205.907C66.6288 207.408 68.988 208.555 71.9534 209.096C72.5502 209.208 72.2704 209.218 69.0253 209.227C65.5937 209.236 65.4259 209.227 65.1275 209.05C64.5027 208.667 64.456 208.481 64.456 206.308V204.359L64.7358 204.909C64.885 205.208 65.1741 205.665 65.3792 205.907ZM239.953 207.381C247.647 207.502 249.129 207.576 245.595 207.679C242.434 207.772 227.933 207.772 222.982 207.688C218.077 207.595 218.692 207.492 224.754 207.381C231.356 207.269 233.071 207.269 239.953 207.381ZM217.713 213.666C217.834 217.694 217.918 219.867 218.086 223.504L218.133 224.483L217.993 223.83C217.778 222.804 217.499 220.184 217.377 218.095C217.238 215.67 217.359 208.901 217.536 209.078C217.555 209.087 217.629 211.157 217.713 213.666ZM250.873 211.306C251.451 213.283 252.468 214.635 253.633 215.027C254.202 215.214 255.209 215.102 255.918 214.766C256.272 214.598 256.701 214.356 256.878 214.216C257.233 213.945 257.27 213.964 257.074 214.356C256.85 214.785 256.142 215.353 255.573 215.568C254.92 215.81 253.671 215.988 253.158 215.894C251.955 215.698 251.181 214.85 250.817 213.321C250.668 212.714 250.509 210.635 250.612 210.635C250.64 210.635 250.761 210.943 250.873 211.306ZM234.452 211.176L235.617 211.241L234.312 211.297C233.594 211.334 232.167 211.362 231.141 211.372C227.663 211.4 227.01 211.53 226.274 212.341C225.593 213.097 225.565 213.255 225.49 216.277C225.416 219.074 225.378 219.41 224.921 220.799C224.334 222.618 222.898 224.716 221.536 225.77C221.247 225.993 221.313 225.909 221.779 225.406C222.935 224.184 223.812 222.785 224.325 221.349C224.893 219.755 224.949 219.335 225.024 216.277C225.08 213.526 225.089 213.47 225.322 212.966C225.761 212.024 226.488 211.4 227.448 211.129C227.896 210.999 231.971 211.027 234.452 211.176ZM67.1883 220.939C67.2069 227.756 67.1044 232.176 66.9458 231.01C66.8246 230.143 66.8059 214.029 66.9272 212.826L67.0111 211.894L67.095 213.293C67.1323 214.057 67.179 217.498 67.1883 220.939ZM70.4707 227.383L70.536 237.267L70.3308 237.706C69.9765 238.47 69.305 238.89 68.4658 238.89C68.0182 238.89 67.9902 238.871 68.0182 238.675C68.0462 238.498 68.1208 238.461 68.5684 238.414C69.1839 238.349 69.5662 238.107 69.8832 237.603L70.0977 237.258L70.1909 224.856C70.2562 216.379 70.3028 213.246 70.3401 214.971C70.3681 216.351 70.4334 221.937 70.4707 227.383ZM274.596 219.214C276.974 219.373 280.657 219.969 281.133 220.277C281.375 220.445 281.543 221.07 281.534 221.75C281.515 222.599 281.394 222.776 281.385 221.965C281.375 221.116 281.198 220.566 280.872 220.426C280.62 220.324 278.428 220.016 276.554 219.82C275.034 219.662 271.584 219.634 270.278 219.773C269.784 219.829 268.6 220.007 267.649 220.165C266.138 220.426 265.718 220.464 264.245 220.454C263.322 220.454 262.38 220.408 262.147 220.352C261.793 220.277 261.951 220.258 263.126 220.249C264.777 220.24 265.625 220.146 267.49 219.773C269.243 219.419 270.978 219.205 272.684 219.139C272.917 219.13 273.775 219.167 274.596 219.214ZM65.1554 232.083C65.3885 232.306 65.631 232.801 65.5471 232.885C65.5191 232.912 65.3979 232.875 65.2767 232.791C64.9316 232.549 64.3441 232.595 64.0644 232.894C63.6727 233.323 63.5608 233.603 63.2531 235.001C63.2251 235.141 63.1972 234.703 63.1972 234.022C63.2065 232.623 63.2997 232.316 63.8313 231.98C64.2136 231.738 64.8384 231.784 65.1554 232.083ZM76.0564 239.599C76.1776 239.72 76.2056 239.981 76.1963 241.109C76.187 242.21 76.1683 242.405 76.0937 242.107C75.7487 240.699 75.3477 239.962 74.7415 239.645L74.3872 239.459L75.1519 239.449C75.7207 239.449 75.9445 239.487 76.0564 239.599ZM73.7158 241.865L73.7345 243.459H73.3428C73.0537 243.459 72.9418 243.422 72.9418 243.329C72.9418 243.123 72.6714 242.9 72.4196 242.9C72.2144 242.9 72.1958 242.862 72.1958 242.433C72.1958 242.023 72.2238 241.967 72.3917 241.967C72.4942 241.967 72.5502 241.92 72.5222 241.874C72.4476 241.753 72.8486 241.753 73.0351 241.874C73.147 241.939 73.1097 241.967 72.8952 241.976L72.6155 241.986L72.8859 242.06C73.0351 242.107 73.2496 242.238 73.3708 242.349L73.5946 242.555V241.361C73.5946 240.699 73.6226 240.186 73.6505 240.214C73.6785 240.242 73.7065 240.988 73.7158 241.865ZM71.4965 240.988C71.7016 241.184 71.7296 241.296 71.7296 241.93V242.648L71.3193 242.266C70.5546 241.557 69.4822 241.137 67.897 240.904L67.0204 240.774L71.2727 240.755L71.4965 240.988ZM73.4081 240.904C73.4081 240.979 72.774 241.221 72.5595 241.221C72.2611 241.221 72.3917 241.128 72.9139 240.988C73.0233 240.959 73.127 240.929 73.2095 240.906C73.2542 240.893 73.2928 240.882 73.3226 240.874C73.3599 240.863 73.3838 240.857 73.3894 240.857C73.3988 240.848 73.4081 240.867 73.4081 240.904ZM72.2797 241.613C72.2891 241.762 72.2518 241.874 72.1958 241.874C72.1492 241.874 72.1026 241.678 72.1119 241.426C72.1119 241.1 72.1399 241.035 72.1958 241.174C72.2425 241.277 72.2797 241.473 72.2797 241.613ZM70.7505 242.9C70.7132 242.956 69.8925 242.993 68.6057 242.993C67.3188 242.993 66.4982 242.956 66.4609 242.9C66.4236 242.834 67.1603 242.806 68.6057 242.806C70.0511 242.806 70.7878 242.834 70.7505 242.9ZM72.6434 243.217C72.8113 243.385 72.7087 243.702 72.4756 243.767C72.3264 243.804 72.3077 243.785 72.3823 243.646C72.5129 243.394 72.5036 243.385 72.1772 243.17L71.8695 242.974L72.1958 243.03C72.373 243.067 72.5782 243.151 72.6434 243.217ZM67.5706 243.198C67.2256 243.795 67.1696 243.832 66.5728 243.832L65.9947 243.823L66.4516 243.599C66.7034 243.478 66.9552 243.31 66.9925 243.235C67.0391 243.151 67.1976 243.086 67.3561 243.086C67.552 243.086 67.6172 243.123 67.5706 243.198ZM75.5808 243.524C75.3104 243.543 74.8535 243.543 74.5551 243.524C74.2567 243.506 74.4804 243.496 75.0399 243.496C75.6088 243.496 75.8512 243.506 75.5808 243.524Z" fill="#FBAB9A"/>
</g>
</g>
<defs>
<filter id="filter0_d" x="0" y="0" width="292" height="329" filterUnits="userSpaceOnUse" color-interpolation-filters="sRGB">
<feFlood flood-opacity="0" result="BackgroundImageFix"/>
<feColorMatrix in="SourceAlpha" type="matrix" values="0 0 0 0 0 0 0 0 0 0 0 0 0 0 0 0 0 0 127 0"/>
<feOffset/>
<feGaussianBlur stdDeviation="10"/>
<feColorMatrix type="matrix" values="0 0 0 0 1 0 0 0 0 0.566083 0 0 0 0 0.470833 0 0 0 1 0"/>
<feBlend mode="normal" in2="BackgroundImageFix" result="effect1_dropShadow"/>
<feBlend mode="normal" in="SourceGraphic" in2="effect1_dropShadow" result="shape"/>
</filter>
<filter id="filter1_d" x="10" y="33.9719" width="292.263" height="339.056" filterUnits="userSpaceOnUse" color-interpolation-filters="sRGB">
<feFlood flood-opacity="0" result="BackgroundImageFix"/>
<feColorMatrix in="SourceAlpha" type="matrix" values="0 0 0 0 0 0 0 0 0 0 0 0 0 0 0 0 0 0 127 0"/>
<feOffset/>
<feGaussianBlur stdDeviation="10"/>
<feColorMatrix type="matrix" values="0 0 0 0 0.975 0 0 0 0 0.581912 0 0 0 0 0.495625 0 0 0 0.4 0"/>
<feBlend mode="normal" in2="BackgroundImageFix" result="effect1_dropShadow"/>
<feBlend mode="normal" in="SourceGraphic" in2="effect1_dropShadow" result="shape"/>
</filter>
<clipPath id="clip0">
<rect width="249" height="263" fill="white" transform="translate(23 46)"/>
</clipPath>
</defs>
</svg>
